<svg id="Layer_1" data-name="Layer 1" xmlns="http://www.w3.org/2000/svg" viewBox="0 0 20 20"><title>icons</title><path d="M9.13,10.43s.91,1.43,2.53-.33l7.54-6.85s.93-.86-.57-.93h-17s-1.06,0-.53.77Z"/><path d="M20,14.8V5.27c-.21-1.44-1-.44-1-.44L13.68,10c-.47.45.36.85.36.85l4.74,4.34C20,16.45,20,14.8,20,14.8"/><path d="M18.88,16.63l-6.56-5.39a4.16,4.16,0,0,1-2.25,1.05,4.13,4.13,0,0,1-2.23-1.05L1.28,16.63c-.86.59.2,1.06.2,1.06H18.67s1.07-.47.21-1.06"/><path d="M0,14.58V5.48c.22-1.37,1.1-.43,1.1-.43L6.85,10c.5.43-.39.81-.39.81L1.32,14.94C0,16.16,0,14.58,0,14.58"/></svg>