<svg id="Layer_1" data-name="Layer 1" xmlns="http://www.w3.org/2000/svg" viewBox="0 0 54.07 47.96"><defs><style>.cls-1{fill:#bc0033;}.cls-2{fill:#fff;}</style></defs><title>select</title><path class="cls-1" d="M0,24l6.07-6.07V5a5,5,0,0,1,5-5h38a5,5,0,0,1,5,5V43a5,5,0,0,1-5,5h-38a5,5,0,0,1-5-5V30.07Z" transform="translate(0 -0.02)"/><path class="cls-2" d="M36.74,21.38a.84.84,0,0,0-.62-.26H23.88a.87.87,0,0,0-.62,1.49l6.13,6.13a.86.86,0,0,0,1.23,0l6.12-6.13a.86.86,0,0,0,0-1.23Zm0,0" transform="translate(0 -0.02)"/></svg>