<svg id="Layer_1" data-name="Layer 1" xmlns="http://www.w3.org/2000/svg" viewBox="0 0 20 20"><title>icons</title><path d="M.55,16.81A1.87,1.87,0,0,0,3.2,19.45L9.35,13.3,6.7,10.65Zm0,0"/><path d="M15.92,5.4,18.6,4,20,1.31,18.7,0,16,1.4,14.6,4.08,11.34,7.34l1.32,1.32Zm0,0"/><path d="M16.51,12.51l-.25,0a3.72,3.72,0,0,0-1.3.24L7.27,5a3.68,3.68,0,0,0,.24-1.3l0-.25A3.72,3.72,0,0,0,2.16.37L4.65,2.87a1.14,1.14,0,0,1,.28.44A1.24,1.24,0,0,1,3.77,5a1.14,1.14,0,0,1-.43-.08,1.18,1.18,0,0,1-.45-.28L.4,2.14A3.66,3.66,0,0,0,0,3.74,3.74,3.74,0,0,0,3.51,7.47l.26,0a3.8,3.8,0,0,0,1.29-.24l7.69,7.69a3.76,3.76,0,0,0-.24,1.29l0,.26A3.74,3.74,0,0,0,16.26,20a3.65,3.65,0,0,0,1.6-.38l-2.49-2.49a1.3,1.3,0,0,1-.29-.44A1.25,1.25,0,0,1,16.26,15a1.32,1.32,0,0,1,.88.37l2.49,2.49a3.72,3.72,0,0,0-3.12-5.33Zm0,0"/></svg>