<svg id="Layer_1" data-name="Layer 1" xmlns="http://www.w3.org/2000/svg" viewBox="0 0 200 200"><defs><style>.cls-1{fill:#9c9e9f;}</style></defs><title>marcas_</title><path class="cls-1" d="M174.43,89.32a75,75,0,1,0-123.34,67A70.06,70.06,0,0,1,68.85,142a51.55,51.55,0,0,1-18.51-26.19C46.61,105.51,47,94,50.23,83.65A52.8,52.8,0,0,1,89,48.43c21.45-5,46.09,5.18,56.38,24.9-3-1.72-6.16-5.56-10-3.39-6.28,3.35-8.15,11-9.43,17.41l-.34,1.13a36.06,36.06,0,0,0-7.87-6c-.7-.39-2.08-1.18-2.78-1.58l1.43-.29A26.06,26.06,0,0,0,92.22,67.34,26.48,26.48,0,0,0,71.09,79.45c-.88,1.91-3.47,3.75-2,6.05-5.52,3.84-9.58,9.34-13.07,15,7.66-.44,15.34-.25,23-.11,6.51,1.48,13,3.19,19.49,4.68,4.09,4.58,12.4,1.53,12.33-4.67l5.94.18c-1.43,8.44-6.29,15.66-8.84,23.7-.79,1.71-1.56,3.44-2.28,5.19a92.82,92.82,0,0,1-16.19-8.66,75.07,75.07,0,0,0,15.39,13.85c-.83,9.26,9.76,13,17.33,12.39l-.9,1c-3,1-6,2-9,2.84-9.71,2.84-19.76.9-29.47-.69-.83-.63-1.66-1.23-2.5-1.83a59.51,59.51,0,0,1-7.76-3.94c-1.09,3.57-2.22,7.13-3.3,10.72l-1.21.52c-3.51,2.14-1.52,7.33-2.26,10.78l2.32,1a65.08,65.08,0,0,0,1.39-8c10.08-.2,20.19-.34,30.26.07.35,5.05,0,10.13.26,15.19A76.46,76.46,0,0,0,131.32,168a17.83,17.83,0,0,0,3.6-2c-1.18-3.53.71-8.75-3.27-10.72-.54-1-1-2.08-1.46-3.15q-1-3.09-1.95-6.18c2-.69,4-1.44,6-2.3a67.82,67.82,0,0,1,15.06,12.68C168.25,140.1,178.15,114,174.43,89.32Zm-68.77,9.53c-2.75,2.79-6.74-2.71-3.2-4.32C105.11,92.82,108.38,96.78,105.65,98.85Zm40.73-3.08c1.9.25,1.81,3.74,0,4C144.73,99.25,144.59,96.18,146.38,95.77Zm9.47,32.83c-5.35.94-10.33,3.34-15.74,4a71.11,71.11,0,0,1-20.89.19c-.21-.8-.61-2.42-.81-3.23,2.81-6.59,7.58-12.29,9.3-19.34a32.54,32.54,0,0,0,.54-12.66c-.59-3-1.48-5.87-2.31-8.77A119,119,0,0,1,137.84,101l4.42-.44,1.31,1.64c.61,1.45,1.43,3.58,3.41,3.1,1.58-1,1.95-2.91,2.84-4.39l1.67-.24.9.45c1,5.09-.84,10.44-2.4,15.3,2.53,3.5,5.2,6.89,7.5,10.56Z"/></svg>