<svg id="Layer_1" data-name="Layer 1" xmlns="http://www.w3.org/2000/svg" xmlns:xlink="http://www.w3.org/1999/xlink" viewBox="0 0 200 200"><defs><style>.cls-1{fill:url(#radial-gradient);}.cls-2{fill:#6681b9;}.cls-3{fill:#fff;}.cls-4{fill:#040308;}</style><radialGradient id="radial-gradient" cx="43.51" cy="83.72" r="98.49" gradientTransform="translate(26.52 -9.31)" gradientUnits="userSpaceOnUse"><stop offset="0" stop-color="#fff"/><stop offset="0.5" stop-color="#4d6996"/><stop offset="1" stop-color="#1d1c1a"/></radialGradient></defs><title>marcas_</title><ellipse class="cls-1" cx="100" cy="100" rx="75" ry="39.45"/><ellipse class="cls-2" cx="100" cy="100" rx="72.07" ry="36.52"/><path class="cls-3" d="M114.6,111.8l3.58-18.4c.81-4.15.14-7.25-2-9.21s-5.56-2.81-10.7-2.81H99.28l1.77-9.12a1.17,1.17,0,0,0-1.15-1.4H91.36a1.17,1.17,0,0,0-1.15.95l-3.8,19.53a11,11,0,0,0-2.56-5.65c-2.51-2.87-6.47-4.32-11.78-4.32H55.51a1.17,1.17,0,0,0-1.15.95l-7.68,39.54a1.17,1.17,0,0,0,1.15,1.4h8.61a1.17,1.17,0,0,0,1.15-.95l1.86-9.56h6.41a27.68,27.68,0,0,0,8.4-1.08A16.43,16.43,0,0,0,80.42,108a19,19,0,0,0,3.64-4.52l-1.54,7.9a1.17,1.17,0,0,0,1.15,1.4h8.54a1.17,1.17,0,0,0,1.15-.95l4.22-21.7h5.86c2.5,0,3.23.5,3.43.71s.56.88.14,3.05l-3.4,17.49a1.17,1.17,0,0,0,1.15,1.4h8.68A1.17,1.17,0,0,0,114.6,111.8ZM75,96.6c-.54,2.76-1.55,4.73-3,5.85s-3.85,1.72-7,1.72H61.12L63.88,90h4.94c3.63,0,5.09.78,5.67,1.42C75.3,92.29,75.47,94.1,75,96.6Z"/><path class="cls-3" d="M151.14,85.71c-2.51-2.87-6.47-4.32-11.78-4.32H122.79a1.17,1.17,0,0,0-1.15.95L114,121.87a1.17,1.17,0,0,0,1.15,1.4h8.61a1.17,1.17,0,0,0,1.15-.95l1.86-9.56h6.41a27.68,27.68,0,0,0,8.4-1.08A16.43,16.43,0,0,0,147.7,108a18.35,18.35,0,0,0,5.77-10.32C154.45,92.62,153.66,88.6,151.14,85.71Zm-8.93,10.9c-.54,2.76-1.55,4.73-3,5.85s-3.85,1.72-7,1.72h-3.82L131.1,90H136c3.63,0,5.09.78,5.67,1.42C142.52,92.29,142.69,94.1,142.21,96.6Z"/><path class="cls-4" d="M68.81,88.79q4.91,0,6.54,1.81t.78,6.22q-.89,4.59-3.44,6.55t-7.76,2H59.69l3.22-16.55Zm-21,33.3h8.61l2-10.51h7.38a26.4,26.4,0,0,0,8-1,15.21,15.21,0,0,0,5.73-3.44A17.18,17.18,0,0,0,85,97.43q1.37-7-2.06-11t-10.9-3.92H55.51Z"/><path class="cls-4" d="M91.36,72h8.54l-2,10.51h7.61q7.18,0,9.91,2.51T117,93.18l-3.58,18.4h-8.68l3.4-17.49q.58-3-.43-4.07t-4.29-1.09H96.62l-4.4,22.65H83.68Z"/><path class="cls-4" d="M136,88.79q4.91,0,6.54,1.81t.78,6.22q-.89,4.59-3.44,6.55t-7.76,2h-5.24l3.22-16.55Zm-21,33.3h8.61l2-10.51h7.38a26.4,26.4,0,0,0,8-1,15.21,15.21,0,0,0,5.73-3.44,17.18,17.18,0,0,0,5.41-9.68q1.37-7-2.06-11t-10.9-3.92H122.74Z"/></svg>