<svg id="Layer_1" data-name="Layer 1" xmlns="http://www.w3.org/2000/svg" viewBox="0 0 200 200"><defs><style>.cls-1{fill:#9c9e9f;}</style></defs><title>marcas_</title><path class="cls-1" d="M174.83,95a73.75,73.75,0,0,0-20.4-46.14c1.12-.84,2.25-1.67,3.38-2.48.4-.87.54-1.87.9-2.77-3.32-.21-6.67-.05-10-.22-1.66-1.18-3.17-2.56-4.86-3.7A75,75,0,0,0,106.5,26a29.6,29.6,0,0,0-4.45-.24c-1.84.18-3.68-.1-5.52,0a94.4,94.4,0,0,0-9.38,1.07A74.46,74.46,0,0,0,25,97.8c.3,2.39-.2,4.79.17,7.17a73.46,73.46,0,0,0,13.32,37.54,75.13,75.13,0,0,0,56.65,31.64c2.22.41,4.46-.13,6.68.12a26.25,26.25,0,0,0,4.16-.21,74.53,74.53,0,0,0,69-71.57C174.77,100,175.2,97.5,174.83,95Zm-28-37.68a52.77,52.77,0,0,0-1.94,7.18c-.51,2.35-.77,4.74-1.11,7.12-.64,5.37-1,10.76-1.4,16.15-.09,1.31-.22,2.63-.33,3.94s-.23,2.75-.4,4.12c-.1,1.07-.21,2.14-.36,3.2s-.32,2.29-.48,3.44h0c-.1,1.08-.3,2.14-.48,3.21h0a58.29,58.29,0,0,1-1.43,6.07l-.06,0a8.28,8.28,0,0,1-.61,1.94,29.1,29.1,0,0,1-1.82,4.66,5.49,5.49,0,0,0-3.89,1.65,12.81,12.81,0,0,0-3.28,7.27c-.09.79-.95,1.09-1.49,1.53-3.25,2-6.42,4.21-9.72,6.17v.08c-1.25.74-2.43,1.59-3.67,2.33-.44-.06-.74-.43-1.1-.64l.07-.07c-.46-.19-.93-.37-1.4-.54l.11-.06a20.47,20.47,0,0,0-2.83-.78c3.31-2.08,6.76-4,10-6.2v-.06c1.81-1.33,3.68-2.58,5.47-3.93a23.56,23.56,0,0,0,4.46-5.41H129a16.76,16.76,0,0,0,1.75-5.85c.09-.86.19-1.71.29-2.56.15-1.47.46-2.91.72-4.36a79.87,79.87,0,0,1-8.19,2.77c-1.19.3-2.36.68-3.57.89-1.48.36-3,.69-4.47.94a119.52,119.52,0,0,1-11.95,1.55c-1.95.16-3.9.35-5.86.34l-.63,0c-.49.46-1,.92-1.46,1.39l-.46-.34a9.39,9.39,0,0,1-3.16,2.4c-.15.28-.3.56-.46.84l-.46.3c.49-1.44,1.13-2.84,1.6-4.3-3.65.27-7.3.51-11,.49a25.5,25.5,0,0,1-15.29-4.38,9.94,9.94,0,0,1-2-3.25A90.79,90.79,0,0,1,60,92.22,42.27,42.27,0,0,1,59.14,88a39.78,39.78,0,0,1-.93-7.66A7,7,0,0,1,59,76.58a31.13,31.13,0,0,1,11-9.65c7-3.91,14.79-6.23,22.53-8.26a24,24,0,0,1,3.46-.78c.94-3.24,2.09-6.52,4.31-9.13a16.37,16.37,0,0,1,10.83-5.69,13.16,13.16,0,0,0-5.51,3.22,13.68,13.68,0,0,0-3.48,6.37,36,36,0,0,0-.48,5.08,3.78,3.78,0,0,0,1.75.17c5.91-.29,11.83-.16,17.73.12a54.76,54.76,0,0,1,9.93,1.4c.95.33,2.15.65,2.45,1.75-4.05-.19-8.1-.46-12.17-.41l-.24-.15c-3.78,0-7.56,0-11.34,0a2.58,2.58,0,0,0-1.38.21c-2.32.11-4.64,0-7,.13-.56-.07-.77.56-.94,1-.78,2.18-1.28,4.45-1.93,6.67a30.52,30.52,0,0,1-1.71,5.31c-.44.28-.5-.4-.56-.68-.51-3.83-.19-7.73-.87-11.54-10,1.52-20,5.06-27.51,12-1.21,1.19-2.85,2.36-3,4.21.27,1.7,2.14,2.31,3.56,2.76,4.71,1.24,9.64,1.12,14.47,1,.34,1.32.67,2.65,1,4,1,4.33,2.09,8.64,3.13,13,.58,2.59,1.41,5.14,1.76,7.77a3.83,3.83,0,0,1,.31,1.08,10.37,10.37,0,0,0,.07-1.48L89,106c-.07-.63-.12-1.25-.17-1.88-.3-1.43-.48-2.9-.67-4.35C87.5,95.39,86.9,91,86.23,86.68a2.9,2.9,0,0,1-.05-1.29l-.15,0c-.2-1.32-.43-2.63-.55-4,1-.07,2.06-.17,3.09-.25.26,1.11.47,2.24.72,3.36l.06,0c0,.43.08.87.17,1.29.83,4,1.65,8,2.49,12,.26,1.3.59,2.58.8,3.89a43.93,43.93,0,0,1,.87,4.39c-.09-3.1-.74-6.15-.88-9.25-.59-3.93-.91-7.91-1.41-11.86l0-.25.12-.16-.19-.05A32.59,32.59,0,0,1,90.92,81a17.84,17.84,0,0,1,3.25-.36c.14,1.05.35,2.09.49,3.14h0c.69,4.3,1.47,8.6,2.21,12.89.46,2.88,1.11,5.73,1.43,8.63v-.21c0-2.72-.39-5.44-.57-8.16-.34-4.5-.67-9-1.09-13.51-.11-1.05-.12-2.12-.24-3.18,1.11-.18,2.22-.4,3.34-.47.06.64.15,1.29.23,1.93.63,4.86,1.33,9.71,2,14.57.31,2.06.56,4.13.89,6.18a8.15,8.15,0,0,1,.09,2l.15.05c0-.17,0-.51,0-.69-.11-2.8-.21-5.61-.37-8.41-.17-4.69-.4-9.38-.62-14.07-.07-.68,0-1.37-.06-2.06l3.3-.65c.07.46.16.92.2,1.38.4,4.85,1,9.69,1.45,14.54h0c.2,2.67.59,5.31.78,8a4.21,4.21,0,0,1,.27,1.31,24.55,24.55,0,0,1-.17-3.52c0-1.82-.06-3.63,0-5.45-.08-4.74-.06-9.48-.17-14.23a23,23,0,0,1,0-2.51c1.16-.26,2.31-.54,3.46-.82,0,.56.09,1.12.12,1.68.1,2.33.32,4.65.42,7,.17,2.74.47,5.48.51,8.22l0-.11a67.48,67.48,0,0,1,.37,6.89,3,3,0,0,1,.06,1.15l.06.13c0-1,.17-2,.2-3,0-1.57.07-3.13.12-4.7q.1-3.79.19-7.57c.05-2.72.17-5.44.2-8.16,0-.68,0-1.36,0-2,1.18-.37,2.37-.69,3.56-1,0,.61.05,1.23.07,1.84.08,3.8.22,7.59.34,11.39.05,1.91.1,3.81.19,5.72.05,1.26.11,2.53.13,3.79.05.68.14,1.37.21,2.05,0-.12,0-.36,0-.48-.06-1.74.16-3.46.25-5.19.35-6.1.82-12.2,1.09-18.31.08-.51-.1-1.17.23-1.6,1.15-.45,2.34-.8,3.51-1.23,0,.47,0,.93,0,1.4-.08,2.15,0,4.3-.09,6.45,0,2.37,0,4.74,0,7.12.05,2.07,0,4.15,0,6.22a29.22,29.22,0,0,1-.16,4.8l.3.52c-.29-1.68.37-3.4.33-5.11l.08,0c.32-4.2.8-8.38,1.17-12.57.24-2.84.6-5.67.8-8.52,0-.43.1-.87.18-1.29,1.26-.45,2.47-1.05,3.74-1.49l-.13.78c-.08,2.43-.21,4.86-.28,7.29l0,0c0,2.21-.18,4.42-.23,6.63l0,0c-.1,2.91-.2,5.81-.35,8.72a37,37,0,0,1-.18,4.13h.18a22.34,22.34,0,0,1,.42-3.81c.49-3.79,1-7.58,1.49-11.37.37-2.67.72-5.35,1.08-8,.22-1.9.56-3.8.7-5.71,1.26-.68,2.56-1.29,3.81-2-.12,1.6-.22,3.21-.38,4.81-.18,2.5-.35,5-.59,7.49-.36,5.32-.84,10.63-1.18,15.95,0,.35.05.7.08,1,0-.24.07-.48.11-.72.88-6.17,2-12.29,3-18.45.46-2.75.93-5.49,1.38-8.24.33-2,.64-3.93,1-5.89l.08,0a25.59,25.59,0,0,1,1.54-4.48,29.6,29.6,0,0,1,3.14-6.31A11.53,11.53,0,0,1,146.77,50a16.57,16.57,0,0,1,6.72-2.8A23.15,23.15,0,0,0,146.78,57.34Zm2.35-.73a20.67,20.67,0,0,1,2.33,6.51c.11.64.21,1.28.29,1.93a18,18,0,0,1,0,5,29.16,29.16,0,0,1-.57,3.39c-.28,1.25-.81,2.41-1.19,3.62a20.66,20.66,0,0,1-2.44,4.14,4.21,4.21,0,0,1-2.86,1.5c.17-2.32.33-4.65.57-7,.13-1.3.26-2.6.39-3.9l.09,0a27.81,27.81,0,0,1,.43-3.6c.18-1.12.39-2.24.58-3.35l.07,0A37.65,37.65,0,0,1,149.14,56.61Zm-8.54,70.51a10.22,10.22,0,0,1-2.22,6.37,3.47,3.47,0,0,1-3.11,1.33,4.1,4.1,0,0,1-2.81-2.63,11.21,11.21,0,0,1-.05-7.95,6.18,6.18,0,0,1,3.3-3.87A3,3,0,0,1,139,121.5,8.76,8.76,0,0,1,140.59,127.12Zm-27.72,24.08a5.75,5.75,0,0,1-4.44,2.18,4.86,4.86,0,0,1-3.94-2.93,10.66,10.66,0,0,1-.05-8.3,8.54,8.54,0,0,1,4.41-4.91,4.26,4.26,0,0,1,4.29.69,7.42,7.42,0,0,1,2.33,5.24A11.29,11.29,0,0,1,112.87,151.21Zm-10.56-12.06c-.19.29-.37.59-.56.88a16.93,16.93,0,0,0-2.22,5.54,38,38,0,0,1-4.54.57,66.82,66.82,0,0,1-9.9.2c-2-.08-4.06-.29-6.1-.38l.07-.08c1.18-1.39,2.7-2.51,3.46-4.22.94.07,1.89,0,2.83.17A45.79,45.79,0,0,0,102.31,139.15ZM58.24,116a3.75,3.75,0,0,1-1.39.82,33.06,33.06,0,0,0-3.79,2c-1.43.82-3,1.45-4.4,2.24-.48.21-1,.62-1.51.34a17.48,17.48,0,0,1-3.19,2c-1-.34-2.21-.71-2.49-1.84L41,121.2l.32-.6a23.87,23.87,0,0,1-3-1.94,15.49,15.49,0,0,1-1.36-3.6c-.26-.91-.54-1.81-.77-2.73-.33-1.45-.65-2.9-.83-4.37a94.85,94.85,0,0,1-.86-10c-.33-2.66.2-5.34.52-8a35.29,35.29,0,0,1,.76-4.17,51.39,51.39,0,0,1,1.56-6c.17-.54.34-1.08.52-1.62A25.56,25.56,0,0,1,39.65,73,61,61,0,0,1,48,58.7,63.89,63.89,0,0,1,81.37,36.38c1.83-.46,3.66-.9,5.51-1.23a69.77,69.77,0,0,1,29.92,1.43,47,47,0,0,1,6.57,2,65.31,65.31,0,0,1,9.53,4.56c-6.28-.07-12.57-.07-18.84-.28l-.24-.43c-.2-.26-.26-.76-.68-.75-1.19-.1-2.38-.24-3.58-.27a17.84,17.84,0,0,0-11.44,7.07,26.3,26.3,0,0,0-3.52,7.69,130.48,130.48,0,0,0-19.38,6.14,46.57,46.57,0,0,0-14,8.65c-2,2.14-4.34,4.31-4.81,7.32a31.8,31.8,0,0,0,.36,7.77c.32,2,.71,4,1.15,6,.43,1.77.87,3.55,1.35,5.3.37,1.25.75,2.49,1.1,3.75l.06,0c.46,1.61,1.08,3.17,1.62,4.75h.06c1,2.21,1.84,4.78,4.08,6-2.43,1.47-5,2.6-7.57,3.89-.06-1.22-.08-2.43-.1-3.64l-.37.29A10.16,10.16,0,0,1,58.24,116Zm77-55.81A4.59,4.59,0,0,0,132.73,58c-3-1.18-6.27-1.3-9.43-1.75-6-.37-12-.4-18-.33-.52.07-1.06.08-1.58.09a12.64,12.64,0,0,1,1.39-5.74c1.08.95,2.57.76,3.88.67,3,.07,5.93.25,8.9.34,5.12.22,10.25.4,15.37.65,3,.06,6,.25,9,.33A50.11,50.11,0,0,0,138.94,59a41.66,41.66,0,0,0-2,6.89,4,4,0,0,0-2.35.45,69.87,69.87,0,0,1-10.11,4.82,6.6,6.6,0,0,1-2.5.9,140.25,140.25,0,0,1-25.19,6.23c0-.14,0-.43,0-.57a1.14,1.14,0,0,0,.6-.6h0c.7-2.55,1.65-5,2.43-7.54l0,0q1.11-3.52,2.34-7a140,140,0,0,1,18.15-.24c5,.08,10,.47,14.93.83l.21-.09C135.5,62.14,135.4,61.14,135.28,60.15ZM96.66,78.39A129,129,0,0,1,78,79.86a22.51,22.51,0,0,1-3.51-.21,20.48,20.48,0,0,1-5.76-.89,8.15,8.15,0,0,1-1.88-.93c.39-1.19,1.46-1.91,2.31-2.74,6.67-6.18,15.45-9.62,24.31-11.19.23,1.76.54,3.52.77,5.29a12.12,12.12,0,0,1,.28,2.31l.09-.07c.33,2.21.57,4.45,1,6.64A1.33,1.33,0,0,1,96.66,78.39Zm55.56-32.81c-.8.43-1.72.57-2.54.94s-1.64.84-2.49,1.19A35.39,35.39,0,0,0,143,50.54c-11.35-.44-22.7-.94-34.05-1.37-.88-.09-2.09.49-2.72-.37a3.79,3.79,0,0,1,.45-1.16,9.65,9.65,0,0,1,4.22-2.7,12.45,12.45,0,0,1,4.17-.26c2.68,0,5.36.27,8,.23,3.32,0,6.63.13,9.94.27,3.69,0,7.37.06,11.06.25C146.83,45.51,149.52,45.42,152.22,45.57Zm16.15,78.05A71.45,71.45,0,0,1,152,149.89a72.5,72.5,0,0,1-28,17.8,73.46,73.46,0,0,1-40.67,2.09,72.4,72.4,0,0,1-33.7-18.35A71.17,71.17,0,0,1,34,70.44,72.37,72.37,0,0,1,76.73,32.09,73.19,73.19,0,0,1,132.6,36a68.65,68.65,0,0,1,11.8,7.43c-2.82-.13-5.66,0-8.48-.19a77.62,77.62,0,0,0-11.56-6,57.42,57.42,0,0,0-22.28-4.71c-2.47,0-5-.25-7.4.27-1.76.37-3.53.63-5.31.86A67.47,67.47,0,0,0,36.5,77.34a21.68,21.68,0,0,0-1,3.09,60.27,60.27,0,0,0-2.8,14.33A66.34,66.34,0,0,0,32.6,103a64.67,64.67,0,0,0,1.48,11.22,47,47,0,0,0,1.5,5.85A62.34,62.34,0,0,0,38,126.56a67.18,67.18,0,0,0,13.16,19.93,60.28,60.28,0,0,0,7.13,6.5,68.6,68.6,0,0,0,7.25,5A67.28,67.28,0,0,0,88,166.38a67.31,67.31,0,0,0,76.62-47.31,63.58,63.58,0,0,0,1.61-6.83c.27-1.31.46-2.65.62-4,.25-2,.34-4.11.49-6.17a87.09,87.09,0,0,0-.83-13.58c-.09-.64-.2-1.29-.31-1.94a61.23,61.23,0,0,0-2.25-8.71,62.22,62.22,0,0,0-2.9-6.93c-.65-1.36-1.43-2.66-2.15-4a28.06,28.06,0,0,0-3-4.73c-2-2.37-3.81-5-6-7.23l-.06-.07a22.94,22.94,0,0,1,2.75-4.18,71.21,71.21,0,0,1,15.75,72.88Z"/><path class="cls-1" d="M137.54,123.53a2.64,2.64,0,0,0-2,1c.55,0,1.18-.31,1.65.11a3.8,3.8,0,0,1,1,3.31,3.73,3.73,0,0,1-1.61,2.94c-.66.38-1.29-.1-1.82-.45a3.13,3.13,0,0,0,1.72,1.8,2.37,2.37,0,0,0,2.35-1.3,6.73,6.73,0,0,0,.62-5.53A2.56,2.56,0,0,0,137.54,123.53Z"/><path class="cls-1" d="M111.21,140.66a4.19,4.19,0,0,0-2.42,1.31,2.27,2.27,0,0,1,2.73.34,4.62,4.62,0,0,1-1.29,6.53,2.07,2.07,0,0,1-2.61-.59,3.53,3.53,0,0,0,1.54,2,3,3,0,0,0,3.51-.85,6.64,6.64,0,0,0,1.41-6.56A3,3,0,0,0,111.21,140.66Z"/></svg>