<svg id="Layer_1" data-name="Layer 1" xmlns="http://www.w3.org/2000/svg" viewBox="0 0 200 200"><defs><style>.cls-1{fill:#9c9e9f;}</style></defs><title>marcas_</title><path class="cls-1" d="M25,48.84c8,8.57,19.73,12,30.88,14.17,21.69,4.28,43.85,2.18,65.79,2.56,13.21.36,26.48-.08,39.64,1.52,3.9.67,8.15,1.05,11.42,3.5a6.1,6.1,0,0,1,1.57,7.65c-2.25,5-6.79,8.3-10.68,11.92q-12.67,11.78-25.48,23.4c-3,2.68-5.83,6.26-10.21,6.53a13.11,13.11,0,0,1,2.94-5.3c7.33-8.65,15.13-16.88,22.68-25.33,1.63-1.8,3.27-4.57,1.59-6.88-2.75-3.43-7.46-4.28-11.59-4.77-21-2.06-42.16-.33-63.21-1.64-12.22-1.39-24.71-2.88-36.1-7.81A44.32,44.32,0,0,1,27.86,55.67,12.45,12.45,0,0,1,25,48.84Z"/><path class="cls-1" d="M61,128.74c6.13-2.38,13.69,1.63,15.1,8.06,1.74,6.11-2.64,13-8.87,14.09A11.53,11.53,0,0,1,61,128.74Z"/><path class="cls-1" d="M108.92,128.75a11.64,11.64,0,0,1,15,7.51c2.1,6.19-2.25,13.43-8.63,14.6a11.58,11.58,0,0,1-13.33-7.42C99.67,137.71,103.1,130.68,108.92,128.75Z"/></svg>