<svg id="Layer_1" data-name="Layer 1" xmlns="http://www.w3.org/2000/svg" viewBox="0 0 200 200"><defs><style>.cls-1{fill:#9c9e9f;}.cls-2{fill:#fff;}</style></defs><title>marcas_</title><ellipse class="cls-1" cx="100" cy="100" rx="75" ry="39.45"/><ellipse class="cls-2" cx="100" cy="100" rx="72.07" ry="36.52"/><path class="cls-1" d="M99.91,70.87a1.17,1.17,0,0,1,1.15,1.4l-1.77,9.12h6.19c5.14,0,8.64.92,10.7,2.81s2.8,5.05,2,9.21l-3.58,18.4a1.17,1.17,0,0,1-1.15.95h-8.68a1.17,1.17,0,0,1-1.15-1.4L107,93.86c.42-2.17,0-2.86-.14-3.05s-.93-.71-3.43-.71H97.59l-4.22,21.7a1.17,1.17,0,0,1-1.15.95H83.68a1.17,1.17,0,0,1-1.15-1.4l1.54-7.9A19,19,0,0,1,80.42,108a16.43,16.43,0,0,1-6.16,3.69,27.68,27.68,0,0,1-8.4,1.08H59.45l-1.86,9.56a1.17,1.17,0,0,1-1.15.95H47.83a1.17,1.17,0,0,1-1.15-1.4l7.68-39.54a1.17,1.17,0,0,1,1.15-.95H72.07c5.31,0,9.28,1.45,11.78,4.32a11,11,0,0,1,2.56,5.65l3.8-19.53a1.17,1.17,0,0,1,1.15-.95h8.54m-38.79,33.3h3.82c3.19,0,5.56-.58,7-1.72s2.47-3.09,3-5.85c.49-2.51.31-4.31-.5-5.21-.59-.65-2-1.42-5.67-1.42H63.88l-2.76,14.2m38.79-34.3H91.36a2.18,2.18,0,0,0-2.13,1.76L86.17,87.35A11.42,11.42,0,0,0,84.61,85c-2.7-3.1-6.92-4.67-12.54-4.67H55.51a2.18,2.18,0,0,0-2.13,1.76L45.7,121.68a2.17,2.17,0,0,0,2.13,2.59h8.61a2.18,2.18,0,0,0,2.13-1.76l1.7-8.75h5.59a28.65,28.65,0,0,0,8.71-1.13,17.41,17.41,0,0,0,6.54-3.91q.59-.55,1.14-1.13l-.7,3.59a2.17,2.17,0,0,0,2.13,2.59h8.54A2.18,2.18,0,0,0,94.35,112L98.41,91.1h5a5.82,5.82,0,0,1,2.68.39,4.59,4.59,0,0,1-.09,2.19l-3.4,17.49a2.17,2.17,0,0,0,2.13,2.59h8.68a2.18,2.18,0,0,0,2.13-1.76l3.58-18.4c.88-4.52.1-7.93-2.3-10.13s-6-3.08-11.38-3.08h-5L102,72.46a2.17,2.17,0,0,0-2.13-2.59ZM64.7,91h4.11c3.56,0,4.63.77,4.93,1.09s.84,1.33.26,4.35c-.49,2.51-1.38,4.28-2.63,5.25s-3.47,1.51-6.43,1.51h-2.6L64.7,91Z"/><path class="cls-1" d="M139.36,81.38c5.31,0,9.28,1.45,11.78,4.32s3.31,6.91,2.33,11.95A18.35,18.35,0,0,1,147.7,108a16.43,16.43,0,0,1-6.16,3.69,27.68,27.68,0,0,1-8.4,1.08h-6.41l-1.86,9.56a1.17,1.17,0,0,1-1.15.95h-8.61a1.17,1.17,0,0,1-1.15-1.4l7.68-39.54a1.17,1.17,0,0,1,1.15-.95h16.56m-11,22.79h3.82c3.19,0,5.56-.58,7-1.72s2.47-3.09,3-5.85c.49-2.51.31-4.31-.5-5.21-.59-.65-2-1.42-5.67-1.42H131.1l-2.76,14.2m11-23.79H122.79a2.18,2.18,0,0,0-2.13,1.76L113,121.68a2.17,2.17,0,0,0,2.13,2.59h8.61a2.17,2.17,0,0,0,2.13-1.76l1.7-8.75h5.59a28.65,28.65,0,0,0,8.71-1.13,17.41,17.41,0,0,0,6.54-3.91,19.35,19.35,0,0,0,6.06-10.86c1-5.36.18-9.66-2.56-12.8s-6.92-4.67-12.54-4.67ZM131.93,91H136c3.56,0,4.63.77,4.93,1.09s.85,1.33.26,4.35c-.49,2.51-1.38,4.28-2.63,5.25s-3.47,1.51-6.43,1.51h-2.6L131.93,91Z"/><path class="cls-1" d="M68.81,88.79q4.91,0,6.54,1.81t.78,6.22q-.89,4.59-3.44,6.55t-7.76,2H59.69l3.22-16.55Zm-21,33.3h8.61l2-10.51h7.38a26.4,26.4,0,0,0,8-1,15.21,15.21,0,0,0,5.73-3.44A17.18,17.18,0,0,0,85,97.43q1.37-7-2.06-11t-10.9-3.92H55.51Z"/><path class="cls-1" d="M91.36,72h8.54l-2,10.51h7.61q7.18,0,9.91,2.51T117,93.18l-3.58,18.4h-8.68l3.4-17.49q.58-3-.43-4.07t-4.29-1.09H96.62l-4.4,22.65H83.68Z"/><path class="cls-1" d="M136,88.79q4.91,0,6.54,1.81t.78,6.22q-.89,4.59-3.44,6.55t-7.76,2h-5.24l3.22-16.55Zm-21,33.3h8.61l2-10.51h7.38a26.4,26.4,0,0,0,8-1,15.21,15.21,0,0,0,5.73-3.44,17.18,17.18,0,0,0,5.41-9.68q1.37-7-2.06-11t-10.9-3.92H122.74Z"/></svg>