<svg id="Layer_1" data-name="Layer 1" xmlns="http://www.w3.org/2000/svg" viewBox="0 0 200 200"><defs><style>.cls-1{fill:#1c1410;}.cls-2{fill:#c2c0c0;}.cls-3{fill:#068ac7;}.cls-4{fill:#fcfdff;}.cls-5{fill:#c3e3f1;}.cls-6{fill:#cde8f3;}.cls-7{fill:#a7d5e8;}.cls-8{fill:#daedf6;}.cls-9{fill:#bbe0ef;}.cls-10{fill:#0082bd;}.cls-11{fill:#bbbbbc;}.cls-12{fill:#f1f8fb;}.cls-13{fill:#d0cecd;}.cls-14{fill:#9cd1e8;}.cls-15{fill:#858587;}.cls-16{fill:#91cae4;}.cls-17{fill:#84c2df;}.cls-18{fill:#68b6d7;}.cls-19{fill:#e8f4f8;}.cls-20{fill:#0074ae;}.cls-21{fill:#359dc9;}.cls-22{fill:#dad9d8;}.cls-23{fill:#6dbfe0;}.cls-24{fill:#daecf6;}.cls-25{fill:#45a4cc;}.cls-26{fill:#949292;}.cls-27{fill:#67b6d8;}.cls-28{fill:#50acd2;}.cls-29{fill:#dbdada;}.cls-30{fill:#1b98c7;}.cls-31{fill:#7bbedd;}.cls-32{fill:#e3e2e2;}.cls-33{fill:#1d8dbb;}.cls-34{fill:#c7e5f2;}.cls-35{fill:#e5e4e4;}.cls-36{fill:#0489be;}.cls-37{fill:#a3a3a3;}.cls-38{fill:#87c5e1;}.cls-39{fill:#006da6;}.cls-40{fill:#5aaed3;}.cls-41{fill:#9d9a9b;}.cls-42{fill:#f6f6f4;}.cls-43{fill:#a6a8a8;}.cls-44{fill:#007db3;}.cls-45{fill:#d6d5d4;}.cls-46{fill:#aeb0b3;}.cls-47{fill:#e1e0e0;}.cls-48{fill:#addaeb;}.cls-49{fill:#f4f4f3;}.cls-50{fill:#b9baba;}.cls-51{fill:#74bada;}.cls-52{fill:#c6c7c8;}.cls-53{fill:#b4b4b7;}.cls-54{fill:#0080ba;}.cls-55{fill:#c1c0c1;}.cls-56{fill:#dddcdc;}.cls-57{fill:#bcbcbd;}.cls-58{fill:#cacaca;}.cls-59{fill:#adafb0;}.cls-60{fill:#ececed;}.cls-61{fill:#f3f2f1;}.cls-62{fill:#dfdede;}.cls-63{fill:#98cde6;}.cls-64{fill:#d4d2d3;}.cls-65{fill:#e9e9e8;}.cls-66{fill:#c7c8c9;}.cls-67{fill:#c2c2c3;}.cls-68{fill:#e7e7e6;}.cls-69{fill:#00679f;}.cls-70{fill:#7ec1df;}.cls-71{fill:#c6c6c6;}.cls-72{fill:#d0d0d1;}.cls-73{fill:#38a4cd;}.cls-74{fill:#b7b7b9;}.cls-75{fill:#bebfc0;}.cls-76{fill:#a29f9e;}.cls-77{fill:#cccbcc;}.cls-78{fill:#6ab6d7;}.cls-79{fill:#acabac;}.cls-80{fill:#0090c3;}.cls-81{fill:#d7d7d7;}.cls-82{fill:#0193c6;}.cls-83{fill:#0078b1;}.cls-84{fill:#fdfdfd;}.cls-85{fill:#ebebea;}.cls-86{fill:#f9f8f8;}.cls-87{fill:#0182b9;}.cls-88{fill:#005c94;}.cls-89{fill:#005986;}.cls-90{fill:#005484;}.cls-91{fill:#0070aa;}.cls-92{fill:#00659e;}.cls-93{fill:#aaa9a9;}.cls-94{fill:#004870;}.cls-95{fill:#00619a;}.cls-96{fill:#00517e;}.cls-97{fill:#073f5c;}.cls-98{fill:#006196;}.cls-99{fill:#0f3b58;}.cls-100{fill:#04456c;}.cls-101{fill:#fbfbfa;}.cls-102{fill:#12344a;}.cls-103{fill:#eeedec;}.cls-104{fill:#0d3c5a;}.cls-105{fill:#d8d7d6;}</style></defs><title>marcas_</title><path class="cls-1" d="M87.16,26.78a94.41,94.41,0,0,1,9.38-1.07c1.84-.09,3.68.2,5.52,0a29.6,29.6,0,0,1,4.45.24,75,75,0,0,1,37.34,13.74c1.69,1.14,3.2,2.52,4.86,3.7,3.33.17,6.68,0,10,.22-.36.9-.49,1.9-.9,2.77-1.14.81-2.27,1.64-3.38,2.48A73.75,73.75,0,0,1,174.83,95c.37,2.48-.06,5,.17,7.47a74.75,74.75,0,0,1-69,71.57,26.25,26.25,0,0,1-4.16.21c-2.23-.25-4.46.29-6.68-.12a75.13,75.13,0,0,1-56.65-31.64A73.46,73.46,0,0,1,25.17,105c-.38-2.38.13-4.79-.17-7.17a74.7,74.7,0,0,1,62.16-71ZM76.73,32.09A72.37,72.37,0,0,0,34,70.44a71.17,71.17,0,0,0,15.53,81,72.4,72.4,0,0,0,33.7,18.35,73.46,73.46,0,0,0,40.67-2.09,72.5,72.5,0,0,0,28-17.8,71.19,71.19,0,0,0,.63-99.14,22.93,22.93,0,0,0-2.75,4.18l.06.07a7.94,7.94,0,0,0-.79,1.62,37.66,37.66,0,0,0-2.37,8.23l-.07,0c-.2,1.11-.4,2.23-.58,3.35a27.83,27.83,0,0,0-.43,3.6l-.09,0c-.13,1.3-.27,2.6-.39,3.9-.24,2.32-.4,4.65-.57,7h-.06c-.31,5.65-.84,11.3-1.44,16.92-.5,3.45-1.1,6.89-1.84,10.3l-.23.8a53.93,53.93,0,0,1-2.21,6.65c-.3.67-.62,1.33-.92,2a8,8,0,0,1,2.06,1.75,11.26,11.26,0,0,1,1.17,2.47,12,12,0,0,1,.12,6.18,19.55,19.55,0,0,1-1.88,4.3,6,6,0,0,0-1.59,1.31,5.57,5.57,0,0,1-3.61.24,7.24,7.24,0,0,1-2.42-2.53,12.56,12.56,0,0,1-1.09-3.92c-.81.08-1.35.91-2,1.3-4.44,2.82-8.89,5.64-13.3,8.53a11.57,11.57,0,0,1,.8,7.76c-.21.88-.63,1.7-.77,2.6-.59.7-1,1.55-1.58,2.24a6.78,6.78,0,0,1-5.91,2.7c-.85,0-1.54-.61-2.33-.79a9.56,9.56,0,0,1-2.43-3.7c-1.15-3.35-.32-7,1.23-10.08a10.71,10.71,0,0,0-2.59,4.56,27.78,27.78,0,0,1-.78,2.81,38.85,38.85,0,0,1-4.18.72,87.94,87.94,0,0,1-25.76-1.33,14.13,14.13,0,0,1-2.18,3.84A11.33,11.33,0,0,1,66.31,152c-.59,0-1.19,0-1.77-.1a12,12,0,0,1-2.1-1.07c-.35-.78-.94-1.41-1.28-2.2a18.27,18.27,0,0,1-1-3.64c0-1,.07-2,.13-3-.49-1-1.19-2.06-1-3.27.26-2.37,2.41-3.78,4.15-5.09,5.4-4,11.49-7,17.59-9.81,2.12-1.06,4.42-1.9,6.19-3.54a10.9,10.9,0,0,0,2.64-4.54c-5.37.24-10.84.72-16.11-.62a28.3,28.3,0,0,1-7.57-3.24c-2.24-1.24-3.1-3.82-4.08-6h-.06c-.54-1.58-1.16-3.14-1.62-4.75l-.06,0c-.35-1.26-.73-2.5-1.1-3.75-.48-1.76-.92-3.53-1.35-5.3-.43-2-.83-4-1.15-6a31.8,31.8,0,0,1-.36-7.77c.47-3,2.85-5.18,4.81-7.32a46.57,46.57,0,0,1,14-8.65,130.48,130.48,0,0,1,19.38-6.14,26.3,26.3,0,0,1,3.52-7.69,17.84,17.84,0,0,1,11.44-7.07c1.19,0,2.38.17,3.58.27.41,0,.48.49.68.75l.24.43c6.27.21,12.56.21,18.84.28a21.43,21.43,0,0,0,3,0c2.82.18,5.66.06,8.48.19A68.65,68.65,0,0,0,132.6,36,73.19,73.19,0,0,0,76.73,32.09Zm23.64,16.67c-2.22,2.61-3.36,5.89-4.31,9.13a24,24,0,0,0-3.46.78c-7.74,2-15.5,4.35-22.53,8.26a31.13,31.13,0,0,0-11,9.65,7,7,0,0,0-.83,3.77A39.79,39.79,0,0,0,59.14,88,42.28,42.28,0,0,0,60,92.22a90.78,90.78,0,0,0,4.53,14.37,9.94,9.94,0,0,0,2,3.25,25.5,25.5,0,0,0,15.29,4.38c3.66,0,7.31-.22,11-.49-.47,1.46-1.1,2.85-1.6,4.3l0,0a11,11,0,0,1-2.93,4,25.14,25.14,0,0,1-5.6,3.17c-5.88,2.87-12,5.52-17.18,9.51l-.09,0a36.47,36.47,0,0,0-2.9,2.23,3.05,3.05,0,0,0-1.15,2.54,3.89,3.89,0,0,0,2,2.37,21.78,21.78,0,0,0,6,2.32,62.15,62.15,0,0,0,9.9,1.64L79,146c2,.09,4.06.29,6.1.38a66.81,66.81,0,0,0,9.9-.2,38,38,0,0,0,4.54-.57,16.93,16.93,0,0,1,2.22-5.54c.19-.29.37-.59.56-.88a45.79,45.79,0,0,1-16.95,2.69c-.93-.15-1.89-.1-2.83-.17-4.25-.4-8.61-.89-12.54-2.67-.65-.35-1.6-.76-1.52-1.65a23.61,23.61,0,0,1,3.05-2.29v0a84.43,84.43,0,0,1,13.69-7.3A52.85,52.85,0,0,0,92.9,124a9.67,9.67,0,0,0,3.74-4.22c.83-2,.83-4.2,1.12-6.31,2,0,3.91-.18,5.86-.34a119.52,119.52,0,0,0,11.95-1.55c1.5-.25,3-.58,4.47-.94,1.21-.21,2.38-.59,3.57-.89A79.86,79.86,0,0,0,131.8,107c-.26,1.45-.57,2.89-.72,4.36-.1.85-.2,1.7-.29,2.56a16.77,16.77,0,0,1-1.75,5.85H129a23.57,23.57,0,0,1-4.46,5.41c-1.79,1.35-3.66,2.6-5.47,3.93v.06c-3.21,2.25-6.65,4.13-10,6.2a20.47,20.47,0,0,1,2.83.78l-.11.06c.47.17.93.35,1.4.54l-.07.07c.36.21.67.58,1.1.64,1.24-.74,2.42-1.59,3.67-2.33V135c3.29-2,6.47-4.13,9.72-6.17.54-.44,1.4-.74,1.49-1.53a12.81,12.81,0,0,1,3.28-7.27,5.49,5.49,0,0,1,3.89-1.65,29.1,29.1,0,0,0,1.82-4.66,8.29,8.29,0,0,0,.61-1.94l.06,0a58.28,58.28,0,0,0,1.43-6.07h0c.18-1.07.37-2.14.48-3.21h0c.16-1.15.36-2.29.48-3.44s.25-2.13.36-3.2c.17-1.37.29-2.74.4-4.12s.24-2.63.33-3.94c.44-5.39.76-10.78,1.4-16.15.34-2.38.6-4.77,1.11-7.12a52.76,52.76,0,0,1,1.94-7.18,23.15,23.15,0,0,1,6.71-10.13,16.58,16.58,0,0,0-6.72,2.8,11.54,11.54,0,0,0-2.71,3.08,29.6,29.6,0,0,0-3.14,6.31,25.58,25.58,0,0,0-1.54,4.48l-.08,0c-.38,2-.69,3.92-1,5.89-.46,2.75-.93,5.49-1.38,8.24-1,6.16-2.14,12.28-3,18.45,0,.24-.08.47-.11.72,0-.35-.06-.7-.08-1,.34-5.32.82-10.63,1.18-15.95.23-2.49.4-5,.59-7.49.16-1.6.25-3.21.38-4.81-1.25.7-2.55,1.32-3.81,2-.15,1.91-.48,3.81-.7,5.71-.35,2.68-.71,5.35-1.08,8-.46,3.79-1,7.58-1.49,11.37a22.31,22.31,0,0,0-.42,3.81h-.18a37,37,0,0,0,.18-4.13c.15-2.9.25-5.81.35-8.72l0,0c0-2.21.2-4.42.23-6.63l0,0c.07-2.43.2-4.86.28-7.29l.13-.78c-1.27.44-2.47,1-3.74,1.49-.07.43-.13.86-.18,1.29-.2,2.85-.56,5.68-.8,8.52-.37,4.19-.85,8.37-1.17,12.57l-.08,0c0,1.71-.62,3.43-.33,5.11l-.3-.52a29.22,29.22,0,0,0,.16-4.8c0-2.07,0-4.15,0-6.22.06-2.37.07-4.75,0-7.12.11-2.15,0-4.3.09-6.45,0-.47,0-.93,0-1.4-1.16.43-2.35.78-3.51,1.23-.33.43-.15,1.09-.23,1.6-.27,6.11-.74,12.21-1.09,18.31-.09,1.73-.3,3.46-.25,5.19,0,.12,0,.36,0,.48-.08-.68-.16-1.37-.21-2.05,0-1.26-.08-2.53-.13-3.79-.09-1.91-.13-3.81-.19-5.72-.12-3.8-.26-7.59-.34-11.39,0-.61,0-1.23-.07-1.84-1.19.33-2.38.65-3.56,1,0,.68,0,1.36,0,2,0,2.72-.15,5.44-.2,8.16q-.08,3.78-.19,7.57c0,1.57-.08,3.13-.12,4.7,0,1-.22,2-.2,3l-.06-.13a3,3,0,0,0-.06-1.15,67.49,67.49,0,0,0-.37-6.89l0,.11c0-2.74-.34-5.48-.51-8.22-.1-2.33-.32-4.65-.42-7,0-.56-.08-1.12-.12-1.68-1.15.28-2.3.56-3.46.82a23,23,0,0,0,0,2.51c.11,4.74.09,9.48.17,14.23,0,1.82.06,3.63,0,5.45a24.53,24.53,0,0,0,.17,3.52,4.22,4.22,0,0,0-.27-1.31c-.18-2.66-.58-5.31-.78-8h0c-.48-4.85-1-9.69-1.45-14.54,0-.46-.13-.92-.2-1.38l-3.3.65c0,.69,0,1.38.06,2.06.22,4.69.45,9.38.62,14.07.17,2.8.26,5.61.37,8.41,0,.17,0,.51,0,.69l-.15-.05a8.15,8.15,0,0,0-.09-2c-.33-2.06-.58-4.12-.89-6.18-.67-4.86-1.37-9.71-2-14.57-.08-.65-.17-1.29-.23-1.93-1.12.07-2.23.29-3.34.47.12,1.06.13,2.12.24,3.18.42,4.5.74,9,1.09,13.51.18,2.72.55,5.44.57,8.16v.21c-.31-2.9-1-5.75-1.43-8.63-.75-4.3-1.52-8.59-2.21-12.89h0c-.14-1.05-.35-2.09-.49-3.14a17.84,17.84,0,0,0-3.25.36,32.59,32.59,0,0,0,.45,3.48l.19.05-.12.16,0,.25c.5,4,.82,7.93,1.41,11.86.15,3.1.8,6.15.88,9.25a43.88,43.88,0,0,0-.87-4.39c-.21-1.31-.53-2.59-.8-3.89-.84-4-1.66-8-2.49-12-.09-.43-.12-.86-.17-1.29l-.06,0c-.25-1.12-.46-2.24-.72-3.36-1,.08-2.06.18-3.09.25.12,1.33.35,2.64.55,4l.15,0a2.9,2.9,0,0,0,.05,1.29c.67,4.35,1.27,8.71,1.95,13.06.18,1.46.36,2.92.67,4.35,0,.63.1,1.25.17,1.88l.26-.06a10.36,10.36,0,0,1-.07,1.48,3.84,3.84,0,0,0-.31-1.08c-.36-2.63-1.19-5.18-1.76-7.77-1-4.32-2.11-8.63-3.13-13-.29-1.33-.62-2.65-1-4-4.82.15-9.76.27-14.47-1-1.42-.45-3.28-1.07-3.56-2.76.1-1.85,1.74-3,3-4.21,7.5-7,17.54-10.51,27.51-12,.68,3.81.36,7.72.87,11.54.06.28.12,1,.56.68a30.52,30.52,0,0,0,1.71-5.31c.65-2.22,1.15-4.49,1.93-6.67.17-.41.39-1,.94-1,2.32-.11,4.64,0,7-.13a2.58,2.58,0,0,1,1.38-.21c3.78,0,7.56,0,11.34,0l.24.15c4.06,0,8.11.23,12.17.41-.3-1.1-1.51-1.42-2.45-1.75a54.76,54.76,0,0,0-9.93-1.4c-5.91-.28-11.82-.41-17.73-.12a3.79,3.79,0,0,1-1.75-.17,36,36,0,0,1,.48-5.08,13.68,13.68,0,0,1,3.48-6.37,13.16,13.16,0,0,1,5.51-3.22A16.37,16.37,0,0,0,100.37,48.76Zm10.54-3.82a9.65,9.65,0,0,0-4.22,2.7,3.79,3.79,0,0,0-.45,1.16c.63.86,1.84.27,2.72.37,11.35.43,22.7.93,34.05,1.37a35.4,35.4,0,0,1,4.16-2.83c.85-.35,1.63-.86,2.49-1.19s1.74-.51,2.54-.94c-2.69-.15-5.39-.07-8.08-.14-3.68-.2-7.37-.27-11.06-.25-3.31-.14-6.62-.29-9.94-.27-2.69,0-5.37-.21-8-.23A12.45,12.45,0,0,0,110.92,44.94ZM103.71,56c.53,0,1.06,0,1.58-.09,6-.06,12,0,18,.33,3.16.45,6.43.57,9.43,1.75a4.59,4.59,0,0,1,2.56,2.16c.12,1,.22,2,.3,3l-.21.09c-5-.36-10-.74-14.93-.83a140,140,0,0,0-18.15.24q-1.23,3.48-2.34,7l0,0c-.78,2.52-1.73,5-2.43,7.54h0a1.14,1.14,0,0,1-.6.6c0,.14,0,.43,0,.57A140.25,140.25,0,0,0,122,72.11a6.6,6.6,0,0,0,2.5-.9,69.87,69.87,0,0,0,10.11-4.82,4,4,0,0,1,2.35-.45,41.67,41.67,0,0,1,2-6.89,50.12,50.12,0,0,1,3.28-6.79c-3-.08-6-.27-9-.33-5.12-.25-10.24-.43-15.37-.65-3-.09-5.93-.28-8.9-.34-1.32.09-2.8.28-3.88-.67A12.64,12.64,0,0,0,103.71,56ZM69.14,75.09c-.85.84-1.92,1.56-2.31,2.74a8.15,8.15,0,0,0,1.88.93,20.48,20.48,0,0,0,5.76.89,22.52,22.52,0,0,0,3.51.21,129,129,0,0,0,18.68-1.47,1.33,1.33,0,0,0-1-.32c-.45-2.19-.69-4.43-1-6.64l-.09.07a12.11,12.11,0,0,0-.28-2.31c-.24-1.76-.55-3.52-.77-5.29C84.59,65.48,75.81,68.91,69.14,75.09Zm52.7,37.11v.08a135.6,135.6,0,0,1-22.4,3.06,15.35,15.35,0,0,1-1.37,5.8c-.41.92-1.43,1.7-1,2.81a19.63,19.63,0,0,1,.19,3.24l-.1.06c-.43,1.7-.9,3.65-2.47,4.67a3.4,3.4,0,0,1-2.49.27,9.56,9.56,0,0,1-1.64-1.64c-.27-.57-.52-1.16-.74-1.75l-.08,0c0-.25-.08-.75-.11-1a87.61,87.61,0,0,0-16,7.92,12.34,12.34,0,0,0-2.39,1.77c.59.21,1.2.39,1.81.54l-.09.06c.92.24,1.86.45,2.79.68l.12-.07a10,10,0,0,0,3.11.53,28.78,28.78,0,0,0,5.92.57A44.27,44.27,0,0,0,99.69,138a21.23,21.23,0,0,0,4.31-1.83c3.47-2.18,7-4.25,10.56-6.34,2.26-1.47,4.5-3,6.63-4.65a13.59,13.59,0,0,0,3.62-3,14.53,14.53,0,0,0,3-4.42,7.79,7.79,0,0,0,.81-2.53c.27-1.72.53-3.44.65-5.18C126.8,110.76,124.36,111.64,121.84,112.2Zm13.86,8.17a6.18,6.18,0,0,0-3.3,3.87,11.21,11.21,0,0,0,.05,7.95,4.1,4.1,0,0,0,2.81,2.63,3.47,3.47,0,0,0,3.11-1.33,10.22,10.22,0,0,0,2.22-6.37A8.76,8.76,0,0,0,139,121.5,3,3,0,0,0,135.7,120.37ZM105,138.86a7.49,7.49,0,0,0,1.89-1.82C105.84,136.93,105.42,138.09,105,138.86Zm3.84-1.6a8.54,8.54,0,0,0-4.41,4.91,10.66,10.66,0,0,0,.05,8.3,4.86,4.86,0,0,0,3.94,2.93,5.75,5.75,0,0,0,4.44-2.18,11.29,11.29,0,0,0,2.6-8,7.42,7.42,0,0,0-2.33-5.24A4.26,4.26,0,0,0,108.85,137.25Z"/><path class="cls-1" d="M135.55,124.56a2.64,2.64,0,0,1,2-1,2.56,2.56,0,0,1,1.94,1.9,6.73,6.73,0,0,1-.62,5.53,2.37,2.37,0,0,1-2.35,1.3,3.13,3.13,0,0,1-1.72-1.8c.53.35,1.17.83,1.82.45a3.73,3.73,0,0,0,1.61-2.94,3.8,3.8,0,0,0-1-3.31C136.72,124.25,136.09,124.52,135.55,124.56Z"/><path class="cls-1" d="M108.78,142a4.19,4.19,0,0,1,2.42-1.31,3,3,0,0,1,2.87,2.15,6.64,6.64,0,0,1-1.41,6.56,3,3,0,0,1-3.51.85,3.53,3.53,0,0,1-1.54-2,2.07,2.07,0,0,0,2.61.59,4.62,4.62,0,0,0,1.29-6.53A2.27,2.27,0,0,0,108.78,142Z"/><path class="cls-2" d="M76.73,32.09A73.19,73.19,0,0,1,132.6,36a68.65,68.65,0,0,1,11.8,7.43c-2.82-.13-5.66,0-8.48-.19a77.62,77.62,0,0,0-11.56-6,57.42,57.42,0,0,0-22.28-4.71c-2.47,0-5-.25-7.4.27-1.76.37-3.53.63-5.31.86A67.47,67.47,0,0,0,36.5,77.34a21.67,21.67,0,0,0-1,3.09,60.27,60.27,0,0,0-2.8,14.33A66.31,66.31,0,0,0,32.6,103a64.67,64.67,0,0,0,1.48,11.22,47.05,47.05,0,0,0,1.5,5.85A62.36,62.36,0,0,0,38,126.56a67.18,67.18,0,0,0,13.16,19.93,16,16,0,0,0-1.44,1.37,17.09,17.09,0,0,0,3.6,3.68c1.19,1.34,2.87,2.07,4.13,3.33a53.83,53.83,0,0,0,6.35,4.33,66.26,66.26,0,0,0,10.32,5.06,64.83,64.83,0,0,0,13.6,3.85,68.73,68.73,0,0,0,16.92.91,69.83,69.83,0,0,0,57.09-36.59A62,62,0,0,0,166.9,120a64,64,0,0,0,2.22-9.72,65.35,65.35,0,0,0,.57-15,61.49,61.49,0,0,0-1.38-9.94,52.74,52.74,0,0,0-1.46-5.49,8.36,8.36,0,0,0-1.59-3.45c-.52.42-1.2.79-1.31,1.52a62.21,62.21,0,0,0-2.9-6.93c-.65-1.36-1.43-2.66-2.15-4a28.06,28.06,0,0,0-3-4.73c-2-2.37-3.81-5-6-7.23l-.06-.07a22.93,22.93,0,0,1,2.75-4.18,71.17,71.17,0,0,1-.63,99.14,72.5,72.5,0,0,1-28,17.8,73.46,73.46,0,0,1-40.67,2.09,72.4,72.4,0,0,1-33.7-18.35A71.17,71.17,0,0,1,34,70.44,72.37,72.37,0,0,1,76.73,32.09Z"/><path class="cls-2" d="M110.92,44.94a12.45,12.45,0,0,1,4.17-.26c2.68,0,5.36.27,8,.23,3.32,0,6.63.13,9.94.27,3.69,0,7.37.06,11.06.25,2.69.07,5.39,0,8.08.14-.8.43-1.72.57-2.54.94s-1.64.84-2.49,1.19c-5,.17-10,.5-14.94.45-5.17.15-10.34,0-15.51,0-3.35-.15-6.7-.24-10-.48A9.65,9.65,0,0,1,110.92,44.94Z"/><path class="cls-2" d="M135.7,120.37A3,3,0,0,1,139,121.5a8.76,8.76,0,0,1,1.61,5.63,10.22,10.22,0,0,1-2.22,6.37,3.47,3.47,0,0,1-3.11,1.33,4.1,4.1,0,0,1-2.81-2.63,11.21,11.21,0,0,1-.05-7.95A6.18,6.18,0,0,1,135.7,120.37Zm-.15,4.19c.55,0,1.18-.31,1.65.11a3.8,3.8,0,0,1,1,3.31,3.73,3.73,0,0,1-1.61,2.94c-.65.38-1.29-.1-1.82-.45a3.13,3.13,0,0,0,1.72,1.8,2.37,2.37,0,0,0,2.35-1.3,6.73,6.73,0,0,0,.62-5.53,2.56,2.56,0,0,0-1.94-1.9A2.64,2.64,0,0,0,135.55,124.56Z"/><path class="cls-2" d="M108.85,137.25a4.26,4.26,0,0,1,4.29.69,7.42,7.42,0,0,1,2.33,5.24,11.29,11.29,0,0,1-2.6,8,5.75,5.75,0,0,1-4.44,2.18,4.86,4.86,0,0,1-3.94-2.93,10.66,10.66,0,0,1-.05-8.3A8.54,8.54,0,0,1,108.85,137.25Zm-.06,4.72a2.27,2.27,0,0,1,2.73.34,4.62,4.62,0,0,1-1.29,6.53,2.07,2.07,0,0,1-2.61-.59,3.53,3.53,0,0,0,1.54,2,3,3,0,0,0,3.51-.85,6.64,6.64,0,0,0,1.41-6.56,3,3,0,0,0-2.87-2.15A4.19,4.19,0,0,0,108.78,142Z"/><path class="cls-3" d="M94.67,32.82c2.43-.53,4.93-.26,7.4-.27a57.42,57.42,0,0,1,22.28,4.71,5.41,5.41,0,0,0-1,1.37,47,47,0,0,0-6.57-2,69.77,69.77,0,0,0-29.92-1.43c-1.85.33-3.68.77-5.51,1.23A63.89,63.89,0,0,0,48,58.7,61,61,0,0,0,39.65,73a25.56,25.56,0,0,0-1.82,5.24c-.18.54-.35,1.08-.52,1.62-.3-.22-.48-.76-.9-.72a11.81,11.81,0,0,0-.87,1.34,21.67,21.67,0,0,1,1-3.09A67.47,67.47,0,0,1,89.37,33.68C91.14,33.45,92.92,33.19,94.67,32.82Z"/><path class="cls-4" d="M86.88,35.15a69.77,69.77,0,0,1,29.92,1.43l-.36.07c2.7,1,5.54,1.76,8,3.24a22.08,22.08,0,0,1-2.42-.66,48.4,48.4,0,0,0-10.37-2.11,52.2,52.2,0,0,0-14.46.08,15,15,0,0,0-3.09.35,62.57,62.57,0,0,0-20,7.35c-.79.49-1.58,1-2.41,1.4a27.48,27.48,0,0,1-3.56,1c-.91.19-1.73.67-2.63.9-.54-.05-1-.3-1.58-.38-2,.32-3.71,1.75-5.76,1.69l.33-.24a70.88,70.88,0,0,1,11-7.28,78.31,78.31,0,0,1,11.65-5l.24-.55C83.19,35.92,85,35.49,86.88,35.15Z"/><path class="cls-5" d="M58,48.48A63.09,63.09,0,0,1,81.37,36.38l-.24.55a78.31,78.31,0,0,0-11.65,5,70.88,70.88,0,0,0-11,7.28Z"/><path class="cls-6" d="M97.23,37.19a52.2,52.2,0,0,1,14.46-.08c-4.84,2-9.81,3.63-14.68,5.52C87.85,46,78.7,49.42,69.53,52.79c-1.6.55-3,1.45-4.64,2s-3.27,1.33-5,1.77c1.1-1.29,2.45-2.35,3.47-3.71a54.83,54.83,0,0,1,7.08-5.43c4.88-1.63,9.64-3.59,14.51-5.27,3.39-1.4,6.71-3,10.23-4.06A8.66,8.66,0,0,0,97.23,37.19Z"/><path class="cls-7" d="M116.45,36.65l.36-.07a47,47,0,0,1,6.57,2,65.31,65.31,0,0,1,9.53,4.56c-6.28-.07-12.57-.07-18.84-.28l-.24-.43a34,34,0,0,0,4.31-1.71,18.33,18.33,0,0,1,3.93-1.55,22.08,22.08,0,0,0,2.42.66C122,38.41,119.15,37.67,116.45,36.65Z"/><path class="cls-7" d="M96.21,49a7.42,7.42,0,0,1,1.92-.45,26.3,26.3,0,0,0-3.52,7.69,130.48,130.48,0,0,0-19.38,6.14,46.57,46.57,0,0,0-14,8.65,3.36,3.36,0,0,0-1.86.12C55.72,72.61,52,73.91,48.25,75.3c.82-2.26,2-4.37,3-6.56.82-1.42,1.68-2.84,2.58-4.21,2.23-.48,4.27-1.53,6.44-2.22C72.23,57.88,84.23,53.47,96.21,49Z"/><path class="cls-8" d="M94.14,37.54a15,15,0,0,1,3.09-.35,8.66,8.66,0,0,1-2,.9c-3.52,1.07-6.84,2.66-10.23,4.06-4.87,1.67-9.63,3.64-14.51,5.27.42-.37.82-.77,1.24-1.13.82-.44,1.62-.91,2.41-1.4A62.57,62.57,0,0,1,94.14,37.54Z"/><path class="cls-9" d="M111.69,37.11a48.4,48.4,0,0,1,10.37,2.11,18.33,18.33,0,0,0-3.93,1.55,34,34,0,0,1-4.31,1.71c-.2-.26-.27-.76-.68-.75-1.19-.1-2.38-.24-3.58-.27a17.84,17.84,0,0,0-11.44,7.07,7.42,7.42,0,0,0-1.92.45c-12,4.48-24,8.89-36,13.33-2.17.68-4.21,1.74-6.44,2.22,1.09-2,2.65-3.61,3.86-5.5a32,32,0,0,1,2.25-2.49c1.71-.44,3.32-1.18,5-1.77s3-1.44,4.64-2C78.7,49.42,87.85,46,97,42.63,101.89,40.74,106.85,39.08,111.69,37.11Z"/><path class="cls-10" d="M124.36,37.26a77.62,77.62,0,0,1,11.56,6,21.43,21.43,0,0,1-3,0,65.31,65.31,0,0,0-9.53-4.56A5.41,5.41,0,0,1,124.36,37.26Z"/><path class="cls-11" d="M100.37,48.76a16.37,16.37,0,0,1,10.83-5.69,13.16,13.16,0,0,0-5.51,3.22,13.68,13.68,0,0,0-3.48,6.37,36,36,0,0,0-.48,5.08c-1.89-.06-3.77.46-5.66.15C97,54.64,98.16,51.36,100.37,48.76Z"/><path class="cls-12" d="M68.13,47.24a27.48,27.48,0,0,0,3.56-1c-.43.36-.82.76-1.24,1.13a54.83,54.83,0,0,0-7.08,5.43c-1.16.51-1.83,1.77-3.11,2-.5.26-1,0-1.44-.25A6.23,6.23,0,0,1,56,55a6.25,6.25,0,0,0-2.41.55,5.87,5.87,0,0,1-1.56-.41,53.58,53.58,0,0,1,6.08-5.74c2.05.06,3.78-1.37,5.76-1.69.54.08,1,.33,1.58.38C66.4,47.91,67.22,47.43,68.13,47.24Z"/><path class="cls-13" d="M146.77,50a16.58,16.58,0,0,1,6.72-2.8,23.15,23.15,0,0,0-6.71,10.13l-1.27-.1a33.47,33.47,0,0,1,4.2-8.13c-4.19,2.73-6.51,7.45-8.08,12-.25.65-.52,1.29-.75,1.94l-.37-.58a5.42,5.42,0,0,0,.41-3.12,29.6,29.6,0,0,1,3.14-6.31A11.54,11.54,0,0,1,146.77,50Z"/><path class="cls-13" d="M163.94,77.86c.11-.73.78-1.1,1.31-1.52a8.36,8.36,0,0,1,1.59,3.45,52.74,52.74,0,0,1,1.46,5.49,20.61,20.61,0,0,1-2.11,1.29A61.21,61.21,0,0,0,163.94,77.86Z"/><path class="cls-13" d="M109.05,86.3c.28,1.13.07,2.53,1.24,3.19,0-.8.07-1.59.07-2.38l.21-.27c.21,2.44.17,4.89.38,7.32,0,.56.64.47,1,.63l.24-.58,0-.11a67.49,67.49,0,0,1,.37,6.89,17.18,17.18,0,0,1-.47-1.71l-.6,0c-.32-1.49-.45-3-.7-4.52h-1.52a31.42,31.42,0,0,1-.42,5.43l-1,.14c0-1.82-.06-3.63,0-5.45.55-.12,1.51-.13,1.36-1A51.94,51.94,0,0,1,109.05,86.3Z"/><path class="cls-13" d="M116.43,94.52l1.19.15c.05,1.26.11,2.53.13,3.79a4.82,4.82,0,0,1-1.21-.73A11.69,11.69,0,0,1,116.43,94.52Z"/><path class="cls-13" d="M51.14,146.49a60.27,60.27,0,0,0,7.13,6.5,68.59,68.59,0,0,0,7.25,5,3.74,3.74,0,0,0-1.74,1.22,53.83,53.83,0,0,1-6.35-4.33c-1.26-1.26-2.95-2-4.13-3.33a17.09,17.09,0,0,1-3.6-3.68A16,16,0,0,1,51.14,146.49Z"/><path class="cls-14" d="M48,58.7A63.35,63.35,0,0,1,58,48.48l.49.73-.33.24a53.58,53.58,0,0,0-6.08,5.74c-1.41,1.39-2.59,3-3.91,4.45Z"/><path class="cls-15" d="M141.63,61.16c1.56-4.6,3.88-9.32,8.08-12a33.47,33.47,0,0,0-4.2,8.13,46.92,46.92,0,0,0-2.05,7.92c-.09.38-.18.75-.25,1.13-.8-.5-1.58-1-2.36-1.52A18.47,18.47,0,0,0,141.63,61.16Z"/><path class="cls-16" d="M103.71,56a12.64,12.64,0,0,1,1.39-5.74c1.08.95,2.57.76,3.88.67,3,.07,5.93.25,8.9.34l.14.46-9.49,3.5a15.28,15.28,0,0,1-3.24.67C104.77,56,104.24,56,103.71,56Z"/><path class="cls-17" d="M117.88,51.28c5.12.22,10.25.4,15.37.65a13.7,13.7,0,0,1-3.72,1.61,35.38,35.38,0,0,0-6.24,2.71c-6-.37-12-.4-18-.33a15.28,15.28,0,0,0,3.24-.67l9.49-3.5Z"/><path class="cls-18" d="M133.25,51.93c3,.06,6,.25,9,.33A50.12,50.12,0,0,0,138.94,59a25.44,25.44,0,0,1-3.1,1.32l-.55-.21A4.59,4.59,0,0,0,132.73,58c-3-1.18-6.27-1.3-9.43-1.75a35.38,35.38,0,0,1,6.24-2.71A13.7,13.7,0,0,0,133.25,51.93Z"/><path class="cls-19" d="M60.26,54.87c1.28-.27,2-1.52,3.11-2-1,1.36-2.37,2.42-3.47,3.71A32,32,0,0,0,57.66,59c-.93.42-1.47,1.68-2.62,1.47-1.58-.06-3,.73-4.45,1.24a6.72,6.72,0,0,0-1.49-.6,7.67,7.67,0,0,1-2-.1c.36-.48.72-1,1.1-1.41,1.31-1.47,2.5-3.06,3.91-4.45a5.87,5.87,0,0,0,1.56.41A6.25,6.25,0,0,1,56,55a6.23,6.23,0,0,0,2.79-.41C59.28,54.84,59.76,55.13,60.26,54.87Z"/><path class="cls-20" d="M149.14,56.61a7.94,7.94,0,0,1,.79-1.62c2.15,2.27,3.93,4.86,6,7.23a28.06,28.06,0,0,1,3,4.73c.72,1.32,1.51,2.62,2.15,4a4,4,0,0,1-2.12,1.74c-1.48.59-2.78,1.53-4.26,2.13-1.64.63-3,1.73-4.72,2.27.39-1.21.92-2.38,1.19-3.62a29.14,29.14,0,0,0,.57-3.39,18,18,0,0,0,0-5c-.07-.65-.18-1.29-.29-1.93A20.67,20.67,0,0,0,149.14,56.61Z"/><path class="cls-21" d="M146.77,64.84a37.66,37.66,0,0,1,2.37-8.23,20.67,20.67,0,0,1,2.33,6.51A44.53,44.53,0,0,1,146.77,64.84Z"/><path class="cls-22" d="M145.51,57.24l1.27.1a52.76,52.76,0,0,0-1.94,7.18l-.71-.22c-.22.29-.45.57-.67.87A46.92,46.92,0,0,1,145.51,57.24Z"/><path class="cls-22" d="M132,69.9c1.26-.68,2.56-1.29,3.81-2-.12,1.6-.22,3.21-.38,4.81-.84.4-1,1.28-1.14,2.11l-.18-.88a22.65,22.65,0,0,0,.14-3.72c-.44.24-1.09.38-1.13,1-.34,1.77-.41,3.58-.72,5.36-.08-.39-.17-.78-.26-1.16l-.84.2C131.54,73.71,131.87,71.81,132,69.9Z"/><path class="cls-22" d="M115.78,78c.43-.16.88-.3,1.32-.44.08,3.8.22,7.59.34,11.39l-.73-.6c-.55,2-.14,4.11-.28,6.17h-.3c-.11-3.56.18-7.13-.14-10.67A49.65,49.65,0,0,0,115.78,78Z"/><path class="cls-22" d="M100,81.72c.63,4.86,1.33,9.71,2,14.57-1,.12-1.4-1.24-2.42-1-1,0-.72,1.34-1,2L97.75,97c-.34-4.5-.67-9-1.09-13.51,1.08-.25,2.17-.49,3.26-.69C100,82.41,100,82.07,100,81.72Z"/><path class="cls-23" d="M39.65,73A61,61,0,0,1,48,58.7l.16.93c-.39.46-.75.93-1.1,1.41a67.4,67.4,0,0,0-5.47,8.77,75.56,75.56,0,0,0-3.34,7.51l-.43.88A25.56,25.56,0,0,1,39.65,73Z"/><path class="cls-24" d="M55,60.51c1.15.21,1.69-1.05,2.62-1.47-1.22,1.88-2.78,3.52-3.86,5.5-.9,1.37-1.76,2.78-2.58,4.21a4.08,4.08,0,0,1-3.19,1c-1.17-.05-2.28.74-3.44.29-1-.28-2.36,1.08-3-.21A67.4,67.4,0,0,1,47.07,61a7.67,7.67,0,0,0,2,.1,6.72,6.72,0,0,1,1.49.6C52,61.24,53.46,60.45,55,60.51Z"/><path class="cls-25" d="M135.84,60.36a25.44,25.44,0,0,0,3.1-1.32,41.67,41.67,0,0,0-2,6.89,4,4,0,0,0-2.35.45,69.87,69.87,0,0,1-10.11,4.82,6.6,6.6,0,0,1-2.5.9,140.25,140.25,0,0,1-25.19,6.23c0-.14,0-.43,0-.57a1.14,1.14,0,0,0,.6-.6h0A17.27,17.27,0,0,0,100.86,76a49.31,49.31,0,0,0,5.73-2.26c1.76-.92,3.7-1.44,5.54-2.19,1.45-.61,3-.74,4.5-1.34,6.22-2.4,12.53-4.57,18.74-7l.21-.09c-.08-1-.18-2-.3-3Z"/><path class="cls-26" d="M140.88,63.1c.23-.65.5-1.29.75-1.94a18.47,18.47,0,0,1-.79,3.61c.78.51,1.57,1,2.36,1.52-.28,2.3-.73,4.58-.89,6.9,0,.41-.09.82-.13,1.23-.9-.25-1.75-.63-2.66-.85,0-.74-.11-1.48-.21-2.21,0-.44.09-.88.17-1.31A65.1,65.1,0,0,1,140.88,63.1Z"/><path class="cls-27" d="M102.29,62.63a140,140,0,0,1,18.15-.24c-2.82,1.27-5.79,2.16-8.66,3.3-3.79,1.33-7.51,2.87-11.32,4.12l-.51-.18Q101.07,66.12,102.29,62.63Z"/><path class="cls-27" d="M91.37,70.18a22.63,22.63,0,0,1,2.85-1,12.11,12.11,0,0,1,.28,2.31A11,11,0,0,1,91.18,73,49.45,49.45,0,0,0,86,75.09c-3.76,1.75-7.84,2.72-11.56,4.57a20.48,20.48,0,0,1-5.76-.89,15.77,15.77,0,0,1,2.77-1.32c3.62-1.7,7.45-2.86,11.14-4.37,1.66-.51,3.27-1.17,4.9-1.77C88.77,70.81,90.13,70.72,91.37,70.18Z"/><path class="cls-28" d="M120.44,62.39c5,.08,10,.47,14.93.83-6.2,2.45-12.52,4.62-18.74,7-1.45.61-3.05.74-4.5,1.34-1.84.75-3.78,1.27-5.54,2.19A49.31,49.31,0,0,1,100.86,76a17.27,17.27,0,0,1-3.38,1.12c.7-2.55,1.65-5,2.43-7.54l0,0,.51.18c3.81-1.26,7.53-2.79,11.32-4.12C114.66,64.56,117.62,63.66,120.44,62.39Z"/><path class="cls-28" d="M51.75,87.86c1.7-.55,3.34-1.32,5.08-1.75.32,2,.72,4,1.15,6-.84.38-1.7.74-2.58,1-2.31.78-4.33,2.21-6.64,3-1.51.52-3,1.16-4.52,1.61,0-.51-.09-1-.14-1.54.06-1.71.42-3.4.39-5.12C47,90.21,49.22,88.7,51.75,87.86Z"/><path class="cls-29" d="M139.62,63.79a11,11,0,0,0,.89-1.27l.37.58a65.1,65.1,0,0,0-1.39,7l-1.21-.26c.33-2,.64-3.93,1-5.89l.08,0Z"/><path class="cls-29" d="M125.49,74c1.22-.74,2.5-1.37,3.78-2-.08,2.43-.21,4.86-.28,7.29l0,0-.23.14c-.28.17-.55.36-.82.55,0-.92-.07-1.83-.1-2.75a23.3,23.3,0,0,0,.11-4c-.47.19-1.19.26-1.29.87-.17,2.41-.19,4.85-.5,7.25-.26,1.33-.22,2.71-.51,4-.05-1-.1-2-.09-3l-.82.18C124.93,79.68,125.29,76.85,125.49,74Z"/><path class="cls-29" d="M105.56,80c.4,4.85,1,9.69,1.45,14.54-.44.11-.88.2-1.32.29-.46-2.52-.43-5.09-.72-7.62-.25-1.88-.18-3.8-.56-5.65l1-.27C105.48,80.88,105.52,80.46,105.56,80Z"/><path class="cls-29" d="M102.12,81.37c0,.17.14.52.18.69l1-.16c.27,4.15.59,8.3.88,12.46l.69.15a3.91,3.91,0,0,1-2.09.93C102.56,90.75,102.34,86.07,102.12,81.37Z"/><path class="cls-29" d="M94.66,83.81h0c.69,4.3,1.47,8.6,2.21,12.89l-.92.44-.68-1.23-1.13.31a3.63,3.63,0,0,1-.62,2.32c-.24-.57-.5-1.13-.74-1.7-.59-3.93-.91-7.91-1.41-11.86l0-.25.12-.16A31.74,31.74,0,0,1,94.66,83.81Z"/><path class="cls-29" d="M167.7,97.23c-.12-1.16,1.22-1.48,2-2a65.35,65.35,0,0,1-.57,15,7.19,7.19,0,0,1-2.08-.18,8.73,8.73,0,0,1-.19-1.82c.25-2,.34-4.11.49-6.17C168,100.56,167.53,98.84,167.7,97.23Z"/><path class="cls-29" d="M132.2,98.58c1-.5,1.84-1.21,2.81-1.72-.11.94-.32,1.87-.47,2.81a17.92,17.92,0,0,0-2.24,1.7C132.26,100.44,132.23,99.51,132.2,98.58Z"/><path class="cls-29" d="M118.36,104.56a33.53,33.53,0,0,0,3.26-1c0,1.76.17,3.52.22,5.29a4,4,0,0,0,1.78-2.54c0,.74,0,1.48.05,2.22l1.07-.14-1.13,1.42c-1.19.3-2.36.68-3.57.89.29-.39.56-.79.84-1.18l-2.17.2a13.58,13.58,0,0,0,.22-3.42c0-.51.07-1,.08-1.54Z"/><path class="cls-30" d="M146.77,64.84a44.53,44.53,0,0,0,4.7-1.72c.11.64.21,1.28.29,1.93-.07.37-.14.74-.22,1.1-1.8.7-3.63,1.33-5.42,2.06.18-1.12.39-2.24.58-3.35Z"/><path class="cls-30" d="M55.92,98.92a27.76,27.76,0,0,1,3.41-1.48c.37,1.25.75,2.49,1.1,3.75-2.47,1.1-5.12,1.8-7.54,3a70.53,70.53,0,0,1-7-1.93C49.35,101.57,52.47,99.74,55.92,98.92Z"/><path class="cls-31" d="M69.14,75.09c6.67-6.18,15.45-9.62,24.31-11.19.23,1.76.54,3.52.77,5.29a22.63,22.63,0,0,0-2.85,1c-1.23.54-2.6.63-3.85,1.12-1.63.61-3.23,1.26-4.9,1.77-3.69,1.51-7.52,2.67-11.14,4.37a15.77,15.77,0,0,0-2.77,1.32,8.15,8.15,0,0,1-1.88-.93C67.22,76.65,68.29,75.93,69.14,75.09Z"/><path class="cls-32" d="M143.45,65.17c.22-.29.45-.58.67-.87l.71.22c-.51,2.35-.77,4.74-1.11,7.12a9.11,9.11,0,0,0-1.41,1.56c.15-2.32.6-4.6.89-6.9C143.28,65.91,143.36,65.54,143.45,65.17Z"/><path class="cls-32" d="M85.36,141.84a45.79,45.79,0,0,0,16.95-2.69c-.19.29-.37.59-.56.88-.35,0-.76-.2-1,.1-1.85,1.46-3.58,3.07-5.35,4.63-.51.39-1.09.69-1.63,1.05l1.27.33a66.81,66.81,0,0,1-9.9.2,43.08,43.08,0,0,0,3.15-4.23A15.26,15.26,0,0,1,85.36,141.84Z"/><path class="cls-33" d="M151.75,65a18,18,0,0,1,0,5c-2,.61-4,1.1-6,1.75a27.83,27.83,0,0,1,.43-3.6c1.79-.73,3.62-1.35,5.42-2.06C151.61,65.79,151.68,65.41,151.75,65Z"/><path class="cls-34" d="M48,69.74a4.08,4.08,0,0,0,3.19-1c-1,2.18-2.15,4.3-3,6.56-.2.5-.39,1-.57,1.53-1.89,1-4.09.49-6,1.23-.8.34-1.64-.19-2.47,0-.5.15-.68-.37-.91-.69a75.56,75.56,0,0,1,3.34-7.51c.63,1.29,2-.06,3,.21C45.75,70.47,46.85,69.69,48,69.74Z"/><path class="cls-35" d="M138.28,69.8l1.21.26c-.08.43-.13.87-.17,1.31-.28,1.77-.65,3.52-.84,5.31-.12.46-.26.93-.38,1.4l-1.2,0C137.35,75.29,137.82,72.55,138.28,69.8Z"/><path class="cls-35" d="M134.31,74.82c.13-.83.3-1.71,1.14-2.11-.18,2.5-.35,5-.59,7.49a2.88,2.88,0,0,0-1.13,2.12,17,17,0,0,1-.12-2.29c.25-2,.31-4.08.51-6.11Z"/><path class="cls-35" d="M131.31,75.61l.84-.2c.09.39.18.78.26,1.16-.06.68-.14,1.35-.2,2-.33,1.54-.4,3.12-.68,4.67-.44.12-.87.24-1.3.39C130.61,81,131,78.29,131.31,75.61Z"/><path class="cls-35" d="M127.59,81.28c.12-1.34,0-2.69.21-4,0,.92.09,1.83.1,2.75.27-.19.54-.38.82-.55l.23-.14c0,2.21-.18,4.42-.23,6.63l0,0c-.41.25-.83.5-1.23.76C127.4,84.91,127.71,83.1,127.59,81.28Z"/><path class="cls-35" d="M140.86,91c0-1.94.18-3.86.39-5.79,0,.92.12,1.82.16,2.74l.91-.21c-.09,1.31-.22,2.63-.33,3.94l-.8.2C141.08,91.63,141,91.34,140.86,91Z"/><path class="cls-35" d="M159.5,131.64a67.06,67.06,0,0,0,5.11-12.57l.15.46c.71.18,1.42.31,2.14.45a62,62,0,0,1-5.18,12.44l-.22-.48C160.83,131.85,160.16,131.77,159.5,131.64Z"/><path class="cls-35" d="M88,166.38a67.26,67.26,0,0,0,17.15.87c-.57.48-1.13,1-1.66,1.49l1.15.27a68.73,68.73,0,0,1-16.92-.91l-.58-.58Z"/><path class="cls-36" d="M145.69,71.81c2-.65,4-1.15,6-1.75a29.14,29.14,0,0,1-.57,3.39c-1.93.87-3.94,1.56-5.92,2.3.13-1.3.26-2.6.39-3.9Z"/><path class="cls-37" d="M133.14,71.21c0-.61.69-.75,1.13-1a22.65,22.65,0,0,1-.14,3.72c-.2,2-.26,4.08-.51,6.11-.1.81-.15,1.62-.18,2.42-.16.27-.32.53-.48.79L132,83a35.11,35.11,0,0,0,.23-4.44c.07-.67.14-1.34.2-2C132.73,74.79,132.8,73,133.14,71.21Z"/><path class="cls-37" d="M125.17,98.72a1.33,1.33,0,0,1,1.44-1,19.43,19.43,0,0,0,.42,3.45l-.36.41c-.89.34-1.8.63-2.7,1,.13-.6.22-1.2.32-1.79s.18-1,.27-1.53l.24-.48Z"/><path class="cls-38" d="M59.41,71.14A3.36,3.36,0,0,1,61.27,71c-2,2.14-4.34,4.31-4.81,7.32-3.43,1.39-6.92,2.61-10.39,3.91a52.21,52.21,0,0,1,1.61-5.43c.18-.51.37-1,.57-1.53C52,73.91,55.72,72.61,59.41,71.14Z"/><path class="cls-39" d="M158.92,72.67A4,4,0,0,0,161,70.94a62.21,62.21,0,0,1,2.9,6.93,61.21,61.21,0,0,1,2.25,8.71c.11.64.22,1.29.31,1.94a77.15,77.15,0,0,0-7.59,3.84l-11.82,5.91a37.62,37.62,0,0,0-3.6,2l-.35-.6c.6-5.63,1.13-11.27,1.44-16.92h.06a4.21,4.21,0,0,0,2.86-1.5,20.66,20.66,0,0,0,2.44-4.14c1.68-.54,3.09-1.64,4.72-2.27C156.13,74.2,157.44,73.26,158.92,72.67Z"/><path class="cls-40" d="M94.5,71.5l.09-.07c.33,2.21.57,4.45,1,6.64a1.33,1.33,0,0,1,1,.32A129,129,0,0,1,78,79.86a22.52,22.52,0,0,1-3.51-.21c3.71-1.85,7.8-2.82,11.56-4.57A49.45,49.45,0,0,1,91.18,73,11,11,0,0,0,94.5,71.5Z"/><path class="cls-41" d="M139.32,71.37c.09.73.17,1.47.21,2.21.91.22,1.76.6,2.66.85-.13,1.34-.32,2.67-.42,4l-.64.17a8.38,8.38,0,0,0-2.43-.53c-.08-.47-.15-.94-.22-1.4C138.66,74.89,139,73.13,139.32,71.37Z"/><path class="cls-42" d="M142.31,73.19a9.11,9.11,0,0,1,1.41-1.56c-.64,5.37-1,10.76-1.4,16.15l-.91.21c0-.92-.11-1.82-.16-2.74s.1-1.62.17-2.43c.13-1.46.27-2.93.34-4.39s.28-2.67.42-4C142.23,74,142.28,73.6,142.31,73.19Z"/><path class="cls-42" d="M133.44,82.47c0-.81.07-1.62.18-2.42a17,17,0,0,0,.12,2.29,2.88,2.88,0,0,1,1.13-2.12c-.36,5.32-.84,10.63-1.18,15.95L132.52,96c0-2.13.15-4.26.32-6.38C133,87.25,133.39,84.87,133.44,82.47Z"/><path class="cls-42" d="M130.24,83.64c.43-.15.86-.27,1.3-.39a29.17,29.17,0,0,0-.45,3.67c-.47,2.86-.68,5.76-1.09,8.63l-1-.06-.22-.47C129.24,91.22,129.78,87.43,130.24,83.64Z"/><path class="cls-42" d="M130.79,113.92l1.42-1.14a33.72,33.72,0,0,0-.19,3.91,8.13,8.13,0,0,1-2.57,3.05l-.41,0A16.77,16.77,0,0,0,130.79,113.92Z"/><path class="cls-42" d="M97.14,113.44l.63,0c-.3,2.11-.3,4.32-1.12,6.31A9.67,9.67,0,0,1,92.9,124a52.85,52.85,0,0,1-7.69,3.68A84.43,84.43,0,0,0,71.52,135q0-.85,0-1.7l-.82.33-.49-.32-.46,0c-.21-.17-.41-.34-.63-.5-1.31.56-2.29,1.83-3.78,2,5.23-4,11.3-6.64,17.18-9.51a25.14,25.14,0,0,0,5.6-3.17,11,11,0,0,0,2.93-4l0,0,.46-.3c.16-.27.31-.56.46-.84a9.39,9.39,0,0,0,3.16-2.4l.46.34C96.16,114.36,96.64,113.9,97.14,113.44Z"/><path class="cls-42" d="M109.09,135.37c3.31-2.08,6.76-4,10-6.2v.41a44,44,0,0,1-4.17,4c-1,.84-1.77,2-3,2.59A20.47,20.47,0,0,0,109.09,135.37Z"/><path class="cls-43" d="M126.61,74.09c.1-.62.82-.69,1.29-.87a23.3,23.3,0,0,1-.11,4c-.16,1.33-.09,2.69-.21,4a10.76,10.76,0,0,0-.38,3.62h-1q.06-1.79-.05-3.56C126.42,78.94,126.44,76.51,126.61,74.09Z"/><path class="cls-43" d="M138.1,78.07c.12-.47.26-.93.38-1.4.06.46.14.94.22,1.4a8.38,8.38,0,0,1,2.43.53l.64-.17c-.08,1.46-.21,2.93-.34,4.39l-.91.44a9.43,9.43,0,0,0-2.45-.69,3.52,3.52,0,0,1-.48-.91C137.8,80.48,137.86,79.26,138.1,78.07Z"/><path class="cls-44" d="M145.21,75.74c2-.73,4-1.42,5.92-2.3-.28,1.25-.81,2.41-1.19,3.62a20.66,20.66,0,0,1-2.44,4.14,4.21,4.21,0,0,1-2.86,1.5C144.81,80.39,145,78.06,145.21,75.74Z"/><path class="cls-44" d="M36.95,115.06c1.09.42,2.38,0,3.35.75s2.49.91,3.62,1.64a14.45,14.45,0,0,0,3.52,1.29c.07-.57.14-1.14.18-1.71a4.79,4.79,0,0,1-.47,4.34,17.48,17.48,0,0,1-3.19,2c-1-.34-2.21-.71-2.49-1.84L41,121.2l.32-.6a23.87,23.87,0,0,1-3-1.94A15.49,15.49,0,0,1,36.95,115.06Z"/><path class="cls-45" d="M121.58,75.71c.5-.21,1-.4,1.5-.6-.08,2.15,0,4.3-.09,6.45-.11-.32-.21-.64-.33-1-.25.34-.6.66-.58,1.13-.15,1.59.11,3.22-.34,4.78-.17-1.9.17-3.81-.05-5.7C121.71,79.11,122.11,77.34,121.58,75.71Z"/><path class="cls-45" d="M113.45,78.78c.37-.1.73-.2,1.09-.32,0,4.13,0,8.27,0,12.4a21.52,21.52,0,0,1-.05,3.64,16.21,16.21,0,0,0-.3,3.47c-.13.33-.28.66-.42,1l-.84.26c0-1.57.07-3.13.12-4.7l1.22-.07c0-2.57.06-5.15-.09-7.72l-.94.22C113.31,84.22,113.42,81.5,113.45,78.78Z"/><path class="cls-45" d="M111.28,79c.1,2.33.32,4.65.42,7a2.2,2.2,0,0,0-1.12.85l-.21.27c-.06-2.38-.08-4.76-.31-7.13C110.59,79.81,111.21,79.66,111.28,79Z"/><path class="cls-45" d="M88.7,99.74c.71-.75.54-2,1.43-2.61l.7.87L92,97.8c.26,1.3.59,2.58.8,3.89a12.8,12.8,0,0,0-3.31,3l-.65-.57c-.3-1.43-.48-2.9-.67-4.35l.23-.87Z"/><path class="cls-46" d="M120.53,76.14l1-.44c.54,1.63.13,3.4.11,5.09a26.85,26.85,0,0,0-.3,4.77c-1,.07-1-1-1.16-1.69C120.3,81.3,120.64,78.73,120.53,76.14Z"/><path class="cls-47" d="M119.34,76.54c.4-.13.8-.25,1.19-.39.11,2.59-.23,5.16-.31,7.74a34.53,34.53,0,0,0-.24,4.68,43,43,0,0,0-.26,5.89l-1.47.39C118.6,88.75,119.07,82.65,119.34,76.54Z"/><path class="cls-47" d="M122.08,81.73c0-.46.33-.78.58-1.13.12.32.22.63.33,1,0,2.37,0,4.74,0,7.12l-.27-.87c-.25.34-.63.65-.61,1.11a22.12,22.12,0,0,1-.29,3.14c-.2-1.8.07-3.61-.07-5.41l0-.15C122.19,84.95,121.94,83.32,122.08,81.73Z"/><path class="cls-47" d="M79.76,85.93q2.11-.28,4.24-.35c1,4.33,2.09,8.64,3.13,13l-.7.17-.23.49c-1,0-1.17,1-1.5,1.71l-.48.09a5.32,5.32,0,0,1-1.5,2.34,6.21,6.21,0,0,0-1.16,2.15c-.3.75-1,1.19-1.48,1.82a10,10,0,0,0-.63,1.72,12.91,12.91,0,0,1,2.53.32c-2.59.39-5.13-.49-7.71-.51-.75-.36-1.75-.57-2.09-1.41,0-.62.65-.89,1.07-1.23a35.14,35.14,0,0,0,3.29-2.4c1.2-1,2.54-1.69,3.82-2.52,1.53-1,3.28-1.63,4.78-2.7l-.28-.64h-.45c0-.22.08-.44.12-.65a11.73,11.73,0,0,1-2.85-3.33,2.14,2.14,0,0,1-1.34-1.75c-.14-1-.92-1.69-1.37-2.54-.23-1.13-.11-2.36-.78-3.37Z"/><path class="cls-47" d="M113.25,86.94l.94-.22c.15,2.57.06,5.15.09,7.72l-1.22.07Q113.16,90.73,113.25,86.94Z"/><path class="cls-47" d="M129,100.27l.35,0c-.23,1.21-.37,2.43-.68,3.62-.17.89-1,1.4-1.6,2a19.84,19.84,0,0,1-.36-4.21l.36-.41A7,7,0,0,0,129,100.27Z"/><path class="cls-47" d="M140.1,102.63l.62-.13c-.1,1.08-.3,2.14-.48,3.21h0l-.47,0a6.7,6.7,0,0,0-1.09,1.56l.12-.83c.12-.76.29-1.51.45-2.27.06-.27.12-.53.17-.8A8.78,8.78,0,0,1,140.1,102.63Z"/><path class="cls-47" d="M166.22,112.24c.27-1.31.46-2.65.62-4a8.73,8.73,0,0,0,.19,1.82,7.19,7.19,0,0,0,2.08.18A64,64,0,0,1,166.9,120c-.71-.14-1.43-.27-2.14-.45l-.15-.46A63.59,63.59,0,0,0,166.22,112.24Z"/><path class="cls-47" d="M131.08,111.36l1.48-.92c.06,1.21.06,2.43,0,3.64a21,21,0,0,1,3.11-1.64c-.78,1.75-2.37,2.93-3.69,4.26a33.72,33.72,0,0,1,.19-3.91l-1.42,1.14C130.87,113.06,131,112.2,131.08,111.36Z"/><path class="cls-48" d="M41.64,78.06c1.94-.74,4.15-.28,6-1.23a52.21,52.21,0,0,0-1.61,5.43c-.21.92-.47,1.82-.71,2.74-.3.39-.45,1.19-1.08,1-1.91-.24-3.74.53-5.64.51A18.9,18.9,0,0,0,36,86.6c-.05-.2-.15-.6-.21-.8a51.43,51.43,0,0,1,1.56-6c.17-.54.34-1.08.52-1.62l.43-.88c.23.32.41.84.91.69C40,77.87,40.84,78.4,41.64,78.06Z"/><path class="cls-49" d="M136.9,78l1.2,0c-.24,1.19-.3,2.41-.52,3.6-.66,3.62-1.11,7.29-1.85,10.9a24.71,24.71,0,0,1-.69,3.56,3.88,3.88,0,0,1-1.17.36C134.76,90.32,135.92,84.2,136.9,78Z"/><path class="cls-49" d="M127.45,86.72c.4-.26.82-.5,1.23-.76-.1,2.91-.2,5.81-.35,8.72l-.22.62-1-.15c0-1,0-1.92,0-2.87C127.09,90.42,127.61,88.6,127.45,86.72Z"/><path class="cls-50" d="M114.78,78.37l1-.37a49.65,49.65,0,0,1,.2,5.84,41,41,0,0,0-.16,4.79l-.56-.64-.4-.07C114.79,84.74,114.83,81.56,114.78,78.37Z"/><path class="cls-50" d="M125.6,85.39c.29-1.33.25-2.71.51-4q.12,1.78.05,3.56h1a10.76,10.76,0,0,1,.38-3.62c.12,1.82-.18,3.63-.14,5.44s-.36,3.7-.36,5.57l-1.58-.48c-.09-.53-.19-1.05-.27-1.58C125.44,88.62,125.34,87,125.6,85.39Z"/><path class="cls-51" d="M46.07,82.25c3.47-1.3,7-2.52,10.39-3.91a31.8,31.8,0,0,0,.36,7.77c-1.74.43-3.37,1.2-5.08,1.75-2.53.84-4.76,2.35-7.25,3.29,0-.16,0-.48,0-.64.18-1.86.65-3.67.89-5.52C45.6,84.08,45.87,83.17,46.07,82.25Z"/><path class="cls-52" d="M114.54,78.46l.23-.09c.06,3.18,0,6.36.09,9.54l.4.07.56.64a41,41,0,0,1,.16-4.79c.33,3.55,0,7.12.14,10.67l-1.62,0a21.52,21.52,0,0,0,.05-3.64C114.51,86.73,114.5,82.59,114.54,78.46Z"/><path class="cls-53" d="M131.54,83.25c.28-1.55.34-3.13.68-4.67A35.11,35.11,0,0,1,132,83l1,.24c.16-.26.32-.52.48-.79-.06,2.4-.43,4.77-.61,7.16-.14.41-.3.81-.46,1.21-.47-.09-1.07.08-1.41-.34a17.51,17.51,0,0,0,.12-3.6A29.17,29.17,0,0,1,131.54,83.25Z"/><path class="cls-53" d="M113.2,136.75c1.63-1.5,3.34-2.92,4.89-4.5a21.76,21.76,0,0,1-.19,2.79v.08c-1.25.74-2.43,1.59-3.67,2.33-.44-.06-.74-.43-1.1-.64Z"/><path class="cls-54" d="M36.41,79.1c.42,0,.6.5.9.72a51.43,51.43,0,0,0-1.56,6A35.32,35.32,0,0,0,35,90c-.32,2.64-.85,5.31-.52,8a94.85,94.85,0,0,0,.86,10c.19,1.47.5,2.92.84,4.37-.62.21-1.24.46-1.84.73-.09.39-.17.78-.25,1.16A64.67,64.67,0,0,1,32.6,103a66.31,66.31,0,0,1,.14-8.25,60.27,60.27,0,0,1,2.8-14.33A11.81,11.81,0,0,1,36.41,79.1Z"/><path class="cls-55" d="M108.92,80.31l1.14-.33c.23,2.37.25,4.75.31,7.13,0,.79,0,1.58-.07,2.38-1.18-.66-1-2.06-1.24-3.19C108.92,84.3,108.9,82.3,108.92,80.31Z"/><path class="cls-55" d="M113.78,99c.14-.33.29-.66.42-1a13.18,13.18,0,0,1-.22,4.26c0,.46-.45.68-.83.82-.15-.26-.29-.53-.41-.8,0-1,.17-2,.2-3Z"/><path class="cls-56" d="M107.71,80.65l1.21-.35c0,2,0,4,.13,6a51.94,51.94,0,0,0,.19,7.63c.14.83-.81.83-1.36,1C107.8,90.14,107.82,85.4,107.71,80.65Z"/><path class="cls-56" d="M73.94,163.69l1.07-1a65.73,65.73,0,0,0,13,3.72l-.86,1.15.58.58a64.83,64.83,0,0,1-13.6-3.85Z"/><path class="cls-57" d="M121.38,85.57a26.85,26.85,0,0,1,.3-4.77c.23,1.9-.11,3.8.05,5.7l0,.15a25.69,25.69,0,0,0-.34,4.56l-1,.39a14.87,14.87,0,0,1-.42-3,34.53,34.53,0,0,1,.24-4.68C120.4,84.56,120.43,85.63,121.38,85.57Z"/><path class="cls-57" d="M133.73,107.41c1.85-1,3.93-1.78,5.49-3.26-.15.76-.32,1.51-.45,2.27a17,17,0,0,1-2.38,1.09c-1.19.37-2,1.39-3,2a15,15,0,0,1,.16-4.36C133.6,105.88,133.68,106.64,133.73,107.41Z"/><path class="cls-58" d="M103.25,81.9c.39-.09.76-.21,1.15-.32.39,1.86.32,3.77.56,5.65.29,2.54.26,5.11.72,7.62.44-.08.88-.18,1.32-.29h0c.2,2.67.59,5.31.78,8l-.59-.46-.65.06a13.82,13.82,0,0,0-.65-2.95,4.91,4.91,0,0,0-1.57,1.64,21.82,21.82,0,0,0-.14,2.63l-1.11.39c-.11-2.8-.21-5.61-.37-8.41a3.91,3.91,0,0,0,2.09-.93l-.69-.15C103.84,90.21,103.52,86.06,103.25,81.9Z"/><path class="cls-58" d="M98.61,97.32c.24-.69-.06-2,1-2,1-.24,1.39,1.13,2.42,1,.31,2.06.56,4.13.89,6.18a8.15,8.15,0,0,1,.09,2,7.58,7.58,0,0,0-1.08-.23l-.46-.9a9,9,0,0,0-2.35,2.8l-.76-1c0-2.72-.39-5.44-.57-8.16Z"/><path class="cls-58" d="M131.92,98.8l.28-.22c0,.93.06,1.86.1,2.78a17.92,17.92,0,0,1,2.24-1.7c-.17,1.85-.71,3.63-1,5.45a15,15,0,0,0-.16,4.36c1.07-.58,1.86-1.6,3-2a17,17,0,0,0,2.38-1.09l-.12.83c-.33,1.76-1.15,3.38-1.31,5.17l1.37-.62a8.29,8.29,0,0,1-.61,1.94c-.62.54-1.25,1.06-1.85,1.64l-.17-.48c-1.44,1.16-2.28,2.85-3.66,4.06-1.08,1.16-2.43,2-3.49,3.19a27.07,27.07,0,0,1-2.59,2.38c-2.72,2.6-5.49,5.13-8.25,7.7-1.55,1.58-3.26,3-4.89,4.5-.46-.19-.93-.37-1.4-.54l.11-.06c1.2-.6,2-1.76,3-2.59a44,44,0,0,0,4.17-4v-.46c1.81-1.33,3.68-2.58,5.47-3.93a23.57,23.57,0,0,0,4.46-5.41H129l.41,0a8.13,8.13,0,0,0,2.57-3.05c1.31-1.33,2.91-2.5,3.69-4.26a21,21,0,0,0-3.11,1.64c0-1.22,0-2.43,0-3.64l-1.48.92c.15-1.47.46-2.91.72-4.36a79.86,79.86,0,0,1-8.19,2.77l1.13-1.42-1.07.14c0-.74-.06-1.48-.05-2.22.19-1.15.41-2.29.51-3.44l-.49-.13.34-.13c.89-.33,1.81-.62,2.7-1a19.84,19.84,0,0,0,.36,4.21c.63-.57,1.43-1.08,1.6-2,.31-1.19.45-2.41.68-3.62a1.05,1.05,0,0,1,.19.86c-.19,1.92-1.05,3.79-.72,5.74a11.25,11.25,0,0,0,2.85-1.11,15.43,15.43,0,0,0,.18-2.94A31.15,31.15,0,0,0,131.92,98.8Z"/><path class="cls-59" d="M135.74,92.57c.73-3.61,1.19-7.28,1.85-10.9a3.52,3.52,0,0,0,.48.91,9.43,9.43,0,0,1,2.45.69l.91-.44c-.07.81-.13,1.62-.17,2.43-.21,1.93-.36,3.85-.39,5.79a28.87,28.87,0,0,0-.32,3.31c-.31,2.26-.47,4.55-.8,6.81-.12.73-.23,1.46-.35,2.19-.05.27-.11.53-.17.8-1.56,1.48-3.64,2.22-5.49,3.26-.05-.77-.14-1.53-.22-2.3.34-1.82.87-3.61,1-5.45.15-.94.35-1.87.47-2.81-1,.52-1.83,1.22-2.81,1.72,0-.87,0-1.74.09-2.6l.22,0,1.17.15c0,.35.05.7.08,1,0-.24.07-.48.11-.72a3.88,3.88,0,0,0,1.17-.36A24.71,24.71,0,0,0,135.74,92.57Z"/><path class="cls-59" d="M124.86,95a5.18,5.18,0,0,1,2,.17c.24,1.17,0,2.38.31,3.55.33.05.67.06,1,.09h.18c1.27-.37,1.28-1.76,1.74-2.78a14.47,14.47,0,0,1-.84,4.06l-.25.17a7,7,0,0,1-1.93.93,19.43,19.43,0,0,1-.42-3.45,1.33,1.33,0,0,0-1.44,1l-.35,0-.24.48c0-.52-.08-1-.11-1.55A24,24,0,0,0,124.86,95Z"/><path class="cls-60" d="M124.69,82.53l.82-.18c0,1,0,2,.09,3-.26,1.6-.16,3.23-.36,4.84-.14,1.14-.22,2.28-.29,3.42a1.91,1.91,0,0,1-.32,1.16,10.9,10.9,0,0,1-1.12.3C123.84,90.9,124.31,86.72,124.69,82.53Z"/><path class="cls-60" d="M122.08,88.93c0-.47.36-.77.61-1.11l.27.87c.05,2.07,0,4.15,0,6.22a9.66,9.66,0,0,1-1.17-.24,6,6,0,0,1,0-2.59A22.12,22.12,0,0,0,122.08,88.93Z"/><path class="cls-60" d="M121.61,103.53c.68-.27,1.34-.56,2-.82l.49.13c-.1,1.16-.32,2.3-.51,3.44a4,4,0,0,1-1.78,2.54C121.79,107,121.63,105.29,121.61,103.53Z"/><path class="cls-60" d="M108.78,107c1.06-.26,2.14-.4,3.21-.66a26.15,26.15,0,0,1-.07,3.85c-.36.84-1.53.77-2.25.53C108.84,109.6,109.76,108,108.78,107Z"/><path class="cls-60" d="M100.62,108.16c2.64-.38,5.28-.75,7.91-1.16a11.46,11.46,0,0,0-1.16,1.59,11.35,11.35,0,0,0,.16,2.67c-.7.48-1.63.3-2.41.57-.72.11-1.09.78-1.49,1.3-1.95.16-3.9.35-5.86.34l-.63,0c-.49.46-1,.92-1.46,1.39l-.46-.34a9.39,9.39,0,0,1-3.16,2.4c-.15.28-.3.56-.46.84l-.46.3c.49-1.44,1.13-2.84,1.6-4.3-3.64.27-7.3.51-11,.49-.63-.82-1.83-1.08-2-2.23l-.75.53-.85-1.58-.67,0-.46-1.13c-.93-.33-1.87-.62-2.78-1,2.58,0,5.12.9,7.71.51a44.91,44.91,0,0,0,7.71-.13,60.1,60.1,0,0,0,6.35-.52A40.27,40.27,0,0,0,100.62,108.16Z"/><path class="cls-61" d="M59.52,84a35,35,0,0,0,6,1.56c1.57.32,3.19.26,4.78.51a11.27,11.27,0,0,0,0,3.39,32.05,32.05,0,0,0,1,4,8.44,8.44,0,0,1,.39,2.68l.48.63c-.37,2.93,1,5.66,1.83,8.4-.24.37-.47.73-.72,1.09-.42.34-1,.62-1.07,1.23.34.84,1.35,1.05,2.09,1.41.91.38,1.85.66,2.78,1l.46,1.13.67,0,.85,1.58.75-.53c.17,1.15,1.37,1.41,2,2.23a25.5,25.5,0,0,1-15.29-4.38,9.94,9.94,0,0,1-2-3.25A90.78,90.78,0,0,1,60,92.22,42.28,42.28,0,0,1,59.14,88C59.8,86.76,59.41,85.31,59.52,84Z"/><path class="cls-61" d="M139.74,105.69l.47,0a58.28,58.28,0,0,1-1.43,6.07l-.06,0-1.37.62c.16-1.79,1-3.42,1.31-5.17A6.7,6.7,0,0,1,139.74,105.69Z"/><path class="cls-61" d="M82.53,141.67c.94.07,1.89,0,2.83.17a15.26,15.26,0,0,0,2.88.27,43.08,43.08,0,0,1-3.15,4.23c-2-.08-4.06-.29-6.1-.38l.07-.08C80.24,144.5,81.77,143.38,82.53,141.67Z"/><path class="cls-62" d="M89.29,84.57l.06,0c0,.43.08.87.17,1.29.83,4,1.65,8,2.49,12l-1.18.2-.7-.87c-.89.64-.72,1.86-1.43,2.61l-.29-.87-.23.87C87.5,95.39,86.9,91,86.23,86.68a2.9,2.9,0,0,1-.05-1.29A19.4,19.4,0,0,0,89.29,84.57Z"/><path class="cls-62" d="M110.58,86.84A2.2,2.2,0,0,1,111.7,86c.17,2.74.47,5.48.51,8.22l-.24.58c-.37-.15-1-.07-1-.63C110.75,91.73,110.79,89.27,110.58,86.84Z"/><path class="cls-63" d="M44.28,86c.63.15.79-.66,1.08-1-.24,1.85-.71,3.66-.89,5.52-.22.57-.48,1.27-1.17,1.39a26.5,26.5,0,0,1-2.7,0c-1.83-.11-3.66.47-5.48.07,0-.67-.09-1.33-.11-2a35.32,35.32,0,0,1,.76-4.17c.05.2.15.6.21.8a18.9,18.9,0,0,1,2.67-.06C40.54,86.56,42.37,85.79,44.28,86Z"/><path class="cls-64" d="M166.19,86.57a20.61,20.61,0,0,0,2.11-1.29,61.49,61.49,0,0,1,1.38,9.94c-.76.53-2.1.85-2,2-.17,1.61.34,3.33-.37,4.86a87.08,87.08,0,0,0-.83-13.58C166.41,87.86,166.3,87.21,166.19,86.57Z"/><path class="cls-65" d="M70.33,86a86.87,86.87,0,0,0,9.43-.11l-1.58.34c.67,1,.55,2.24.78,3.37.45.85,1.23,1.54,1.37,2.54a2.14,2.14,0,0,0,1.34,1.75,11.73,11.73,0,0,0,2.85,3.33c0,.22-.08.43-.12.65h.45l.28.64c-1.49,1.07-3.25,1.69-4.78,2.7-1.28.83-2.62,1.57-3.82,2.52a35.14,35.14,0,0,1-3.29,2.4c.25-.36.49-.72.72-1.09-.8-2.74-2.2-5.47-1.83-8.4l-.48-.63a8.44,8.44,0,0,0-.39-2.68,32.05,32.05,0,0,1-1-4A11.27,11.27,0,0,1,70.33,86Z"/><path class="cls-66" d="M121.37,91.21a25.69,25.69,0,0,1,.34-4.56c.14,1.81-.13,3.61.07,5.41a6,6,0,0,0,0,2.59,9.66,9.66,0,0,0,1.17.24,29.22,29.22,0,0,1-.16,4.8l-.39-.72-.34.44c-.56-1.44-.22-3-.54-4.5-.54-.41-1.3-.16-1.93-.2a26.1,26.1,0,0,1-.7,5.08c-.31.08-.61.15-.92.24-.06-1.74.16-3.46.25-5.19l1.47-.39a43,43,0,0,1,.26-5.89,14.87,14.87,0,0,0,.42,3Z"/><path class="cls-67" d="M130,95.54c.41-2.87.62-5.76,1.09-8.63a17.51,17.51,0,0,1-.12,3.6c.34.42.94.25,1.41.34.15-.4.31-.8.46-1.21-.16,2.12-.3,4.25-.32,6.38l-.22,0c-.69,0-1.85-.75-2.23.07-.46,1-.47,2.41-1.74,2.78a22.31,22.31,0,0,1,.42-3.81l.22.47Z"/><path class="cls-67" d="M139.75,101.17c.33-2.26.48-4.55.8-6.81,0,.65.05,1.3.08,1.94l1-.46c-.1,1.07-.21,2.14-.36,3.2A4.32,4.32,0,0,0,139.75,101.17Z"/><path class="cls-68" d="M116.7,88.35l.73.6c.05,1.91.1,3.81.19,5.72l-1.19-.15C116.57,92.46,116.16,90.36,116.7,88.35Z"/><path class="cls-69" d="M158.91,92.34a77.15,77.15,0,0,1,7.59-3.84,87.08,87.08,0,0,1,.83,13.58c-.14,2.06-.24,4.12-.49,6.17-.16,1.33-.36,2.67-.62,4l-1.29.41a4.67,4.67,0,0,0-2.68-.67,84.81,84.81,0,0,0-11-1.6c-1.29-.18-2.59-.13-3.88-.31a41.51,41.51,0,0,0-6.11-.12c.75-3.41,1.34-6.85,1.84-10.3l.35.6a37.62,37.62,0,0,1,3.6-2Z"/><path class="cls-70" d="M34.48,98c-.33-2.66.2-5.34.52-8,0,.67.07,1.33.11,2,1.82.39,3.65-.19,5.48-.07a26.5,26.5,0,0,0,2.7,0c.69-.12,1-.82,1.17-1.39,0,.16,0,.48,0,.64,0,1.71-.33,3.41-.39,5.12a10.7,10.7,0,0,0-.24,2.66,32.6,32.6,0,0,0-6.18.29C36.61,98.82,35.57,98.3,34.48,98Z"/><path class="cls-71" d="M125,93.64c.07-1.14.15-2.28.29-3.42.08.53.17,1.06.27,1.58l1.58.48c0,1,0,1.91,0,2.87l1,.15.22-.62a37,37,0,0,1-.18,4.13c-.33,0-.67,0-1-.09-.28-1.16-.06-2.38-.31-3.55a5.18,5.18,0,0,0-2-.17,24,24,0,0,1-.39,2.7c-.11.45-.24.9-.36,1.34l-.55-.05c-.1.45-.21.9-.34,1.35l-.11-.12c-.29-1.68.37-3.4.33-5.11l.08,0a10.9,10.9,0,0,0,1.12-.3A1.91,1.91,0,0,0,125,93.64Z"/><path class="cls-72" d="M140.86,91c.1.29.22.59.33.88l.8-.2c-.11,1.37-.23,2.75-.4,4.12l-1,.46c0-.65-.06-1.3-.08-1.94A28.87,28.87,0,0,1,140.86,91Z"/><path class="cls-72" d="M139.75,101.17A4.32,4.32,0,0,1,141.24,99c-.12,1.15-.32,2.29-.48,3.44h0l-.62.13a8.78,8.78,0,0,0-.71.73C139.52,102.63,139.62,101.89,139.75,101.17Z"/><path class="cls-73" d="M55.4,93.17c.88-.3,1.74-.65,2.58-1,.43,1.77.87,3.55,1.35,5.3a27.76,27.76,0,0,0-3.41,1.48c-3.45.82-6.57,2.65-10,3.38a15.59,15.59,0,0,0-1.6-.36,8.79,8.79,0,0,1-2.23-.64,15.41,15.41,0,0,1-3.66-1.65c2,.53,3.8,1.47,5.78,2,0-1.27.08-2.54.07-3.81,1.54-.45,3-1.09,4.52-1.61C51.06,95.39,53.09,94,55.4,93.17Z"/><path class="cls-74" d="M114.5,94.5l1.62,0h.3a11.69,11.69,0,0,0,.11,3.22,4.82,4.82,0,0,0,1.21.73c.05.68.14,1.37.21,2.05,0-.12,0-.36,0-.48.3-.09.61-.17.92-.24a26.1,26.1,0,0,0,.7-5.08c.63,0,1.39-.21,1.93.2.31,1.48,0,3.06.54,4.5l.34-.44.39.72.3.52.11.12c.13-.45.24-.9.34-1.35l.55.05c.12-.45.25-.9.36-1.34,0,.51.08,1,.11,1.55s-.18,1-.27,1.53a4.91,4.91,0,0,1-2.41,2.09c-.3-1.86-.3-3.75-.57-5.61-.05-.29-.38-.39-.56-.59q-.18.57-.35,1.14l-.75.39c-.3,1.51-.38,3-.68,4.55-.11,1.05-1.35,1.22-2.17,1.45a16.61,16.61,0,0,0-.71-3.35,4.2,4.2,0,0,1-1.73,1.21c-.06,1.23-.08,2.63-1.18,3.42l1.69.1c-.6.14-1.2.31-1.79.46l-1.1.26c-1.06.25-2.15.4-3.21.66l-.25.06c-2.63.4-5.28.78-7.91,1.16.33-.41.56-1.08,1.18-1.09a5.82,5.82,0,0,0,2.69-1.1c0-.37.09-.73.14-1.09l.41-.05c.45-.43.91-.84,1.4-1.22l.46,1.57a5.28,5.28,0,0,0,2.05-1.09c.45-.9.25-2,.52-2.9.08-.38.52-.44.8-.63s.56-.56.84-.85c.18,1,.26,2,.48,3,.09.36.4.9.83.58a8.89,8.89,0,0,0,.25-1.12l.06.13c.12.27.26.54.41.8.38-.15.79-.37.83-.82A13.18,13.18,0,0,0,114.2,98,16.21,16.21,0,0,1,114.5,94.5Z"/><path class="cls-74" d="M129.22,100.1a17.38,17.38,0,0,0,2.7-1.3,31.15,31.15,0,0,1-.1,4,15.43,15.43,0,0,1-.18,2.94,11.25,11.25,0,0,1-2.85,1.11c-.33-1.95.53-3.83.72-5.74a1.05,1.05,0,0,0-.19-.86l-.35,0Z"/><path class="cls-75" d="M109.33,94.76h1.52c.26,1.5.39,3,.7,4.52l.6,0a17.18,17.18,0,0,0,.47,1.71,3,3,0,0,1,.06,1.15,8.89,8.89,0,0,1-.25,1.12c-.43.32-.74-.22-.83-.58-.23-1-.3-2-.48-3-.28.29-.56.57-.84.85s-.72.25-.8.63c-.28.94-.07,2-.52,2.9a5.28,5.28,0,0,1-2.05,1.09l-.46-1.57c-.49.39-1,.79-1.4,1.22l-.41.05c0,.36-.1.72-.14,1.09a5.82,5.82,0,0,1-2.69,1.1c-.62,0-.85.68-1.18,1.09a40.27,40.27,0,0,1-4.57.54l-.82-.18a5.09,5.09,0,0,0,1.17-1.44,12.3,12.3,0,0,0,1.94-.72l0-1.05v-.21l.76,1a9,9,0,0,1,2.35-2.8l.46.9a7.58,7.58,0,0,1,1.08.23l.15.05c0-.17,0-.51,0-.69l1.11-.39a21.82,21.82,0,0,1,.14-2.63,4.91,4.91,0,0,1,1.57-1.64,13.82,13.82,0,0,1,.65,2.95l.65-.06.59.46a4.22,4.22,0,0,1,.27,1.31,24.53,24.53,0,0,1-.17-3.52l1-.14A31.42,31.42,0,0,0,109.33,94.76Z"/><path class="cls-76" d="M130.07,96c.38-.81,1.54-.08,2.23-.07-.06.87-.09,1.74-.09,2.6l-.28.22a17.38,17.38,0,0,1-2.7,1.3A14.47,14.47,0,0,0,130.07,96Z"/><path class="cls-77" d="M94.16,96.22l1.13-.31L96,97.14l.92-.44c.46,2.88,1.11,5.73,1.43,8.63l0,1.05a12.3,12.3,0,0,1-1.94.72,5.09,5.09,0,0,1-1.17,1.44l.82.18a60.1,60.1,0,0,1-6.35.52c-1-.09-1.91-.16-2.87-.18.75-.86,1.82-1.54,2.06-2.73a3.84,3.84,0,0,1,.31,1.08,10.36,10.36,0,0,0,.07-1.48L89,106c-.07-.63-.12-1.25-.17-1.88l.65.57a12.8,12.8,0,0,1,3.31-3,43.88,43.88,0,0,1,.87,4.39c-.09-3.1-.74-6.15-.88-9.25.24.57.5,1.13.74,1.7A3.63,3.63,0,0,0,94.16,96.22Z"/><path class="cls-78" d="M43.86,98.92a10.7,10.7,0,0,1,.24-2.66c0,.52.1,1,.14,1.54,0,1.27-.05,2.54-.07,3.81-2-.5-3.81-1.44-5.78-2l-.71-.44A32.6,32.6,0,0,1,43.86,98.92Z"/><path class="cls-79" d="M120.76,96.67c.18.2.51.3.56.59.27,1.86.27,3.75.57,5.61a4.91,4.91,0,0,0,2.41-2.09c-.11.6-.19,1.2-.32,1.79l-.34.13c-.68.27-1.35.56-2,.82a33.53,33.53,0,0,1-3.26,1c-.57.15-1.13.35-1.7.54a15.6,15.6,0,0,1-1.78.48l-1.69-.1c1.11-.79,1.13-2.18,1.18-3.42a4.2,4.2,0,0,0,1.73-1.21,16.61,16.61,0,0,1,.71,3.35c.82-.23,2.06-.4,2.17-1.45.3-1.5.38-3,.68-4.55l.75-.39Q120.58,97.24,120.76,96.67Z"/><path class="cls-80" d="M34.48,98c1.1.34,2.13.86,3.21,1.25l.71.44a15.41,15.41,0,0,0,3.66,1.65,8.79,8.79,0,0,0,2.23.64,89.69,89.69,0,0,0,1.64,9.86c0,.6-.08,1.2-.14,1.8a18,18,0,0,1-2.23-1.32c-.78-.53-1.81-.46-2.57-1-1.44-.8-2.7-2.11-4.4-2.32-.57,0-.9-.58-1.24-1A94.85,94.85,0,0,1,34.48,98Z"/><path class="cls-81" d="M86.43,98.71l.7-.17c.58,2.59,1.41,5.14,1.76,7.77-.23,1.2-1.31,1.88-2.06,2.73,1,0,1.91.09,2.87.18a44.91,44.91,0,0,1-7.71.13,12.91,12.91,0,0,0-2.53-.32,10,10,0,0,1,.63-1.72c.45-.64,1.18-1.07,1.48-1.82a6.21,6.21,0,0,1,1.16-2.15,5.32,5.32,0,0,0,1.5-2.34l.48-.09c.33-.69.54-1.7,1.5-1.71Z"/><path class="cls-82" d="M60.43,101.19l.06,0c.46,1.61,1.08,3.17,1.62,4.75a66.61,66.61,0,0,1-9.21-1.69C55.31,103,58,102.3,60.43,101.19Z"/><path class="cls-83" d="M44.28,101.94a15.59,15.59,0,0,1,1.6.36,70.53,70.53,0,0,0,7,1.93,66.61,66.61,0,0,0,9.21,1.69h.06c1,2.21,1.84,4.78,4.08,6-2.43,1.47-5,2.6-7.57,3.89-.06-1.22-.08-2.43-.1-3.64l-.37.29a10.16,10.16,0,0,1,0,3.48,3.75,3.75,0,0,1-1.39.82,33,33,0,0,0-3.79,2c-1.43.82-3,1.45-4.4,2.24-.48.21-1,.62-1.51.34a4.79,4.79,0,0,0,.47-4.34,52.32,52.32,0,0,1-1.7-5.24A89.69,89.69,0,0,1,44.28,101.94Z"/><path class="cls-83" d="M34.33,113.07c.6-.27,1.22-.52,1.84-.73.23.92.52,1.82.77,2.73a15.49,15.49,0,0,0,1.36,3.6,23.87,23.87,0,0,0,3,1.94l-.32.6.42.31c.28,1.14,1.51,1.51,2.49,1.84-1.95,1.15-4.13,1.87-6,3.21a62.36,62.36,0,0,1-2.41-6.48,47.05,47.05,0,0,1-1.5-5.85C34.16,113.85,34.25,113.45,34.33,113.07Z"/><path class="cls-84" d="M116.66,105.1c.56-.19,1.12-.39,1.7-.54l.66.15c0,.51,0,1-.08,1.54-.37,1.25-.38,2.9-1.83,3.41A22.73,22.73,0,0,1,116.66,105.1Z"/><path class="cls-85" d="M114.88,105.58a15.6,15.6,0,0,0,1.78-.48,22.73,22.73,0,0,0,.44,4.56c1.45-.5,1.46-2.16,1.83-3.41a13.58,13.58,0,0,1-.22,3.42l2.17-.2c-.27.4-.55.8-.84,1.18-1.48.36-3,.69-4.47.94l.63-1.2c-.62.05-1.25.09-1.88.13-.14-1.46-.31-2.91-.38-4.37l-.85-.11C113.69,105.88,114.28,105.72,114.88,105.58Z"/><path class="cls-85" d="M139.53,154.62a67.51,67.51,0,0,0,20-23c.66.13,1.33.21,2,.3l.22.48A69.83,69.83,0,0,1,104.63,169l-1.15-.27c.53-.52,1.09-1,1.66-1.49A66.85,66.85,0,0,0,139.53,154.62Z"/><path class="cls-86" d="M112,106.29l1.1-.26.85.11c.07,1.46.24,2.91.38,4.37.63,0,1.26-.07,1.88-.13l-.63,1.2a119.52,119.52,0,0,1-11.95,1.55c.4-.52.77-1.19,1.49-1.3.78-.27,1.71-.09,2.41-.57a11.35,11.35,0,0,1-.16-2.67,11.46,11.46,0,0,1,1.16-1.59l.25-.06c1,1,.06,2.65.89,3.73.72.24,1.9.31,2.25-.53A26.15,26.15,0,0,0,112,106.29Z"/><path class="cls-87" d="M35.34,108c.35.39.67.92,1.24,1,1.7.22,3,1.53,4.4,2.32.77.56,1.79.49,2.57,1a18,18,0,0,0,2.23,1.32c.05-.6.11-1.2.14-1.8a52.32,52.32,0,0,0,1.7,5.24c0,.57-.12,1.14-.18,1.71a14.45,14.45,0,0,1-3.52-1.29c-1.13-.74-2.51-.89-3.62-1.64s-2.26-.33-3.35-.75c-.26-.91-.54-1.81-.77-2.73C35.84,110.89,35.53,109.44,35.34,108Z"/><path class="cls-88" d="M141.29,109.95a41.51,41.51,0,0,1,6.11.12c1.29.17,2.59.13,3.88.31a84.81,84.81,0,0,1,11,1.6,4.67,4.67,0,0,1,2.68.67l1.29-.41a63.59,63.59,0,0,1-1.61,6.83A67.39,67.39,0,0,1,88,166.38,67.29,67.29,0,0,1,65.52,158a68.59,68.59,0,0,1-7.25-5c.13-1.54,0-3.09.17-4.63.37,1.35,0,2.77.27,4.14l.41.06a19.93,19.93,0,0,1,.13-5.17,7.74,7.74,0,0,1,1-2.36,18.27,18.27,0,0,0,1,3.64c.34.78.93,1.42,1.28,2.2a3.08,3.08,0,0,0,.68,1.12c1.72,1.45,4,2,6.05,2.56,2.27,1.1,4.82,1.22,7.23,1.81,2.48.29,4.92.84,7.41,1,1.11.07,2.19.39,3.3.45,2.61.09,5.18.56,7.78.66a22.2,22.2,0,0,0,5.72.1c1.59-.25,3.21-.07,4.79-.35a19.09,19.09,0,0,0,4.83-1.07c1-.46,2.06-.84,3-1.41a192.6,192.6,0,0,0,18.17-12.53c2.7-1.9,5.19-4.06,7.86-6,2.38-2,4.88-3.79,7.17-5.86A142.11,142.11,0,0,1,158,122.73c1.75-1.45,4-2.51,5-4.66a9.62,9.62,0,0,0-.39-3.39,6.05,6.05,0,0,0-2.85-1.89c-1.18-.47-2.47-.05-3.68-.41-4.94-1.21-10.06-1.13-15.09-1.64Z"/><path class="cls-89" d="M121.84,112.2c2.53-.57,5-1.45,7.45-2.15-.11,1.74-.38,3.46-.65,5.18a7.79,7.79,0,0,1-.81,2.53c0-.11,0-.33,0-.44-2,.43-4.05-.1-6.08-.17a1.6,1.6,0,0,1-1.21-.52c.17-.33.37-.63.57-.94,0-.6,0-1.19.07-1.79a1.48,1.48,0,0,0,.68-1.61Z"/><path class="cls-90" d="M141.06,110.74c5,.51,10.15.42,15.09,1.64,1.2.35,2.5-.07,3.68.41a6.05,6.05,0,0,1,2.85,1.89,9.62,9.62,0,0,1,.39,3.39c-1,2.15-3.28,3.21-5,4.66a142.11,142.11,0,0,0-11.57,8.63c-2.29,2.07-4.79,3.89-7.17,5.86-2.67,1.93-5.16,4.09-7.86,6a192.6,192.6,0,0,1-18.17,12.53c-1,.57-2,.94-3,1.41a19.09,19.09,0,0,1-4.83,1.07c-1.58.28-3.2.1-4.79.35a22.2,22.2,0,0,1-5.72-.1c-2.6-.11-5.18-.57-7.78-.66-1.11-.06-2.19-.38-3.3-.45-2.49-.15-4.94-.71-7.41-1-2.41-.59-5-.71-7.23-1.81-2.1-.6-4.34-1.11-6.05-2.56a3.08,3.08,0,0,1-.68-1.12,12,12,0,0,0,2.1,1.07c.58.09,1.18.05,1.77.1,1.89.1,3.64.93,5.49,1.23,2.11.35,4.17.94,6.3,1.17,2.3.21,4.56.63,6.86.84,1.81.49,3.69.3,5.52.56,2.39.18,4.78.43,7.18.41,1.83.45,3.67-.12,5.52,0a20.37,20.37,0,0,0,7.21-1.4,49.26,49.26,0,0,0,6.74-4c2.2-1.28,4.18-2.89,6.34-4.23,2.81-2.09,5.69-4.07,8.4-6.28a50.07,50.07,0,0,0,5.94-4.88,6,6,0,0,1,1.59-1.31,44.8,44.8,0,0,0,5-3.67c2-1.86,4.47-3.26,6.3-5.34a15.68,15.68,0,0,1,1.88-1.72c1.76-1.4,4.05-1.88,5.77-3.34.9-.76,2.31-1.48,2.18-2.85a3,3,0,0,0-2.29-2.75c-1.9-.39-3.92-1-5.84-.38-.77.36-1.81.79-1.93,1.74.24,1,1.49,1.46,1.59,2.54.1.89.31,2-.49,2.66-1.62,1.7-4.06,2-6.24,2.36a10.93,10.93,0,0,1-4.18.27,11.26,11.26,0,0,0-1.17-2.47,11.41,11.41,0,0,0,4,0c1.8-.37,3.7-.56,5.27-1.6a2.25,2.25,0,0,0-1.52-1.24,68,68,0,0,0-8.88-.94A53.93,53.93,0,0,0,141.06,110.74Z"/><path class="cls-91" d="M66.24,111.95a28.3,28.3,0,0,0,7.57,3.24c5.27,1.34,10.75.86,16.11.62a10.9,10.9,0,0,1-2.64,4.54c-1.77,1.64-4.07,2.48-6.19,3.54-6.11,2.8-12.19,5.77-17.59,9.81-1.75,1.31-3.89,2.72-4.15,5.09-.21,1.21.5,2.24,1,3.27-.06,1-.08,2-.13,3a7.74,7.74,0,0,0-1,2.36,19.93,19.93,0,0,0-.13,5.17l-.41-.06c-.26-1.37.11-2.78-.27-4.14-.19,1.53,0,3.08-.17,4.63a60.27,60.27,0,0,1-7.13-6.5A67.18,67.18,0,0,1,38,126.56c1.83-1.34,4-2.06,6-3.21a17.48,17.48,0,0,0,3.19-2c.53.28,1-.13,1.51-.34,1.44-.79,3-1.42,4.4-2.24a33,33,0,0,1,3.79-2,3.75,3.75,0,0,0,1.39-.82,10.16,10.16,0,0,0,0-3.48l.37-.29c0,1.21,0,2.42.1,3.64C61.21,114.55,63.81,113.42,66.24,111.95Z"/><path class="cls-92" d="M99.45,115.34a135.6,135.6,0,0,0,22.4-3.06,1.48,1.48,0,0,1-.68,1.61c0,.6,0,1.19-.07,1.79-.2.31-.4.62-.57.94a1.6,1.6,0,0,0,1.21.52c2,.07,4.05.61,6.08.17,0,.11,0,.33,0,.44a14.53,14.53,0,0,1-3,4.42,44.83,44.83,0,0,1-5-.13c-2.13-.32-4.29,0-6.42-.35-3-.14-5.85-1.57-8.9-1.3-2.31.34-4.26,1.74-6.13,3a2.68,2.68,0,0,1-1.31.52c-.46-1.11.57-1.89,1-2.81A15.35,15.35,0,0,0,99.45,115.34Z"/><path class="cls-93" d="M136.25,115.39c.6-.57,1.23-1.1,1.85-1.64a29.1,29.1,0,0,1-1.82,4.66,5.49,5.49,0,0,0-3.89,1.65,12.81,12.81,0,0,0-3.28,7.27c-.09.79-.95,1.09-1.49,1.53-3.25,2-6.42,4.21-9.72,6.17a21.76,21.76,0,0,0,.19-2.79c2.76-2.57,5.53-5.1,8.25-7.7a27.07,27.07,0,0,0,2.59-2.38c1.06-1.17,2.41-2,3.49-3.19,1.38-1.21,2.22-2.9,3.66-4.06Z"/><path class="cls-94" d="M152.41,114c1.92-.58,3.94,0,5.84.38a3,3,0,0,1,2.29,2.75c.12,1.38-1.28,2.09-2.18,2.85-1.72,1.46-4,1.94-5.77,3.34a15.68,15.68,0,0,0-1.88,1.72c-1.84,2.07-4.27,3.48-6.3,5.34a44.8,44.8,0,0,1-5,3.67,19.55,19.55,0,0,0,1.88-4.3,12,12,0,0,0-.12-6.18,10.93,10.93,0,0,0,4.18-.27c2.18-.4,4.63-.66,6.24-2.36.8-.64.59-1.77.49-2.66-.1-1.08-1.35-1.54-1.59-2.54C150.6,114.84,151.64,114.4,152.41,114Z"/><path class="cls-94" d="M134.2,135.65a5.57,5.57,0,0,0,3.61-.24,50.07,50.07,0,0,1-5.94,4.88c-2.71,2.21-5.6,4.19-8.4,6.28-2.16,1.34-4.14,3-6.34,4.23a49.26,49.26,0,0,1-6.74,4,20.37,20.37,0,0,1-7.21,1.4c-1.85-.08-3.68.5-5.52,0-2.4,0-4.79-.23-7.18-.41-1.84-.26-3.72-.07-5.52-.56-2.29-.21-4.56-.63-6.86-.84-2.13-.23-4.19-.82-6.3-1.17-1.85-.3-3.6-1.13-5.49-1.23a11.33,11.33,0,0,0,2.59-1.68c2.94.56,5.86,1.25,8.84,1.61,2.13.38,4.31.39,6.43.8,4.32.35,8.62.87,12.95,1a9.64,9.64,0,0,0,3.27.13c1.72-.35,3.49,0,5.2-.37.79.19,1.47.78,2.33.79a6.78,6.78,0,0,0,5.91-2.7c.61-.69,1-1.54,1.58-2.24,2.37-1.39,4.54-3.09,6.84-4.6,1.66-1.19,3.33-2.37,4.94-3.63C129.5,139.3,132,137.59,134.2,135.65Z"/><path class="cls-95" d="M138.85,117.39a68,68,0,0,1,8.88.94,2.25,2.25,0,0,1,1.52,1.24c-1.57,1-3.47,1.22-5.27,1.6a11.41,11.41,0,0,1-4,0,8,8,0,0,0-2.06-1.75C138.23,118.72,138.55,118.06,138.85,117.39Z"/><path class="cls-96" d="M104.53,120.41c3-.27,5.88,1.16,8.9,1.3,2.13.34,4.3,0,6.42.35a44.83,44.83,0,0,0,5,.13,13.59,13.59,0,0,1-3.62,3,22,22,0,0,1-4.72-.18c-2.58-.09-5.14-.45-7.71-.74a13.54,13.54,0,0,0-5.66-.3c-2.14.67-3.86,2.17-5.81,3.2a19.63,19.63,0,0,0-.19-3.24,2.68,2.68,0,0,0,1.31-.52C100.27,122.14,102.22,120.75,104.53,120.41Z"/><path class="cls-97" d="M103.1,124a13.54,13.54,0,0,1,5.66.3c2.56.29,5.12.65,7.71.74a22,22,0,0,0,4.72.18c-2.13,1.66-4.37,3.17-6.63,4.65-3.54,2.08-7.08,4.15-10.56,6.34A21.23,21.23,0,0,1,99.69,138a44.27,44.27,0,0,1-14.76,1.85A28.78,28.78,0,0,1,79,139.3c3.08-1.67,6.13-3.39,9.26-5,1.31-.73,2.71-1.3,4-2.14a3.4,3.4,0,0,0,2.49-.27c1.57-1,2-3,2.47-4.67l.1-.06C99.24,126.15,101,124.66,103.1,124Z"/><path class="cls-98" d="M73.66,135.77a87.61,87.61,0,0,1,16-7.92c0,.25.09.75.11,1-3.36,1.73-6.72,3.42-10,5.29-2.23,1.3-4.58,2.44-6.68,3.95-.61-.16-1.22-.33-1.81-.54A12.34,12.34,0,0,1,73.66,135.77Z"/><path class="cls-90" d="M89.76,128.85l.08,0c.22.59.47,1.18.74,1.75-2,1.7-4.56,2.44-6.76,3.79-2.65,1.46-5.33,2.86-7.93,4.42l-.12.07c-.93-.23-1.87-.44-2.79-.68l.09-.06c2.11-1.51,4.45-2.65,6.68-3.95C83,132.27,86.4,130.58,89.76,128.85Z"/><path class="cls-99" d="M128.67,130.49c.68-.39,1.22-1.22,2-1.3a12.56,12.56,0,0,0,1.09,3.92,7.24,7.24,0,0,0,2.42,2.53c-2.25,1.94-4.7,3.65-7,5.51-1.61,1.26-3.28,2.44-4.94,3.63-2.3,1.51-4.46,3.21-6.84,4.6.15-.9.56-1.72.77-2.6a11.57,11.57,0,0,0-.8-7.76C119.77,136.13,124.23,133.32,128.67,130.49Z"/><path class="cls-100" d="M90.59,130.56a9.56,9.56,0,0,0,1.64,1.64c-1.25.83-2.65,1.4-4,2.14-3.13,1.58-6.18,3.29-9.26,5a10,10,0,0,1-3.11-.53c2.59-1.56,5.28-3,7.93-4.42C86,133,88.6,132.26,90.59,130.56Z"/><path class="cls-101" d="M69.15,132.8c.22.15.42.33.63.5l.46,0,.49.32.82-.33q0,.85,0,1.7v0a23.61,23.61,0,0,0-3.05,2.29c-.07.89.87,1.3,1.52,1.65,3.93,1.77,8.29,2.26,12.54,2.67-.76,1.71-2.29,2.83-3.46,4.22a62.15,62.15,0,0,1-9.9-1.64,21.78,21.78,0,0,1-6-2.32,3.89,3.89,0,0,1-2-2.37A3.05,3.05,0,0,1,62.39,137a36.47,36.47,0,0,1,2.9-2.23l.09,0C66.86,134.64,67.84,133.37,69.15,132.8Z"/><path class="cls-102" d="M105,138.86c.41-.76.83-1.92,1.89-1.82A7.49,7.49,0,0,1,105,138.86Z"/><path class="cls-103" d="M100.7,140.13c.29-.3.7-.15,1-.1a16.93,16.93,0,0,0-2.22,5.54,38,38,0,0,1-4.54.57l-1.27-.33c.53-.37,1.11-.66,1.63-1.05C97.11,143.2,98.85,141.59,100.7,140.13Z"/><path class="cls-104" d="M101.8,144.31a10.71,10.71,0,0,1,2.59-4.56c-1.55,3.08-2.38,6.73-1.23,10.08a9.56,9.56,0,0,0,2.43,3.7c-1.72.39-3.48,0-5.2.37a9.64,9.64,0,0,1-3.27-.13c-4.33-.13-8.63-.65-12.95-1-2.12-.41-4.3-.42-6.43-.8-3-.37-5.9-1.05-8.84-1.61a14.13,14.13,0,0,0,2.18-3.84,87.94,87.94,0,0,0,25.76,1.33,38.85,38.85,0,0,0,4.18-.72A27.78,27.78,0,0,0,101.8,144.31Z"/><path class="cls-105" d="M63.78,159.2A3.74,3.74,0,0,1,65.52,158,65.41,65.41,0,0,0,75,162.66l-1.07,1,.16.56A66.26,66.26,0,0,1,63.78,159.2Z"/></svg>