<svg id="Layer_1" data-name="Layer 1" xmlns="http://www.w3.org/2000/svg" viewBox="0 0 200 200"><defs><style>.cls-1{fill:#9ed6e5;}.cls-2{fill:#5a5856;}.cls-3{fill:#c6c4c5;}.cls-4{fill:#e7e2e0;}.cls-5{fill:#999a99;}.cls-6{fill:#f7ae25;}.cls-7{fill:#fff;}.cls-8{fill:#72716f;}.cls-9{fill:#b92255;}.cls-10{fill:#b89674;}.cls-11{fill:#76726d;}.cls-12{fill:#503f30;}.cls-13{fill:#9d7d62;}.cls-14{fill:#ceb59a;}</style></defs><title>marcas_</title><path class="cls-1" d="M37.06,59.25A75,75,0,0,1,174.43,89.32c3.73,24.69-6.18,50.79-25.11,67a67.82,67.82,0,0,0-15.06-12.68,86.68,86.68,0,0,0,21.59-15.06l1.65-1.58c-2.3-3.67-5-7.06-7.5-10.56,1.56-4.86,3.44-10.21,2.4-15.3l-.9-.45c2.09-3.25,1.07-7.23.44-10.76-.79-3.21-1.15-6.61-2.72-9.54a49.6,49.6,0,0,1-3.87-7.1C135,53.6,110.41,43.43,89,48.43A52.8,52.8,0,0,0,50.23,83.65C47,94,46.61,105.51,50.35,115.77A51.55,51.55,0,0,0,68.85,142a70.06,70.06,0,0,0-17.77,14.37,75,75,0,0,1-14-97.09Z"/><path class="cls-2" d="M89,48.43c21.45-5,46.09,5.18,56.38,24.9-3-1.72-6.16-5.56-10-3.39-6.28,3.35-8.15,11-9.43,17.41l-.34,1.13a36.06,36.06,0,0,0-7.87-6c-.7-.39-2.08-1.18-2.78-1.58l1.43-.29A26.06,26.06,0,0,0,92.22,67.34,26.48,26.48,0,0,0,71.09,79.45c-.88,1.91-3.47,3.75-2,6.05-5.52,3.84-9.58,9.34-13.07,15a55.69,55.69,0,0,0-5.71,15.26C46.61,105.51,47,94,50.23,83.65A52.8,52.8,0,0,1,89,48.43Z"/><path class="cls-2" d="M51.09,156.34A70.06,70.06,0,0,1,68.85,142c1.23.84,2.5,1.63,3.77,2.43-1.09,3.57-2.22,7.13-3.3,10.72l-1.21.52c-3.51,2.14-1.52,7.33-2.26,10.78A87.87,87.87,0,0,1,51.09,156.34Z"/><path class="cls-2" d="M128.26,146c2-.69,4-1.44,6-2.3a67.82,67.82,0,0,1,15.06,12.68A73.85,73.85,0,0,1,134.93,166c-1.18-3.53.71-8.75-3.27-10.72-.54-1-1-2.08-1.46-3.15Q129.25,149,128.26,146Z"/><path d="M71.09,79.45A26.48,26.48,0,0,1,92.22,67.34a26.06,26.06,0,0,1,24.16,13.27l-1.43.29a42,42,0,0,0-11.29-4.13A41.23,41.23,0,0,0,69.13,85.5C67.62,83.2,70.21,81.36,71.09,79.45Z"/><path d="M135.36,69.93c3.82-2.17,6.94,1.67,10,3.39a49.6,49.6,0,0,0,3.87,7.1,8.64,8.64,0,0,1-2.53-1.32c-2.47-2-5.69-3.71-9-2.9-5.7,1.17-9,6.51-11.76,11.15C127.21,80.91,129.08,73.29,135.36,69.93Z"/><path d="M145.56,95.28c.59-2.4.3-5,.68-7.45.26,2.5.33,5,.41,7.53,2.38.89,2.58,3.45,3.16,5.6-.89,1.48-1.26,3.43-2.84,4.39-2,.48-2.8-1.65-3.41-3.1C143.42,99.79,143.36,96.93,145.56,95.28Zm.81.49c-1.78.4-1.64,3.48,0,4C148.19,99.51,148.27,96,146.38,95.77Z"/><path d="M99.82,94.53c2.52-1.36,5.43-.69,8.11-.29,1.32,1.9,2.92,3.71,2.94,6.17.07,6.2-8.24,9.25-12.33,4.67a8.31,8.31,0,0,1,0-9.39Zm2.62,0c-3.54,1.61.45,7.11,3.2,4.32C108.38,96.78,105.11,92.82,102.45,94.53Z"/><path d="M128.23,97.59a32.54,32.54,0,0,1-.54,12.66c-1.72,7-6.49,12.74-9.3,19.34-2.39,6,.43,12.94,4.84,17.29l-1,.19c-7.57.6-18.15-3.13-17.33-12.39a75.07,75.07,0,0,1-15.39-13.85,92.82,92.82,0,0,0,16.19,8.66c.73-1.74,1.49-3.48,2.28-5.19C116.41,116.93,124.5,108.4,128.23,97.59Z"/><path d="M80.38,148.34c.84.61,1.67,1.21,2.5,1.83,9.71,1.59,19.76,3.53,29.47.69a20.45,20.45,0,0,1,8.82,1.92l.82,1c-1.17,2.2-3.85,1.32-5.81,1.48q-19.1-.15-38.2,0C78.81,152.83,81.71,151.3,80.38,148.34Z"/><path class="cls-3" d="M69.13,85.5a41.23,41.23,0,0,1,34.53-8.74c.24,1.56.45,3.11.74,4.67-2.7,3.86-3.68,8.55-4.57,13.09l-1.27,1.16a165.07,165.07,0,0,0-19.5,4.71c-7.66-.14-15.34-.33-23,.11C59.55,94.84,63.61,89.35,69.13,85.5Z"/><path class="cls-3" d="M146.67,79.1a8.64,8.64,0,0,0,2.53,1.32c1.57,2.93,1.93,6.33,2.72,9.54.63,3.53,1.65,7.51-.44,10.76l-1.67.24c-.58-2.15-.78-4.71-3.16-5.6-.09-2.52-.15-5-.41-7.53C146.33,84.91,146.48,82,146.67,79.1Z"/><path class="cls-4" d="M125.93,87.35c2.75-4.64,6.06-10,11.76-11.15,3.29-.8,6.5.87,9,2.9-.19,2.9-.34,5.81-.43,8.73-.38,2.46-.09,5.06-.68,7.45-2.2,1.64-2.15,4.51-2,7l-1.31-1.64-4.42.44a119,119,0,0,0-11.91-12.23l-.34-.34Z"/><path class="cls-4" d="M103.65,76.76a42,42,0,0,1,11.29,4.13c.69.4,2.07,1.19,2.78,1.58a73,73,0,0,1-.9,18.12l-5.94-.18c0-2.46-1.62-4.27-2.94-6.17-.55-4.43-2.46-8.5-3.54-12.8C104.11,79.88,103.89,78.32,103.65,76.76Z"/><path class="cls-5" d="M99.82,94.53c.89-4.54,1.87-9.23,4.57-13.09,1.08,4.3,3,8.37,3.54,12.8C105.26,93.84,102.35,93.16,99.82,94.53Z"/><path class="cls-6" d="M117.71,82.48a36.06,36.06,0,0,1,7.87,6l.34.34c.83,2.9,1.72,5.8,2.31,8.77-3.74,10.81-11.82,19.34-20.26,26.7,2.55-8,7.41-15.26,8.84-23.7A73,73,0,0,0,117.71,82.48Z"/><path class="cls-7" d="M102.45,94.53c2.66-1.7,5.93,2.25,3.2,4.32C102.9,101.64,98.91,96.14,102.45,94.53Z"/><path class="cls-7" d="M146.38,95.77c1.9.25,1.81,3.74,0,4C144.73,99.25,144.59,96.18,146.38,95.77Z"/><path class="cls-7" d="M56.06,100.51c7.66-.44,15.34-.25,23-.11,6.51,1.48,13,3.19,19.49,4.68,4.09,4.58,12.4,1.53,12.33-4.67l5.94.18c-1.43,8.44-6.29,15.66-8.84,23.7-.79,1.71-1.56,3.44-2.28,5.19a92.82,92.82,0,0,1-16.19-8.66,75.07,75.07,0,0,0,15.39,13.85c-.83,9.26,9.76,13,17.33,12.39l-.9,1c-3,1-6,2-9,2.84-9.71,2.84-19.76.9-29.47-.69-.83-.63-1.66-1.23-2.5-1.83a59.5,59.5,0,0,1-7.76-3.94c-1.27-.8-2.54-1.59-3.77-2.43a51.55,51.55,0,0,1-18.51-26.19A55.69,55.69,0,0,1,56.06,100.51Z"/><path class="cls-7" d="M137.84,101l4.42-.44,1.31,1.64c.61,1.45,1.43,3.58,3.41,3.1,1.58-1,1.95-2.91,2.84-4.39l1.67-.24.9.45c1,5.09-.84,10.44-2.4,15.3C146.11,111.19,142.15,106,137.84,101Z"/><path class="cls-8" d="M79.06,100.39a165.07,165.07,0,0,1,19.5-4.71,8.31,8.31,0,0,0,0,9.39C92,103.58,85.58,101.87,79.06,100.39Z"/><path class="cls-9" d="M140.1,132.62c5.41-.68,10.4-3.08,15.74-4a86.68,86.68,0,0,1-21.59,15.06c-2,.85-4,1.61-6,2.3-1.67.35-3.35.6-5,.92-4.41-4.35-7.22-11.26-4.84-17.29.2.8.6,2.42.81,3.23A71.11,71.11,0,0,0,140.1,132.62Z"/><path class="cls-10" d="M72.62,144.4a59.5,59.5,0,0,0,7.76,3.94c1.33,3-1.57,4.5-2.41,7-2.89,0-5.77-.14-8.65-.19C70.4,151.53,71.53,148,72.62,144.4Z"/><path class="cls-10" d="M123.23,146.87c1.68-.31,3.36-.57,5-.92q1,3.09,1.95,6.18c.19.75.55,2.26.73,3-2.52,0-5,.13-7.53.35L122,153.83l-.82-1c0-1.18.1-3.56.14-4.76l.9-1Z"/><path class="cls-10" d="M101.13,159.89c9.89-.49,19.84-.29,29.73,0,.21,2.71.36,5.42.46,8.15a76.46,76.46,0,0,1-31.24,6.65C101.39,169.81,100.38,164.79,101.13,159.89Z"/><path class="cls-11" d="M112.34,150.86c3-.88,6-1.79,9-2.84,0,1.19-.1,3.58-.14,4.76A20.45,20.45,0,0,0,112.34,150.86Z"/><path class="cls-12" d="M130.21,152.13c.44,1.07.91,2.12,1.46,3.15-15.61,1.24-31.25.6-46.88.8-5.57.2-11.11-1.1-16.67-.45l1.21-.52c2.88.05,5.76.23,8.65.19q19.1-.13,38.2,0c2-.16,4.65.72,5.81-1.48l1.42,1.66c2.5-.23,5-.32,7.53-.35C130.76,154.39,130.4,152.88,130.21,152.13Z"/><path class="cls-13" d="M65.85,166.41c.74-3.44-1.26-8.64,2.26-10.78,5.56-.65,11.1.66,16.67.45,15.63-.2,31.27.44,46.88-.8,4,2,2.09,7.19,3.27,10.72a17.84,17.84,0,0,1-3.6,2c-.1-2.73-.25-5.44-.46-8.15-9.89-.24-19.84-.44-29.73,0-.75,4.9.26,9.92-1,14.75-.22-5.06.09-10.13-.26-15.19-10.07-.42-20.18-.28-30.26-.07a65.08,65.08,0,0,1-1.39,8Z"/><path class="cls-14" d="M69.57,159.38c10.08-.2,20.19-.34,30.26.07.35,5.05,0,10.13.26,15.19a72.62,72.62,0,0,1-31.91-7.22A65.08,65.08,0,0,0,69.57,159.38Z"/></svg>