<svg id="Layer_1" data-name="Layer 1" xmlns="http://www.w3.org/2000/svg" viewBox="0 0 200 200"><defs><style>.cls-1{fill:#9c9e9f;}</style></defs><title>marcas_</title><path class="cls-1" d="M76.86,148.18s-6.74,3.92,4.79,5.24c14,1.59,21.11,1.37,36.5-1.55a63.61,63.61,0,0,0,9.7,4.73c-34.51,14.79-78.09-.86-51-8.43"/><path class="cls-1" d="M72.64,128.88s-7.55,5.59,4,6.79c14.92,1.54,26.7,1.66,47.09-2.26a20.91,20.91,0,0,0,7.26,4.42c-41.72,12.2-88.19,1-58.33-8.95"/><path class="cls-1" d="M108.19,96.15c8.5,9.79-2.23,18.6-2.23,18.6s21.59-11.14,11.67-25.1c-9.26-13-16.36-19.48,22.08-41.78,0,0-60.34,15.07-31.52,48.28"/><path class="cls-1" d="M153.83,162.46s5,4.11-5.49,7.28c-19.92,6-82.9,7.86-100.39.24-6.29-2.74,5.5-6.53,9.22-7.33a23.91,23.91,0,0,1,6.08-.68c-7-4.93-45.21,9.68-19.41,13.86,70.35,11.41,128.25-5.14,110-13.37"/><path class="cls-1" d="M80.1,108.89s-32,7.61-11.34,10.37c8.74,1.17,26.15.91,42.37-.45,13.26-1.12,26.57-3.5,26.57-3.5a56.25,56.25,0,0,0-8.06,4.31c-32.53,8.56-95.38,4.58-77.29-4.18,15.3-7.4,27.74-6.56,27.74-6.56"/><path class="cls-1" d="M137.57,141c33.07-17.18,17.78-33.7,7.11-31.47a24.73,24.73,0,0,0-3.78,1,6,6,0,0,1,2.83-2.18c21.11-7.42,37.35,21.89-6.82,33.5a2.87,2.87,0,0,0,.66-.87"/><path class="cls-1" d="M117.63,11.87s18.31,18.32-17.37,46.49c-28.62,22.6-6.53,35.48,0,50.21-16.7-15.07-29-28.34-20.74-40.69C91.58,49.76,125,41,117.63,11.87"/><path class="cls-1" d="M83.35,187.58c31.74,2,80.49-1.13,81.64-16.15,0,0-2.22,5.69-26.23,10.22-27.09,5.1-60.51,4.5-80.33,1.24,0,0,4.06,3.36,24.92,4.7"/></svg>