<svg id="Layer_1" data-name="Layer 1" xmlns="http://www.w3.org/2000/svg" viewBox="0 0 200 200"><defs><style>.cls-1{fill:#9c9e9f;}</style></defs><title>marcas_</title><path id="path1948" class="cls-1" d="M99.11,24.17a103.3,103.3,0,0,0-17.29,1.48C66.51,28.35,63.73,34,63.73,44.46V58.24H99.91v4.6H50.15c-10.51,0-19.72,6.32-22.6,18.34-3.32,13.78-3.47,22.38,0,36.77,2.57,10.71,8.71,18.34,19.23,18.34H59.22V119.77c0-11.94,10.33-22.48,22.6-22.48H118A18.23,18.23,0,0,0,136,78.91V44.46c0-9.8-8.27-17.17-18.09-18.81A112.81,112.81,0,0,0,99.11,24.17ZM79.54,35.26a6.9,6.9,0,1,1-6.79,6.92A6.86,6.86,0,0,1,79.54,35.26Z"/><path id="path1950" class="cls-1" d="M140.56,62.84V78.91c0,12.46-10.56,22.94-22.6,22.94H81.82c-9.9,0-18.09,8.47-18.09,18.39v34.45c0,9.8,8.53,15.57,18.09,18.39,11.45,3.37,22.43,4,36.14,0,9.11-2.64,18.09-7.95,18.09-18.39V140.9H99.91v-4.6h54.23c10.52,0,14.43-7.33,18.09-18.34,3.78-11.33,3.62-22.23,0-36.77-2.6-10.47-7.56-18.34-18.09-18.34Zm-20.33,87.25a6.9,6.9,0,1,1-6.79,6.87A6.83,6.83,0,0,1,120.23,150.09Z"/></svg>