<svg id="Layer_1" data-name="Layer 1" xmlns="http://www.w3.org/2000/svg" viewBox="0 0 200 200"><defs><style>.cls-1{fill:#9c9e9f;}</style></defs><title>marcas_</title><path class="cls-1" d="M131.69,115,66.11,157.22l99.08,13.53Zm42.88-62.17q-4.39,6.59-8.78,13.18-15.06,22.66-30.11,45.32c-.56.84-1.28,1.51-.5,2.81q14.54,24,28.94,48.09a63.3,63.3,0,0,0,5,7.49L175,52.91Zm-132.3,49.9a2.37,2.37,0,0,0,2.11.42c9.3-4.57,18.65-9,27.75-14,3-1.61,5.24-4.5,7.8-6.84Q92.62,70.64,105.28,59a6.29,6.29,0,0,0,1.44-1.54c3-5.93,6-11.88,9.1-18-3.68-1.38-7.17-2.73-10.7-4a2.61,2.61,0,0,0-1.76.46c-8.17,4.57-16.5,8.89-24.41,13.87-4,2.49-7.19,6.16-10.69,9.36C62.6,64.29,57,69.46,51.39,74.71a28.92,28.92,0,0,0-4,4.66c-3.81,5.55-7.5,11.17-11.37,17C38.21,98.56,40.17,100.7,42.27,102.68Zm34-7.58-14,59,65.65-42.3ZM113.1,62.29,132,108.35,168.89,53ZM77,91.11l50.65,16.44L108.94,61.93ZM43,114.08,25.25,156.45l33.76-1Zm16.43,31.55.42-.09c4.05-16.85,8.16-33.59,12.3-51.1L45,108.5C49.66,120.51,54.59,133.16,59.41,145.62ZM162.08,50.24Q154,48.1,145.91,46c-7.75-2-15.51-4.05-23.26-6.11-1-.26-1.67-.42-2.24.74-2.74,5.61-5.56,11.18-8.34,16.77a3.68,3.68,0,0,0-.14.83l50.14-7.6ZM130.81,37.48l43.94,12.16L167.49,29l-36.61,8.12Zm13.3,133.92-36-4.92c-15-2-29.92-4.29-44.93-6-5.44-.63-11,0-16.55,0-4.53.08-9.07.25-13.6.39a1.8,1.8,0,0,0-1.4.61L144,171.9ZM26,143.52q7.25-16.81,14.49-33.62a2.11,2.11,0,0,0-.5-2.79c-2-1.93-3.91-4-6.13-6.32L25,144.45l.33.16A8.38,8.38,0,0,0,26,143.52Zm95.2-109c8.15-2.1,16.41-3.74,24.62-5.58.53-.12,1-.3,1.57-.45l-.08-.4L112,32.85C115.32,34.3,117.87,35.38,121.18,34.52Z"/></svg>