<svg id="Layer_1" data-name="Layer 1" xmlns="http://www.w3.org/2000/svg" viewBox="0 0 200 200"><defs><style>.cls-1{fill:#e96426;}</style></defs><title>marcas_</title><path class="cls-1" d="M25,56.74q37.54-21.66,75.07-43.33Q137.53,35.05,175,56.7q-.06,43.3,0,86.59-10.72,6.17-21.43,12.34,0-43.26,0-86.52-26.84-15.48-53.67-31-26.79,15.52-53.61,31,.08,43.28.15,86.56Q35.71,149.5,25,143.29Z"/><path class="cls-1" d="M68.66,81c6.87-3.93,13.7-7.92,20.56-11.87q0,43.3,0,86.6c3.6,2.05,7.18,4.13,10.78,6.16q5.33-3.12,10.69-6.21,0-43.28,0-86.55l21.43,12.37q0,43.29,0,86.58Q116,177.31,100,186.59,83.9,177.36,67.86,168q0-43.05,0-86.12C67.69,81.38,68.33,81.23,68.66,81Z"/></svg>