<svg id="Layer_1" data-name="Layer 1" xmlns="http://www.w3.org/2000/svg" viewBox="0 0 200 200"><defs><style>.cls-1{fill:#d91404;}</style></defs><title>marcas_</title><path class="cls-1" d="M128.54,108.83,63,151.09,162,164.61Zm42.88-62.17q-4.39,6.59-8.78,13.18-15.06,22.66-30.11,45.32c-.56.84-1.28,1.51-.5,2.81q14.54,24,28.94,48.09a63.3,63.3,0,0,0,5,7.49l5.84-116.76ZM39.12,96.55a2.37,2.37,0,0,0,2.11.42c9.3-4.57,18.65-9,27.75-14,3-1.61,5.24-4.5,7.8-6.84q12.69-11.64,25.35-23.31a6.29,6.29,0,0,0,1.44-1.54c3-5.93,6-11.88,9.1-18-3.68-1.38-7.17-2.73-10.7-4a2.61,2.61,0,0,0-1.76.46C92,34.34,83.7,38.66,75.79,43.64c-4,2.49-7.19,6.16-10.69,9.36C59.45,58.16,53.8,63.33,48.23,68.57a28.92,28.92,0,0,0-4,4.66c-3.81,5.55-7.5,11.17-11.37,17C35.06,92.43,37,94.56,39.12,96.55Zm34-7.58-14,59,65.65-42.3Zm36.85-32.81,18.93,46.06,36.86-55.38ZM73.87,85l50.65,16.44L105.78,55.79Zm-34.05,23L22.09,150.31l33.76-1Zm16.43,31.55.42-.09c4.05-16.85,8.16-33.59,12.3-51.1L41.89,102.37C46.51,114.37,51.43,127,56.25,139.49ZM158.93,44.11q-8.09-2.14-16.17-4.28c-7.75-2-15.51-4.05-23.26-6.11-1-.26-1.67-.42-2.24.74-2.74,5.61-5.56,11.18-8.34,16.77a3.68,3.68,0,0,0-.14.83l50.14-7.6ZM127.65,31.35,171.59,43.5l-7.26-20.69-36.61,8.12ZM141,165.27l-36-4.92c-15-2-29.92-4.29-44.93-6-5.44-.63-11,0-16.55,0-4.53.08-9.07.25-13.6.39a1.8,1.8,0,0,0-1.4.61l112.44,10.4ZM22.83,137.38q7.25-16.81,14.49-33.62a2.11,2.11,0,0,0-.5-2.79c-2-1.93-3.91-4-6.13-6.32l-8.84,43.66.33.16A8.38,8.38,0,0,0,22.83,137.38Zm95.2-109c8.15-2.1,16.41-3.74,24.62-5.58.53-.12,1-.3,1.57-.45l-.08-.4-35.3,4.75C112.17,28.16,114.72,29.24,118,28.39Z"/></svg>