<svg id="Layer_1" data-name="Layer 1" xmlns="http://www.w3.org/2000/svg" viewBox="0 0 200 200"><defs><style>.cls-1{fill:#ac5c90;}.cls-2{fill:#fff;}</style></defs><title>marcas_</title><path class="cls-1" d="M25,68.6A14,14,0,0,1,38.74,55.35H161.22c7.51-.11,14.1,6.77,13.77,14.26,0,15.58,0,31.17,0,46.75A14,14,0,0,1,166,129a18,18,0,0,1-7.22.92H117.24c2,4.91,4,9.81,6,14.72-8.83-4.87-17.59-9.88-26.46-14.67-19.34-.13-38.7,0-58-.06a14,14,0,0,1-12.41-8A14.5,14.5,0,0,1,25,115.38C25,99.79,25,84.19,25,68.6Zm58.29.81c-4,9.68-5.39,20.16-6.58,30.49A115,115,0,0,1,71,79a8.1,8.1,0,0,0-1.71-4,4.34,4.34,0,0,0-5.42-.52,8.25,8.25,0,0,0-2.67,3.27Q54.52,90.44,47.9,103.06c-2.77-11-4.6-22.2-6.37-33.38-.63-4.43-7.33-4.7-9.33-1.21a6,6,0,0,0-.61,4.14c1.52,9.54,3.14,19.08,5.19,28.52a129.44,129.44,0,0,0,4.76,17.33c.74,1.74,1.63,3.83,3.6,4.43,1.88.35,3.46-1.07,4.66-2.33,3-3.34,5-7.38,6.91-11.38q3.61-7.28,7.31-14.52c2.77,9.46,6.65,19,13.61,26.14,1.52,1.65,4,2.89,6.23,1.82s2.77-4,2.53-6.28c-.38-9.38,1-18.72,2.58-27.94,1.14-6.09,2.53-12.23,5.37-17.78,1.65-3.65-2.12-7.8-5.9-7C85.45,63.94,84.39,67.08,83.32,69.41Zm27.36.9A15.5,15.5,0,0,0,101,75.77a31.71,31.71,0,0,0-7.25,17.47c-.57,5.84.2,12.12,3.68,17,4.35,6.3,13.87,7.91,20.23,3.8,3.71-2.35,6.2-6.16,8.07-10a33.57,33.57,0,0,0,2.91-17.88,20.15,20.15,0,0,0-4.93-11.43A15.42,15.42,0,0,0,110.69,70.31Zm38.42,0c-6.36.74-11,6-13.64,11.41a32.93,32.93,0,0,0-3,20.3c.86,4.48,3,9,6.83,11.63a15.67,15.67,0,0,0,16.38.62,21.26,21.26,0,0,0,7.44-8.27A33.26,33.26,0,0,0,167,85.79a20.26,20.26,0,0,0-4.65-10.86A15.34,15.34,0,0,0,149.1,70.32Z"/><path class="cls-1" d="M111.7,80.68a3.91,3.91,0,0,1,4.48,1.48c2.4,3.49,2.79,8,2,12.09-.69,3.57-2.09,7.21-4.92,9.64-1.29,1.1-2.93,2.12-4.7,1.83s-2.7-1.81-3.36-3.24c-2.54-5.54-1.55-12.26,1.7-17.29C108.13,83.34,109.54,81.4,111.7,80.68Z"/><path class="cls-1" d="M150.1,80.69a3.91,3.91,0,0,1,4.49,1.43A14.45,14.45,0,0,1,157,89.8a20.45,20.45,0,0,1-3.59,12.32c-1.39,1.7-3.19,3.37-5.47,3.63-1.77.18-3.22-1.19-4-2.67-2.53-4.83-2.15-10.8.14-15.65C145.52,84.79,147.16,81.82,150.1,80.69Z"/><path class="cls-2" d="M83.32,69.41c1.06-2.33,2.13-5.47,5.1-5.8,3.78-.82,7.56,3.33,5.9,7C91.49,76.15,90.1,82.29,89,88.38c-1.59,9.22-3,18.56-2.58,27.94.24,2.29-.29,5.13-2.53,6.28s-4.7-.17-6.23-1.82c-7-7.18-10.83-16.69-13.61-26.14q-3.7,7.24-7.31,14.52c-1.93,4-3.95,8-6.91,11.38-1.2,1.26-2.78,2.68-4.66,2.33-2-.6-2.86-2.69-3.6-4.43a129.44,129.44,0,0,1-4.76-17.33c-2.05-9.44-3.66-19-5.19-28.52a6,6,0,0,1,.61-4.14c2-3.49,8.7-3.22,9.33,1.21,1.78,11.19,3.6,22.39,6.37,33.38q6.65-12.6,13.26-25.24a8.25,8.25,0,0,1,2.67-3.27,4.34,4.34,0,0,1,5.42.52A8.1,8.1,0,0,1,71,79,115,115,0,0,0,76.75,99.9C77.93,89.57,79.32,79.09,83.32,69.41Z"/><path class="cls-2" d="M110.69,70.31a15.42,15.42,0,0,1,13,4.38,20.15,20.15,0,0,1,4.93,11.43A33.57,33.57,0,0,1,125.7,104c-1.87,3.89-4.36,7.69-8.07,10-6.36,4.11-15.89,2.5-20.23-3.8-3.48-4.89-4.25-11.17-3.68-17A31.71,31.71,0,0,1,101,75.77,15.5,15.5,0,0,1,110.69,70.31Zm1,10.37c-2.16.72-3.58,2.66-4.77,4.5-3.25,5-4.24,11.75-1.7,17.29.66,1.43,1.71,2.93,3.36,3.24s3.41-.72,4.7-1.83c2.82-2.43,4.23-6.07,4.92-9.64.76-4.08.37-8.6-2-12.09A3.91,3.91,0,0,0,111.7,80.68Z"/><path class="cls-2" d="M149.1,70.32a15.34,15.34,0,0,1,13.25,4.61A20.26,20.26,0,0,1,167,85.79a33.26,33.26,0,0,1-3.9,20.23,21.26,21.26,0,0,1-7.44,8.27,15.67,15.67,0,0,1-16.38-.62c-3.84-2.65-6-7.16-6.83-11.63a32.93,32.93,0,0,1,3-20.3C138.13,76.29,142.75,71.06,149.1,70.32Zm1,10.38c-2.94,1.12-4.58,4.09-6,6.74-2.29,4.84-2.67,10.82-.14,15.65.74,1.47,2.18,2.85,4,2.67,2.27-.26,4.08-1.93,5.47-3.63A20.45,20.45,0,0,0,157,89.8a14.45,14.45,0,0,0-2.4-7.68A3.91,3.91,0,0,0,150.1,80.69Z"/></svg>