<svg id="Layer_1" data-name="Layer 1" xmlns="http://www.w3.org/2000/svg" viewBox="0 0 48 48"><defs><style>.cls-1{fill:#fff;}.cls-2{fill:#9c9e9f;}</style></defs><title>logro_color_</title><rect class="cls-1" x="-5.15" y="-5.15" width="58.3" height="58.3"/><path class="cls-2" d="M25.55,30.45v-.6l-.4-.2a1.9,1.9,0,0,1-.7-2.7l1.2-2.1a2.06,2.06,0,0,1,1.7-1,1.93,1.93,0,0,1,1,.3l.4.2c.3-.2.7-.4,1-.6v-.5a2,2,0,0,1,2-2h2.4a2,2,0,0,1,1.1.3v-2.3a3.37,3.37,0,0,0-3.4-3.4h-4.5v-1.5a3.69,3.69,0,0,0-3.7-3.7h-3.2a3.69,3.69,0,0,0-3.7,3.7v1.5h-4.5a3.37,3.37,0,0,0-3.4,3.4v11.3a3.37,3.37,0,0,0,3.4,3.4h11.9a2.07,2.07,0,0,1,.8-2.6l.4-.2A1.08,1.08,0,0,0,25.55,30.45Zm-5.9-16a.94.94,0,0,1,1-1h3.2a.94.94,0,0,1,1,1V16h-5.2v-1.5Z"/><path class="cls-2" d="M40.35,32.15l-1-.6a4.87,4.87,0,0,0,.1-1.2,4.87,4.87,0,0,0-.1-1.2l1-.6a.68.68,0,0,0,.4-.6.88.88,0,0,0-.1-.7l-1.2-2.1a.68.68,0,0,0-.6-.4h-.2a.9.9,0,0,0-.5.1l-1,.6a8.17,8.17,0,0,0-2-1.2V23a.9.9,0,0,0-.9-.9h-2.4a.9.9,0,0,0-.9.9v1.2a8.17,8.17,0,0,0-2,1.2l-1-.6a.75.75,0,0,0-.5-.1,1,1,0,0,0-.8.5l-1.2,2.1a1,1,0,0,0,.3,1.3l1,.6a4.87,4.87,0,0,0-.1,1.2,4.87,4.87,0,0,0,.1,1.2l-1,.6a.87.87,0,0,0-.3,1.3l1.2,2.1a1,1,0,0,0,.8.5.9.9,0,0,0,.5-.1l1-.6a5.64,5.64,0,0,0,2,1.1v1.2a.9.9,0,0,0,.9.9h2.4a.9.9,0,0,0,.9-.9v-1.2a12.81,12.81,0,0,0,2-1.1l1,.6a.75.75,0,0,0,.5.1h.2a2.09,2.09,0,0,0,.6-.4l1.2-2.1a.88.88,0,0,0,.1-.7C40.65,32.55,40.55,32.25,40.35,32.15ZM33,34.55a4.1,4.1,0,1,1,4.1-4.1A4.19,4.19,0,0,1,33,34.55Z"/><path class="cls-2" d="M33,27.35a3,3,0,1,0,3,3A3.08,3.08,0,0,0,33,27.35Z"/></svg>