<svg id="Layer_1" data-name="Layer 1" xmlns="http://www.w3.org/2000/svg" viewBox="0 0 48 48"><defs><style>.cls-1{fill:#e48d00;}.cls-2{fill:#fff;}.cls-3{fill:#1a171b;}</style></defs><title>logro_color_</title><rect class="cls-1" x="-5.2" y="-5.6" width="58.3" height="58.3"/><path class="cls-2" d="M21.7,20.6a3.17,3.17,0,0,0-2.3.9V18.4H17.7v4.84a3.74,3.74,0,0,0-6.68-1l.48-1.36H9.7L8.3,25.3,7.1,20.9H5.8L4.6,25.3,3.2,20.9H1.4L4,28.2H5l1.4-4.7,1.4,4.7H8.9l1.43-4c0,.11,0,.21,0,.32a3.88,3.88,0,0,0,3.8,3.9,3.8,3.8,0,0,0,3.5-2.5H15.7a1.8,1.8,0,0,1-1.6.9,1.93,1.93,0,0,1-1.9-1.5h5.5v2.8h1.6v-.8a2.89,2.89,0,0,0,2.4,1.1,3.72,3.72,0,0,0,3.6-3.9A3.72,3.72,0,0,0,21.7,20.6Zm-9.6,3.3a2.14,2.14,0,0,1,2.1-1.7,2,2,0,0,1,2,1.7Zm9.4,3a2.24,2.24,0,0,1-2.2-2.3,2.15,2.15,0,1,1,4.3,0A2.16,2.16,0,0,1,21.5,26.9Z"/><path class="cls-3" d="M44.5,20.8l-1.6,4.4-1.6-4.4H39.5v-.1H38v1a3.17,3.17,0,0,0-2.3-1.1,3.3,3.3,0,0,0-3.17,2.25A3.32,3.32,0,0,0,29.4,20.7a3.08,3.08,0,0,0-2.3,1v-.8H25.6v9.2h1.6v-3a2.54,2.54,0,0,0,2.1.9,3.5,3.5,0,0,0,3.25-2.33A3.22,3.22,0,0,0,35.6,27.9,3.39,3.39,0,0,0,38,26.8v.8h1.5V21L42,27l-1.3,3h1.8l3.9-9.2ZM29.1,26.5a2.06,2.06,0,0,1-2-2.2,2.06,2.06,0,0,1,2-2.2,2.21,2.21,0,0,1,0,4.4Zm6.9-.1a2,2,0,0,1-2-2.1,2.06,2.06,0,0,1,2-2.2,2,2,0,0,1,2,2.1A2.06,2.06,0,0,1,36,26.4Z"/></svg>