<svg id="Layer_1" data-name="Layer 1" xmlns="http://www.w3.org/2000/svg" viewBox="0 0 48 48"><defs><style>.cls-1{fill:#4c8494;}.cls-2{fill:#fff;}</style></defs><title>logro_color_</title><rect class="cls-1" x="-5.15" y="-5.15" width="58.3" height="58.3"/><path class="cls-2" d="M35.85,20.75c-1,.9-2.4.5-2.4-1.2v-4.1a2.33,2.33,0,0,0-2.3-2.3H27a1.36,1.36,0,0,0-1.1,2.4c1.4,1.6.7,4.1-2,4.3a2.55,2.55,0,0,1-2-4.3c.9-1,.5-2.4-1.2-2.4h-4.2a2.22,2.22,0,0,0-2.2,2.2v4.2c0,1.7-1.4,2.1-2.4,1.2-1.6-1.4-4.1-.7-4.2,2a2.49,2.49,0,0,0,4.2,2c1-.9,2.4-.5,2.4,1.2v4.1a2.22,2.22,0,0,0,2.2,2.2h4.1c1.7,0,2.1,1.4,1.2,2.4a2.54,2.54,0,0,0,2,4.3,2.55,2.55,0,0,0,2-4.3c-.9-1-.5-2.4,1.2-2.4h4.1a2.22,2.22,0,0,0,2.2-2.2V26c0-1.7,1.4-2.1,2.4-1.2,1.6,1.4,4.1.7,4.2-2S37.55,19.35,35.85,20.75Z"/></svg>