<svg id="Layer_1" data-name="Layer 1" xmlns="http://www.w3.org/2000/svg" viewBox="0 0 48 48"><defs><style>.cls-1{fill:#fff;}.cls-2{fill:#9c9e9f;}</style></defs><title>logro_color_</title><rect class="cls-1" x="-5.15" y="-5.15" width="58.3" height="58.3"/><path class="cls-2" d="M29.75,23.45v-4.4h-1.7l6.1-8.7h-7.6a39.36,39.36,0,0,1-2.6,4,39.37,39.37,0,0,1-2.6-4h-7.6l6.1,8.7h-1.7v4.4a8.72,8.72,0,0,0-3.1,6.7,8.92,8.92,0,0,0,8.9,8.9h.2a8.92,8.92,0,0,0,8.9-8.9A9.62,9.62,0,0,0,29.75,23.45Zm-10.3-3.1h9v2.1a9.33,9.33,0,0,0-4.4-1.2h-.2a8.31,8.31,0,0,0-4.4,1.2Zm8.4,14.9-3.6-2.7-3.6,2.7,1.4-4.3-3.7-2.6h4.5l1.4-4.3,1.4,4.3h4.5l-3.7,2.6Z"/></svg>