<svg id="Layer_1" data-name="Layer 1" xmlns="http://www.w3.org/2000/svg" viewBox="0 0 48 48"><defs><style>.cls-1{fill:#fff;}.cls-2{fill:#9c9e9f;}</style></defs><title>logro_color_</title><rect class="cls-1" x="-5.2" y="-5.15" width="58.3" height="58.3"/><path class="cls-2" d="M31.9,38.05h-1v-1a3,3,0,0,0-3-3h-8a3,3,0,0,0-3,3v1h-1a1,1,0,1,0,0,2h16a.94.94,0,0,0,1-1A1,1,0,0,0,31.9,38.05Z"/><path class="cls-2" d="M37.9,14.05h-5v-3.7a.94.94,0,0,0-1-1h-16a.94.94,0,0,0-1,1v3.7h-5a.94.94,0,0,0-1,1v4a5,5,0,0,0,5,5h1.5a9.08,9.08,0,0,0,5.5,5.5v2.5h6v-2.5a9.08,9.08,0,0,0,5.5-5.5h1.5a5,5,0,0,0,5-5v-4A1,1,0,0,0,37.9,14.05Zm-24,8a3,3,0,0,1-3-3v-3h4v5a3.4,3.4,0,0,0,.1,1Zm12.2-2.5,1.39,4.26h0L23.9,21.15l-3.59,2.7h0l1.4-4.29-3.54-2.49.06-.11H22.5L23.8,13H24l1.3,3.91h4.2a1.16,1.16,0,0,1,.07.16Zm10.8-.5a3,3,0,0,1-3,3H32.8c0-.3.1-.7.1-1v-5h4Z"/></svg>