<svg id="Layer_1" data-name="Layer 1" xmlns="http://www.w3.org/2000/svg" viewBox="0 0 48 48"><defs><style>.cls-1{fill:#fdcf5c;}.cls-2{fill:#e48d00;}.cls-3{fill:#fff;}</style></defs><title>logro_color_</title><rect class="cls-1" x="-5.2" y="-5.15" width="58.3" height="58.3"/><path class="cls-2" d="M31.9,38h-1V37a3,3,0,0,0-3-3h-8a3,3,0,0,0-3,3v1h-1a1,1,0,0,0,0,2h16a.94.94,0,0,0,1-1A1,1,0,0,0,31.9,38Z"/><path class="cls-2" d="M37.9,14h-5v-3.7a.94.94,0,0,0-1-1h-16a.94.94,0,0,0-1,1V14h-5a.94.94,0,0,0-1,1v4a5,5,0,0,0,5,5h1.5a9.08,9.08,0,0,0,5.5,5.5V32h6v-2.5A9.08,9.08,0,0,0,32.4,24h1.5a5,5,0,0,0,5-5V15A1,1,0,0,0,37.9,14Zm-24,8a3,3,0,0,1-3-3V16h4v5a3.4,3.4,0,0,0,.1,1Zm23-3a3,3,0,0,1-3,3H32.8c0-.3.1-.7.1-1V16h4Z"/><polygon class="cls-3" points="23.9 12.75 25.3 16.95 29.8 16.95 26.1 19.55 27.5 23.85 23.9 21.15 20.3 23.85 21.7 19.55 18 16.95 22.5 16.95 23.9 12.75"/></svg>