<?xml version="1.0" encoding="utf-8"?>
<!-- Generator: Adobe Illustrator 21.0.2, SVG Export Plug-In . SVG Version: 6.00 Build 0)  -->
<svg version="1.1" id="Layer_1" xmlns="http://www.w3.org/2000/svg" xmlns:xlink="http://www.w3.org/1999/xlink" x="0px" y="0px"
	 viewBox="0 0 1366 615.3" style="enable-background:new 0 0 1366 615.3;" xml:space="preserve">
<style type="text/css">
	.st0{clip-path:url(#SVGID_2_);}
	.st1{opacity:0.15;}
	.st2{fill:#E6E7E8;}
	.st3{fill:#808285;}
</style>
<title>bg_lines_2</title>
<g>
	<defs>
		<rect id="SVGID_1_" width="1366" height="615.3"/>
	</defs>
	<clipPath id="SVGID_2_">
		<use xlink:href="#SVGID_1_"  style="overflow:visible;"/>
	</clipPath>
	<g class="st0">
		<g class="st1">
			<path class="st2" d="M2030.6,352.2c-1-2.5-3.9-3.6-6.3-2.6c-1.7,0.7-2.8,2.3-3,4.1l-322.4-7.2l-15.3-50.7l0.2-0.1
				c2.5-1,3.6-3.8,2.6-6.3c-0.1-0.3-0.3-0.7-0.5-1l200-158.3c0.6,0.7,1.4,1.2,2.3,1.4l0.5,0.1c0.9,0.2,1.8,0.1,2.7-0.3
				c2.5-1,3.6-3.9,2.6-6.4c-1-2.5-3.9-3.6-6.4-2.6c-1.4,0.6-2.5,1.9-2.9,3.4l-138.3-23.7l101.3-298c2.4,0.7,5,0.6,7.3-0.4
				c5.6-2.3,8.2-8.8,5.8-14.3c-2.3-5.6-8.8-8.2-14.3-5.9c-4.2,1.8-6.9,6-6.7,10.6l-234.2,19.4l159.4-416.1c2.4,0.7,5,0.6,7.3-0.4
				c5.6-2.3,8.2-8.8,5.8-14.3c-2.3-5.6-8.8-8.2-14.3-5.8c-5.6,2.3-8.2,8.8-5.8,14.3c0.6,1.3,1.4,2.5,2.4,3.5l-315.7,332.1l5.5-154.7
				c1.4,0,2.9-0.3,4.2-0.9c5.6-2.3,8.2-8.8,5.9-14.3c0,0,0,0,0,0c-2.3-5.6-8.8-8.2-14.3-5.9c0,0,0,0,0,0c-5.6,2.3-8.2,8.8-5.9,14.3
				c0,0,0,0,0,0c0.9,2.1,2.4,3.9,4.4,5.1l-133,209.3c-2-1.2-4.5-1.4-6.7-0.4c-1.6,0.7-3,1.9-3.8,3.5l-109.1-51c0.8-1.9,0.8-4,0-5.9
				c-1.6-3.8-6-5.6-9.8-4c-3.8,1.6-5.6,6-4,9.9c0.2,0.6,0.5,1.1,0.9,1.6L1056-157.4l-77.4-74c2-2.2,2.5-5.3,1.4-8
				c-1.6-3.8-6-5.6-9.8-4c-3.8,1.6-5.6,6-4,9.9c0.4,1.1,1.1,2,2,2.8L848.2-84l-57.5-86.9c1.8-1.3,2.4-3.7,1.6-5.8
				c-1-2.5-3.9-3.6-6.4-2.6c0,0,0,0,0,0c-2.5,1-3.6,3.9-2.6,6.4c0,0,0,0,0,0c0.5,1.1,1.3,2,2.4,2.5L717.2-7.1l-152-82
				c0.6-1.2,0.6-2.7,0.1-3.9c-1-2.5-3.9-3.6-6.4-2.6c0,0,0,0,0,0c-2.5,1-3.6,3.9-2.6,6.4c1,2.3,3.6,3.5,6,2.7L605,22l-271.5,6
				c-0.2-2.7-2.6-4.6-5.2-4.4s-4.6,2.6-4.4,5.2s2.6,4.6,5.2,4.4c1.8-0.2,3.3-1.3,4-2.9l313.4,112.8c-1.2,4,1,8.2,4.9,9.4
				c4,1.2,8.2-1,9.4-4.9c0.2-0.7,0.3-1.4,0.3-2.2l176.8-3l98.3,124.8c-2,1.8-2.2,4.8-0.5,6.8s4.8,2.2,6.8,0.5
				c1.3-1.1,1.9-2.9,1.6-4.6l30.5-7l40.4,113.2c-2.5,1.1-3.6,3.9-2.6,6.4c1.1,2.5,3.9,3.6,6.4,2.6c2.4-1,3.5-3.7,2.7-6.1l113.6-57.3
				c1.4,2.3,4.4,3,6.6,1.6c1.2-0.7,2-1.9,2.3-3.3l59.5,4.7l36.5,82.3c-2.4,1.2-3.4,4.1-2.2,6.5c1.2,2.4,4.1,3.4,6.5,2.2
				c1.5-0.8,2.5-2.2,2.7-3.9v-0.5c0-0.2,0-0.4-0.1-0.5l114.8-21.3c0.1,0.3,0.2,0.6,0.3,0.9c1.6,3.8,6,5.6,9.8,4
				c0.5-0.2,1.1-0.5,1.5-0.9l0.4-0.3c0.6-0.5,1.1-1.1,1.6-1.8l0.3-0.5c0.5-1,0.8-2.2,0.8-3.3v-0.5c0-0.5-0.1-1-0.2-1.5l114.3-41.4
				c0.8,1.9,2.8,3.1,4.8,2.9l0.5,0c0.3-0.1,0.5-0.1,0.8-0.2l0.5-0.2l0.1-0.1l0.5-0.3c0.1-0.1,0.2-0.2,0.3-0.3l0.4-0.4
				c0.4-0.4,0.7-0.9,0.9-1.4l219.7,84.3c-0.1,0.3-0.1,0.7-0.1,1v0.5c0,0.5,0.2,1,0.3,1.4c0.5,1.3,1.6,2.2,2.9,2.7l0.9,0.2
				c0.9,0.1,1.8,0,2.6-0.3c2-0.8,3.2-2.9,2.9-5l99.1-24.9l0.6-0.1l193.2-48.5c0,0.1,0.1,0.3,0.1,0.4c0.1,0.1,0.1,0.3,0.2,0.4
				l-1.5,1.5l2-0.8v0.1l0.4,0.4c0.2,0.1,0.3,0.3,0.5,0.4l0.5,0.3c2.3,1.3,5.3,0.5,6.6-1.8C2031.1,355.1,2031.2,353.5,2030.6,352.2
				L2030.6,352.2z M1885.5,129.7l-200,158.3c-0.5-0.6-1.1-1-1.8-1.3l23-67.8l178.5-89.7C1885.4,129.4,1885.4,129.6,1885.5,129.7z
				 M1362.5,383.8l-41.4-23.2l14.2-9.2l28.4,30.8C1363.2,382.6,1362.8,383.2,1362.5,383.8L1362.5,383.8z M1260.1,326.9l-36.2-15.6
				l-13.6-72.7l5.5-6.2l46.2,92.6C1261.2,325.3,1260.5,326,1260.1,326.9L1260.1,326.9z M1259.7,328.4l-33-2.6l-2.6-13.9l35.9,15.5
				C1259.8,327.7,1259.7,328.1,1259.7,328.4L1259.7,328.4z M706.7,19.8l10.9-26.1l40.1,21.6c-0.5,1.1-0.7,2.2-0.7,3.4L706.7,19.8z
				 M704.8,22.8l-3-2.4l4-0.1L704.8,22.8z M757,19.2c0.2,1.9,1,3.6,2.4,4.8l-21.8,24.9l-32.5-25.8l1.2-2.8L757,19.2z M759.9,24.3
				c2.1,1.7,5,2,7.5,1l0.3-0.1L785,58.4l-19.4,12.7l-27.5-21.9L759.9,24.3z M1117.5-48.5L1117.5-48.5l-33.6,17.1l-54.6-101.4
				l15.4-13.7l74,92.6C1117.2-52.6,1116.7-50.4,1117.5-48.5L1117.5-48.5z M1195-20.8l-68.5-28c0.4-1.1,0.4-2.4-0.1-3.5
				c-0.5-1.3-1.6-2.2-2.9-2.7l8.3-29.2l64.3,61.5C1195.7-22.1,1195.3-21.4,1195-20.8z M1385.1-126.7l-2.9,14l-44.2-35.6l-3.7-8
				l12.6-13.2L1385.1-126.7z M1347.3-169.9l60-63.1l-22.1,105.7L1347.3-169.9z M1451.9-173.2l53.1-4.4l-64.1,106.2
				c-0.6-0.3-1.2-0.5-1.9-0.6l2-90.3c1.4,0,2.9-0.3,4.2-0.9C1449.3-164.8,1451.9-168.8,1451.9-173.2L1451.9-173.2z M1438.2-62.3
				l-2.9,59.2l-21.1,10.3c-1.2-2.1-3.8-3-6-2.1L1373.8-70l8.7-41.8l52,41.9c-0.9,1.4-1.1,3.1-0.4,4.6
				C1434.8-63.6,1436.4-62.5,1438.2-62.3z M1571.8,72.8L1672.4,90l-51.7,85.9l-52.4-98.2C1570.1,76.7,1571.4,74.9,1571.8,72.8z
				 M1620.3,176.5l-36.3,60.4l-33.1,11.9l13.3-170c1.1,0,2.2-0.2,3.2-0.6l0.4-0.2L1620.3,176.5z M1620.6,177l20.9,39.2l-56.8,20.4
				L1620.6,177z M1550.3,249l-35.4,12.7l-41.3-48.1l87-135.9c0.9,0.5,1.9,0.9,3,1L1550.3,249z M1462,281.4l8.3,15.4l-44.7-1.1
				c0-0.4-0.1-0.7-0.2-1.1L1462,281.4z M1425.3,294c0,0,0-0.1,0-0.1c-0.4-0.8-0.9-1.5-1.7-2l23.9-37.3l14.2,26.4L1425.3,294z
				 M1462.2,280.7l-14.4-26.7l25.5-39.8l41,47.8L1462.2,280.7z M1035.6,200.8c-0.1-0.3-0.3-0.6-0.5-0.9l76.1-58.3
				c1.4,1.8,3.4,3.2,5.6,3.8l-9.4,36.2l-62.3,33l-10.3-9C1036,204.3,1036.2,202.4,1035.6,200.8z M1337.6-148l35.7,78L1358,3.2
				l-21-2.8l-18.8-139.6l13.1-13.8L1337.6-148z M1331.7-153.5l2.3-2.4l3.1,6.8L1331.7-153.5z M1338.6-147.2l43.5,35.1l-8.6,41.3
				L1338.6-147.2z M1405.1,9.4l-46.6-6.2l15.1-72.3l34,74.5C1406.1,6.2,1405.2,7.7,1405.1,9.4z M1441.2,241.7l-16-29.7l2.5-51
				l30.7,35.8L1441.2,241.7z M1458.8,197.2l14.2,16.5l-25.4,39.7l-6-11.1L1458.8,197.2z M1415.4,146.7l11.8,13.7l-2.5,50.7
				l-7.3-13.5L1415.4,146.7z M1416.8,196.5L1352,76.4l1.5-1.8l61.3,71.4L1416.8,196.5z M1424.6,212.2l-3.8,76l-3.4-89.3
				L1424.6,212.2z M1427.7,160.2l6.9-140.4l79.4,31.6l-55.4,144.7L1427.7,160.2z M1427.2,159.6l-11.8-13.8l-5.1-131.4
				c1.7-0.1,3.3-1.2,4-2.8l19.8,7.9L1427.2,159.6z M1414.5,11.2c0.4-1.1,0.3-2.3-0.1-3.4V7.7l20.8-10.2l-1.1,21.5L1414.5,11.2z
				 M1414.8,145.2l-60.9-71l53.1-60.7c0.8,0.6,1.8,1,2.8,1L1414.8,145.2z M1353.5,73.8l-4.8-5.6c1.9-1.8,2-4.9,0.2-6.8
				c-0.6-0.6-1.4-1.1-2.3-1.3l11.8-56.3l46.7,6.2c0.1,1.2,0.6,2.3,1.4,3.1L1353.5,73.8z M1416.4,293.7l-125.6-50l21.2-69.2
				l105.4,117.8C1416.9,292.7,1416.6,293.2,1416.4,293.7z M1130.6,132.9l115.6-25.6c0,0.2,0.1,0.4,0.2,0.6c0,0.1,0.1,0.2,0.1,0.2
				l-112,59.3l-10-22.5C1129,142.7,1131.5,137.8,1130.6,132.9z M1086.4,49.5l16.2-45l15.4,28.5c-2.3,1.4-3,4.3-1.7,6.6
				c0.3,0.4,0.6,0.9,1,1.2l-22.7,29.4L1086.4,49.5z M1094.1,70.6l-28.6,37l20.6-57.3L1094.1,70.6z M1117.7,41.1
				c0.7,0.5,1.6,0.8,2.4,0.8l-0.5,82.1c-1.2,0-2.4,0.2-3.6,0.7l-21.3-54L1117.7,41.1z M1120.7,42c1.6-0.1,3.1-0.9,3.9-2.3l36,19
				l-35.8,66.6c-1.4-0.7-3-1.1-4.6-1.2L1120.7,42z M1181,21.7l66.6,80.7c-0.3,0.3-0.6,0.7-0.9,1.1l-85.4-45L1181,21.7z M1161,58.9
				l85.4,45c-0.4,0.9-0.5,1.8-0.4,2.8l-115.6,25.6c-0.1-0.5-0.3-1.1-0.5-1.6c-0.9-2.2-2.6-4.1-4.7-5.3L1161,58.9z M1249.3,101.3
				l-44.4-112.1c1.4-0.6,2.6-1.6,3.4-2.9l57.7,33.2l-14.6,81.7C1250.7,101,1250,101.1,1249.3,101.3L1249.3,101.3z M1349.5,78.4
				L1337,92.7l7.1-23.3c0.8,0.2,1.6,0.2,2.4,0L1349.5,78.4z M1347.1,69.3l0.2-0.1l0.2-0.1l3.9,7.2l-1.4,1.6L1347.1,69.3z M1335.7,95
				l-24.1,78.5l-22.5-25.2L1335.7,95z M1336.1,93.7l-47.3,54.2l-34.5-38.5c1.3-1.3,1.8-3.3,1.1-5.1l85.7-37.3
				c0.5,1.1,1.4,1.9,2.5,2.3L1336.1,93.7z M1288.4,148.3l-32.4,37.1l-4.5-74.7c0.5,0,0.9-0.2,1.3-0.3c0.4-0.2,0.8-0.4,1.1-0.7
				L1288.4,148.3z M1345,59.9l-8-59l20.8,2.8l-11.8,56.2C1345.7,59.9,1345.4,59.9,1345,59.9z M1344.5,60c-0.3,0.1-0.6,0.2-0.9,0.3
				l-29.8-62.4l22.8,3L1344.5,60z M1343.1,60.5c-0.7,0.4-1.3,0.9-1.8,1.6l-74.7-42.9l4.8-27l41.7,5.6L1343.1,60.5z M1313.5-2.8
				l-31.3-65.5l7.3-40.7l28.2-29.7l18.8,139L1313.5-2.8z M1312.8-2.9l-41.3-5.5l10.5-59L1312.8-2.9z M1266.1,18.9l-57.6-33.1
				c0.3-0.6,0.6-1.3,0.7-1.9l61.7,8.2L1266.1,18.9z M1266.5,19.7l74.6,42.8c-0.6,1.2-0.7,2.6-0.2,3.9l-85.7,37.3
				c-0.6-1.3-1.8-2.2-3.2-2.5L1266.5,19.7z M1250.9,110.8l4.6,75.2l-28.3,32.4l-15.7-6.2c1.6-3.7,0-7.9-3.6-9.7l41.3-92.1
				C1249.7,110.7,1250.3,110.8,1250.9,110.8L1250.9,110.8z M1255.5,186.8l2.7,44l-30.5-12.1L1255.5,186.8z M1256,186.2l32.8-37.5
				l22.7,25.4l-21.3,69.4l-31.5-12.5L1256,186.2z M1312.1,173.9l24.5-80l13.1-15l69.4,212.2l-0.2,0.1c-0.4,0.2-0.8,0.4-1.1,0.7
				L1312.1,173.9z M1351.7,75.9l-3.8-7c0.1-0.1,0.3-0.2,0.4-0.3l4.8,5.6L1351.7,75.9z M1318.1-139.9l-3.6-26.7l16.4,13.2
				L1318.1-139.9z M1317.6-139.4l-28,29.4l12-67l12.3,9.9L1317.6-139.4z M1288.8-108.3l-7,39.2l-10.1-21.2L1288.8-108.3z
				 M1281.6-68.2L1271-8.4l-61.7-8.2c0.2-1.3,0-2.7-0.5-4c-0.3-0.8-0.8-1.5-1.4-2.1l63.8-67.1L1281.6-68.2z M1204.4-10.6l44.4,112.1
				c-0.3,0.1-0.6,0.3-0.8,0.5l-66.7-80.8l17.2-32.2C1200.4-10.1,1202.5-10,1204.4-10.6L1204.4-10.6z M1160.8,58.1l-36-19
				c1.1-2.4,0.1-5.3-2.3-6.4c-0.5-0.2-1.1-0.4-1.7-0.4l1.3-77.8c0.6,0,1.2-0.1,1.7-0.4c0.4-0.2,0.7-0.3,1-0.6l55.8,67.7L1160.8,58.1
				z M1120.2,32.3c-0.6,0-1.2,0.1-1.7,0.4l-0.2,0.1l-15.6-28.9l17.8-49.5c0.3,0.1,0.7,0.2,1,0.2L1120.2,32.3z M1102.4,3.2
				l-11.8-21.9l28-28c0.4,0.4,0.8,0.6,1.3,0.9L1102.4,3.2z M1102.2,3.9l-16.1,44.9l-17.8-45.1l22-22L1102.2,3.9z M1068,3.1
				l-8.5-21.6l24.1-12.2l6.4,11.9L1068,3.1z M1067.6,3.6l-55.3,55.2l-6.6-50l53.3-27L1067.6,3.6z M1067.8,4.1l18,45.4l-21.4,59.5
				l-38.8,50.2l-13.2-99.7L1067.8,4.1z M1025.2,160.5l4.9,37.4c-1.2,0.2-2.3,1-3,2l-21.8-13.6L1025.2,160.5z M1025.6,159.9
				l38.2-49.3l-31.4,87.4c-0.6-0.2-1.2-0.2-1.8-0.2L1025.6,159.9z M1064.9,109.3l29.4-38l21.2,53.7c-5.6,2.4-8.2,8.8-5.8,14.3
				c0.3,0.7,0.7,1.4,1.1,2l-76.1,58.3c-0.5-0.6-1.1-1-1.8-1.3L1064.9,109.3z M1117.3,145.6c2.2,0.5,4.6,0.3,6.7-0.5l10,22.5
				l-25.9,13.7L1117.3,145.6z M1134.2,168.1l23.1,52.1l-63.1,14.5l13.7-52.8L1134.2,168.1z M1134.7,167.9l112.1-59.3
				c0.5,0.7,1.1,1.3,1.9,1.7l-41.3,92.1c-3.8-1.6-8.2,0.3-9.8,4.1c-0.6,1.5-0.7,3.1-0.3,4.6l-39.3,9.1L1134.7,167.9z M1197.3,211.6
				v0.1l-37,14.1l-2.3-5.2L1197.3,211.6z M1197.6,212.2c1.3,3.1,4.6,5,8,4.5l4.1,21.7l-29,33.2l-20-45.2L1197.6,212.2z
				 M1206.1,216.6c0.4-0.1,0.9-0.2,1.3-0.4l0.2-0.1l7.8,15.6l-5.3,6.1L1206.1,216.6z M1208.1,215.9c0.5-0.3,0.9-0.6,1.3-0.9
				l10.6,11.5l-4.2,4.8L1208.1,215.9z M1209.8,214.6c0.6-0.6,1-1.2,1.4-1.9l15.5,6.2l-6.3,7.2L1209.8,214.6z M1227.3,219.1
				l30.9,12.3l2.3,38.2l-39.8-43.1L1227.3,219.1z M1258.8,231.6l31.3,12.4l-13.2,43.2l-15.7-17L1258.8,231.6z M1290.6,244.2
				l125.6,50c-0.3,0.7-0.3,1.5-0.2,2.3l-109.1,23.2l-29.6-32.1L1290.6,244.2z M1350.1,78.5l1.5-1.7l65.2,120.9l3.6,93.2
				c-0.3,0-0.6,0.1-0.8,0.1L1350.1,78.5z M1425.1,213.1l15.8,29.3l-18.7,48.8c-0.3-0.1-0.7-0.2-1-0.2L1425.1,213.1z M1441.3,243
				l5.9,11l-24.1,37.6l-0.4-0.2L1441.3,243z M1473.3,213.3l-14.3-16.6l55.5-145l42.9,17.1c-1.2,3.2,0,6.8,2.8,8.7L1473.3,213.3z
				 M1557.6,68.3l-42.9-17.1l9.2-24l35.3,38.8C1558.5,66.6,1558,67.4,1557.6,68.3L1557.6,68.3z M1514.2,51l-79.5-31.7l1.1-22
				l42.2-20.7l45.6,50.1L1514.2,51z M1478.5-23.7l79.2-38.8l-33.9,88.6L1478.5-23.7z M1478.1-24.1l-36-39.6c1.2-1.2,1.7-3,1.2-4.7
				l134-45.3L1558-63.2L1478.1-24.1z M1440.5-62.7c0.4-0.2,0.8-0.4,1.2-0.7l35.9,39.5l-41.8,20.5l2.9-58.9
				C1439.3-62.3,1439.9-62.4,1440.5-62.7z M1434.9-70.3l-52.2-42.1l2.9-13.8l49.6,55.6C1435.1-70.5,1435-70.4,1434.9-70.3z
				 M1334.2-156.8l-23-50.2c0.5-0.3,1-0.6,1.4-0.9l34,38.1L1334.2-156.8z M1333.8-156.4l-2.5,2.6l-16.9-13.6l-5.3-39
				c0.5-0.1,1.1-0.2,1.6-0.5L1333.8-156.4z M1313.8-167.9l-12.1-9.7l5.1-28.7c0.6,0.1,1.2,0.1,1.8,0L1313.8-167.9z M1301.2-178
				l-8.6-6.9l11.9-22.1c0.6,0.3,1.1,0.5,1.8,0.6L1301.2-178z M1301.1-177.4l-12.1,68.2l-17.5,18.4l-13.9-29.2l34.8-64.5
				L1301.1-177.4z M1271-90.4l-63.9,67.3c-0.4-0.4-0.9-0.7-1.4-1l51.5-95.2L1271-90.4z M1198.1-11.2l-17.2,31.9l-55.7-67.5
				c0.5-0.4,0.8-0.9,1.1-1.5l68.5,28c-0.7,1.8-0.6,3.7,0.1,5.5C1195.6-13.3,1196.7-12,1198.1-11.2L1198.1-11.2z M1090.4-19.2
				l-6.3-11.7l33.6-17c0.2,0.3,0.4,0.6,0.6,0.8L1090.4-19.2z M1083.4-31.1L1059.3-19l-41.1-104l10.6-9.4L1083.4-31.1z M1058.8-18.7
				l-53.2,26.9L991.5-99.3l26.3-23.3L1058.8-18.7z M1005.1,8.4L942.6,40l11.8-106.5L991-98.9L1005.1,8.4z M942,40.3l-30.6,15.5
				L895.9-9c0.2,0,0.3-0.1,0.5-0.1c2.5-1,3.6-3.9,2.6-6.4c0,0,0,0,0,0c-0.2-0.4-0.4-0.8-0.7-1.1l55.5-49.3L942,40.3z M873.2,75.8
				l32.5-16.4l11.1,70L883,104.7L873.2,75.8z M882.3,104.1l-26.7-19.5l17.1-8.7L882.3,104.1z M906.1,58.5L895.5-8.7l15.5,64.8
				L906.1,58.5z M894.9-8.8l10.7,67.6L873,75.2l-20.6-60.7l38.3-25.3C891.6-9.4,893.2-8.7,894.9-8.8z M872.5,75.5l-17.5,8.8
				l-49-35.7l-0.3-3.4l46.1-30.4L872.5,75.5z M805.5,48.2l-2-1.5l1.8-1.2L805.5,48.2z M805.8,44.6l-5.6-69l27.1-33.2l24.4,71.8
				L805.8,44.6z M805.3,44.9l-2.2,1.4l-32.5-23.7c2.1-3,1.7-7.2-1-9.7l30.1-36.8L805.3,44.9z M802.6,46.7L785.4,58l-17.2-33.1
				c0.8-0.5,1.5-1.1,2.1-1.8L802.6,46.7z M785.2,58.8l20.2,38.7c-1.2,0.7-2.3,1.6-3.2,2.6L766,71.5L785.2,58.8z M785.6,58.5
				L803.1,47l2.5,1.8l3.8,47.4c-1.1,0.1-2.1,0.4-3.1,0.8c-0.2,0.1-0.3,0.2-0.5,0.2L785.6,58.5z M806.2,49.3l48.4,35.3L820.2,102
				c-2-3.7-6-6-10.2-5.8L806.2,49.3z M855,84.9l27.6,20.1l8.1,23.7l-69.4-19.1c0.5-2.2,0.3-4.6-0.6-6.7c-0.1-0.2-0.2-0.3-0.2-0.5
				L855,84.9z M883.3,105.6l33.6,24.5l1,6.1l-26.7-7.3L883.3,105.6z M917.5,130.6l7.5,5.4c-0.4,0.6-0.7,1.3-0.9,2l-5.6-1.5
				L917.5,130.6z M918,136.9l0.6,3.6l-23.2,0.4l-3.8-11.3L918,136.9z M918.5,137l5.3,1.5c-0.2,0.6-0.2,1.3-0.2,1.9l-4.6,0.1
				L918.5,137z M925.3,135.6l-7.9-5.8l-11.2-70.8l4.8-2.4l18.2,76.3c-0.3,0.1-0.6,0.2-0.9,0.3C927.1,133.7,926.1,134.5,925.3,135.6
				L925.3,135.6z M911.5,56.4L942,41l-10.2,91.7c-0.7,0-1.3,0-2,0.1L911.5,56.4z M942.5,40.7L1005.2,9l6.6,50.3l-75.5,75.4
				c-1.1-1-2.5-1.7-4-1.9L942.5,40.7z M1011.9,59.9l13.2,99.8l-20.2,26.2l-67.1-42c1.7-2.9,1.3-6.5-1-8.9L1011.9,59.9z M934.1,147.1
				c1.3-0.6,2.5-1.5,3.3-2.7l67.1,42l-38.7,50L934,147.1L934.1,147.1z M1005,186.7l21.8,13.7c-0.7,1.3-0.8,2.9-0.2,4.2
				c0.1,0.3,0.3,0.5,0.4,0.8l-57.1,42.4L966,237L1005,186.7z M1027.4,205.8c0.8,0.9,1.9,1.5,3.1,1.7l-1.2,15.6l-57.3,30.3l-1.8-5.1
				L1027.4,205.8z M1031,207.5c1.3,0,2.7-0.5,3.6-1.5l10.1,8.8l-14.9,7.9L1031,207.5z M1045.1,215.3l27.9,24.4l-45.4,10.5l2.1-26.7
				L1045.1,215.3z M1045.7,215l61.7-32.7l-13.6,52.6l-19.9,4.6L1045.7,215z M1093.5,235.5l-3.4,13.1c-1.6-0.3-3.3,0.2-4.4,1.4
				l-11.5-10L1093.5,235.5z M1094.1,235.4l63.5-14.6l2.3,5.3l-66.3,25.3c-0.6-1.3-1.7-2.2-3-2.6L1094.1,235.4z M1160.1,226.5
				l20.2,45.5l-13,14.8l-73.6-31.8c0.4-1,0.4-2.1,0.1-3.1L1160.1,226.5z M1180.5,272.5l10.9,24.7l-23.6-10.2L1180.5,272.5z
				 M1180.9,272.1l28.9-33.1l13.5,72l-31.1-13.4L1180.9,272.1z M1216.1,231.8l4.3-4.9l40.2,43.5l3.3,53.8c-0.5,0-0.9,0.2-1.3,0.3
				l0,0L1216.1,231.8z M1261.2,271l15.5,16.8l-11.2,36.5c-0.3-0.1-0.7-0.1-1.1-0.1L1261.2,271z M1277.1,288.2l29.2,31.6l-37.2,7.9
				c-0.4-1.6-1.6-2.9-3.1-3.3L1277.1,288.2z M1306.7,320.3l10.7,11.6l-48.1-2.7c0-0.3,0-0.6-0.1-0.9L1306.7,320.3z M1317.9,332.4
				l17,18.5l-14.4,9.3l-51.8-29.1c0.2-0.5,0.4-1,0.4-1.5L1317.9,332.4z M1335.4,350.6l-16.7-18.1l41.1,2.3L1335.4,350.6z
				 M1318.2,331.9l-10.8-11.7l108.8-23.2c0,0.2,0.1,0.4,0.2,0.6c0.1,0.2,0.2,0.4,0.3,0.5l-56,36.2L1318.2,331.9z M1416.9,298.6
				c0.4,0.5,0.8,0.9,1.3,1.2l-20.6,36.6l-36.1-2L1416.9,298.6z M1418.6,300.1c1.1,0.6,2.5,0.6,3.7,0.2l0.5-0.2
				c0.8-0.4,1.4-0.9,1.9-1.6l66.1,41.3c-0.3,0.6-0.5,1.2-0.6,1.9l-53-3h-0.6l-38.5-2.2L1418.6,300.1z M1491.1,339.3l-66.1-41.2
				c0.3-0.6,0.5-1.3,0.6-1.9l45,1.1l22,40.7C1492,338.3,1491.5,338.8,1491.1,339.3L1491.1,339.3z M1470.9,296.7l-8.4-15.5l52.2-18.8
				l24.5,28.5c-2.1,2-3.3,4.6-3.5,7.5L1470.9,296.7z M1539.6,290.5l-24.3-28.3l35-12.6l-3,38.3
				C1544.5,287.8,1541.8,288.7,1539.6,290.5L1539.6,290.5z M1550.8,249.4l32.7-11.8l-31.2,51.9c-1.4-0.8-2.9-1.4-4.5-1.5
				L1550.8,249.4z M1584.3,237.3l57.5-20.7l14.4,27.1l-99.9,50.2c-0.8-1.6-2.1-3.1-3.6-4.1L1584.3,237.3z M1706.3,218.6l-49.6,24.9
				l-14.4-27L1716,190L1706.3,218.6z M1716.7,189.7l165.7-59.6L1707,218.2L1716.7,189.7z M1656.5,244.2l22.9,42.9
				c-1.5,0.9-2.3,2.5-2.3,4.1l-119.5,6.9c-0.1-1.2-0.4-2.4-0.8-3.5l-0.1-0.2L1656.5,244.2z M1679.9,286.8L1657,244l49.1-24.7
				l-22.9,67.2c-1-0.3-2.2-0.2-3.2,0.2L1679.9,286.8z M1884.7,126.3c-0.1,0.8,0,1.6,0.3,2.3L1717,189.1l29.4-86.4L1884.7,126.3z
				 M1716.3,189.3L1642,216l-21-39.5l52-86.4l72.8,12.5L1716.3,189.3z M1847.3-196l-101.4,298l-72.7-12.4l172.3-286.4
				C1846.1-196.5,1846.7-196.2,1847.3-196L1847.3-196z M1845.1-197L1672.7,89.5l-100.7-17.2c0.3-2.2-0.4-4.4-1.9-6l273.1-264.8
				C1843.7-198,1844.4-197.5,1845.1-197L1845.1-197z M1842.8-198.9L1569.7,65.9c-2.8-2.7-7.1-2.8-10.1-0.3l-35.4-39l34.2-89.4
				l282.8-138.5C1841.6-200.4,1842.1-199.6,1842.8-198.9L1842.8-198.9z M1840.8-202.1c0,0.1,0.1,0.2,0.2,0.3L1558.7-63.6l19.3-50.4
				l262.6-88.7C1840.6-202.4,1840.7-202.3,1840.8-202.1L1840.8-202.1z M1840-205.3c0.1,0.7,0.2,1.5,0.4,2.2l-262.2,88.5l27.3-71.3
				L1840-205.3z M1577.6-114.3l-134.5,45.4V-69c-0.4-0.9-1-1.6-1.7-2.1l64.3-106.5l99.3-8.2L1577.6-114.3z M1764.7-602.7
				l-159.5,416.3l-99.2,8.2l256.8-425.4C1763.4-603.2,1764-603,1764.7-602.7L1764.7-602.7z M1762.4-603.8l-257,425.7l-53.4,4.4
				c-0.1-1.3-0.3-2.5-0.8-3.7c-0.7-1.7-1.9-3.2-3.3-4.4L1762-604.1L1762.4-603.8z M1760.9-605c0.2,0.2,0.4,0.3,0.6,0.5l-314.2,422.4
				c-1.7-1.2-3.6-1.9-5.6-2l3.2-88.3L1760.9-605z M1444.2-271.9l-3.1,87.7c-1.5,0-3,0.3-4.4,0.9c-5.6,2.3-8.2,8.8-5.8,14.3
				c1.6,3.9,5.4,6.5,9.6,6.7l-2,90.3c-0.6,0-1.2,0.1-1.7,0.4c-0.4,0.2-0.8,0.4-1.1,0.7l-49.9-55.9l22.3-106.9L1444.2-271.9z
				 M1449.8-428l-5.6,155.3l-36,37.9l40.4-193.3C1449.1-428.1,1449.4-428,1449.8-428z M1445.1-429.3c0.9,0.5,2,0.9,3,1.1L1407.6-234
				l-60.6,63.7l-34-38.1c2.2-2.2,2.9-5.5,1.7-8.3c-0.6-1.3-1.5-2.5-2.7-3.3L1445.1-429.3z M1300.9-216.7c-0.8,1.9-0.8,4,0,5.9
				c0.6,1.5,1.7,2.7,3.1,3.6l-11.9,22l-101-81.4c0.2-0.3,0.5-0.7,0.6-1L1300.9-216.7z M1190.9-266.2l101,81.4l-34.7,64.2
				l-68.7-143.8C1189.4-264.8,1190.2-265.5,1190.9-266.2L1190.9-266.2z M1188-264.2l68.8,144.2l-51.7,95.6c-1.1-0.5-2.3-0.8-3.6-0.8
				l-15.7-238.4C1186.6-263.7,1187.3-263.9,1188-264.2L1188-264.2z M1185.4-263.6l15.7,238.4c-0.7,0.1-1.5,0.3-2.2,0.5
				c-0.9,0.4-1.7,0.9-2.4,1.6l-64.5-61.7l51.3-179.2C1184-263.7,1184.7-263.6,1185.4-263.6L1185.4-263.6z M1179.5-266.2
				c0.9,1,2.1,1.8,3.3,2.2l-51.2,178.9l-75.2-71.9L1179.5-266.2z M1056-156.6l75.4,72.1l-8.4,29.4c-1-0.2-2.1-0.2-3,0.2
				c-0.3,0.1-0.6,0.3-0.9,0.5l-74.1-92.6L1056-156.6z M978.3-231l77.4,74l-10.9,9.7L978-230.8L978.3-231z M977.6-230.4l66.7,83.4
				l-15.3,13.7L976.9-230C977.1-230.1,977.4-230.3,977.6-230.4L977.6-230.4z M976.4-229.7l52.1,96.8l-10.5,9.4l-41.9-106
				L976.4-229.7z M975.6-229.4l42,106.2L991.4-100l-17-129.1C974.8-229.2,975.2-229.3,975.6-229.4L975.6-229.4z M973.8-229
				l17.1,129.4l-36.3,32.2l18-161.7C973-229,973.4-229,973.8-229L973.8-229z M968.6-230.4c1,0.7,2.1,1.2,3.4,1.4L954-66.7l-56,49.7
				c-1.4-1.4-3.5-1.8-5.3-1.1c-0.2,0.1-0.5,0.2-0.7,0.4l-43.5-65.7L968.6-230.4z M848.1-83l43.4,65.6c-1.7,1.3-2.3,3.7-1.5,5.7
				c0.1,0.2,0.2,0.4,0.3,0.6L852.2,14l-24.5-72L848.1-83z M789.6-170.3c0.2-0.1,0.4-0.2,0.6-0.3l57.6,87.1l-20.3,24.9L789.6-170.3
				L789.6-170.3z M789-170.1l38.1,112l-27,33L788.4-170C788.6-170,788.8-170.1,789-170.1L789-170.1z M787.8-169.9l11.8,145.3
				l-30.4,37.2c-1-0.8-2.3-1.4-3.6-1.6l21.8-180.9C787.6-169.9,787.7-169.9,787.8-169.9L787.8-169.9z M786.1-170.2
				c0.3,0.1,0.5,0.2,0.8,0.2L765.1,10.9c-3-0.3-5.9,1.2-7.3,3.9L717.7-6.9L786.1-170.2z M565-88.7L717-6.6l-11,26.4l-4.9,0.1
				L564.9-88.4L565-88.7z M562.9-86.8c0.6-0.3,1.2-0.7,1.6-1.2L700.3,19.9L605.6,22L562.9-86.8z M646.6,142.6L333.3,29.8
				c0.1-0.4,0.2-0.8,0.2-1.2l271.7-6l45.5,115.9C648.9,139.3,647.4,140.8,646.6,142.6L646.6,142.6z M651.2,138.3L605.8,22.5
				l95.1-2.1l3.6,2.9l-48.2,115.1C654.7,137.7,652.9,137.7,651.2,138.3L651.2,138.3z M656.8,138.5L705,23.6l32.3,25.7l-78.9,90.2
				C658,139.1,657.4,138.8,656.8,138.5L656.8,138.5z M658.8,139.9l78.9-90.2l27.4,21.8l-105.4,69.5
				C659.5,140.5,659.2,140.2,658.8,139.9L658.8,139.9z M660.9,143.4c-0.1-0.3-0.2-0.7-0.3-1c-0.2-0.4-0.3-0.7-0.5-1.1l105.5-69.6
				l36.2,28.8c-1.9,2.5-2.6,5.8-1.9,8.9L660.9,143.4z M661.2,144.9c0-0.3-0.1-0.6-0.1-0.9L800,110c0.1,0.5,0.3,0.9,0.5,1.4
				c2.4,5.5,8.8,8.2,14.3,5.8c0.8-0.4,1.6-0.8,2.3-1.3l20.4,25.9L661.2,144.9z M838.2,141.9l-20.7-26.2c1.7-1.4,2.9-3.3,3.5-5.4
				l69.8,19.2l3.9,11.5L838.2,141.9z M936.7,266.9l-98-124.5l56.3-1l42.5,125C937.2,266.5,936.9,266.6,936.7,266.9L936.7,266.9z
				 M937.9,266.3l-42.4-124.9l23.2-0.4l19.8,125C938.3,266,938.1,266.1,937.9,266.3L937.9,266.3z M939,266l-19.8-125l4.5-0.1
				c0.4,4.1,4.1,7.2,8.2,6.8c0.5-0.1,1-0.2,1.5-0.3l31.9,89.5l-23.2,29.9C941.3,266.2,940.2,265.9,939,266L939,266z M942.6,267.2
				l23-29.7l3.8,10.7l-26.3,19.5C943,267.5,942.9,267.3,942.6,267.2L942.6,267.2z M943.5,268.2l26.1-19.4l1.8,5l-27.8,14.7
				c0-0.2-0.1-0.3-0.1-0.4L943.5,268.2z M944.1,269.5c0-0.1-0.1-0.3-0.1-0.4v0l27.7-14.7l2.9,8.1L944.1,269.5z M975.1,262.3l-3-8.3
				l57-30.2l-2.1,26.5L975.1,262.3z M1015.6,375.9l-40.4-113.2l51.8-11.9l-9.8,124.9C1016.6,375.7,1016.1,375.7,1015.6,375.9z
				 M1017.7,375.7l9.8-125l46-10.6l11.8,10.3c-1.7,2.1-1.3,5.1,0.8,6.8c0.1,0.1,0.3,0.2,0.4,0.3l-67.2,118.8
				C1018.8,376,1018.3,375.8,1017.7,375.7L1017.7,375.7z M1021.4,378.4c-0.4-0.8-0.9-1.4-1.6-1.9l67.2-118.8
				c1.6,0.8,3.4,0.7,4.9-0.3l44.1,58.1c-1.5,1.4-1.9,3.5-1.2,5.4c0,0.1,0.1,0.1,0.1,0.2L1021.4,378.4z M1137.4,314.5
				c-0.4,0.2-0.7,0.4-1,0.6l-44.1-58.1c0.5-0.4,0.9-0.9,1.2-1.5l73.5,31.7l-24.6,28.1C1141,314.1,1139.1,313.8,1137.4,314.5
				L1137.4,314.5z M1144.1,319.3c0.1-1.3-0.4-2.7-1.3-3.6l24.7-28.2l24.3,10.5l11.5,26L1144.1,319.3z M1192.5,298.3l30.8,13.3
				l2.6,14.1l-22-1.8L1192.5,298.3z M1240.5,406.7l-36.3-82.1l21.9,1.7l15,80.2C1240.9,406.5,1240.8,406.6,1240.5,406.7
				L1240.5,406.7z M1241.6,406.4l-15-80l32.9,2.6c-0.1,2.7,2,4.9,4.6,5.1c1.8,0.1,3.5-0.8,4.4-2.3l51.5,28.9l-73.8,47.8
				C1245.1,407,1243.4,406.2,1241.6,406.4L1241.6,406.4z M1246.9,410.1c-0.1-0.3-0.1-0.5-0.2-0.7c-0.1-0.2-0.2-0.3-0.3-0.5
				l74.1-47.9l41.7,23.4c-0.6,1.4-0.8,3-0.5,4.5L1246.9,410.1z M1366.1,380.4c-0.8,0.3-1.5,0.8-2.1,1.3l-28.3-30.8l25-16.1l36.6,2.1
				l-24.6,43.8C1370.7,379.6,1368.3,379.5,1366.1,380.4L1366.1,380.4z M1445.2,359.9l-0.5,0.2l-68.5,24.8c-0.1-0.1-0.1-0.3-0.2-0.4
				c-0.6-1.4-1.6-2.6-2.9-3.4l24.7-44l39,2.2h0.6l52.7,3c0,0.4,0.1,0.9,0.2,1.3L1445.2,359.9z M1493.1,337.7l-0.2,0.1l-21.8-40.5
				l64.5,1.6c0,2.6,0.9,5,2.5,7l-39.5,33C1497.3,337.4,1495.1,336.9,1493.1,337.7L1493.1,337.7z M1499.9,342c0-0.9-0.3-1.8-0.9-2.6
				l39.5-33.1c2.6,2.8,6.5,4.1,10.2,3.3l0.5-0.1c0.5-0.1,1-0.3,1.5-0.5c0.3-0.1,0.6-0.3,0.9-0.5l0.5-0.3c3.3-2,5.3-5.6,5.3-9.5
				l119.5-7c0,0.5,0.2,0.9,0.3,1.3c0.4,1,1.2,1.9,2.2,2.4l0.5,0.2c0.9,0.4,1.9,0.4,2.9,0.2l15.3,50.5L1499.9,342z M1721.9,425.2
				c-1.2,0.5-2.2,1.5-2.7,2.8l-134.4-51.7l-85.1-32.7c0.1-0.4,0.2-0.7,0.2-1.1l198.6,4.5l23.7,78L1721.9,425.2z M1728.5,428.5
				c-0.5-2.6-3.1-4.2-5.6-3.7c-0.1,0-0.2,0-0.3,0.1l-23.5-77.9l319.7,7.2l2.6,0.4c0,0.1,0,0.3,0,0.4L1728.5,428.5z"/>
			<path class="st3" d="M1956.2,302.6c-0.9-2.2-3.4-3.2-5.6-2.3c-1.5,0.6-2.5,2-2.6,3.6l-286.6-6.4l-13.6-45l0.2-0.1
				c2.2-0.9,3.2-3.4,2.3-5.6c-0.1-0.3-0.3-0.6-0.5-0.8l177.8-140.7c0.5,0.6,1.3,1.1,2.1,1.3l0.5,0.1c2.4,0.4,4.6-1.2,5-3.6
				c0.4-2.4-1.2-4.6-3.6-5c-2.3-0.4-4.4,1.1-4.9,3.3l-122.9-21l90-264.8c2.1,0.6,4.4,0.5,6.5-0.4c5-2.1,7.3-7.8,5.2-12.7
				c0,0,0,0,0,0c-2.1-5-7.8-7.3-12.7-5.2c0,0,0,0,0,0c-3.8,1.6-6.1,5.3-5.9,9.4l-208.1,17.2L1720.2-546c2.1,0.6,4.4,0.5,6.5-0.4
				c5-2.1,7.3-7.8,5.2-12.7c0,0,0,0,0,0c-2.1-5-7.8-7.3-12.7-5.2c0,0,0,0,0,0c-5,2.1-7.3,7.8-5.2,12.7c0,0,0,0,0,0
				c0.5,1.2,1.2,2.2,2.1,3.1l-280.5,295.1l4.9-137.5c1.3,0,2.5-0.3,3.7-0.8c4.9-2.1,7.3-7.8,5.2-12.7c-2.1-5-7.8-7.3-12.7-5.2
				c0,0,0,0,0,0c-4.9,2.1-7.3,7.8-5.2,12.7c0.8,1.9,2.2,3.5,3.9,4.5l-118.2,186c-1.8-1.1-4-1.2-6-0.4c-1.5,0.6-2.6,1.7-3.4,3.1
				l-96.9-45.3c0.7-1.7,0.7-3.5,0-5.2c-1.4-3.4-5.3-5-8.7-3.6c0,0,0,0,0,0c-3.4,1.4-5,5.3-3.6,8.7c0,0,0,0,0,0
				c0.2,0.5,0.5,1,0.8,1.4L1090-150.3l-68.8-65.8c1.8-1.9,2.2-4.7,1.2-7.1c-1.4-3.4-5.3-5-8.7-3.6c0,0,0,0,0,0
				c-3.4,1.4-5,5.3-3.6,8.7c0,0,0,0,0,0c0.4,1,1,1.8,1.8,2.5L905.3-85.1l-51.1-77.3c1.6-1.2,2.2-3.3,1.4-5.1
				c-0.9-2.2-3.5-3.2-5.7-2.3c0,0,0,0,0,0c-2.2,0.9-3.2,3.5-2.3,5.7c0,0,0,0,0,0c0.4,1,1.2,1.7,2.1,2.2L788.9-16.8L653.8-89.7
				c0.5-1.1,0.6-2.4,0.1-3.5c-0.9-2.2-3.5-3.2-5.7-2.3c0,0,0,0,0,0c-2.2,0.9-3.2,3.5-2.3,5.7c0.9,2.1,3.2,3.1,5.3,2.4l37.8,96.6
				l-241.3,5.4c-0.2-2.4-2.3-4.1-4.6-3.9s-4.1,2.3-3.9,4.6s2.3,4.1,4.6,3.9c1.6-0.1,3-1.1,3.6-2.6L726,116.8
				c-1.1,3.5,0.9,7.3,4.4,8.3c3.5,1.1,7.3-0.9,8.3-4.4c0.2-0.6,0.3-1.3,0.3-1.9l157.1-2.7L983.6,227c-1.8,1.6-2,4.3-0.4,6.1
				c1.6,1.8,4.3,2,6.1,0.4c1.2-1,1.7-2.6,1.4-4.1l27.1-6.2l35.9,100.6c-2.2,0.9-3.2,3.5-2.3,5.7c0.9,2.2,3.5,3.2,5.7,2.3
				c2.1-0.9,3.1-3.3,2.4-5.4l100.9-51c1.2,2,3.9,2.7,5.9,1.4c1.1-0.6,1.8-1.7,2-2.9l52.9,4.1l32.4,73.2c-2.1,1.1-3,3.7-1.9,5.8
				s3.7,3,5.8,1.9c1.3-0.7,2.2-2,2.3-3.5v-0.5c0-0.2,0-0.3,0-0.5l102-18.9c0.9,3.5,4.6,5.6,8.1,4.7c0.3-0.1,0.6-0.2,0.9-0.3
				c0.5-0.2,0.9-0.4,1.3-0.8l0.4-0.3c0.6-0.5,1-1,1.4-1.6l0.2-0.4c0.5-0.9,0.7-2,0.7-3v-0.5c0-0.5-0.1-0.9-0.2-1.4l101.5-36.7
				c0.7,1.7,2.4,2.7,4.3,2.6h0.5c0.2,0,0.5-0.1,0.7-0.2l0.4-0.2l0.1-0.1l0.4-0.2c0.1-0.1,0.2-0.2,0.3-0.2l0.4-0.3
				c0.3-0.4,0.6-0.8,0.8-1.2l195.2,74.9c-0.1,0.3-0.1,0.6-0.1,0.9v0.5c0.1,1.7,1.2,3.1,2.8,3.7l0.8,0.2c2.3,0.4,4.5-1.2,4.9-3.6
				c0.1-0.4,0.1-0.8,0-1.2l88.1-22.1l0.5-0.1l171.7-43.1c0,0.1,0.1,0.3,0.1,0.4c0.1,0.1,0.1,0.2,0.2,0.4l-1.3,1.4l1.7-0.7l0,0
				l0.3,0.4c0.1,0.1,0.3,0.3,0.5,0.4l0.4,0.3c2.1,1.2,4.7,0.4,5.9-1.6C1956.6,305.2,1956.6,303.8,1956.2,302.6L1956.2,302.6z
				 M1827.2,104.8l-177.7,140.7c-0.4-0.5-1-0.9-1.6-1.1l20.5-60.2l158.7-79.7C1827.1,104.6,1827.2,104.7,1827.2,104.8L1827.2,104.8z
				 M1362.4,330.6l-36.8-20.6l12.6-8.2l25.2,27.3C1363,329.6,1362.7,330.1,1362.4,330.6z M1271.4,280.1l-32.2-13.9l-12.1-64.6
				l4.8-5.6l41.1,82.3C1272.4,278.7,1271.8,279.3,1271.4,280.1L1271.4,280.1z M1271,281.4l-29.3-2.3l-2.3-12.4l31.9,13.8
				C1271.1,280.8,1271,281.1,1271,281.4L1271,281.4z M779.4,7.1l9.7-23.2l35.6,19.2c-0.4,0.9-0.6,2-0.6,3L779.4,7.1z M777.8,9.8
				l-2.6-2.1l3.5-0.1L777.8,9.8z M824.2,6.6c0.2,1.7,1,3.2,2.2,4.3L807,33l-28.8-22.9l1-2.5L824.2,6.6z M826.8,11.2
				c1.9,1.5,4.5,1.8,6.7,0.9l0.3-0.1L849,41.4l-17.2,11.3l-24.5-19.4L826.8,11.2z M1144.6-53.5L1144.6-53.5l-29.9,15.2l-48.6-90.2
				l13.7-12.2l65.8,82.3C1144.3-57.2,1143.9-55.2,1144.6-53.5z M1213.5-28.9l-60.9-24.9c0.4-1,0.3-2.1-0.1-3.1
				c-0.5-1.1-1.4-2-2.6-2.4l7.4-25.9l57.1,54.7C1214.1-30,1213.8-29.5,1213.5-28.9z M1382.5-123.1l-2.6,12.4l-39.2-31.6l-3.2-7.1
				l11.2-11.7L1382.5-123.1z M1349-161.4l53.3-56.1l-19.6,93.9L1349-161.4z M1442-164.4l47.2-3.9l-57,94.4c-0.5-0.3-1.1-0.4-1.7-0.5
				l1.8-80.2c1.3,0,2.6-0.3,3.7-0.8C1439.5-156.9,1441.9-160.5,1442-164.4L1442-164.4z M1429.7-65.8l-2.7,52.6L1408.3-4
				c-1.1-1.8-3.3-2.6-5.3-1.9l-30.5-66.8l7.8-37.1l46.2,37.3c-0.8,1.2-1,2.7-0.4,4.1C1426.7-67,1428.1-66,1429.7-65.8L1429.7-65.8z
				 M1548.5,54.3l89.3,15.3l-46,76.4l-46.6-87.2C1546.9,57.7,1548.1,56.1,1548.5,54.3L1548.5,54.3z M1591.6,146.4l-32.3,53.7
				l-29.4,10.6l11.8-151.1c1,0,2-0.1,2.9-0.5l0.3-0.2L1591.6,146.4z M1591.9,146.9l18.6,34.8l-50.4,18.1L1591.9,146.9z
				 M1529.4,210.9l-31.5,11.3l-36.7-42.7l77.3-120.8c0.8,0.5,1.7,0.8,2.6,0.9L1529.4,210.9z M1450.9,239.6l7.4,13.6l-39.7-1
				c0-0.3-0.1-0.7-0.1-1L1450.9,239.6z M1418.3,250.9c0,0,0-0.1,0-0.1c-0.3-0.7-0.8-1.4-1.5-1.8l21.2-33.2l12.7,23.4L1418.3,250.9z
				 M1451,239l-12.8-23.8l22.7-35.4l36.5,42.5L1451,239z M1071.8,168c-0.1-0.3-0.2-0.5-0.4-0.8l67.6-51.8c1.3,1.6,3,2.8,5,3.4
				l-8.3,32.1l-55.4,29.3l-9.1-8C1072.2,171.1,1072.4,169.4,1071.8,168L1071.8,168z M1340.2-142l31.8,69.4l-13.6,65l-18.7-2.5
				L1323-134.2l11.7-12.3L1340.2-142z M1335-146.9l2.1-2.2l2.8,6L1335-146.9z M1341.1-141.3l38.7,31.2l-7.7,36.7L1341.1-141.3z
				 M1400.2-2l-41.4-5.5l13.4-64.3l30.2,66.2C1401.2-4.9,1400.3-3.6,1400.2-2z M1432.3,204.3l-14.2-26.3l2.2-45.3l27.3,31.8
				L1432.3,204.3z M1448,164.8l12.6,14.7l-22.6,35.3l-5.3-9.9L1448,164.8z M1409.4,120l10.4,12.2l-2.2,45l-6.5-12L1409.4,120z
				 M1410.7,164.2L1353,57.4l1.4-1.6l54.5,63.5L1410.7,164.2z M1417.7,178.1l-3.3,67.5l-3.1-79.4L1417.7,178.1z M1420.4,132
				l6.2-124.8l70.6,28.1l-49.3,128.6L1420.4,132z M1420,131.5l-10.5-12.2l-4.6-116.8c0.5,0,0.9-0.1,1.3-0.3c1-0.4,1.8-1.2,2.2-2.1
				l17.6,7L1420,131.5z M1408.6-0.5c0.3-1,0.3-2-0.1-3v-0.1l18.5-9.1l-0.9,19.1L1408.6-0.5z M1408.9,118.6l-54.2-63.1l47.2-54
				c0.7,0.6,1.6,0.9,2.5,0.9L1408.9,118.6z M1354.4,55.1l-4.2-4.9c1.7-1.6,1.8-4.3,0.2-6.1c-0.6-0.6-1.3-1-2-1.2l10.4-50l41.5,5.5
				c0,0.5,0.1,0.9,0.3,1.4c0.2,0.5,0.6,1,1,1.4L1354.4,55.1z M1410.2,250.6l-111.7-44.4l18.8-61.5l93.7,104.7
				C1410.7,249.7,1410.5,250.1,1410.2,250.6L1410.2,250.6z M1156.2,107.6L1259,84.9c0,0.2,0.1,0.3,0.2,0.5c0,0.1,0.1,0.1,0.1,0.2
				l-99.6,52.7l-8.9-20C1154.9,116.4,1157.1,112,1156.2,107.6L1156.2,107.6z M1117,33.6l14.4-40l13.6,25.3c-1.8,1.1-2.6,3.4-1.7,5.3
				c0.3,0.6,0.7,1.2,1.2,1.6l-20.2,26.1L1117,33.6z M1123.9,52.3l-25.5,32.9l18.3-50.9L1123.9,52.3z M1144.8,26.1
				c0.6,0.4,1.4,0.7,2.2,0.7l-0.4,73c-1.1,0-2.1,0.2-3.2,0.6l-19-48L1144.8,26.1z M1147.5,26.9c1.4-0.1,2.8-0.8,3.5-2.1l32,16.9
				l-31.8,59.2c-1.3-0.6-2.7-1-4.1-1L1147.5,26.9z M1201.1,8.9l59.2,71.7c-0.3,0.3-0.6,0.6-0.8,0.9l-75.9-40L1201.1,8.9z
				 M1183.4,41.8l75.9,40c-0.4,0.8-0.5,1.6-0.3,2.5l-102.8,22.8c-0.1-0.5-0.3-1-0.5-1.4c-0.8-2-2.3-3.6-4.2-4.7L1183.4,41.8z
				 M1261.8,79.6l-39.5-99.7c1.2-0.5,2.3-1.4,3-2.6l51.3,29.5l-12.9,72.6C1263.1,79.3,1262.4,79.4,1261.8,79.6L1261.8,79.6z
				 M1350.8,59.2L1339.7,72l6.3-20.7c0.7,0.2,1.5,0.2,2.2,0L1350.8,59.2z M1348.7,51.1l0.2,0l0.1-0.1l3.4,6.4l-1.3,1.4L1348.7,51.1z
				 M1338.6,74l-21.4,69.8l-20-22.4L1338.6,74z M1338.9,72.9l-42.1,48.1l-30.6-34.2c1.2-1.2,1.6-3,1-4.6l76.1-33.2
				c0.5,0.9,1.3,1.7,2.2,2.1L1338.9,72.9z M1296.5,121.4l-28.8,33l-4-66.4c0.4,0,0.8-0.1,1.2-0.3c0.4-0.2,0.7-0.4,1-0.6
				L1296.5,121.4z M1346.9,42.8l-7.1-52.4l18.5,2.5l-10.4,50C1347.5,42.8,1347.2,42.8,1346.9,42.8L1346.9,42.8z M1346.4,42.8
				c-0.3,0.1-0.6,0.1-0.8,0.2l-26.5-55.5l20.2,2.7L1346.4,42.8z M1345.1,43.3c-0.6,0.3-1.2,0.8-1.6,1.4l-66.4-38.1l4.3-24l37,4.9
				L1345.1,43.3z M1318.8-12.9L1291-71.1l6.4-36.2l25.1-26.4l16.7,123.5L1318.8-12.9z M1318.2-13l-36.7-4.9l9.3-52.4L1318.2-13z
				 M1276.7,6.3L1225.5-23c0.3-0.5,0.5-1.1,0.6-1.7l54.9,7.3L1276.7,6.3z M1277.1,7.1l66.3,38.1c-0.5,1.1-0.6,2.3-0.2,3.4L1267,81.8
				c-0.6-1.1-1.6-2-2.8-2.3L1277.1,7.1z M1263.2,88l4.1,66.8l-25.2,28.8l-13.9-5.5c1.4-3.3,0-7-3.2-8.6l36.7-81.8
				C1262.1,87.9,1262.7,88,1263.2,88z M1267.3,155.5l2.4,39.1l-27.1-10.8L1267.3,155.5z M1267.7,155l29.1-33.3l20.2,22.5l-18.9,61.8
				l-28-11.1L1267.7,155z M1317.6,144.1l21.8-71.1l11.6-13.3l61.7,188.6l-0.2,0.1c-0.4,0.2-0.7,0.4-1,0.6L1317.6,144.1z M1352.8,57
				l-3.4-6.2c0.1-0.1,0.2-0.2,0.4-0.2l4.3,5L1352.8,57z M1322.9-134.8l-3.2-23.7l14.6,11.8L1322.9-134.8z M1322.5-134.3l-24.9,26.2
				l10.6-59.6l10.9,8.8L1322.5-134.3z M1296.8-106.7l-6.2,34.8l-9-18.8L1296.8-106.7z M1290.5-71l-9.5,53.1l-54.8-7.3
				c0.2-1.2,0-2.4-0.4-3.5c-0.3-0.7-0.7-1.3-1.2-1.9l56.7-59.7L1290.5-71z M1221.9-19.8l39.5,99.7c-0.3,0.1-0.5,0.3-0.7,0.4
				l-59.3-71.9l15.3-28.6C1218.3-19.4,1220.2-19.3,1221.9-19.8L1221.9-19.8z M1183.2,41.3l-32-16.9c1-2.1,0.1-4.7-2.1-5.7
				c-0.5-0.2-1-0.4-1.5-0.4l1.2-69.1c0.5,0,1-0.1,1.5-0.3c0.3-0.1,0.6-0.3,0.9-0.5l49.6,60.1L1183.2,41.3z M1147.1,18.3
				c-0.5,0-1,0.1-1.5,0.3l-0.2,0.1l-13.9-25.7l15.8-44c0.3,0.1,0.6,0.1,0.9,0.2L1147.1,18.3z M1131.3-7.6l-10.5-19.4l24.9-24.9
				c0.4,0.3,0.8,0.6,1.2,0.8L1131.3-7.6z M1131-7l-14.3,39.9l-15.8-40.1l19.6-19.5L1131-7z M1100.6-7.6l-7.6-19.2l21.4-10.8
				l5.7,10.5L1100.6-7.6z M1100.3-7.3l-49.1,49.1l-5.8-44.5l47.4-24L1100.3-7.3z M1100.5-6.8l16,40.4l-19,52.9l-34.5,44.5
				l-11.7-88.6L1100.5-6.8z M1062.6,132.2l4.4,33.2c-0.3,0.1-0.6,0.1-0.9,0.3c-0.7,0.3-1.4,0.8-1.8,1.5l-19.4-12.1L1062.6,132.2z
				 M1063,131.7l33.9-43.8l-27.9,77.7c-0.5-0.1-1-0.2-1.6-0.2L1063,131.7z M1097.9,86.7l26.2-33.8l18.9,47.7
				c-4.9,2.1-7.2,7.8-5.2,12.7c0.3,0.6,0.6,1.2,1,1.8l-67.7,51.8c-0.4-0.5-1-0.9-1.6-1.2L1097.9,86.7z M1144.5,119
				c2,0.5,4,0.3,5.9-0.5l8.9,20l-23,12.2L1144.5,119z M1159.5,139l20.5,46.4l-56.1,12.9l12.2-46.9L1159.5,139z M1160,138.8
				l99.6-52.8c0.4,0.6,1,1.2,1.7,1.5l-36.7,81.8c-3.4-1.4-7.3,0.3-8.7,3.7c-0.5,1.3-0.6,2.7-0.3,4.1l-35,8.1L1160,138.8z
				 M1215.6,177.7v0.1l-32.9,12.6l-2-4.6L1215.6,177.7z M1215.8,178.2c1.2,2.8,4.1,4.5,7.1,4l3.6,19.2l-25.8,29.5l-17.8-40.2
				L1215.8,178.2z M1223.5,182.1c0.4-0.1,0.8-0.2,1.1-0.4l0.2-0.1l7,13.9l-4.7,5.4L1223.5,182.1z M1225.2,181.5
				c0.4-0.2,0.8-0.5,1.2-0.8l9.4,10.2l-3.7,4.3L1225.2,181.5z M1226.7,180.3c0.5-0.5,0.9-1.1,1.2-1.7l13.8,5.5l-5.6,6.4
				L1226.7,180.3z M1242.2,184.3l27.5,10.9l2.1,33.9l-35.3-38.3L1242.2,184.3z M1270.2,195.5l27.8,11.1l-11.8,38.3l-14-15.1
				L1270.2,195.5z M1298.5,206.7l111.6,44.3c-0.2,0.6-0.3,1.3-0.2,2l-97,20.7l-26.3-28.5L1298.5,206.7z M1351.4,59.4l1.3-1.5
				l58,107.5l3.2,82.8c-0.2,0-0.5,0.1-0.7,0.1L1351.4,59.4z M1418,178.9l14,26l-16.6,43.4c-0.3-0.1-0.6-0.1-0.8-0.2L1418,178.9z
				 M1432.3,205.5l5.3,9.8l-21.4,33.4l-0.3-0.2L1432.3,205.5z M1460.8,179.1l-12.7-14.8l49.4-128.9l38.1,15.2c-1,2.8,0,6,2.5,7.7
				L1460.8,179.1z M1535.8,50.2L1497.7,35l8.2-21.4l31.3,34.5C1536.6,48.7,1536.1,49.4,1535.8,50.2L1535.8,50.2z M1497.2,34.9
				l-70.7-28.2l1-19.5l37.5-18.4l40.5,44.5L1497.2,34.9z M1465.5-31.5l70.4-34.5l-30.2,78.8L1465.5-31.5z M1465.1-31.9l-32-35.2
				c1.1-1.1,1.5-2.7,1.1-4.2l119.1-40.2l-17.2,44.8L1465.1-31.9z M1431.7-66.1c0.4-0.2,0.7-0.4,1-0.6l31.9,35.1l-37.2,18.2l2.6-52.3
				C1430.6-65.8,1431.2-65.9,1431.7-66.1L1431.7-66.1z M1426.7-72.9l-46.4-37.4l2.6-12.3l44.2,49.4
				C1426.9-73.1,1426.8-73,1426.7-72.9L1426.7-72.9z M1337.1-149.8l-20.4-44.6c0.5-0.2,0.9-0.5,1.3-0.8l30.2,33.9L1337.1-149.8z
				 M1336.8-149.4l-2.2,2.3l-15-12.1l-4.7-34.6c0.5-0.1,1-0.2,1.4-0.4L1336.8-149.4z M1319-159.7l-10.7-8.6l4.6-25.5
				c0.5,0.1,1.1,0.1,1.6,0L1319-159.7z M1307.8-168.7l-7.7-6.2l10.6-19.6c0.5,0.2,1,0.4,1.6,0.5L1307.8-168.7z M1307.7-168.1
				l-10.7,60.6l-15.6,16.4l-12.4-25.9l31-57.3L1307.7-168.1z M1281-90.8L1224.2-31c-0.4-0.4-0.8-0.7-1.2-0.9l45.7-84.7L1281-90.8z
				 M1216.2-20.4L1201,8l-49.5-60c0.4-0.4,0.8-0.8,1-1.3l60.9,24.9c-0.6,1.6-0.5,3.3,0.1,4.9C1214-22.2,1215-21.1,1216.2-20.4
				L1216.2-20.4z M1120.5-27.5l-5.5-10.4l29.9-15.1c0.1,0.3,0.3,0.5,0.5,0.7L1120.5-27.5z M1114.2-38.1l-21.3,10.8l-36.6-92.5
				l9.4-8.4L1114.2-38.1z M1092.4-27.1l-47.2,23.9l-12.6-95.5l23.4-20.7L1092.4-27.1z M1044.8-3l-55.6,28.1l10.5-94.7l32.4-28.8
				L1044.8-3z M988.7,25.4l-27.2,13.8l-13.7-57.6c0.1,0,0.3-0.1,0.4-0.1c2.2-0.9,3.2-3.5,2.3-5.7c0,0,0,0,0,0
				c-0.2-0.4-0.4-0.7-0.6-1L999.2-69L988.7,25.4z M927.5,56.9l28.9-14.6l9.9,62.2l-30-21.9L927.5,56.9z M935.6,82.1l-23.7-17.3
				l15.2-7.7L935.6,82.1z M956.8,41.5l-9.5-59.7L961,39.4L956.8,41.5z M946.8-18.3l9.5,60l-29,14.7L909,2.5L943-20
				C943.9-18.8,945.3-18.2,946.8-18.3L946.8-18.3z M926.9,56.6l-15.5,7.8l-43.5-31.7l-0.2-3l40.9-27L926.9,56.6z M867.4,32.4
				l-1.8-1.3l1.6-1L867.4,32.4z M867.6,29.2l-5-61.3l24.1-29.5l21.7,63.9L867.6,29.2z M867.1,29.5l-2,1.3L836.3,9.7
				c1.9-2.7,1.5-6.4-0.9-8.6l26.7-32.7L867.1,29.5z M864.8,31.1l-15.3,10.1l-15.3-29.5c0.7-0.4,1.4-1,1.9-1.6L864.8,31.1z
				 M849.3,41.8l17.9,34.4c-1.1,0.6-2.1,1.4-2.8,2.3l-32.1-25.5L849.3,41.8z M849.7,41.6l15.5-10.2l2.2,1.6l3.4,42.1
				c-1,0.1-1.9,0.3-2.8,0.7l-0.4,0.2L849.7,41.6z M867.9,33.4l43,31.4l-30.6,15.4c-1.8-3.3-5.3-5.3-9.1-5.1L867.9,33.4z M911.4,65
				l24.5,17.8L943,104l-61.7-17c0.5-2,0.3-4.1-0.5-6c-0.1-0.1-0.1-0.3-0.2-0.4L911.4,65z M936.5,83.3l29.9,21.8l0.9,5.5l-23.7-6.5
				L936.5,83.3z M966.9,105.5l6.6,4.8c-0.4,0.5-0.6,1.1-0.8,1.7l-5-1.4L966.9,105.5z M967.3,111.1l0.5,3.2l-20.7,0.3l-3.4-10.1
				L967.3,111.1z M967.8,111.2l4.7,1.3c-0.1,0.6-0.2,1.1-0.2,1.7l-4.1,0.1L967.8,111.2z M973.8,110l-7-5.1l-10-62.8l4.3-2.2
				l16.2,67.9c-0.3,0.1-0.5,0.2-0.8,0.3C975.4,108.4,974.5,109.1,973.8,110L973.8,110z M961.6,39.7L988.6,26l-9.1,81.5
				c-0.6,0-1.2,0-1.8,0.1L961.6,39.7z M989.2,25.7l55.7-28.2l5.9,44.7l-67.1,67c-1-0.9-2.2-1.5-3.6-1.7L989.2,25.7z M1050.8,42.8
				l11.7,88.7l-18,23.3l-59.7-37.3c1.5-2.5,1.1-5.7-0.9-7.9L1050.8,42.8z M981.7,120.3c1.2-0.5,2.2-1.3,2.9-2.4l59.6,37.3
				l-34.4,44.4l-28.3-79.3L981.7,120.3z M1044.7,155.5l19.4,12.2c-0.6,1.2-0.7,2.5-0.2,3.8c0.1,0.2,0.2,0.5,0.4,0.7l-50.8,37.7
				l-3.4-9.6L1044.7,155.5z M1064.6,172.5c0.7,0.8,1.7,1.4,2.7,1.5l-1.1,13.9l-50.9,27l-1.6-4.5L1064.6,172.5z M1067.8,174
				c1.2,0,2.4-0.4,3.2-1.3l9,7.8l-13.2,7L1067.8,174z M1080.3,180.9l24.8,21.7l-40.4,9.3l1.9-23.7L1080.3,180.9z M1080.8,180.7
				l54.8-29l-12.1,46.7l-17.7,4.1L1080.8,180.7z M1123.3,198.9l-3,11.6c-1.4-0.3-2.9,0.2-3.9,1.2l-10.2-8.9L1123.3,198.9z
				 M1123.9,198.8l56.4-13l2.1,4.7l-59,22.5c-0.5-1.1-1.5-2-2.6-2.3L1123.9,198.8z M1182.6,190.9l17.9,40.4l-11.5,13.2l-65.4-28.3
				c0.3-0.9,0.3-1.9,0.1-2.8L1182.6,190.9z M1200.7,231.8l9.7,21.9l-21-9.1L1200.7,231.8z M1201,231.4l25.7-29.4l12,63.9L1211,254
				L1201,231.4z M1232.3,195.6l3.8-4.4l35.7,38.7l2.9,47.8c-0.4,0-0.8,0.1-1.2,0.3l0,0L1232.3,195.6z M1272.3,230.4l13.8,14.9
				l-9.9,32.4c-0.3-0.1-0.6-0.1-0.9-0.1L1272.3,230.4z M1286.4,245.8l25.9,28.1l-33,7c0-0.2-0.1-0.4-0.2-0.5c-0.5-1.1-1.4-2-2.6-2.4
				L1286.4,245.8z M1312.8,274.2l9.5,10.3l-42.7-2.4c0-0.3,0-0.5-0.1-0.8L1312.8,274.2z M1322.8,285l15.2,16.4l-12.8,8.3l-46-25.8
				c0.2-0.4,0.3-0.9,0.4-1.3L1322.8,285z M1338.3,301.2l-14.9-16.1l36.6,2.1L1338.3,301.2z M1323,284.6l-9.6-10.4l96.7-20.6
				c0,0.2,0.1,0.4,0.2,0.5c0.1,0.2,0.2,0.3,0.2,0.5l-49.8,32.2L1323,284.6z M1410.7,254.9c0.3,0.4,0.7,0.8,1.2,1.1l-18.3,32.5
				l-32.1-1.8L1410.7,254.9z M1412.3,256.3c1,0.5,2.2,0.6,3.3,0.2l0.4-0.2c0.7-0.3,1.3-0.8,1.7-1.4l58.8,36.7
				c-0.3,0.5-0.5,1.1-0.5,1.7l-47.1-2.7h-0.5l-34.2-1.9L1412.3,256.3z M1476.7,291.2l-58.8-36.7c0.3-0.5,0.5-1.1,0.5-1.7l40,1
				L1478,290C1477.5,290.3,1477,290.7,1476.7,291.2L1476.7,291.2z M1458.7,253.3l-7.5-13.8l46.4-16.7l21.8,25.3
				c-1.8,1.7-3,4.1-3.1,6.6L1458.7,253.3z M1519.8,247.8l-21.6-25.2l31.1-11.2l-2.7,34.1C1524.1,245.4,1521.7,246.2,1519.8,247.8
				L1519.8,247.8z M1529.8,211.2l29.1-10.5l-27.8,46.1c-1.2-0.7-2.6-1.2-4-1.4L1529.8,211.2z M1559.6,200.5l51.1-18.4l12.8,24.1
				l-88.8,44.6c-0.7-1.5-1.8-2.7-3.2-3.6L1559.6,200.5z M1668,183.8l-44.1,22.2l-12.8-24l65.5-23.6L1668,183.8z M1677.2,158.2
				l147.3-53l-155.9,78.3L1677.2,158.2z M1623.7,206.6l20.3,38.1c-1.3,0.8-2.1,2.2-2.1,3.7l-106.2,6.2c-0.1-1.1-0.3-2.1-0.7-3.1
				c0-0.1-0.1-0.1-0.1-0.2L1623.7,206.6z M1644.5,244.5l-20.3-38.1l43.6-21.9l-20.3,59.8c-0.9-0.3-1.9-0.2-2.8,0.2L1644.5,244.5z
				 M1826.5,101.8c-0.1,0.7,0,1.4,0.3,2l-149.4,53.7l26.1-76.8L1826.5,101.8z M1676.8,157.8l-66,23.7l-18.8-35.1l46.2-76.8l64.8,11
				L1676.8,157.8z M1793.2-184.6l-90.1,264.9l-64.6-11.1l153.1-254.5C1792.2-185.1,1792.7-184.8,1793.2-184.6L1793.2-184.6z
				 M1791.2-185.6L1638,69.1l-89.5-15.3c0.3-1.9-0.3-3.9-1.7-5.4l242.7-235.3C1790.1-186.4,1790.7-186,1791.2-185.6L1791.2-185.6z
				 M1789.2-187.2L1546.5,48.1c-2.5-2.4-6.3-2.5-8.9-0.3l-31.5-34.7l30.4-79.4l251.3-123.1C1788.2-188.6,1788.7-187.9,1789.2-187.2
				L1789.2-187.2z M1787.4-190.1c0,0.1,0.1,0.2,0.1,0.3L1536.7-66.9l17.1-44.8l233.4-78.8C1787.3-190.4,1787.4-190.2,1787.4-190.1
				L1787.4-190.1z M1786.7-192.9c0.1,0.7,0.2,1.3,0.4,1.9l-233,78.7l24.3-63.4L1786.7-192.9z M1553.5-112.1L1434-71.7v-0.1
				c-0.3-0.8-0.9-1.4-1.6-1.9l57.1-94.7l88.2-7.3L1553.5-112.1z M1719.8-546.1l-141.8,370l-88.1,7.3l228.2-378
				C1718.7-546.6,1719.2-546.3,1719.8-546.1L1719.8-546.1z M1717.8-547.1l-228.4,378.3l-47.5,3.9c-0.1-1.1-0.3-2.2-0.7-3.3
				c-0.6-1.5-1.7-2.9-3-3.9l279.2-375.4L1717.8-547.1z M1716.5-548.1c0.2,0.2,0.3,0.3,0.5,0.5l-279.2,375.4c-1.5-1-3.2-1.6-5-1.8
				l2.8-78.5L1716.5-548.1z M1435-252.1l-2.8,78c-1.3,0-2.6,0.2-3.9,0.8c-5,2.1-7.3,7.8-5.2,12.7c0,0,0,0,0,0
				c1.5,3.5,4.8,5.8,8.5,5.9l-1.8,80.2c-0.5,0-1,0.1-1.5,0.3c-0.4,0.2-0.7,0.4-1,0.6l-44.3-49.7l19.8-95L1435-252.1z M1440-390.8
				l-4.9,138l-32,33.7l35.9-171.8C1439.3-390.9,1439.7-390.8,1440-390.8z M1435.8-392c0.8,0.5,1.7,0.8,2.6,1l-36.1,172.6l-53.8,56.6
				l-30.2-33.8c2-1.9,2.6-4.8,1.6-7.4c-0.5-1.2-1.3-2.2-2.4-2.9L1435.8-392z M1307.6-203.1c-0.7,1.7-0.7,3.5,0,5.2
				c0.6,1.3,1.5,2.4,2.8,3.2l-10.6,19.6l-89.7-72.3c0.2-0.3,0.4-0.6,0.6-0.9L1307.6-203.1z M1209.8-247.1l89.8,72.4l-30.8,57.1
				l-61-127.8C1208.6-245.8,1209.3-246.4,1209.8-247.1L1209.8-247.1z M1207.3-245.2l61.2,128.1l-45.9,85c-1-0.5-2.1-0.7-3.2-0.7
				l-14-211.9C1206.1-244.8,1206.7-245,1207.3-245.2L1207.3-245.2z M1204.9-244.7l14,211.9c-0.7,0.1-1.3,0.2-1.9,0.5
				c-0.8,0.3-1.5,0.8-2.2,1.5l-57.3-54.8l45.6-159.2C1203.8-244.8,1204.4-244.7,1204.9-244.7L1204.9-244.7z M1199.7-247
				c0.8,0.9,1.8,1.6,3,2l-45.5,159l-66.8-64L1199.7-247z M1090-149.6l67,64.1l-7.5,26.2c-0.9-0.2-1.8-0.1-2.6,0.2
				c-0.3,0.1-0.6,0.3-0.8,0.5l-65.8-82.3L1090-149.6z M1020.9-215.8l68.8,65.8l-9.7,8.6l-59.3-74.2L1020.9-215.8z M1020.3-215.2
				l59.3,74.2l-13.7,12.1l-46.3-85.9C1019.9-215,1020.1-215.1,1020.3-215.2L1020.3-215.2z M1019.3-214.6l46.3,86l-9.4,8.3
				l-37.2-94.2L1019.3-214.6z M1018.5-214.3l37.3,94.4l-23.2,20.6L1017.4-214C1017.8-214.1,1018.1-214.2,1018.5-214.3L1018.5-214.3z
				 M1017-213.9l15.2,115.1l-32.3,28.7l16-143.7C1016.2-213.9,1016.6-214,1017-213.9L1017-213.9z M1012.4-215.2
				c0.9,0.6,1.9,1.1,3,1.2l-16,144.2l-49.8,44.1c-1.2-1.2-3.1-1.6-4.7-0.9c-0.2,0.1-0.4,0.2-0.6,0.3l-38.7-58.4L1012.4-215.2z
				 M905.3-84.2l38.6,58.3c-1.5,1.2-2,3.2-1.3,5c0.1,0.2,0.2,0.3,0.3,0.5L908.8,2l-21.8-64L905.3-84.2z M853.3-161.8
				c0.2-0.1,0.3-0.2,0.5-0.3L905-84.6l-18.1,22.1L853.3-161.8L853.3-161.8z M852.7-161.6l33.8,99.5l-24,29.3l-10.4-128.7
				C852.3-161.5,852.5-161.6,852.7-161.6L852.7-161.6z M851.7-161.4l10.4,129.1l-27,33.1c-0.9-0.8-2-1.3-3.2-1.5l19.3-160.8
				C851.4-161.5,851.5-161.5,851.7-161.4L851.7-161.4z M850.2-161.7c0.2,0.1,0.4,0.1,0.7,0.2L831.5-0.8c-2.6-0.2-5.2,1.1-6.5,3.4
				l-35.7-19.2L850.2-161.7z M653.6-89.3l135.1,72.9l-9.8,23.4l-4.3,0.1L653.5-89L653.6-89.3z M651.8-87.6c0.5-0.2,1-0.6,1.4-1.1
				L773.8,7.2l-84.1,1.9L651.8-87.6z M726.2,116.3L447.6,16c0.1-0.4,0.2-0.7,0.2-1.1l241.5-5.3l40.4,103
				C728.1,113.3,726.8,114.6,726.2,116.3z M730.2,112.4L689.9,9.6l84.5-1.9l3.2,2.5l-42.8,102.2
				C733.3,111.9,731.7,111.9,730.2,112.4L730.2,112.4z M735.2,112.7L778,10.5l28.7,22.8l-70.1,80.2
				C736.2,113.2,735.7,112.9,735.2,112.7L735.2,112.7z M736.9,113.9L807,33.7L831.4,53l-93.6,61.8
				C737.6,114.4,737.3,114.1,736.9,113.9L736.9,113.9z M738.8,117c-0.1-0.3-0.2-0.6-0.3-0.9c-0.1-0.3-0.3-0.6-0.5-0.9l93.8-61.9
				L864.1,79c-1.7,2.3-2.3,5.1-1.7,7.9L738.8,117z M739,118.3c0-0.3-0.1-0.6-0.1-0.8l123.5-30.2c0.1,0.4,0.2,0.8,0.4,1.2
				c2.1,4.9,7.7,7.3,12.7,5.2c0.8-0.3,1.5-0.7,2.1-1.2l18.2,23L739,118.3z M896.4,115.6L878,92.3c1.5-1.3,2.6-2.9,3.1-4.8l62,17
				l3.5,10.2L896.4,115.6z M984,226.7l-87.2-110.6l50-0.9l37.8,111.1C984.4,226.4,984.2,226.5,984,226.7z M985.1,226.1l-37.8-110.9
				l20.6-0.3L985.6,226C985.4,226,985.2,226.1,985.1,226.1L985.1,226.1z M986.1,225.9l-17.7-111.1l4-0.1c0.1,0.7,0.2,1.3,0.5,1.9
				c1.3,3.2,4.9,4.8,8.2,3.8l28.4,79.6l-20.6,26.6C988,226.1,987,225.8,986.1,225.9L986.1,225.9z M989.3,226.9l20.4-26.4l3.4,9.5
				l-23.3,17.4C989.6,227.3,989.4,227.1,989.3,226.9L989.3,226.9z M990.1,227.8l23.2-17.2l1.6,4.4L990.2,228
				C990.1,228,990.1,227.9,990.1,227.8L990.1,227.8z M990.6,228.9c0-0.1-0.1-0.3-0.1-0.4l0,0l24.6-13l2.6,7.2L990.6,228.9z
				 M1018.1,222.6l-2.6-7.4l50.7-26.8l-1.9,23.6L1018.1,222.6z M1054.1,323.6l-35.9-100.5l46-10.6l-8.7,111
				C1055,323.4,1054.5,323.5,1054.1,323.6L1054.1,323.6z M1056,323.4l8.8-111.1l40.9-9.4l10.5,9.1c-1.5,1.9-1.2,4.6,0.7,6
				c0.1,0.1,0.2,0.2,0.4,0.3L1057.3,324C1056.9,323.8,1056.5,323.6,1056,323.4L1056,323.4z M1059.2,325.8c-0.3-0.7-0.8-1.2-1.4-1.7
				l59.8-105.6c1.4,0.7,3,0.6,4.3-0.3L1161,270c-1.3,1.2-1.7,3.2-1,4.8c0,0.1,0.1,0.1,0.1,0.2L1059.2,325.8z M1162.3,269
				c-0.3,0.1-0.6,0.3-0.9,0.5l-39.2-51.6c0.4-0.4,0.8-0.8,1.1-1.4l65.3,28.2l-21.8,25C1165.6,268.8,1163.8,268.5,1162.3,269
				L1162.3,269z M1168.3,273.3c0.1-1.2-0.3-2.4-1.2-3.2l21.9-25.1l21.6,9.3l10.2,23.1L1168.3,273.3z M1211.3,254.6l27.4,11.8
				l2.3,12.6l-19.6-1.5L1211.3,254.6z M1254,351l-32.3-72.9l19.5,1.5l13.3,71.2C1254.3,350.9,1254.2,350.9,1254,351z M1255,350.8
				l-13.3-71.1l29.2,2.3c0,0.6,0.1,1.2,0.3,1.8c0.9,2.2,3.5,3.2,5.7,2.3c0.8-0.3,1.5-0.9,2-1.7l45.8,25.7l-65.7,42.4
				C1258.1,351.2,1256.5,350.6,1255,350.8L1255,350.8z M1259.7,354c0-0.2-0.1-0.4-0.2-0.6c-0.1-0.2-0.2-0.3-0.2-0.5l65.8-42.6
				l37,20.8c-0.6,1.3-0.7,2.7-0.5,4L1259.7,354z M1365.7,327.7c-0.7,0.3-1.3,0.7-1.9,1.2l-25.2-27.3l22.2-14.3l32.5,1.8l-21.8,38.9
				C1369.7,327,1367.6,326.9,1365.7,327.7L1365.7,327.7z M1435.9,309.4l-0.4,0.2l-60.9,22c0-0.1-0.1-0.3-0.1-0.4
				c-0.5-1.2-1.4-2.3-2.5-3l22-39.1l34.7,2h0.5l46.8,2.7c0,0.4,0.1,0.8,0.2,1.1L1435.9,309.4z M1478.5,289.7l-0.2,0.1l-19.4-36
				l57.3,1.5c0,2.3,0.8,4.5,2.2,6.2l-35.1,29.4C1482.2,289.4,1480.2,288.9,1478.5,289.7L1478.5,289.7z M1484.5,293.5
				c0-0.5-0.1-1-0.3-1.5c-0.1-0.3-0.3-0.5-0.4-0.8l35.1-29.4c2.3,2.5,5.7,3.7,9.1,3l0.5-0.1c0.5-0.1,0.9-0.3,1.4-0.5
				c0.3-0.1,0.6-0.2,0.8-0.4l0.4-0.2c3-1.8,4.8-5,4.7-8.5l106.2-6.2c0,0.4,0.1,0.8,0.3,1.2c0.4,0.9,1.1,1.7,2,2.1l0.4,0.2
				c0.8,0.3,1.7,0.4,2.6,0.2l13.6,44.9L1484.5,293.5z M1681.9,367.4c-1.1,0.5-2,1.4-2.4,2.5L1560,324l-75.7-29
				c0.1-0.3,0.2-0.7,0.2-1l176.5,4l21,69.4L1681.9,367.4z M1687.8,370.4c0-0.2-0.1-0.5-0.2-0.7c-0.8-2-2.9-3-5-2.5l-21-69.2
				l284.1,6.4l2.3,0.4c0,0.1,0,0.2,0,0.4L1687.8,370.4z"/>
		</g>
		<g class="st1">
			<path class="st2" d="M1176.5,917.7c-0.7-1.3-2-2.2-3.5-2.5l-0.5-0.1c-0.2,0-0.4,0-0.7,0l-0.5,0.1h-0.1l-1-1.8l0.2,2.1
				c-0.1,0-0.3,0.1-0.4,0.2c-0.1,0.1-0.3,0.2-0.4,0.3L1051,755.8l-0.4-0.5l-60.8-82.1c1.6-1.5,1.9-3.8,0.9-5.8
				c-0.4-0.8-1-1.4-1.8-1.9l-0.8-0.4c-1.3-0.5-2.7-0.4-3.9,0.3c-0.4,0.2-0.8,0.5-1.2,0.9l-0.4,0.4c-0.2,0.3-0.4,0.6-0.5,0.9
				l-223.3-74.2c0.2-0.5,0.2-1.1,0.2-1.7l-0.1-0.5c0-0.1,0-0.3-0.1-0.4l-0.2-0.5l-0.1-0.2l-0.2-0.5c-0.1-0.2-0.3-0.4-0.5-0.7
				l-0.4-0.4c-1.5-1.4-3.7-1.8-5.6-0.8l-62.1-104.4c0.4-0.3,0.8-0.6,1.2-1l0.3-0.4c0.7-0.9,1.2-2,1.5-3.1l0.1-0.5
				c0.1-0.8,0.1-1.6,0-2.4l-0.1-0.5c-1-4-5.1-6.5-9.1-5.5c-0.6,0.2-1.2,0.4-1.7,0.7c-0.3,0.2-0.6,0.3-0.8,0.5L606,381.9
				c0.1-0.1,0.3-0.2,0.4-0.4l0.3-0.4c1.5-2.2,0.9-5.2-1.3-6.7c-2.2-1.5-5.2-0.9-6.7,1.3c-0.9,1.4-1.1,3.1-0.4,4.7l-80.5,40.5
				l-49-34.2c1.4-2.3,0.6-5.3-1.7-6.6c-1.2-0.7-2.7-0.9-4.1-0.4l-51.4-116.3c2.3-1.4,3-4.4,1.6-6.7c-1.4-2.3-4.4-3-6.7-1.6
				c-2.2,1.3-3,4.1-1.8,6.4l-103,61.9l-19.1-24.8c2.1-1.7,2.4-4.8,0.7-6.8c-1.7-2.1-4.8-2.4-6.8-0.7c-1.3,1.1-2,2.9-1.7,4.6
				l-155.2,34L-15.1,215c1.9-2.3,2.2-5.6,0.8-8.2c-1.9-3.7-6.5-5.1-10.2-3.1c-1.6,0.8-2.8,2.2-3.5,3.8L-341.7,95.8
				c0.4-1.2,0.2-2.5-0.4-3.6c-1.3-2.4-4.2-3.3-6.6-2c-2.4,1.3-3.3,4.2-2,6.6c1.3,2.4,4.2,3.3,6.6,2c0.5-0.2,0.9-0.6,1.2-0.9l206,177
				l-101.9,56.9c-1.4-2.1-4.1-2.9-6.4-1.7c-2.4,1.3-3.3,4.2-2,6.6c1.3,2.4,4.2,3.3,6.6,2c1.2-0.6,2.1-1.8,2.4-3.1l169.5,33
				L-119.4,538c-1.1-0.3-2.4-0.1-3.4,0.4c-2.4,1.3-3.3,4.2-2,6.6c1.3,2.4,4.2,3.3,6.6,2c2-1,3-3.3,2.4-5.5l99.6-30.7l-0.4,189.6
				c-1.2,0-2.3,0.3-3.4,0.9c-3.7,1.9-5.1,6.5-3.1,10.2c1.9,3.7,6.5,5.1,10.2,3.1c2.6-1.4,4.2-4.1,4-7.1l106.8-8.1L123.7,862
				c-4,1-6.5,5-5.5,9.1c1,4,5,6.5,9.1,5.5c2.6-0.6,4.7-2.6,5.4-5.2l116.6,29.8c-0.9,4.1,1.7,8,5.8,8.9c0.1,0,0.3,0.1,0.4,0.1
				l-30,246.2c-6-0.9-11.5,3.3-12.3,9.3c-0.9,6,3.3,11.5,9.3,12.3c6,0.9,11.5-3.3,12.3-9.3c0.5-3.8-0.9-7.5-3.8-9.9l93.9-123.1
				l33.2,456.9c-6,0.6-10.4,5.9-9.8,12s5.9,10.4,12,9.8c6-0.6,10.4-5.9,9.8-12c-0.4-4-2.9-7.5-6.6-9l140.9-422.6L673,1234.5
				c-4.1,4.5-3.7,11.4,0.8,15.5c4.5,4.1,11.4,3.7,15.5-0.8c4.1-4.5,3.7-11.4-0.8-15.5c-0.9-0.8-1.9-1.5-3-1.9l110.8-294.6
				l121.9,69.5c-1.2,2.4-0.3,5.3,2.1,6.6s5.3,0.3,6.6-2.1c1.2-2.3,0.3-5.1-1.9-6.4l-0.5-0.2c-0.8-0.4-1.8-0.5-2.7-0.3l-54.1-249.3
				c2.6-0.7,4.1-3.3,3.4-5.9c-0.1-0.4-0.2-0.7-0.4-1c0-0.1-0.1-0.1-0.1-0.2l44-29.4l253.8,199c-1.5,2.2-1,5.2,1.2,6.8
				c2.2,1.5,5.2,1,6.8-1.2C1177.2,921.2,1177.3,919.3,1176.5,917.7L1176.5,917.7z M920.7,1004.3l-81.1-182.6l25.2-67
				c0.7,0.2,1.5,0.3,2.2,0.2l54.1,249.3C921,1004.2,920.8,1004.2,920.7,1004.3L920.7,1004.3z M678,477.9l-41.5,5.8l-5.2-16.1
				l46.7,8.3C678,476.5,677.9,477.2,678,477.9z M563.1,457.6l-94.5,42.2l-0.3-8.3l56.7-47.6l37.9,10.9
				C562.7,455.7,562.8,456.7,563.1,457.6z M563,454.3l-37.6-10.8l10.8-9.1l27.2,19C563.3,453.7,563.1,454,563,454.3L563,454.3z
				 M-21.6,373.7c-0.8,0.9-1.3,1.9-1.6,3l-44.7-8.7l8.1-27.1L-21.6,373.7z M-60.1,340l-3-2.6l3.8,0.1L-60.1,340z M-59.6,340.4
				l0.9-2.9l41.5,0.7l1,33.1c-1.1,0-2.2,0.3-3.2,0.9c-0.7,0.3-1.2,0.8-1.8,1.3L-59.6,340.4z M-16.8,338.2l35.2,0.6l6.9,22.1
				l-34.4,14.6c0-0.1-0.1-0.2-0.1-0.3c-1.3-2.4-3.7-3.9-6.4-4L-16.8,338.2z M212,659.4L96,684l-3.2-20.4l106.6-43.7l15.2,34.5h-0.1
				C212.7,655.3,211.7,657.4,212,659.4z M291.8,684.3L203,691l12.1-27.8c2.5,0.9,5.2-0.3,6.2-2.8c0,0,0,0,0-0.1l70.7,21.9
				C291.8,682.9,291.7,683.6,291.8,684.3L291.8,684.3z M315,893.6l-1.3-18.2l7.9-3.8l56.7,0.5l-6.6,12.7L315,893.6z M371.3,885.3
				l-50,95.7l-6.3-86.9L371.3,885.3z M395,951c-0.7-1.3-1.6-2.4-2.7-3.3l55.7-71c0.5,0.4,1.2,0.6,1.8,0.8L432,1000.1L393.8,963
				C396.6,959.6,397,954.9,395,951z M448.5,868.3c-1.4,0.8-2.4,2.2-2.6,3.8l-66.8-0.6l19.8-37.8l74.2-36.3c1.2,2.1,3.7,3,5.9,2.2
				l9.8,21.4l-35.3,47.6C452.1,867.6,450.1,867.5,448.5,868.3L448.5,868.3z M643,842.9l102.8-42.6l-14.6,99.2L642.6,849
				C643.6,847.1,643.7,844.9,643,842.9z M642.8,842.4c-0.1-0.1-0.1-0.3-0.2-0.4c-0.5-1-1.2-1.8-2.1-2.5l97.6-139.9l18,30.2
				l-10.2,69.8L642.8,842.4z M756.5,730.6l30.9,51.8l-41,17L756.5,730.6z M640,839.2c-0.9-0.6-1.9-0.9-2.9-1.1l19-160.3l62.4-11
				l19.3,32.3L640,839.2z M670.1,584.8c0.3-0.2,0.6-0.5,0.9-0.8l35.2,27.5l-16.2,6.6L670.1,584.8z M689.5,618.3l-27.8,11.4l5.2-44
				c0.9,0.1,1.8-0.1,2.6-0.5l0.1-0.1L689.5,618.3z M718.2,666.3l-62,10.9l5.6-47l28.1-11.5L718.2,666.3z M311.9,405.6l13.6-0.4
				l27.2,65l-15.7,33.9c-2.1-0.9-4.5-1.1-6.8-0.6l-21.8-93.4C310.5,409.5,311.9,407.7,311.9,405.6L311.9,405.6z M313.4,870.9
				l-1.4-19L415.1,756l18,11.2l-34.6,66.2L321.5,871L313.4,870.9z M320.4,871.5l-6.7,3.3l-0.2-3.3L320.4,871.5z M398.1,834.1
				l-19.5,37.4l-55.9-0.5L398.1,834.1z M472.9,796.9l-73.6,36l34.2-65.5l39.9,24.8C472.5,793.6,472.3,795.4,472.9,796.9L472.9,796.9
				z M633.6,681.2l-46.4,8.2l30.4-41l31.2-12.8L633.6,681.2z M649.4,635.3l11.7-4.8l-5.5,46.8l-21.4,3.8L649.4,635.3z M602.4,654.5
				l14.2-5.8l-30.2,40.8l-17.8,3.1L602.4,654.5z M567.8,692.8L475,709.1l-0.1-2.3L601.3,655L567.8,692.8z M603.2,653.6l59.3-66.8
				l-45.3,61.1L603.2,653.6z M633.4,681.8l-49,147l-81.5-25.9L586.7,690L633.4,681.8z M502.4,802.8l-20.3-6.5c0.5-1.7,0-3.5-1.3-4.7
				l87.2-98.4l17.9-3.1L502.4,802.8z M502.1,803.2l-12.8,17.3l-9.6-21.1h0.1c1-0.6,1.8-1.5,2.3-2.6L502.1,803.2z M480.4,791.2
				c-0.8-0.6-1.8-1-2.8-1l-2.5-80.6l92.2-16.2L480.4,791.2z M477,790.2c-1.2,0.1-2.3,0.6-3.1,1.5l-40-24.8l26.6-51
				c2.4,1.1,5.3,0.1,6.4-2.4c0.4-0.8,0.5-1.7,0.4-2.6l7.2-1.3L477,790.2z M662.5,581.3l-156.2,24.1l27.5-66.9l128.8,41.1
				C662.5,580.2,662.4,580.7,662.5,581.3z M342.6,509.5l22-11.1l48.9,116.9l-0.2,0.1c-0.2,0.1-0.3,0.2-0.5,0.3l-73.1-93.2
				C343.5,519.4,344.7,514,342.6,509.5z M272,548.2l-1.1,37.1c-2.7,0-4.8,2.2-4.7,4.9c0,0.5,0.1,1,0.3,1.5l-30,12.3l16.1-45.1
				L272,548.2z M252.9,558.2l20.5-57.4l-1.4,46.7L252.9,558.2z M272.5,547.9l50.8-28.2c0.6,1,1.4,2,2.3,2.8l-51.7,63.8
				c-0.7-0.5-1.6-0.8-2.4-0.9L272.5,547.9z M326,522.8c1.3,1,2.7,1.7,4.3,2L315.7,599l-39.9-8.2c0.3-1.6-0.3-3.2-1.5-4.3L326,522.8z
				 M316.2,599.6l94.6,19.4c-0.1,0.5-0.1,0.9,0,1.4l-102.6,20.1L316.2,599.6z M330.9,524.9c2.4,0.4,4.9,0,7-1.1
				c0.5-0.3,1-0.6,1.4-0.9l73.1,93.2c-0.7,0.6-1.2,1.5-1.5,2.4l-94.6-19.4L330.9,524.9z M413,623.8l-40.6,72.3l-65.7-11
				c0.2-1.5-0.1-3-0.8-4.4l105.5-58.5C411.9,622.9,412.4,623.4,413,623.8z M466.4,708.6c-0.5-0.7-1.1-1.2-1.9-1.5l9.3-22.5l0.6,19
				L466.4,708.6z M474.4,704.2l0.1,2.2l-7.5,3.1c0-0.1,0-0.1-0.1-0.2s-0.1-0.1-0.1-0.2L474.4,704.2z M472,611.3l33.4-5.2L474.2,682
				L472,611.3z M464,706.9c-1.1-0.4-2.4-0.3-3.4,0.2L418,623.9c1.6-1,2.6-2.8,2.4-4.7l51.1-7.9l2.2,71.9L464,706.9z M420.3,618.7
				c-0.1-0.4-0.2-0.9-0.4-1.3c-0.2-0.4-0.5-0.8-0.8-1.1l50.9-54.8l1.5,49.3L420.3,618.7z M460,715.7l-26.6,50.9l-17.8-11.1
				l43.5-40.6C459.4,715.3,459.7,715.5,460,715.7L460,715.7z M415.1,755.3l-19.5-12.1l62.7-29.3c0.1,0.3,0.3,0.6,0.5,0.8
				L415.1,755.3z M395,742.8l-35.7-22.2l13.4-23.9l85,14.2c-0.1,0.8,0,1.6,0.4,2.3L395,742.8z M414.7,755.7L312,851.2l-3-40.9
				l20.2-36.1l65.7-30.8L414.7,755.7z M329.7,773.4l29.3-52.2l35.4,22L329.7,773.4z M358.8,720.4l-52.9-32.8
				c0.3-0.6,0.6-1.3,0.7-1.9l65.5,11L358.8,720.4z M413.4,624.1c1.3,0.6,2.8,0.7,4.1,0.1l42.5,83.2c-1.2,0.7-2,1.8-2.3,3.1
				l-84.8-14.2L413.4,624.1z M417.1,615.1l26.5-97.4c3.9,0.9,7.8-1.4,8.9-5.2l16.1,5.1l1.3,43L418.7,616
				C418.2,615.6,417.7,615.3,417.1,615.1L417.1,615.1z M469.1,517.8l31.3,10l-30,32.3L469.1,517.8z M501,528l32.3,10.3l-27.6,67.2
				l-33.6,5.2l-1.5-49.7L501,528z M662.6,581.8c0.1,0.4,0.2,0.9,0.4,1.3c0,0.1,0.1,0.1,0.1,0.2l-188.3,120l-0.6-19.9L506,606
				L662.6,581.8z M474.5,709.2l-7.3,1.3c0-0.2-0.1-0.3-0.1-0.5l7.4-3L474.5,709.2z M312.8,870.9l-21.1-0.2l19.7-18.4L312.8,870.9z
				 M291,870.7l-15.8-0.2l33.3-59.4l3,40.5L291,870.7z M307.1,784.6l21.3-10l-19.5,34.8L307.1,784.6z M307.1,784l-6.7-92.4
				c0.8-0.1,1.6-0.4,2.4-0.8c1.2-0.6,2.2-1.6,2.9-2.7l52.9,32.8l-29.7,52.9L307.1,784z M301,676.8l7-35.8l102.9-20.2
				c0.1,0.3,0.2,0.6,0.3,0.9l-105.5,58.5C304.6,678.6,303,677.3,301,676.8z M307.6,640.6l-86.1,16.9c-0.2-1-0.7-1.8-1.5-2.5l48.3-61
				c2.2,1.5,5.2,1,6.7-1.1c0.3-0.5,0.6-1,0.7-1.6l39.9,8.2L307.6,640.6z M219.6,654.7c-0.3-0.2-0.6-0.4-0.9-0.5l17.7-49.5l30.4-12.5
				c0,0.1,0,0.1,0.1,0.2c0.3,0.5,0.6,1,1.1,1.4L219.6,654.7z M218.2,654c-0.5-0.1-1-0.2-1.6-0.2l-3.9-39.4l23-9.4L218.2,654z
				 M212.6,613.8l-3.1-31l42.4-23.5l-16,45L212.6,613.8z M212.1,614l-12.4,5.1l-10.9-24.7l20.2-11.3L212.1,614z M188.6,593.9
				l-24.1-54.6l36.8-34.5l7.7,77.8L188.6,593.9z M201.8,504.3l73.5-68.7l-1.9,63.4l-21.2,59.5l-42.7,23.7L201.8,504.3z M276.8,401.8
				l25.5,3.3c-0.1,1.2,0.3,2.5,1.1,3.5l-27.5,25.8L276.8,401.8z M303.8,408.9c0.4,0.4,0.9,0.8,1.5,1L274,497.4l1.8-62.3L303.8,408.9
				z M305.8,410.1c0.7,0.2,1.5,0.2,2.2,0.1l21.8,93.4c-5.8,1.6-9.2,7.7-7.6,13.5c0.2,0.7,0.5,1.4,0.8,2.1l-50.5,28l1.3-48.1
				L305.8,410.1z M353.2,470.9l11.3,27l-22,11.1c-1.1-2-2.8-3.6-4.8-4.6L353.2,470.9z M353.5,470.2l22.9-49.5l39.4,51.3l-51,25.6
				L353.5,470.2z M416.3,472.5l24.7,32c-3.3,2.5-4,7.2-1.5,10.5c0.9,1.3,2.3,2.2,3.8,2.7L416.6,615c-0.8-0.2-1.7-0.1-2.5,0.1
				l-49-117L416.3,472.5z M416.8,472.2l5.1-2.6l19.6,34.4l-0.1,0.1L416.8,472.2z M422.4,469.4l44.2-22.2l1.4,44.1l-17,14.2
				c-2.3-2.5-6-3.2-9.1-1.6L422.4,469.4z M467.9,491.9l0.1,8.1l-16,7.1l-0.1-0.2c-0.2-0.4-0.5-0.8-0.7-1.1L467.9,491.9z
				 M468.2,500.6l0.2,6.4l-15.5,2.1c-0.1-0.5-0.2-1-0.4-1.5L468.2,500.6z M468.4,507.5l0.3,9.6l-15.9-5.1c0.2-0.8,0.2-1.6,0.1-2.4
				L468.4,507.5z M468.9,507.5l58-8l-26,28l-31.7-10.1L468.9,507.5z M527.8,499.3l22.9-3.2l-17.2,41.8l-32.1-10.2L527.8,499.3z
				 M551.3,496l43.2-6l69.6,87.2c-0.6,0.5-1,1.2-1.3,1.9L534,538L551.3,496z M663.4,583.7c0.2,0.2,0.4,0.4,0.6,0.6l-61.9,69.7
				l-127.2,52.1l-0.1-2.3L663.4,583.7z M664.7,584.9c0.3,0.2,0.6,0.3,0.9,0.5L649,634.9l-30.8,12.6L664.7,584.9z M666,585.5l0.4,0.1
				l-5.2,44.3l-11.5,4.7L666,585.5z M636.5,838c-3.4-0.3-6.6,1.8-7.7,5l-44-14L634,681.7l21.5-3.8L636.5,838z M628.5,846.3
				l-51.9,7.6l8.1-24.4l44,14C628.5,844.4,628.4,845.4,628.5,846.3L628.5,846.3z M576,854l-67,9.8L489.5,821l13.1-17.7l81.6,26
				L576,854z M575.8,854.6l-30,90l-36.6-80.2L575.8,854.6z M545.6,945.3l-17.1,51.3l-74.9-120c1.4-1,2.2-2.7,2.1-4.4l53-7.8
				L545.6,945.3z M454,868.9l35.1-47.4l19.3,42.3l-52.9,7.7c-0.1-0.5-0.2-0.9-0.4-1.3C454.9,869.8,454.5,869.3,454,868.9z
				 M446,873.1l-73.6,11.5l6.6-12.5l67.1,0.6C446,872.8,446,873,446,873.1L446,873.1z M314.5,893.7l-50.4,7.9
				c-0.1-0.6-0.3-1.1-0.5-1.6l49.6-24.3L314.5,893.7z M263.3,899.4c-0.3-0.5-0.6-0.9-1-1.4l28.8-26.8l21.7,0.2l0.3,3.6L263.3,899.4z
				 M262,897.6c-0.4-0.4-0.9-0.8-1.4-1.1l14.3-25.4l15.5,0.1L262,897.6z M260.1,896.3c-0.6-0.3-1.1-0.5-1.7-0.6l4.8-24.6l11.1,0.1
				L260.1,896.3z M263.3,870.5l14-71.9l29.3-13.7l1.9,25.4l-33.9,60.4L263.3,870.5z M277.4,797.9l20.7-106.3
				c0.6,0.1,1.2,0.1,1.7,0.1l6.7,92.6L277.4,797.9z M295.7,677.5c-1.7,0.9-3,2.4-3.6,4.2l-70.7-21.8c0.1-0.6,0.2-1.2,0.1-1.8
				l85.9-16.8l-7,35.6C298.8,676.5,297.2,676.8,295.7,677.5L295.7,677.5z M216,653.9c-0.3,0-0.7,0.1-1,0.2l-15.2-34.5l12.3-5
				L216,653.9z M92.7,663l-2.2-14l97.8-54.3l10.9,24.7L92.7,663z M90.3,648.4l-5.5-34.7l79.2-74l24,54.5L90.3,648.4z M84.7,613.1
				l-7.7-48.2l58.4-89.8l28.2,64.1L84.7,613.1z M76.9,564.1l-11.6-73.3c0.4-0.1,0.8-0.2,1.2-0.4c2.4-1.3,3.3-4.2,2-6.6
				c-0.1-0.1-0.2-0.3-0.3-0.4l53.1-40.3l13.9,31.4L76.9,564.1z M130.5,387.2l41.7,2.4l-53,47l-14.7-33.3L130.5,387.2z M104.3,402.9
				l-7.7-17.6l33,1.9L104.3,402.9z M121.2,442.5l-53.1,40.3l50.9-45.2L121.2,442.5z M63.1,481.3l-13.6-43.8l54.5-33.8l14.7,33.4
				l-51.2,45.4C66.4,481.4,64.7,480.9,63.1,481.3z M49.4,437l-16.3-52.8l2.4-2.4l60.5,3.5l7.9,17.9L49.4,437z M32.9,383.7l-0.6-2
				l2.5,0.1L32.9,383.7z M48.9,437.3l-64.5,40l0.1-42.8l48.1-49.8L48.9,437.3z M-15.5,433.7l0.1-47.5c1-0.1,2-0.4,2.9-0.9
				c2.3-1.2,3.8-3.4,4-6l40.2,2.3l0.8,2.5L-15.5,433.7z M-8.5,378.8c0-0.9-0.1-1.9-0.5-2.8l34.3-14.6l6.1,19.7L-8.5,378.8z
				 M19,338.7l46.1,0.7c0,1.4,0.3,2.8,0.8,4.1l-40.2,17.1L19,338.7z M66.1,344c0.1,0.2,0.1,0.3,0.2,0.5c0.5,1,1.1,1.8,1.9,2.6
				l-33.1,34.2l-3.1-0.2l-6.2-20L66.1,344z M68.7,347.5c3.1,2.8,7.6,3.6,11.5,2l15.5,35.2l-59.8-3.4L68.7,347.5z M80.7,349.3
				l0.5-0.2c2-1.1,3.7-2.8,4.7-4.8l65.8,29.3l-21.3,13.2l-34-2L80.7,349.3z M152.2,373.8l25.2,11.2l-4.6,4.1l-41.5-2.4L152.2,373.8z
				 M178,385.2l5.3,2.4c-0.3,0.7-0.4,1.4-0.5,2.1l-9.2-0.5L178,385.2z M152.8,373.4l10.2-6.3l17.7,15.1l-2.8,2.4L152.8,373.4z
				 M181.1,382.5l3.5,3c-0.4,0.5-0.8,1-1.1,1.6l-5.1-2.2L181.1,382.5z M183.6,393.9c0.1,0.3,0.3,0.6,0.5,0.8l-62.5,47.4l-2.2-4.9
				l53.6-47.5l9.7,0.6C182.7,391.5,183,392.8,183.6,393.9L183.6,393.9z M184.4,395.2c0.4,0.5,0.9,1,1.5,1.4l-50.3,77.3l-13.8-31.2
				L184.4,395.2z M186.4,396.9c1.3,0.8,2.8,1.2,4.3,1.1l10.5,106.2l-37,34.6l-28.4-64.2L186.4,396.9z M191.3,397.9
				c3.3-0.4,5.9-3,6.4-6.2l78.5,10.1l-1,33.1l-73.5,68.8L191.3,397.9z M196.9,386.8L278,338l-1.8,63.2l-78.5-10.1
				C197.8,389.6,197.6,388.2,196.9,386.8L196.9,386.8z M278.6,337.7l9.9-5.9l17.2,69c-0.3,0.1-0.6,0.2-0.8,0.3
				c-1.3,0.7-2.2,2-2.5,3.4l-25.6-3.3L278.6,337.7z M289,331.5l4.6-2.8l25,59.8l-9,12.8c-1-0.6-2.3-0.9-3.5-0.6L289,331.5z
				 M318.9,389.1l6.5,15.6L312,405c-0.1-1.3-0.8-2.6-1.9-3.4L318.9,389.1z M319.2,388.5l15.3-22l28.4,37l-37.1,1.1L319.2,388.5z
				 M363.4,404l12.5,16.2l-22.8,49.3l-26.9-64.4L363.4,404z M364.1,404l15.2-0.5c0.1,1.6,1.1,3.1,2.6,3.9l-5.7,12.2L364.1,404z
				 M382.3,407.6c1.3,0.5,2.7,0.5,4-0.2l35.2,61.7l-5.1,2.6l-39.8-51.6L382.3,407.6z M386.7,407.2c0.9-0.6,1.6-1.4,2-2.5l77.1,22.1
				l0.6,19.7L422,468.9L386.7,407.2z M466.3,427l24.7,7.1l-24.1,12.1L466.3,427z M491.8,434.4l32.5,9.3l-56,47.1l-1.4-43.8
				L491.8,434.4z M563.3,458.1L563.3,458.1c0.2,0.4,0.5,0.8,0.8,1.1l-36.7,39.5l-58.6,8.1l-0.2-6.5L563.3,458.1z M564.5,459.6
				c0.3,0.2,0.6,0.4,0.9,0.6l-14.5,35.3l-22.6,3.1L564.5,459.6z M565.9,460.4c1.5,0.6,3.2,0.4,4.5-0.6l23.7,29.7l-42.6,5.9
				L565.9,460.4z M570.9,459.5c0.2-0.2,0.4-0.4,0.6-0.6l38.9,28.4l-15.6,2.2L570.9,459.5z M571.8,458.4c0.3-0.4,0.5-0.9,0.6-1.4
				l58.5,10.4l5.2,16.3l-24.9,3.5L571.8,458.4z M645,511.9l-33.3-24.3l24.4-3.4L645,511.9z M645.3,512.8l20.3,63.5
				c-0.2,0.1-0.4,0.1-0.5,0.2c-0.2,0.1-0.4,0.2-0.5,0.3l-69.4-87l15.8-2.2L645.3,512.8z M646,513.3l29.2,21.3l-7.3,41.3
				c-0.6-0.1-1.2,0-1.8,0.1L646,513.3z M675.7,535l31.2,22.8l0.5,0.3l42.8,31.3c-0.4,0.6-0.6,1.2-0.8,1.8l-77.3-10
				c0.1-0.8-0.1-1.7-0.5-2.5l-0.3-0.5c-0.7-1.1-1.8-1.8-3-2.1L675.7,535z M749.6,593.7l-42.8,17.5l-35.5-27.7
				c0.4-0.6,0.7-1.2,0.8-1.9l77.3,10C749.3,592.4,749.4,593.1,749.6,593.7L749.6,593.7z M757.8,651.7c-1.7,2.3-2.5,5.2-2.1,8
				l-37,6.5l-28.4-47.7l16.3-6.7L757.8,651.7z M756.9,663.3c0.8,1.5,1.9,2.7,3.2,3.7l-22,31.5l-19-31.9l36.8-6.5
				C756.1,661.3,756.4,662.4,756.9,663.3L756.9,663.3z M760.6,667.3c1.3,0.9,2.9,1.5,4.5,1.7l-8.8,60l-17.8-29.9L760.6,667.3z
				 M765.6,669.1c1.8,0.2,3.7-0.1,5.4-0.9l45.3,102.2L788,782.2l-31.3-52.4L765.6,669.1z M828.4,849.9l-40.2-67.3l28.3-11.7
				l22.5,50.7L828.4,849.9z M839.4,822.4l79.6,179.4l-90.2-151.2L839.4,822.4z M771.5,668.1l0.3-0.1c1.1-0.6,2-1.3,2.9-2.2
				l87.9,81.2c-1.1,1.3-1.4,3.1-0.8,4.7l-44.9,18.6L771.5,668.1z M862,752.3c0.5,1,1.3,1.7,2.3,2.2l-25,66.5L817,770.7l44.9-18.6
				C861.9,752.2,861.9,752.2,862,752.3z M796.4,936.6l32.1-85.5l91.5,153.4c-0.7,0.4-1.3,0.9-1.7,1.6L796.4,936.6z M795.9,936.4
				l-64.2-36.6l14.6-99.8l41.4-17.2l40.4,67.7L795.9,936.4z M683,1231l48.6-330.7l64.1,36.5l-110.8,294.7
				C684.3,1231.3,683.6,1231.1,683,1231z M680.1,1230.8l-43-378c2.2-0.3,4.1-1.6,5.3-3.5l88.8,50.6l-48.6,331
				C681.7,1230.9,680.9,1230.8,680.1,1230.8L680.1,1230.8z M676.7,1231.7L546.1,945.3l30.2-90.8l52.1-7.6c0.7,3.8,4.2,6.4,8,6.1
				l43,378C678.6,1231.1,677.7,1231.4,676.7,1231.7L676.7,1231.7z M675.5,1232.3L528.8,997.2l17-51.2l130.4,286l-0.3,0.2
				C675.8,1232.2,675.7,1232.3,675.5,1232.3L675.5,1232.3z M504.4,1070.3l24.2-72.5L675,1232.7c-0.6,0.4-1.2,0.9-1.7,1.4
				L504.4,1070.3z M504,1069.9l-71.5-69.3l17.9-123.1c0.9,0.1,1.9-0.1,2.7-0.5h0.1l75.1,120.4L504,1069.9z M361,1492.9l71.5-491.7
				l71.4,69.3l-141,423C362.3,1493.2,361.6,1493.1,361,1492.9z M360,1492.8L385.1,967c3.2,0.1,6.2-1.2,8.3-3.6l38.5,37.3
				l-71.5,492.1L360,1492.8z M325.4,1035.2l53.6-70.3c1.7,1.2,3.6,1.9,5.6,2l-25.2,525.8c-0.3,0-0.5,0-0.8,0L325.4,1035.2z
				 M321.5,982l50.5-96.8l74.1-11.6c0.2,1,0.7,2,1.5,2.6l-55.7,71.1c-4.8-3.7-11.6-2.8-15.3,2c-3.7,4.8-2.8,11.6,2,15.3l0,0
				l-53.2,69.8L321.5,982z M229.5,1157.9l91.5-175l3.8,52.1l-94.2,123.6C230.2,1158.4,229.9,1158.2,229.5,1157.9L229.5,1157.9z
				 M256,910.4c4.1,0.4,7.8-2.7,8.1-6.8c0-0.5,0-1,0-1.6l50.4-7.9l6.4,87.7L229,1157.7c-0.9-0.5-2-0.8-3-1.1L256,910.4z M132.8,871
				c0.1-0.4,0.1-0.8,0.1-1.2l129.6,1.2l-4.8,24.5c-3.7-0.6-7.3,1.7-8.4,5.3L132.8,871z M132.3,866.3l144.3-67.5l-13.9,71.7
				L133,869.3C133,868.3,132.8,867.3,132.3,866.3z M130.8,864.1l163.5-174.3c0.9,0.8,2,1.4,3.2,1.7l-20.7,106.7l-144.7,67.7
				C131.8,865.2,131.3,864.6,130.8,864.1L130.8,864.1z M128.7,862.7l74.1-171l89-6.8c0.2,1.7,0.9,3.4,2.1,4.6L130.4,863.8
				C129.9,863.3,129.3,862.9,128.7,862.7L128.7,862.7z M98.4,699.5l103.7-7.9l-74,170.8c-1.3-0.5-2.7-0.6-4-0.4L98.4,699.5z
				 M96.1,684.5l116-24.6c0.1,0.3,0.2,0.7,0.4,1c0.5,0.9,1.2,1.6,2.1,2.1l-12.2,28.1L98.4,699L96.1,684.5z M-9,706.8l104.5-22.2
				l2.3,14.4L-9,707.1C-9,707-9,706.9-9,706.8z M-9.4,705.5l101.6-41.7l3.2,20.3L-9.1,706.2C-9.2,706-9.3,705.7-9.4,705.5
				L-9.4,705.5z M-9.7,704.6l99.6-55.3l2.2,14L-9.6,705C-9.6,704.9-9.7,704.7-9.7,704.6L-9.7,704.6z M-10.7,703.1l95.1-89l5.5,34.5
				L-10,704.2C-10.2,703.8-10.5,703.5-10.7,703.1L-10.7,703.1z M-12.1,701.9l88.7-136.4l7.6,48l-95.3,89.2
				C-11.4,702.4-11.7,702.2-12.1,701.9L-12.1,701.9z M-15.6,510.8l75.3-23.2c0.1,0.2,0.2,0.5,0.3,0.7c0.9,1.7,2.8,2.8,4.8,2.6
				l11.7,73.9l-89,136.9c-1.1-0.6-2.2-1-3.5-1.1L-15.6,510.8z M-15.6,477.9l64.6-40.1l13.5,43.7c-0.2,0.1-0.4,0.1-0.6,0.2
				c-1.9,1-2.9,3.2-2.5,5.3l-75.2,23.1L-15.6,477.9z M-116.2,540.4l100.1-62.2l-0.1,32.1l-99.8,30.7
				C-116.1,540.9-116.1,540.7-116.2,540.4L-116.2,540.4z M-117,539.4L-16,435l-0.1,42.6L-116.6,540
				C-116.7,539.8-116.8,539.6-117,539.4L-117,539.4z M-117.7,538.8l98-153.6c1.2,0.7,2.5,1,3.8,1l-0.1,48l-101.4,104.9
				C-117.5,539-117.6,538.9-117.7,538.8L-117.7,538.8z M-68.1,368.5l44.7,8.7c-0.3,1.7-0.1,3.4,0.7,4.9c0.6,1.1,1.4,2,2.4,2.7
				l-98,153.6c-0.2-0.1-0.5-0.2-0.7-0.3L-68.1,368.5z M-238,334.6l174,2.8l3.7,3.2l-8.1,27.5L-238,335
				C-238,334.8-238,334.7-238,334.6z M-136.4,275.1l71.8,61.7l-173.4-2.8c0-0.7-0.2-1.3-0.5-1.9L-136.4,275.1z M-27.7,213.7
				l-108.7,60.7L-342.5,97.3c0.2-0.3,0.5-0.7,0.6-1.1L-28.1,208C-28.7,209.9-28.6,212-27.7,213.7L-27.7,213.7z M-23.4,217.4
				l-35.8,119.5l-4.6-0.1l-72.2-62l108.5-60.6C-26.5,215.7-25,216.8-23.4,217.4L-23.4,217.4z M-21,217.8l3.7,119.8l-41.3-0.6
				l35.7-119.4C-22.2,217.7-21.6,217.8-21,217.8L-21,217.8z M-19.1,217.6l37.3,120.6l-35-0.6l-3.7-119.8
				C-20,217.7-19.5,217.7-19.1,217.6L-19.1,217.6z M69.2,330.8c-2.5,2-4,4.9-4.1,8.1l-46.3-0.7l-37.4-120.7c0.4-0.1,0.7-0.3,1.1-0.5
				c0.3-0.2,0.6-0.3,0.9-0.5L69.2,330.8z M118.9,329.7l-32.2,7.1c-0.2-0.9-0.5-1.7-0.9-2.5c-2.8-5.3-9.4-7.4-14.8-4.6
				c-0.4,0.2-0.8,0.5-1.2,0.8l-85.9-114.4c0.2-0.2,0.5-0.4,0.7-0.6L118.9,329.7z M162.5,366.7l-10.3,6.4l-66.1-29.4
				c0.9-2,1.1-4.3,0.7-6.4l32.7-7.2L162.5,366.7z M275.1,296.8L163,366.4L120.1,330l154.8-34C274.9,296.3,275,296.5,275.1,296.8z
				 M275.8,297.8l-94.7,84l-17.6-15l112-69.5C275.5,297.4,275.6,297.6,275.8,297.8L275.8,297.8z M279.1,299.6l-1.1,37.8l-81.5,48.9
				c-2.3-3.5-6.9-4.5-10.4-2.2c-0.4,0.3-0.8,0.6-1.2,1l-3.4-2.9l94.7-84C276.9,299,278,299.4,279.1,299.6L279.1,299.6z M280.4,299.5
				l7.9,31.8l-9.7,5.8l1.1-37.5C279.9,299.6,280.2,299.5,280.4,299.5L280.4,299.5z M281.2,299.3l12.1,29l-4.5,2.7l-7.9-31.6
				L281.2,299.3z M301.2,323.5l-7.4,4.5L281.7,299h0c0.1-0.1,0.3-0.2,0.4-0.3L301.2,323.5z M334.1,366.2L319,388l-25-59.6l7.5-4.5
				L334.1,366.2z M406.1,263l-71.7,102.7L302,323.6l103-61.8C405.3,262.2,405.7,262.6,406.1,263L406.1,263z M408.1,263.9
				l-23.4,134.5c-2.6-0.3-5.1,1.6-5.4,4.2c0,0.2,0,0.3,0,0.5l-15.6,0.5l-28.8-37.4l71.7-102.9C407.1,263.5,407.6,263.7,408.1,263.9
				L408.1,263.9z M462.5,379.9l-0.2,0.1c-1.8,0.9-2.8,2.9-2.5,4.9l-71,16.9c-0.5-1.7-1.9-2.9-3.6-3.3L408.6,264
				c0.8,0.1,1.7-0.1,2.4-0.4L462.5,379.9z M464.7,389.1l1.1,37.3l-76.9-22.1c0.1-0.6,0.1-1.3,0-1.9l71-16.9c0.1,0.4,0.2,0.8,0.4,1.1
				C461.1,388.1,462.8,389.1,464.7,389.1L464.7,389.1z M517.2,421.1l-25.4,12.8l-25.5-7.3l-1.2-37.5c1.3-0.2,2.5-0.9,3.3-2
				L517.2,421.1z M517.7,421.4l18.2,12.7l-11,9.2l-32.4-9.4L517.7,421.4z M598.8,381.3l-62.5,52.4l-18-12.6l80.2-40.3
				C598.6,380.9,598.7,381.1,598.8,381.3L598.8,381.3z M603.9,383.1l26.8,83.8l-58.2-10.4c0.3-2.7-1.6-5.1-4.2-5.4
				c-1.7-0.2-3.4,0.5-4.4,1.8l-27-18.9l62.3-52.4c1.2,1.2,3,1.7,4.7,1.3L603.9,383.1z M680.8,471.5c-1.2,1-2.1,2.3-2.5,3.8l-47-8.4
				l-26.8-84.1c0.2-0.1,0.4-0.1,0.5-0.2c0.2-0.1,0.4-0.3,0.6-0.4L680.8,471.5z M684.2,484.7l-8.8,49.4l-29.6-21.6l-9-28.3l41.4-5.7
				C678.6,481.6,681.1,484.1,684.2,484.7L684.2,484.7z M751.5,588.2c-0.4,0.2-0.7,0.5-1,0.8l-42.6-31.1l-0.5-0.3l-31.6-23l8.8-49.7
				c1.5,0.2,3-0.1,4.4-0.8l0.4-0.2l37.2,62.7l0.3,0.5L751.5,588.2z M755,596.9l9.6,50.6c-2.5,0.5-4.8,1.8-6.4,3.8l-50.9-39.7
				l42.5-17.4c0,0.1,0,0.1,0.1,0.2C750.9,596.2,752.9,597.2,755,596.9z M914,717.8l-43.9,29.3c-0.6-0.8-1.4-1.4-2.4-1.7l-0.5-0.1
				c-1.1-0.2-2.3-0.1-3.2,0.4c-0.4,0.2-0.8,0.5-1.1,0.8l-88-81.2c2.5-3,3.3-7.1,2-10.7l-0.2-0.5c-0.1-0.3-0.3-0.6-0.4-0.9
				c-0.3-0.5-0.5-0.9-0.9-1.4l-0.3-0.4c-2.4-3-6.2-4.4-10-3.9l-9.6-50.6c0.9-0.2,1.7-0.8,2.3-1.5L914,717.8z M982.3,672.2
				l-67.8,45.3L758.2,594.9c0.2-0.3,0.4-0.6,0.5-1l86.5,28.8l136.7,45.4c-0.5,1.3-0.3,2.7,0.3,3.9
				C982.2,672,982.3,672.1,982.3,672.2L982.3,672.2z M1169.1,916.2c-0.1,0.1-0.2,0.2-0.3,0.3l-2.3-1.3L914.9,717.8l67.7-45.2
				c1.5,2.1,4.5,2.7,6.6,1.2c0.1-0.1,0.2-0.1,0.2-0.2L1169.1,916.2z"/>
			<path class="st3" d="M1087.2,909.5c-0.6-1.2-1.8-2-3.1-2.2l-0.5-0.1c-0.2,0-0.4,0-0.6,0l-0.5,0.1h-0.1l-0.9-1.6l0.1,1.9
				c-0.1,0-0.3,0.1-0.4,0.2c-0.1,0.1-0.2,0.2-0.3,0.2L975.7,765.7l-0.3-0.4l-54-73c1.7-1.6,1.8-4.3,0.2-6.1
				c-0.3-0.3-0.6-0.5-0.9-0.7l-0.8-0.4c-1.6-0.6-3.3-0.2-4.5,1l-0.3,0.3c-0.2,0.2-0.4,0.5-0.5,0.8l-198.4-66c0.1-0.5,0.2-1,0.2-1.5
				l-0.1-0.5c0-0.1,0-0.2-0.1-0.3l-0.2-0.5l0-0.1l-0.2-0.4c-0.1-0.2-0.3-0.4-0.4-0.6l-0.3-0.3c-1.3-1.3-3.4-1.6-5-0.7l-55.2-92.8
				c0.4-0.3,0.7-0.6,1-0.9l0.3-0.4c0.6-0.8,1.1-1.8,1.3-2.8l0.1-0.5c0.1-0.7,0.1-1.4,0-2.2l-0.1-0.5c-0.9-3.6-4.6-5.7-8.1-4.8
				c-0.5,0.1-1,0.3-1.4,0.6c-0.3,0.1-0.5,0.3-0.7,0.5l-66.8-79.3c0.1-0.1,0.2-0.2,0.3-0.3l0.3-0.4c1.3-2,0.8-4.6-1.1-6
				c-2-1.3-4.6-0.8-6,1.1c-0.8,1.2-1,2.8-0.4,4.2l-71.5,36l-43.5-30.4c1.2-2.1,0.5-4.7-1.6-5.9c-1.1-0.6-2.4-0.7-3.6-0.3
				l-45.7-103.4c2-1.2,2.7-3.9,1.5-5.9c-1.2-2-3.9-2.7-5.9-1.5c-1.9,1.2-2.6,3.7-1.6,5.7l-91.6,55l-17-22c1.8-1.5,2.1-4.2,0.6-6.1
				s-4.2-2.1-6.1-0.6c-1.2,1-1.8,2.5-1.5,4.1l-137.9,30.2L28.2,285c2.3-2.9,1.8-7.1-1-9.4c-2.9-2.3-7.1-1.8-9.4,1
				c-0.4,0.5-0.7,1-1,1.6L-262.1,179c0.3-1.1,0.2-2.2-0.3-3.2c-1.1-2.1-3.7-2.9-5.8-1.8c0,0,0,0,0,0c-2.1,1.1-2.9,3.7-1.8,5.8
				c0,0,0,0,0,0c1.1,2.1,3.7,2.9,5.8,1.8c0,0,0,0,0,0c0.4-0.2,0.8-0.5,1.1-0.8L-80,338.1l-90.6,50.6c-1.2-1.9-3.7-2.6-5.6-1.5
				c-2.1,1.1-2.9,3.7-1.8,5.8c0,0,0,0,0,0c1.1,2.1,3.7,2.9,5.8,1.8c0,0,0,0,0,0c1.1-0.6,1.9-1.6,2.2-2.8l150.7,29.4l-45.1,150.7
				c-1-0.2-2.1-0.1-3,0.4c-2.1,1.1-2.9,3.7-1.8,5.8c0,0,0,0,0,0c1.1,2.1,3.7,2.9,5.8,1.8c0,0,0,0,0,0c1.8-0.9,2.7-2.9,2.2-4.9
				L27.2,548l-0.4,168.5c-3.7,0.1-6.6,3.1-6.5,6.8s3.1,6.6,6.8,6.5c3.7-0.1,6.6-3.1,6.5-6.8c0-0.1,0-0.1,0-0.2l94.9-7.2l22.9,144.5
				c-3.6,0.9-5.8,4.5-4.9,8.1c0.9,3.6,4.5,5.8,8.1,4.9c2.3-0.6,4.2-2.3,4.8-4.6L263.2,895c-0.8,3.6,1.5,7.2,5.1,7.9
				c0.1,0,0.2,0,0.4,0.1l-26.6,218.8c-5.3-0.8-10.2,2.9-11,8.2s2.9,10.2,8.2,11c5.3,0.8,10.2-2.9,11-8.2c0.5-3.3-0.8-6.7-3.4-8.8
				l83.4-109.4l29.5,406.1c-5.3,0.5-9.3,5.3-8.8,10.6s5.3,9.3,10.6,8.8c5.3-0.5,9.3-5.3,8.8-10.6c-0.3-3.5-2.6-6.6-5.9-8
				l125.2-375.7L639.7,1191c-3.6,4-3.3,10.1,0.7,13.7c4,3.6,10.1,3.3,13.7-0.7c3.6-4,3.3-10.1-0.7-13.7c-0.8-0.7-1.7-1.3-2.7-1.7
				l98.5-261.8l108.3,61.8c-1.1,2.1-0.2,4.7,1.9,5.8c2.1,1.1,4.7,0.2,5.8-1.9c1-2.1,0.3-4.6-1.7-5.7l-0.4-0.2
				c-0.8-0.3-1.6-0.4-2.4-0.3l-48-221.5c2.3-0.6,3.6-3,3-5.3c-0.1-0.3-0.2-0.6-0.4-0.9c0-0.1-0.1-0.1-0.1-0.2l39.1-26.1l225.6,176.9
				c-1.4,2-0.9,4.6,1.1,6c2,1.4,4.6,0.9,6-1.1C1087.9,912.7,1088,910.9,1087.2,909.5z M859.9,986.5l-72-162.3l22.4-59.5
				c0.6,0.2,1.3,0.2,2,0.1l48.1,221.6C860.2,986.4,860,986.4,859.9,986.5L859.9,986.5z M644.2,518.6l-36.8,5.1l-4.6-14.3l41.5,7.4
				C644.2,517.4,644.2,518,644.2,518.6z M542.1,500.6l-84,37.5l-0.2-7.4l50.4-42.3l33.7,9.7C541.7,499,541.8,499.8,542.1,500.6
				L542.1,500.6z M542.1,497.7l-33.4-9.6l9.6-8.1l24.2,16.9C542.3,497.1,542.1,497.4,542.1,497.7L542.1,497.7z M22.4,426.1
				c-0.7,0.8-1.2,1.7-1.4,2.7l-39.7-7.8l7.2-24.1L22.4,426.1z M-11.8,396.1l-2.7-2.3l3.4,0L-11.8,396.1z M-11.4,396.4l0.8-2.6
				l36.8,0.6l0.9,29.4c-1.7,0.1-3.2,0.7-4.4,1.9L-11.4,396.4z M26.7,394.4l31.2,0.5l6.1,19.7l-30.6,13c0-0.1-0.1-0.2-0.1-0.3
				c-1.1-2.1-3.3-3.5-5.7-3.6L26.7,394.4z M230,680l-103.1,21.8l-2.9-18.1l94.8-38.9l13.5,30.7h-0.1
				C230.6,676.4,229.7,678.2,230,680z M300.9,702.2l-78.8,6l10.7-24.7c2.2,0.8,4.7-0.3,5.5-2.5c0,0,0,0,0-0.1l62.8,19.4
				C301,700.9,300.9,701.5,300.9,702.2L300.9,702.2z M321.6,888.2l-1.2-16.2l7-3.4l50.4,0.5l-5.8,11.2L321.6,888.2z M371.7,880.8
				l-44.4,85l-5.6-77.2L371.7,880.8z M392.7,939.2c-0.6-1.2-1.4-2.2-2.4-3l49.6-63.2c0.5,0.3,1,0.6,1.6,0.7l-15.8,109.1l-34-32.9
				C394.1,946.8,394.5,942.6,392.7,939.2L392.7,939.2z M440.2,865.7c-1.2,0.7-2.1,1.9-2.2,3.3l-59.4-0.5l17.5-33.6l66-32.2
				c1,1.9,3.3,2.7,5.3,1.9l8.7,19l-31.4,42.4C443.4,865,441.7,864.9,440.2,865.7L440.2,865.7z M613.1,843l91.4-37.9l-13,88.2
				l-78.8-44.9C613.6,846.8,613.7,844.8,613.1,843z M612.9,842.5c0-0.1-0.1-0.2-0.2-0.3c-0.5-0.9-1.1-1.6-1.9-2.2l86.8-124.3
				l16,26.9l-9.1,62L612.9,842.5z M714,743.2l27.5,46L705,804.4L714,743.2z M610.4,839.8c-0.8-0.5-1.7-0.9-2.6-1l16.9-142.5
				l55.5-9.8l17.1,28.7L610.4,839.8z M637.2,613.6c0.3-0.2,0.5-0.4,0.7-0.7l31.3,24.4l-14.3,5.9L637.2,613.6z M654.4,643.4
				l-24.6,10.1l4.6-39.1c0.8,0.1,1.6-0.1,2.3-0.5l0.1-0.1L654.4,643.4z M679.9,686.1l-55.1,9.7l5-41.7l25-10.2L679.9,686.1z
				 M318.9,454.4L331,454l24.2,57.8l-14,30.1c-1.9-0.8-4-1-6-0.5l-19.4-83c0.3-0.1,0.5-0.2,0.8-0.3
				C317.9,457.3,318.8,455.9,318.9,454.4z M320.1,868l-1.2-17l91.6-85.3l16,9.9l-30.7,58.8L327.3,868H320.1z M326.4,868.5l-6,2.9
				l-0.2-3L326.4,868.5z M395.5,835.3l-17.4,33.2l-49.7-0.5L395.5,835.3z M462,802.3l-65.4,32L427,776l35.5,22
				C461.6,799.2,461.4,800.8,462,802.3L462,802.3z M604.7,699.3l-41.2,7.2l27-36.5l27.7-11.3L604.7,699.3z M618.8,658.6l10.4-4.3
				l-4.9,41.6l-19,3.3L618.8,658.6z M577,675.7l12.6-5.2l-26.9,36.2l-15.8,2.8L577,675.7z M546.2,709.7l-82.4,14.5l-0.1-2.1
				l112.3-46L546.2,709.7z M577.7,674.9l52.7-59.4l-40.3,54.3L577.7,674.9z M604.5,699.9L561,830.5l-72.4-23l74.4-100.4L604.5,699.9
				z M488.1,807.4l-18-5.7c0.4-1.5,0-3.1-1.2-4.2l77.6-87.4l15.9-2.8L488.1,807.4z M487.8,807.8l-11.4,15.4l-8.5-18.8h0.1
				c0.9-0.5,1.6-1.3,2-2.3L487.8,807.8z M468.6,797.1c-0.7-0.6-1.6-0.9-2.5-0.9l-2.2-71.7l81.9-14.4L468.6,797.1z M465.6,796.2
				c-1.1,0.1-2,0.6-2.8,1.3l-35.6-22.1l23.7-45.3c2.1,1,4.7,0.1,5.7-2.1c0.3-0.7,0.5-1.5,0.4-2.3l6.4-1.1L465.6,796.2z M630.4,610.6
				L491.6,632l24.4-59.5l114.5,36.5C630.4,609.6,630.3,610.1,630.4,610.6z M346.1,546.7l19.5-9.8l43.5,103.9l-0.2,0.1
				c-0.2,0.1-0.3,0.2-0.4,0.3l-65-82.8C346.9,555.5,348,550.7,346.1,546.7z M283.4,581.1l-0.9,33c-0.7,0-1.3,0.2-1.9,0.5
				c-1.9,1-2.8,3.2-2,5.2l-26.6,10.9l14.3-40L283.4,581.1z M266.4,590l18.2-51l-1.2,41.5L266.4,590z M283.9,580.8l45.1-25.1
				c0.5,0.9,1.2,1.8,2.1,2.5l-46,56.7c-0.6-0.5-1.4-0.7-2.1-0.8L283.9,580.8z M331.4,558.6c1.1,0.9,2.4,1.5,3.8,1.8l-13,65.9
				l-35.4-7.3c0.2-1.4-0.3-2.9-1.4-3.8L331.4,558.6z M322.6,626.9l84.1,17.2c-0.1,0.4-0.1,0.8,0,1.2l-91.2,17.9L322.6,626.9z
				 M335.7,560.4c2.1,0.4,4.3,0,6.2-1c0.4-0.2,0.9-0.5,1.3-0.8l65,82.8c-0.6,0.6-1.1,1.3-1.3,2.1l-84.1-17.2L335.7,560.4z
				 M408.6,648.3l-36.1,64.3l-58.4-9.8c0.2-1.3-0.1-2.7-0.7-3.9l93.8-52C407.6,647.5,408.1,648,408.6,648.3L408.6,648.3z
				 M456.1,723.8c-0.4-0.6-1-1.1-1.7-1.3l8.2-20l0.5,16.9L456.1,723.8z M463.2,719.8l0.1,1.9l-6.7,2.8c0,0,0-0.1-0.1-0.2
				s-0.1-0.1-0.1-0.2L463.2,719.8z M461.1,637.2l29.7-4.6l-27.7,67.5L461.1,637.2z M454,722.2c-1-0.3-2.1-0.3-3.1,0.2l-37.8-74
				c1.5-0.8,2.3-2.5,2.1-4.1l45.4-7l2,63.9L454,722.2z M415.1,643.8c-0.1-0.4-0.2-0.8-0.4-1.1c-0.2-0.4-0.4-0.7-0.7-1l45.3-48.7
				l1.4,43.8L415.1,643.8z M450.5,730l-23.7,45.3l-15.9-9.8l38.7-36C449.9,729.7,450.2,729.8,450.5,730z M410.5,765.2l-17.4-10.8
				l55.7-26.1c0.1,0.3,0.3,0.5,0.5,0.7L410.5,765.2z M392.7,754.1l-31.8-19.7l11.9-21.3l75.5,12.7c-0.1,0.7,0,1.4,0.3,2.1
				L392.7,754.1z M410.2,765.5l-91.3,84.9l-2.6-36.3l18-32.1l58.4-27.3L410.2,765.5z M334.6,781.3l26-46.4l31.5,19.5L334.6,781.3z
				 M360.5,734.2l-47-29.1c0.3-0.5,0.5-1.1,0.6-1.7l58.2,9.8L360.5,734.2z M409.1,648.6c1.1,0.6,2.5,0.6,3.6,0.1l37.8,74
				c-1,0.6-1.7,1.6-2,2.8l-75.4-12.6L409.1,648.6z M412.3,640.6l23.6-86.5c3.4,0.8,6.9-1.2,7.9-4.6l14.3,4.6l1.2,38.3l-45.5,49.1
				C413.3,641,412.8,640.8,412.3,640.6L412.3,640.6z M458.6,554.2l27.8,8.9l-26.7,28.7L458.6,554.2z M486.9,563.2l28.7,9.2
				L491,632.1l-29.9,4.6l-1.4-44.2L486.9,563.2z M630.5,611c0.1,0.4,0.2,0.8,0.4,1.1c0,0.1,0.1,0.1,0.1,0.2L463.6,718.9l-0.5-17.7
				l28.3-68.7L630.5,611z M463.3,724.2l-6.5,1.1c0-0.1-0.1-0.3-0.1-0.4l6.5-2.7L463.3,724.2z M319.7,868l-18.7-0.2l17.5-16.3
				L319.7,868z M300.2,867.8l-14-0.1l29.6-52.8l2.6,36L300.2,867.8z M314.6,791.2l18.9-8.8l-17.3,30.8L314.6,791.2z M314.6,790.7
				l-6-82.1c2-0.3,3.7-1.4,4.7-3.1l47,29.1l-26.4,47L314.6,790.7z M309.1,695.5l6.3-31.8l91.4-17.9c0.1,0.3,0.2,0.6,0.3,0.8
				l-93.8,52C312.4,697,310.9,695.9,309.1,695.5L309.1,695.5z M315,663.3l-76.5,15c-0.2-0.8-0.7-1.6-1.3-2.2l43-54.2
				c1.9,1.4,4.6,0.9,6-1c0.3-0.4,0.5-0.9,0.7-1.4l35.4,7.3L315,663.3z M236.8,675.8c-0.3-0.2-0.5-0.3-0.8-0.5l15.7-44l27-11.1
				c0,0,0,0.1,0.1,0.2c0.3,0.5,0.6,0.9,1,1.2L236.8,675.8z M235.5,675.2c-0.5-0.1-0.9-0.2-1.4-0.2l-3.5-35l20.4-8.4L235.5,675.2z
				 M230.6,639.5l-2.7-27.5l37.7-20.9l-14.3,40L230.6,639.5z M230.1,639.6l-11.1,4.5l-9.7-22l18-10L230.1,639.6z M209.2,621.8
				l-21.4-48.6l32.8-30.6l6.8,69.1L209.2,621.8z M221,542.2l65.3-61.1l-1.6,56.4l-18.9,52.9l-38,21.1L221,542.2z M287.6,451l22.7,3
				c-0.1,0.8,0.1,1.6,0.5,2.3c0.1,0.3,0.3,0.5,0.5,0.7L286.8,480L287.6,451z M311.6,457.3c0.4,0.4,0.8,0.7,1.3,0.9L285.1,536
				l1.6-55.4L311.6,457.3z M313.3,458.3c0.6,0.2,1.3,0.2,2,0.1l19.4,83c-0.7,0.2-1.3,0.4-1.9,0.8c-4.7,2.5-6.6,8.4-4.1,13.1
				l-44.9,24.9l1.2-42.7L313.3,458.3z M355.4,512.3l10.1,24l-19.5,9.8c-1-1.8-2.4-3.2-4.3-4.1L355.4,512.3z M355.7,511.7l20.4-44
				l35.1,45.6l-45.3,22.9L355.7,511.7z M411.5,513.7l21.9,28.4c-3,2.2-3.6,6.4-1.4,9.3c0.8,1.1,2,2,3.4,2.4l-23.6,86.6
				c-0.8-0.2-1.5-0.1-2.3,0.1l-43.5-104L411.5,513.7z M411.9,513.5l4.5-2.3l17.5,30.6l-0.1,0L411.9,513.5z M416.9,511l39.3-19.8
				l1.2,39.2l-15,12.6c-2-2.3-5.3-2.9-8-1.5L416.9,511z M457.4,531l0.2,7.2l-14.2,6.3l-0.1-0.2c-0.2-0.4-0.4-0.7-0.6-1L457.4,531z
				 M457.6,538.7l0.2,5.7l-13.8,2c-0.1-0.5-0.2-0.9-0.4-1.3L457.6,538.7z M457.8,544.9l0.3,8.5l-14.1-4.4c0.2-0.7,0.2-1.4,0.1-2.1
				L457.8,544.9z M458.3,544.8l51.6-7.2l-23.1,24.9l-28.2-9L458.3,544.8z M510.6,537.6l20.4-2.7l-15.3,37.1l-28.5-9.1L510.6,537.6z
				 M531.6,534.7l38.4-5.2l61.8,77.5c-0.5,0.5-0.9,1-1.2,1.7l-114.5-36.5L531.6,534.7z M631.3,612.7c0.2,0.2,0.3,0.4,0.5,0.6l-55,62
				l-113,46.3l-0.1-2L631.3,612.7z M632.3,613.7c0.2,0.2,0.5,0.3,0.8,0.4l-14.7,44l-27.4,11.2L632.3,613.7z M633.6,614.2l0.4,0.1
				l-4.7,39.4l-10.3,4.3L633.6,614.2z M607.4,838.7c-3-0.3-5.8,1.6-6.8,4.4l-39.1-12.4l43.6-130.9l19.2-3.4L607.4,838.7z
				 M600.2,846.1l-46.1,6.8l7.2-21.7l39.1,12.4C600.2,844.4,600.1,845.3,600.2,846.1L600.2,846.1z M553.5,852.9l-59.5,8.7l-17.3-38
				l11.7-15.7l72.5,23.1L553.5,852.9z M553.4,853.4l-26.7,80l-32.5-71.3L553.4,853.4z M526.5,934.1l-15.2,45.6L444.8,873
				c1.3-0.9,2-2.4,1.8-3.9l47.1-6.9L526.5,934.1z M445.1,866.2l31.2-42.1l17.2,37.6l-47,6.9C446.3,867.7,445.8,866.8,445.1,866.2
				L445.1,866.2z M438,869.9l-65.5,10.2l5.8-11.1l59.6,0.5C438,869.7,438,869.8,438,869.9z M321.1,888.2l-44.8,7
				c-0.1-0.5-0.3-1-0.5-1.5l44.1-21.5L321.1,888.2z M275.7,893.3c-0.2-0.4-0.5-0.8-0.8-1.2l25.6-23.8l19.3,0.2l0.2,3.2L275.7,893.3z
				 M274.5,891.7c-0.4-0.4-0.8-0.7-1.2-1l12.7-22.6l13.8,0.1L274.5,891.7z M272.8,890.5c-0.5-0.2-1-0.4-1.5-0.6l4.3-21.9l9.8,0.1
				L272.8,890.5z M275.6,867.5l12.4-63.9l26-12.2l1.7,22.6l-30.1,53.7L275.6,867.5z M288.2,803l18.4-94.5c0.5,0.1,1,0.1,1.5,0.1
				l6,82.3L288.2,803z M304.5,696c-1.5,0.8-2.6,2.1-3.2,3.7l-62.8-19.4c0.1-0.5,0.2-1.1,0.1-1.6l76.3-15l-6.2,31.6
				C307.2,695.1,305.7,695.4,304.5,696L304.5,696z M233.6,675c-0.3,0-0.6,0.1-0.9,0.2l-13.5-30.7l10.9-4.5L233.6,675z M124,683.2
				l-2-12.5l86.9-48.3l9.7,21.9L124,683.2z M121.9,670.2l-4.9-30.8l70.4-65.8l21.4,48.5L121.9,670.2z M116.9,638.8l-6.8-42.8
				l51.9-79.8l25.1,57L116.9,638.8z M110,595.2l-10.3-65.2c0.4-0.1,0.8-0.2,1.1-0.4c2.1-1.1,2.9-3.7,1.8-5.8c0,0,0,0,0,0
				c-0.1-0.1-0.2-0.3-0.3-0.4l47.2-35.8l12.3,27.9L110,595.2z M157.6,438.1l37.1,2.1L147.6,482l-13.1-29.6L157.6,438.1z M134.3,452
				l-6.9-15.6l29.3,1.6L134.3,452z M149.3,487.2L102.2,523l45.2-40.1L149.3,487.2z M97.7,521.7l-12.1-39l48.4-30.1l13.1,29.7
				l-45.5,40.4C100.6,521.7,99.1,521.3,97.7,521.7L97.7,521.7z M85.5,482.3L71,435.4l2.1-2.2l53.8,3.1l7,15.9L85.5,482.3z
				 M70.9,434.9l-0.6-1.8l2.2,0.1L70.9,434.9z M85.1,482.5l-57.3,35.6l0.1-38l42.8-44.2L85.1,482.5z M27.9,479.4l0.1-42.2
				c3.3-0.3,5.9-2.9,6.1-6.1l35.7,2l0.7,2.2L27.9,479.4z M34.1,430.5c0-0.8-0.1-1.7-0.5-2.5l30.5-13l5.4,17.5L34.1,430.5z
				 M58.5,394.9l41,0.6c0,1.2,0.2,2.5,0.7,3.6l-35.7,15.2L58.5,394.9z M100.4,399.6c0.1,0.1,0.1,0.3,0.2,0.4c0.4,0.8,1,1.6,1.7,2.3
				l-29.4,30.4l-2.8-0.2l-5.5-17.7L100.4,399.6z M102.6,402.7c2.8,2.5,6.7,3.2,10.2,1.8l13.8,31.3l-53.1-3L102.6,402.7z
				 M113.3,404.3l0.4-0.2c1.8-1,3.3-2.5,4.2-4.3l58.5,26l-18.9,11.7l-30.2-1.7L113.3,404.3z M176.9,426.1l22.4,10l-4.1,3.7
				l-36.9-2.1L176.9,426.1z M199.8,436.3l4.7,2.1c-0.2,0.6-0.4,1.2-0.5,1.9l-8.2-0.5L199.8,436.3z M177.4,425.8l9-5.6l15.7,13.4
				l-2.4,2.2L177.4,425.8z M202.5,433.9l3.1,2.6c-0.4,0.4-0.7,0.9-0.9,1.4l-4.5-2L202.5,433.9z M204.8,444c0.1,0.2,0.3,0.5,0.4,0.7
				l-55.5,42.2l-1.9-4.4l47.6-42.2l8.6,0.5C204,441.9,204.3,443,204.8,444z M205.5,445.1c0.4,0.5,0.8,0.9,1.3,1.2l-44.7,68.7
				l-12.2-27.8L205.5,445.1z M207.3,446.6c1.2,0.7,2.5,1,3.9,0.9l9.3,94.5l-32.9,30.8l-25.2-57.1L207.3,446.6z M211.6,447.5
				c2.9-0.4,5.2-2.6,5.7-5.5l69.8,9l-0.8,29.4l-65.4,61.1L211.6,447.5z M216.6,437.6l72.2-43.3l-1.6,56.1l-69.8-9
				C217.5,440.2,217.3,438.9,216.6,437.6L216.6,437.6z M289.3,394l8.8-5.3l15.3,61.4c-0.3,0.1-0.5,0.2-0.7,0.3c-1.2,0.6-2,1.7-2.2,3
				l-22.7-2.9L289.3,394z M298.5,388.5l4.1-2.5l22.2,53.1l-8,11.4c-0.9-0.6-2-0.8-3.1-0.6L298.5,388.5z M325,439.7l5.8,13.8
				l-11.9,0.4c-0.1-1.2-0.7-2.3-1.6-3L325,439.7z M325.3,439.2l13.6-19.5l25.3,32.8l-32.9,1L325.3,439.2z M364.6,453l11.1,14.4
				l-20.3,43.8L331.5,454L364.6,453z M365.2,453l13.5-0.4c0.1,1.4,1,2.7,2.3,3.4l-5,10.9L365.2,453z M381.4,456.2
				c1.1,0.5,2.4,0.4,3.5-0.1l31.3,54.8l-4.6,2.3l-35.4-45.9L381.4,456.2z M385.4,455.8c0.8-0.5,1.4-1.3,1.7-2.2l68.5,19.7l0.5,17.5
				l-39.5,19.9L385.4,455.8z M456.1,473.5l22,6.3l-21.5,10.8L456.1,473.5z M478.8,480l28.9,8.3l-49.8,41.8l-1.2-39L478.8,480z
				 M542.3,501.1L542.3,501.1c0.2,0.4,0.4,0.7,0.7,1l-32.6,35.1l-52.1,7.2l-0.2-5.8L542.3,501.1z M543.4,502.4
				c0.2,0.2,0.5,0.4,0.8,0.5l-12.9,31.4l-20.1,2.8L543.4,502.4z M544.6,503.1c1.2,0.4,2.4,0.4,3.5-0.2c0.2-0.1,0.3-0.2,0.5-0.3
				l21.1,26.4l-37.9,5.3L544.6,503.1z M549,502.3c0.2-0.2,0.4-0.4,0.5-0.5l34.6,25.2l-13.9,1.9L549,502.3z M549.8,501.3
				c0.2-0.4,0.4-0.8,0.5-1.3l52,9.2l4.6,14.5l-22.1,3.1L549.8,501.3z M614.9,548.9l-29.6-21.6l21.7-3L614.9,548.9z M615.2,549.7
				l18,56.4c-0.2,0.1-0.3,0.1-0.5,0.2c-0.2,0.1-0.3,0.2-0.5,0.3l-61.7-77.3l14.1-2L615.2,549.7z M615.8,550.2l26,19l-6.5,36.8
				c-0.5-0.1-1.1,0-1.6,0.1L615.8,550.2z M642.2,569.4l27.7,20.2l0.4,0.3l38.1,27.8c-0.3,0.5-0.6,1.1-0.7,1.6l-68.7-8.9
				c0.1-0.8-0.1-1.5-0.4-2.2l-0.2-0.4c-0.6-1-1.6-1.6-2.7-1.9L642.2,569.4z M707.8,621.6l-38.1,15.6l-31.5-24.6
				c0.3-0.5,0.6-1.1,0.7-1.7l68.7,8.9C707.6,620.4,707.6,621,707.8,621.6L707.8,621.6z M715.2,673.2c-1.5,2-2.2,4.6-1.8,7.1
				l-32.9,5.8l-25.3-42.3l14.5-6L715.2,673.2z M714.3,683.5c0.7,1.3,1.7,2.4,2.8,3.3l-19.6,28l-16.9-28.3l32.7-5.7
				C713.6,681.7,713.9,682.6,714.3,683.5L714.3,683.5z M717.6,687.1c1.2,0.8,2.6,1.3,4,1.5l-7.8,53.3l-15.9-26.5L717.6,687.1z
				 M722,688.6c1.6,0.2,3.3-0.1,4.8-0.8l40.3,90.8l-25.2,10.4l-27.8-46.6L722,688.6z M777.9,849.3l-35.7-59.8l25.1-10.4l20,45.1
				L777.9,849.3z M787.6,824.8l70.8,159.4l-80.2-134.4L787.6,824.8z M727.3,687.7l0.2-0.1c1-0.5,1.8-1.2,2.5-2l78.2,72.2
				c-1,1.2-1.2,2.7-0.7,4.2l-39.9,16.5L727.3,687.7z M807.7,762.5c0.5,0.9,1.2,1.5,2.1,1.9l-22.2,59.1l-19.8-44.6l39.9-16.5
				C807.7,762.4,807.7,762.5,807.7,762.5L807.7,762.5z M749.4,926.4l28.6-75.9l81.3,136.3c-0.6,0.3-1.1,0.8-1.5,1.4L749.4,926.4z
				 M749,926.1l-57-32.5L705,805l36.8-15.2l35.9,60.2L749,926.1z M648.7,1188l43.2-293.9l57,32.5l-98.5,261.9
				C649.8,1188.3,649.3,1188.1,648.7,1188z M646.1,1187.9L607.8,852c1.9-0.3,3.7-1.4,4.7-3.1l78.9,45L648.2,1188
				C647.5,1187.9,646.8,1187.8,646.1,1187.9L646.1,1187.9z M643.1,1188.6L527,934l26.9-80.7l46.3-6.8c0.6,3.4,3.7,5.7,7.1,5.5
				l38.3,336C644.8,1188.1,643.9,1188.3,643.1,1188.6L643.1,1188.6z M642,1189.2l-130.4-209l15.2-45.5l115.9,254.1l-0.3,0.1
				L642,1189.2z M490,1045.2l21.5-64.4l130.1,208.7c-0.6,0.4-1.1,0.8-1.5,1.2L490,1045.2z M489.6,1044.8L426,983.2l15.9-109.4
				c0.8,0.1,1.7-0.1,2.4-0.5h0.1l66.7,107L489.6,1044.8z M362.4,1420.8l63.5-437l63.5,61.6l-125.3,375.9
				C363.6,1421,363,1420.9,362.4,1420.8L362.4,1420.8z M361.5,1420.7l22.4-467.3c2.8,0.1,5.5-1.1,7.4-3.2l34.2,33.2L362,1420.7
				H361.5z M330.8,1014l47.7-62.5c1.5,1.1,3.2,1.7,5,1.8L361,1420.6c-0.2,0-0.5,0-0.7,0L330.8,1014z M327.3,966.7l45-86l65.8-10.3
				c0.2,0.9,0.6,1.7,1.4,2.3L390,935.9c-4.2-3.3-10.3-2.6-13.7,1.7c-3.3,4.2-2.6,10.3,1.7,13.7l0,0l-47.3,62L327.3,966.7z
				 M245.6,1123.1l81.3-155.6l3.4,46.3l-83.8,109.8C246.2,1123.4,245.9,1123.2,245.6,1123.1L245.6,1123.1z M269.2,903.1
				c3.7,0.3,6.9-2.4,7.2-6.1c0-0.5,0-0.9,0-1.4l44.8-7l5.7,77.9l-81.6,156.3c-0.8-0.4-1.7-0.7-2.6-0.9L269.2,903.1z M159.7,868
				c0.1-0.4,0.1-0.7,0.1-1.1L275,868l-4.2,21.8c-3.3-0.5-6.5,1.5-7.5,4.7L159.7,868z M159.2,863.9l128.3-60l-12.4,63.7l-115.3-1.1
				C159.8,865.6,159.6,864.7,159.2,863.9L159.2,863.9z M157.9,861.9L303.2,707c0.8,0.7,1.8,1.2,2.9,1.5l-18.4,94.8L159,863.5
				C158.7,862.9,158.3,862.4,157.9,861.9L157.9,861.9z M156,860.6l65.8-152l79.1-6c0.1,1.5,0.8,3,1.9,4.1L157.5,861.6
				C157.1,861.2,156.6,860.9,156,860.6z M129.1,715.6l92.2-7l-65.7,151.8c-1.1-0.5-2.4-0.6-3.6-0.4L129.1,715.6z M127,702.3
				l103.1-21.8c0.3,1.2,1.1,2.2,2.2,2.7l-10.8,25l-92.5,7L127,702.3z M33.6,722.1l92.9-19.7l2,12.8l-94.9,7.2
				C33.7,722.3,33.6,722.2,33.6,722.1z M33.3,720.9l90.3-37l2.9,18l-92.9,19.7C33.5,721.4,33.4,721.1,33.3,720.9L33.3,720.9z
				 M33,720.2l88.6-49.2l2,12.4l-90.4,37.1C33.1,720.4,33,720.3,33,720.2L33,720.2z M32.1,718.9l84.5-79.1l4.9,30.7l-88.7,49.3
				C32.5,719.4,32.3,719.1,32.1,718.9L32.1,718.9z M30.9,717.8l78.8-121.2l6.8,42.7l-84.7,79.3C31.5,718.2,31.2,718,30.9,717.8
				L30.9,717.8z M27.7,547.9l66.9-20.6c0.1,0.2,0.2,0.4,0.3,0.6c0.8,1.6,2.5,2.5,4.3,2.3l10.4,65.7L30.5,717.5
				c-0.9-0.6-2-0.9-3.1-0.9L27.7,547.9z M27.8,518.7L85.2,483l12,38.8c-0.2,0.1-0.4,0.1-0.5,0.2c-1.7,0.9-2.6,2.8-2.2,4.7
				l-66.8,20.6L27.8,518.7z M-61.7,574.2l89-55.3l-0.1,28.5l-88.7,27.3C-61.5,574.6-61.6,574.5-61.7,574.2L-61.7,574.2z
				 M-62.3,573.4l89.7-92.8l-0.1,37.8L-62,573.8C-62.1,573.7-62.2,573.5-62.3,573.4L-62.3,573.4z M-63,572.8l87.1-136.6
				c1,0.6,2.2,0.9,3.4,0.9l-0.1,42.7L-62.7,573C-62.8,572.9-62.9,572.9-63,572.8L-63,572.8z M-18.9,421.5l39.8,7.8
				c-0.5,2.6,0.6,5.3,2.8,6.7l-87.1,136.5c-0.2-0.1-0.4-0.2-0.6-0.3L-18.9,421.5z M-169.9,391.3l154.7,2.5l3.3,2.8l-7.3,24.4
				l-150.7-29.4C-169.9,391.5-169.9,391.4-169.9,391.3L-169.9,391.3z M-79.6,338.4l63.8,54.8l-154.1-2.4c0-0.6-0.2-1.2-0.4-1.7
				L-79.6,338.4z M17,283.9l-96.6,54l-183.2-157.4c0.2-0.3,0.4-0.6,0.5-1l278.9,99.3C16.1,280.4,16.2,282.3,17,283.9z M20.8,287.1
				L-11,393.3l-4.1-0.1l-64.1-55.1l96.4-53.9C18.1,285.6,19.4,286.7,20.8,287.1L20.8,287.1z M22.9,287.5l3.3,106.4l-36.7-0.6
				l31.8-106.1C21.8,287.4,22.4,287.5,22.9,287.5L22.9,287.5z M24.6,287.3l33.2,107.2l-31.1-0.5l-3.3-106.5
				C23.8,287.4,24.3,287.4,24.6,287.3L24.6,287.3z M103.1,387.9c-2.2,1.8-3.6,4.4-3.7,7.2l-41.2-0.6L25.1,287.1
				c0.3-0.1,0.7-0.2,1-0.4c0.3-0.1,0.5-0.3,0.8-0.5L103.1,387.9z M147.3,386.9l-28.7,6.3c-1.2-5.2-6.4-8.4-11.6-7.2
				c-1.2,0.3-2.4,0.8-3.4,1.6L27.2,286c0.2-0.2,0.4-0.4,0.6-0.6L147.3,386.9z M186,419.9l-9.2,5.7l-58.8-26.2c0.8-1.8,1-3.8,0.6-5.7
				l29-6.4L186,419.9z M286.2,357.7l-99.7,61.9l-38.1-32.4L285.9,357C286,357.2,286.1,357.5,286.2,357.7z M286.7,358.6l-84.2,74.7
				l-15.7-13.3l99.6-61.8C286.5,358.3,286.6,358.4,286.7,358.6z M289.7,360.1l-1,33.6l-72.4,43.5c-1.9-2.9-5.7-3.9-8.7-2.3
				c-0.6,0.3-1.1,0.7-1.6,1.2l-3.1-2.6l84.1-74.7C287.7,359.6,288.7,360.1,289.7,360.1z M290.8,360.1l7,28.2l-8.6,5.2l1-33.3
				C290.4,360.1,290.6,360.1,290.8,360.1L290.8,360.1z M291.6,359.9l10.8,25.8l-4,2.4l-7-28.1L291.6,359.9z M309.4,381.4l-6.6,4
				L292,359.7l0,0c0.1-0.1,0.2-0.1,0.4-0.2L309.4,381.4z M338.6,419.3l-13.5,19.4L303,385.8l6.7-4L338.6,419.3z M402.6,327.6
				L339,418.9l-28.8-37.4l91.5-55C401.9,326.9,402.2,327.3,402.6,327.6L402.6,327.6z M404.4,328.4l-20.9,119.5
				c-2.4-0.3-4.5,1.4-4.8,3.7c0,0.1,0,0.3,0,0.4l-13.9,0.4l-25.6-33.2l63.8-91.4C403.4,328.1,403.9,328.3,404.4,328.4L404.4,328.4z
				 M452.7,431.5l-0.2,0.1c-1.6,0.8-2.5,2.6-2.3,4.4L387.1,451c-0.4-1.5-1.6-2.7-3.2-3l20.8-119.5c0.7,0.1,1.5-0.1,2.2-0.4
				L452.7,431.5z M454.6,439.7l1,33.1l-68.4-19.6c0.1-0.6,0.1-1.2,0-1.7l63.1-15.1c0.1,0.3,0.2,0.7,0.4,1
				C451.4,438.9,452.9,439.7,454.6,439.7L454.6,439.7z M501.3,468.1l-22.6,11.4l-22.6-6.5l-1-33.3c1.2-0.1,2.3-0.8,2.9-1.8
				L501.3,468.1z M501.8,468.4l16.2,11.3l-9.8,8.2l-28.7-8.2L501.8,468.4z M573.8,432.8l-55.5,46.6l-16-11.2l71.3-35.9
				C573.6,432.5,573.7,432.6,573.8,432.8L573.8,432.8z M578.3,434.4l23.8,74.4l-51.7-9.2c0.3-2.4-1.4-4.5-3.7-4.8
				c-1.5-0.2-3,0.4-3.9,1.6l-24-16.8l55.4-46.5C575.2,434.3,576.8,434.7,578.3,434.4L578.3,434.4z M646.7,512.9
				c-1.1,0.9-1.8,2.1-2.2,3.4l-41.8-7.4l-23.9-74.7c0.2-0.1,0.3-0.1,0.5-0.2c0.2-0.1,0.4-0.2,0.6-0.4L646.7,512.9z M649.7,524.7
				l-7.8,43.9l-26.3-19.2l-8-25.2l36.8-5.1C644.7,521.9,646.9,524.1,649.7,524.7L649.7,524.7z M709.5,616.7
				c-0.3,0.2-0.6,0.5-0.9,0.8l-37.9-27.7l-0.4-0.3l-28-20.5l7.8-44.2c1.3,0.1,2.7-0.1,3.9-0.8l0.3-0.2l33.1,55.7l0.2,0.4
				L709.5,616.7z M712.6,624.5l8.5,45c-2.2,0.4-4.2,1.6-5.7,3.4l-45.2-35.3L708,622c0,0,0,0.1,0.1,0.2
				C708.9,623.8,710.8,624.7,712.6,624.5L712.6,624.5z M854,731.9l-39,26.1c-0.5-0.7-1.3-1.2-2.1-1.5l-0.5-0.1c-1-0.2-2-0.1-2.9,0.4
				c-0.4,0.2-0.7,0.4-1,0.7l-78.2-72.2c2.2-2.6,2.9-6.3,1.7-9.5l-0.2-0.5c-0.1-0.3-0.2-0.6-0.4-0.8c-0.2-0.4-0.5-0.8-0.8-1.2
				l-0.3-0.4c-2.2-2.6-5.5-4-8.9-3.5l-8.5-45c0.3-0.1,0.6-0.2,0.8-0.3c0.5-0.3,0.9-0.6,1.2-1L854,731.9z M914.7,691.3l-60.3,40.3
				l-138.9-109c0.2-0.3,0.3-0.6,0.5-0.9l76.9,25.6l121.5,40.4c-0.4,1.1-0.3,2.4,0.2,3.4C914.6,691.2,914.6,691.3,914.7,691.3
				L914.7,691.3z M1080.7,908.2c-0.1,0.1-0.2,0.2-0.2,0.2l-2-1.2L854.8,731.9l60.1-40.2c1.3,1.7,3.6,2.2,5.5,1.2
				c0.2-0.1,0.4-0.2,0.6-0.4L1080.7,908.2z"/>
		</g>
	</g>
</g>
</svg>
