<?xml version="1.0" encoding="utf-8"?>
<!-- Generator: Adobe Illustrator 21.0.2, SVG Export Plug-In . SVG Version: 6.00 Build 0)  -->
<svg version="1.1" id="Layer_1" xmlns="http://www.w3.org/2000/svg" xmlns:xlink="http://www.w3.org/1999/xlink" x="0px" y="0px"
	 viewBox="0 0 161 160" style="enable-background:new 0 0 161 160;" xml:space="preserve">
<style type="text/css">
	.st0{fill:#F4F4F4;}
	.st1{fill:#E0E0E0;}
</style>
<title>box_article</title>
<path class="st0" d="M155,160H0V5c0-2.8,2.2-5,5-5h150c2.8,0,5,2.2,5,5v150C160,157.8,157.8,160,155,160z"/>
<path class="st1" d="M161,155v-15.8L113,80L58.3,94L37,110l41,50h78C158.8,160,161,157.8,161,155z"/>
<polygon points="85.7,91 85,90 74.8,75.3 74.8,126.9 112.4,110.9 112.4,79.4 86.8,90.5 "/>
<polygon points="62.3,91 61.2,90.5 35.6,79.4 35.6,110.9 73.2,126.9 73.2,75.3 63,90 "/>
<polygon points="74.8,72.8 86.2,89.2 124,72.8 112.6,59 "/>
<polygon points="73.2,72.8 35.4,59 24,72.8 61.8,89.2 "/>
<polygon points="73.2,49.2 61.8,35.3 24,40.5 35.4,56.9 "/>
<polygon points="124,40.5 86.2,35.3 74.8,49.2 112.6,56.9 "/>
</svg>
