<?xml version="1.0" encoding="utf-8"?>
<!-- Generator: Adobe Illustrator 21.0.2, SVG Export Plug-In . SVG Version: 6.00 Build 0)  -->
<svg version="1.1" id="Layer_1" xmlns="http://www.w3.org/2000/svg" xmlns:xlink="http://www.w3.org/1999/xlink" x="0px" y="0px"
	 viewBox="0 0 161 160" style="enable-background:new 0 0 161 160;" xml:space="preserve">
<style type="text/css">
	.st0{fill:#BC0033;}
	.st1{fill:#A30032;}
	.st2{fill:#FFFFFF;}
</style>
<title>box_article</title>
<path class="st0" d="M160.5,160H5.5c-2.8,0-5-2.2-5-5V5c0-2.8,2.2-5,5-5h150c2.8,0,5,2.2,5,5V160z"/>
<path class="st1" d="M160.5,155v-44.2l-28-36.8l-94,5l63.9,81h53.1C158.3,160,160.5,157.8,160.5,155z"/>
<rect x="121.7" y="113.7" class="st1" width="38.8" height="46.3"/>
<path class="st2" d="M75.7,97c2.1,1.6,5,1.2,6.6-0.8s1.2-5-0.8-6.6c-1.1-0.9-2.6-1.2-4-0.9c-0.5,0.1-1,0-1.3-0.3
	c-0.3-0.3-0.5-0.6-0.5-1c0-0.4,0.1-0.8,0.4-1.1l8.3-9.3l-9.3-8.3c-0.6-0.5-0.7-1.5-0.1-2.1c0.3-0.4,0.8-0.6,1.3-0.5
	c2.6,0.3,4.9-1.6,5.2-4.2c0.2-1.4-0.3-2.8-1.3-3.8l-0.2-0.2c-1.9-1.7-4.9-1.6-6.7,0.4c-1,1.1-1.4,2.7-1.1,4.2
	c0.2,0.8-0.3,1.6-1.1,1.8c-0.5,0.1-1,0-1.3-0.3l-9.3-8.3L38.9,79.5L63,101l8.3-9.3c0.5-0.6,1.5-0.7,2.1-0.1c0.4,0.3,0.6,0.8,0.5,1.3
	C73.8,94.4,74.4,96,75.7,97z"/>
<path class="st2" d="M101.9,72.4c2.6-0.2,4.5-2.5,4.3-5.1c-0.1-1.1-0.6-2.1-1.3-2.9l-0.2-0.2c-1.1-1-2.7-1.4-4.2-1.1
	c-0.8,0.2-1.6-0.4-1.8-1.2c-0.1-0.5,0-0.9,0.4-1.3l8.3-9.3L83.2,29.8L61.7,53.9l8.2,7.3c0-3.8,3.1-6.8,6.9-6.7
	c1.6,0,3.2,0.6,4.4,1.7l0.3,0.3c2.6,2.7,2.6,7-0.1,9.6c-1.1,1-2.4,1.7-3.9,1.9l8.2,7.3l8.3-9.3c0.6-0.6,1.5-0.7,2.1-0.1c0,0,0,0,0,0
	c0.4,0.3,0.5,0.8,0.5,1.3c-0.2,1.5,0.4,3,1.6,4C99.3,72,100.5,72.5,101.9,72.4z"/>
<path class="st2" d="M106.1,87.1c1.5-1.9,1.3-4.5-0.3-6.2l-0.2-0.2c-1.9-1.7-4.9-1.6-6.7,0.4c-1,1.1-1.4,2.7-1.1,4.2
	c0.2,0.8-0.3,1.6-1.1,1.8c-0.5,0.1-1,0-1.3-0.3L86,78.3l-7.3,8.2c3.8,0.1,6.8,3.1,6.7,6.9c-0.1,3.8-3.1,6.8-6.9,6.7
	c-3.4,0-6.2-2.6-6.7-5.9l-7.3,8.2l24.1,21.5l21.5-24.1l-9.3-8.3c-0.6-0.5-0.7-1.5-0.1-2.1c0.3-0.4,0.8-0.6,1.3-0.5
	C103.5,89,105.1,88.4,106.1,87.1z"/>
<path class="st2" d="M107.5,88.7c-1.1,1.2-2.6,2-4.2,2.2l8.2,7.3l21.5-24.1l-24.1-21.5l-7.3,8.2c1.6,0,3.2,0.6,4.5,1.7l0.3,0.3
	c2.6,2.7,2.6,7-0.1,9.6c-2.7,2.6-7,2.6-9.6-0.1c-1-1.1-1.7-2.4-1.9-3.9l-7.3,8.2l8.2,7.3c0-3.8,3.1-6.8,6.9-6.7
	c1.5,0,2.9,0.5,4.1,1.4l0.4,0.3C109.8,81.6,110,85.9,107.5,88.7z"/>
</svg>
