<svg id="Layer_1" data-name="Layer 1" xmlns="http://www.w3.org/2000/svg" viewBox="0 0 161 160"><defs><style>.cls-1{fill:#483078;}.cls-2{opacity:0.25;}.cls-3{fill:#fff;}</style></defs><title>box_article</title><path id="figure" class="cls-1" d="M.5,0h155a5,5,0,0,1,5,5V155a5,5,0,0,1-5,5H5.5a5,5,0,0,1-5-5V0A0,0,0,0,1,.5,0Z"/><path class="cls-2" d="M160.5,155V67.78L122.5,29S101,57.5,101,59.5s-5,28-5,28H89s-29-12-44,6S48.5,125,48.5,125L83,160h72.5A5,5,0,0,0,160.5,155Z"/><path class="cls-3" d="M48.51,108h69.55a4.44,4.44,0,0,0,4.44-4.44V30.15a4.44,4.44,0,0,0-4.44-4.44H61.32V74.33a1,1,0,0,1-1.69.7L56,71.42a1,1,0,0,0-1.4,0L51,75a1,1,0,0,1-1.69-.7V25.7H48.3A10.92,10.92,0,0,0,37.38,36.62v77.63h0A10.93,10.93,0,0,0,48.3,124.93h69.76a4.44,4.44,0,0,0,4.44-4.44v-3.76a2.47,2.47,0,0,0-4.94,0V120H48.3a6,6,0,0,1-5.93-6.77A6.12,6.12,0,0,1,48.51,108Z"/></svg>