<svg id="Layer_1" data-name="Layer 1" xmlns="http://www.w3.org/2000/svg" viewBox="0 0 161 160"><defs><style>.cls-1{fill:#383838;}.cls-2{fill:#212121;}.cls-3{fill:#fff;}</style></defs><title>box_article</title><path id="figure" class="cls-1" d="M5.5,0h155a0,0,0,0,1,0,0V155a5,5,0,0,1-5,5H5.5a5,5,0,0,1-5-5V5a5,5,0,0,1,5-5Z"/><path class="cls-2" d="M160.5,155V110.76L116.87,53.3l-78,23L102.43,160H155.5A5,5,0,0,0,160.5,155Z"/><path class="cls-3" d="M106.11,46.66a11.06,11.06,0,0,0-10.94-13A11,11,0,0,0,89,35.54,21.05,21.05,0,0,0,48.59,43.8a21.4,21.4,0,0,0,.18,2.64A17.92,17.92,0,0,0,52,82h49.9a17.92,17.92,0,0,0,4.25-35.34Z"/><path class="cls-3" d="M76.92,107.48a29.9,29.9,0,0,1-21.28-8.82,4.12,4.12,0,1,1,5.83-5.83,21.85,21.85,0,0,0,30.9,0,4.12,4.12,0,0,1,5.83,5.83A29.9,29.9,0,0,1,76.92,107.48Z"/><path class="cls-3" d="M76.92,126.84a49.32,49.32,0,0,1-35-14.47,4.12,4.12,0,0,1,5.83-5.83,41.28,41.28,0,0,0,58.31,0,4.12,4.12,0,0,1,5.83,5.83A49.33,49.33,0,0,1,76.92,126.84Z"/></svg>