<?xml version="1.0" encoding="utf-8"?>
<!-- Generator: Adobe Illustrator 16.0.0, SVG Export Plug-In . SVG Version: 6.00 Build 0)  -->
<!DOCTYPE svg PUBLIC "-//W3C//DTD SVG 1.1//EN" "http://www.w3.org/Graphics/SVG/1.1/DTD/svg11.dtd">
<svg version="1.1" id="Capa_1" xmlns="http://www.w3.org/2000/svg" xmlns:xlink="http://www.w3.org/1999/xlink" x="0px" y="0px"
	 width="180px" height="31px" viewBox="0 0 180 31" enable-background="new 0 0 180 31" xml:space="preserve">
<g>
	<path fill="#FFFFFF" d="M46.884,13.61c-1.371-1.449-2.914-2.173-4.627-2.173c-1.447,0-2.666,0.494-3.657,1.483
		c-0.991,0.989-1.486,2.208-1.486,3.658c0,1.01,0.219,1.907,0.658,2.69c0.438,0.783,1.059,1.397,1.861,1.844
		c0.802,0.445,1.694,0.67,2.674,0.67c0.836,0,1.6-0.157,2.294-0.469c0.691-0.313,1.453-0.881,2.282-1.706l1.955,2.039
		c-1.119,1.092-2.176,1.849-3.17,2.271c-0.995,0.422-2.132,0.633-3.407,0.633c-2.354,0-4.281-0.747-5.78-2.239
		c-1.5-1.492-2.25-3.405-2.25-5.738c0-1.51,0.342-2.852,1.024-4.025c0.684-1.173,1.661-2.117,2.935-2.831
		c1.272-0.713,2.643-1.07,4.111-1.07c1.249,0,2.453,0.263,3.609,0.791c1.156,0.528,2.153,1.278,2.99,2.251L46.884,13.61
		L46.884,13.61z M60.481,21.73c-0.377,0.878-0.933,1.553-1.668,2.023c-0.734,0.47-1.667,0.705-2.8,0.705
		c-1.228,0-2.221-0.275-2.979-0.824c-0.758-0.549-1.292-1.314-1.601-2.295c-0.22-0.679-0.329-1.915-0.329-3.706v-4.662h2.841v5.393
		c0,1.05,0.072,1.779,0.216,2.188c0.145,0.408,0.377,0.726,0.697,0.952c0.32,0.227,0.714,0.34,1.181,0.34
		c0.469,0,0.866-0.112,1.192-0.335c0.326-0.223,0.569-0.55,0.727-0.982c0.118-0.322,0.176-1.012,0.176-2.069v-5.486h2.81v4.744
		C60.944,19.671,60.79,21.01,60.481,21.73L60.481,21.73z M78.074,24.169v-5.683c0-1.269-0.159-2.129-0.475-2.578
		c-0.316-0.449-0.789-0.674-1.42-0.674c-0.48,0-0.911,0.138-1.292,0.413c-0.381,0.273-0.665,0.652-0.85,1.136
		c-0.186,0.485-0.278,1.261-0.278,2.331v5.055h-2.83v-5.425c0-1.001-0.074-1.728-0.222-2.176c-0.148-0.45-0.37-0.785-0.665-1.004
		c-0.297-0.22-0.654-0.33-1.074-0.33c-0.467,0-0.893,0.139-1.274,0.417c-0.382,0.277-0.667,0.668-0.856,1.168
		c-0.189,0.501-0.284,1.291-0.284,2.367v4.982h-2.81V12.971h2.81v1.286c0.48-0.528,1.015-0.923,1.603-1.184
		c0.587-0.261,1.227-0.392,1.921-0.392c0.701,0,1.332,0.172,1.895,0.515c0.563,0.343,1.017,0.845,1.359,1.503
		c0.446-0.659,0.995-1.16,1.644-1.503c0.649-0.343,1.357-0.515,2.127-0.515c0.797,0,1.497,0.186,2.102,0.557
		c0.604,0.37,1.038,0.854,1.303,1.451c0.263,0.598,0.397,1.569,0.397,2.913v6.568H78.074L78.074,24.169z M93.585,22.775
		c-1.057,1.122-2.309,1.683-3.757,1.683c-0.646,0-1.247-0.116-1.801-0.345c-0.557-0.229-1.108-0.606-1.657-1.126v1.183h-2.79V8.646
		h2.79v5.559c0.507-0.509,1.057-0.889,1.646-1.143c0.591-0.254,1.222-0.381,1.895-0.381c1.461,0,2.703,0.553,3.726,1.658
		c1.024,1.105,1.535,2.522,1.535,4.251C95.171,20.257,94.642,21.652,93.585,22.775L93.585,22.775z M91.506,16.197
		c-0.577-0.614-1.304-0.921-2.182-0.921c-0.886,0-1.621,0.302-2.203,0.905c-0.583,0.604-0.876,1.394-0.876,2.368
		c0,0.995,0.293,1.8,0.876,2.414c0.583,0.614,1.317,0.921,2.203,0.921c0.856,0,1.58-0.312,2.166-0.936
		c0.586-0.625,0.88-1.42,0.88-2.389C92.371,17.599,92.083,16.812,91.506,16.197L91.506,16.197z M101.975,15.388
		c-0.329-0.164-0.6-0.246-0.813-0.246c-0.432,0-0.797,0.267-1.095,0.803c-0.299,0.535-0.448,1.585-0.448,3.15l0.011,0.546v4.529
		h-2.791V12.971h2.408v1.409c0.261-0.556,0.608-0.978,1.041-1.266c0.432-0.289,0.907-0.433,1.42-0.433
		c0.363,0,0.745,0.097,1.143,0.29L101.975,15.388L101.975,15.388z M115.459,19.383h-9.027c0.13,0.796,0.479,1.429,1.045,1.899
		c0.565,0.471,1.288,0.706,2.166,0.706c1.051,0,1.953-0.367,2.707-1.102l2.369,1.113c-0.591,0.836-1.298,1.456-2.121,1.857
		s-1.801,0.603-2.934,0.603c-1.757,0-3.187-0.554-4.292-1.663c-1.105-1.108-1.658-2.496-1.658-4.164
		c0-1.709,0.551-3.128,1.652-4.257c1.101-1.129,2.482-1.693,4.144-1.693c1.763,0,3.197,0.564,4.302,1.693
		c1.105,1.129,1.657,2.62,1.657,4.473L115.459,19.383L115.459,19.383z M111.552,15.647c-0.547-0.392-1.182-0.588-1.903-0.588
		c-0.784,0-1.47,0.22-2.063,0.659c-0.372,0.274-0.715,0.758-1.031,1.452h6.093C112.465,16.545,112.098,16.037,111.552,15.647
		L111.552,15.647z M125.465,16.491h7.617l0.021,0.637c0,1.325-0.343,2.582-1.029,3.768c-0.685,1.188-1.576,2.093-2.666,2.717
		c-1.091,0.625-2.371,0.937-3.838,0.937c-1.573,0-2.975-0.341-4.206-1.024c-1.232-0.683-2.206-1.655-2.923-2.918
		c-0.717-1.262-1.075-2.625-1.075-4.086c0-2.003,0.661-3.747,1.987-5.229c1.571-1.764,3.615-2.646,6.134-2.646
		c1.318,0,2.55,0.244,3.696,0.73c0.967,0.412,1.915,1.119,2.841,2.12l-2.03,2.009c-1.284-1.359-2.782-2.039-4.492-2.039
		c-1.491,0-2.739,0.494-3.745,1.482c-1.007,0.988-1.51,2.189-1.51,3.602c0,1.463,0.521,2.702,1.566,3.717
		c1.045,1.016,2.333,1.522,3.864,1.522c0.997,0,1.836-0.208,2.521-0.627c0.683-0.418,1.233-1.073,1.654-1.966h-4.386V16.491
		L125.465,16.491z M139.918,15.388c-0.33-0.164-0.601-0.246-0.812-0.246c-0.433,0-0.8,0.267-1.098,0.803
		c-0.299,0.535-0.448,1.585-0.448,3.15l0.011,0.546v4.529h-2.791V12.971h2.409v1.409c0.261-0.556,0.608-0.978,1.041-1.266
		c0.433-0.289,0.906-0.433,1.42-0.433c0.363,0,0.744,0.097,1.143,0.29L139.918,15.388L139.918,15.388z M152.595,21.524
		c-0.526,0.92-1.241,1.639-2.146,2.157c-0.905,0.517-1.905,0.777-2.995,0.777c-1.606,0-2.977-0.571-4.113-1.714
		c-1.135-1.143-1.704-2.531-1.704-4.165c0-1.75,0.641-3.207,1.926-4.374c1.125-1.016,2.419-1.524,3.88-1.524
		c1.057,0,2.051,0.265,2.98,0.792c0.929,0.528,1.654,1.247,2.177,2.152c0.522,0.906,0.783,1.884,0.783,2.934
		C153.382,19.616,153.119,20.604,152.595,21.524L152.595,21.524z M149.69,16.228c-0.573-0.6-1.307-0.901-2.202-0.901
		c-0.872,0-1.599,0.304-2.18,0.911c-0.582,0.608-0.872,1.385-0.872,2.332c0,0.975,0.287,1.764,0.861,2.367
		c0.573,0.604,1.301,0.907,2.18,0.907c0.88,0,1.612-0.305,2.196-0.916c0.584-0.61,0.877-1.396,0.877-2.358
		C150.551,17.609,150.264,16.829,149.69,16.228L149.69,16.228z M165.045,21.73c-0.376,0.878-0.933,1.553-1.668,2.023
		c-0.733,0.47-1.668,0.705-2.8,0.705c-1.228,0-2.22-0.275-2.979-0.824c-0.759-0.549-1.293-1.314-1.602-2.295
		c-0.219-0.679-0.329-1.915-0.329-3.706v-4.662h2.84v5.393c0,1.05,0.073,1.779,0.217,2.188c0.144,0.408,0.376,0.726,0.697,0.952
		c0.319,0.227,0.714,0.34,1.181,0.34c0.468,0,0.865-0.112,1.193-0.335c0.326-0.223,0.568-0.55,0.726-0.982
		c0.117-0.322,0.175-1.012,0.175-2.069v-5.486h2.811v4.744C165.508,19.671,165.354,21.01,165.045,21.73L165.045,21.73z
		 M178.335,22.775c-1.057,1.122-2.311,1.683-3.757,1.683c-0.647,0-1.247-0.116-1.803-0.345c-0.555-0.229-1.108-0.606-1.657-1.126
		v5.28h-2.789V12.971h2.789v1.234c0.507-0.509,1.057-0.889,1.648-1.143c0.59-0.254,1.221-0.381,1.893-0.381
		c1.463,0,2.704,0.553,3.727,1.658c1.022,1.105,1.534,2.522,1.534,4.251C179.919,20.257,179.391,21.652,178.335,22.775
		L178.335,22.775z M176.254,16.197c-0.577-0.614-1.304-0.921-2.182-0.921c-0.885,0-1.621,0.302-2.203,0.905
		c-0.583,0.604-0.875,1.394-0.875,2.368c0,0.995,0.292,1.8,0.875,2.414c0.582,0.614,1.317,0.921,2.203,0.921
		c0.858,0,1.58-0.312,2.166-0.936c0.586-0.625,0.881-1.42,0.881-2.389C177.12,17.599,176.831,16.812,176.254,16.197L176.254,16.197z
		"/>
	<path fill="#FFFFFF" d="M26.398,0H2.847L0,3.841v23.578L2.847,31h23.551L30,27.419V3.841L26.398,0z M9.458,19.346l-1.774,1.789
		L2.225,15.63l5.459-5.505l1.774,1.789L5.774,15.63L9.458,19.346z M18,13.145l-5,5.63V22h-2v-3.89l5-5.464V9h2V13.145z
		 M21.556,21.135l-1.774-1.789l3.685-3.716l-3.685-3.716l1.774-1.789l5.459,5.505L21.556,21.135z"/>
</g>
</svg>
