<svg id="Layer_1" data-name="Layer 1" xmlns="http://www.w3.org/2000/svg" viewBox="0 0 39.1 39.1"><defs><style>.cls-1{fill:#fff;}</style></defs><title>discover_icon</title><path class="cls-1" d="M39,17.38a1.27,1.27,0,0,0-1.26-1,4.32,4.32,0,0,1-3-7.51,1.09,1.09,0,0,0,.12-1.47,19.36,19.36,0,0,0-3.1-3.13,1.09,1.09,0,0,0-1.49.12,4.51,4.51,0,0,1-4.88,1.1,4.34,4.34,0,0,1-2.64-4.24,1.08,1.08,0,0,0-1-1.14,19.51,19.51,0,0,0-4.4,0,1.09,1.09,0,0,0-1,1.12,4.35,4.35,0,0,1-2.68,4.17,4.52,4.52,0,0,1-4.84-1.1,1.09,1.09,0,0,0-1.48-.12A19.44,19.44,0,0,0,4.3,7.31,1.09,1.09,0,0,0,4.42,8.8a4.33,4.33,0,0,1,1.09,4.88,4.52,4.52,0,0,1-4.25,2.64,1.06,1.06,0,0,0-1.13,1,19.6,19.6,0,0,0,0,4.45,1.29,1.29,0,0,0,1.28,1,4.29,4.29,0,0,1,4,2.68A4.35,4.35,0,0,1,4.33,30.2a1.09,1.09,0,0,0-.12,1.47A19.42,19.42,0,0,0,7.31,34.8a1.09,1.09,0,0,0,1.49-.12,4.5,4.5,0,0,1,4.87-1.1,4.34,4.34,0,0,1,2.65,4.24,1.09,1.09,0,0,0,1,1.14,19.47,19.47,0,0,0,4.4,0,1.09,1.09,0,0,0,1-1.12,4.35,4.35,0,0,1,2.68-4.17,4.51,4.51,0,0,1,4.84,1.1,1.09,1.09,0,0,0,1.48.12,19.46,19.46,0,0,0,3.16-3.13,1.09,1.09,0,0,0-.12-1.49,4.33,4.33,0,0,1-1.1-4.88,4.38,4.38,0,0,1,4-2.65h.24a1.09,1.09,0,0,0,1.14-1A19.51,19.51,0,0,0,39,17.38ZM19.55,30.82a11.27,11.27,0,1,1,9.68-5.49L24.29,20.4A6.91,6.91,0,0,0,16.11,11a.78.78,0,0,0-.54.55.76.76,0,0,0,.22.75L19,15.59a.51.51,0,0,1,.07.36V16a15.58,15.58,0,0,1-.37,2.39l-.05.05-.05.06a15.36,15.36,0,0,1-2.42.38h-.08a.52.52,0,0,1-.37-.16l-3.19-3.17A.8.8,0,0,0,12,15.3a.77.77,0,0,0-.73.59,6.92,6.92,0,0,0,9.37,8.17l5,5A11.22,11.22,0,0,1,19.55,30.82Z"/></svg>