<svg id="Layer_1" data-name="Layer 1" xmlns="http://www.w3.org/2000/svg" viewBox="0 0 116.89 116.89"><defs><style>.cls-1,.cls-9{fill:#e4e8e8;}.cls-1,.cls-2,.cls-3{fill-rule:evenodd;}.cls-2{fill:#bc0033;}.cls-3{fill:#c9003e;}.cls-4{fill:#d4d4d4;}.cls-5{fill:#fff;}.cls-6{fill:#0d2038;}.cls-7{fill:#545454;}.cls-8{fill:#404040;}</style></defs><title>discover</title><path class="cls-1" d="M70.06,60.63c.62-.62-.14-2.38-1.69-3.91s-3.26-2.26-3.9-1.68h0v0l-31,30.24-10.15,6.9-7.94,10.56,6,6.11L32,101,39,91,70.08,60.65Z"/><path class="cls-2" d="M105.59,7.94a11.9,11.9,0,0,0-8.64,3.91L64.52,43.65,63.11,50a4.74,4.74,0,0,0-6.45.23l-2.24,2.24a4.76,4.76,0,0,0,0,6.73l5.44,5.44.26.25,53.58-53.5A11.26,11.26,0,0,0,105.59,7.94Z"/><path class="cls-3" d="M60.11,64.87l5.53,5.53a4.76,4.76,0,0,0,6.73,0l2.25-2.24a4.77,4.77,0,0,0,0-6.73l-.28-.28,6.05-1.63L113,27.88l-.05-.05a11.28,11.28,0,0,0,.77-16.45Z"/><path class="cls-2" d="M76.15,53l32.47-32.48c1.47-1.46,3.33-2,4.17-1.14s.33,2.7-1.14,4.16L79.18,56c-1.46,1.46-3.33,2-4.16,1.13s-.33-2.7,1.13-4.16Z"/><path class="cls-2" d="M68.1,46.28,100.57,13.8c1.47-1.46,3.33-2,4.17-1.14s.33,2.7-1.13,4.17L71.13,49.31c-1.46,1.46-3.33,2-4.16,1.13s-.33-2.7,1.13-4.16Z"/><rect class="cls-4" x="48.57" y="29.86" width="8.85" height="38.36" transform="translate(-19.16 51.85) rotate(-45)"/><polygon class="cls-5" points="42.57 32.35 39.26 35.66 66.22 62.62 69.69 59.48 42.57 32.35"/><path class="cls-6" d="M110.5,99.66a4.62,4.62,0,0,0-.2-6.46L58.5,45.72c-.64-.58-1.46-.68-1.85-.23q-1.74,2-3.63,3.92L107,103.36Q108.77,101.55,110.5,99.66Z"/><path class="cls-7" d="M110.5,99.66a4.62,4.62,0,0,0-.2-6.46L58.5,45.72c-.64-.58-1.46-.68-1.85-.23q-1.74,2-3.63,3.92L107,103.36Q108.77,101.55,110.5,99.66Z"/><path class="cls-8" d="M53,49.41Q51.13,51.3,49.11,53c-.45.39-.35,1.21.23,1.85l47.48,51.8a4.61,4.61,0,0,0,6.46.2q1.89-1.72,3.69-3.52Z"/><path class="cls-9" d="M45.71,10.17c-5.61-.31-12.58.65-16.84,3.39a49.57,49.57,0,0,0-7.4,5.76,44.69,44.69,0,0,0-4.72,5.23s-.31,5.56-2.43,7.64a16.54,16.54,0,0,1-5.29,3l-1.41.51-.52-.52a1.3,1.3,0,0,0-1.83-.08L.34,40.05a1.3,1.3,0,0,0,.08,1.83L12.18,53.64a1.3,1.3,0,0,0,1.83.08l4.93-4.93A1.3,1.3,0,0,0,18.86,47l-.64-.63c1.19-2.07,2.54-4.85,4.52-6.74,3.67-3.53,12.45.53,12.45.53l9.2-9.2a6.25,6.25,0,0,1-1.67-3,9.55,9.55,0,0,1,1-6.62c1.93-2.71,5.69-3.55,10.39-4.11,6.41-.76,14.09.86,14.8.59a1.65,1.65,0,0,0,.91-1.24C70.85,13.42,57.77,11.18,45.71,10.17Z"/></svg>