<svg id="Layer_1" data-name="Layer 1" xmlns="http://www.w3.org/2000/svg" viewBox="0 0 116.89 116.89"><defs><style>.cls-1{fill:#bc0033;}.cls-2{fill:#fff;}.cls-3{fill:#404040;}.cls-3,.cls-4,.cls-5{fill-rule:evenodd;}.cls-4{fill:#545454;}.cls-5{fill:#dbdbdb;}</style></defs><title>discover</title><polygon class="cls-1" points="87.88 93.86 50.02 104.7 12.39 93.86 3.8 -0.04 96.47 -0.04 87.88 93.86"/><polygon class="cls-2" points="36.93 30.46 33.17 26.7 18.43 41.44 18.42 41.43 14.65 45.19 14.67 45.2 14.65 45.22 18.42 48.97 18.43 48.96 33.17 63.7 36.93 59.94 22.19 45.2 36.93 30.46"/><polygon class="cls-2" points="84.26 45.19 80.49 41.43 80.48 41.44 65.74 26.7 61.98 30.46 76.72 45.2 61.98 59.94 65.74 63.7 80.48 48.96 80.49 48.97 84.26 45.22 84.24 45.2 84.26 45.19"/><rect class="cls-2" x="35.2" y="42.13" width="26.18" height="5.32" transform="translate(-12.47 70.2) rotate(-65.54)"/><path class="cls-3" d="M113.09,81.83v8.66l-6.88,2.07-2.55,5.82,3.58,6.31-6.15,6.13-6.33-3.38-5.94,2.48-2.08,6.86H78l-1.95-7-5.94-2.32-6.34,3.38-6.15-6.13,3.58-6.31-2.55-5.85L51.8,90.49V81.83l7-1.94L61.14,74l-3.4-6.31,6.15-6.13,6.34,3.57,5.85-2.4,1.95-7h8.7l2.08,6.86,5.85,2.54L101,61.56l6.16,6.13L103.74,74l2.33,5.9,7,1.94ZM82.38,74.09A12.09,12.09,0,1,0,94.52,86.18,12.12,12.12,0,0,0,82.38,74.09Z"/><path class="cls-4" d="M113.09,90.49V81.83l-9.14-1.37-2.12-5.37,5.31-7.41L101,61.56,93.56,67l-5.33-2.32-1.5-9H78l-1.38,9.1L71.33,67l-7.43-5.47-6.15,6.13,5.31,7.41-2.12,5.38L51.8,81.83v8.66l9,1.5,2.32,5.32-5.49,7.4,6.15,6.13,7.44-5.29,5.41,2.11,1.38,9.1h8.7l1.5-9,5.41-2.25,7.44,5.29,6.15-6.13-5.49-7.4,2.32-5.3Zm-30.7,6.7a11,11,0,1,1,11-11A11,11,0,0,1,82.38,97.2Z"/><path class="cls-5" d="M82.43,72.73A13.62,13.62,0,1,1,68.79,86.35,13.63,13.63,0,0,1,82.43,72.73Zm0-1.86A15.49,15.49,0,1,1,66.94,86.36,15.49,15.49,0,0,1,82.42,70.87Z"/></svg>