<svg id="Layer_1" data-name="Layer 1" xmlns="http://www.w3.org/2000/svg" viewBox="0 0 116.89 116.89"><defs><style>.cls-1{fill:#dbdbdb;}.cls-2{fill:#545454;}.cls-3{fill:#bc0033;}.cls-4{fill:#404040;}.cls-5{fill:#fff;}</style></defs><title>discover</title><path class="cls-1" d="M59.11,81.44H57.5V75a5.62,5.62,0,0,0-5.62-5.62H6.94a7.22,7.22,0,0,1,0-14.45H109.67a5.62,5.62,0,0,0,0-11.24H71.15V42.06h38.52a7.22,7.22,0,0,1,0,14.45H6.94a5.62,5.62,0,0,0,0,11.24H51.89A7.23,7.23,0,0,1,59.11,75Z"/><polygon class="cls-2" points="77.57 30.02 39.05 30.02 34.01 54.99 82.52 54.99 77.57 30.02"/><polygon class="cls-3" points="34.01 54.99 32.57 62.13 83.93 62.13 82.52 54.99 34.01 54.99"/><polygon class="cls-4" points="58.3 39.66 0.52 26.81 58.3 13.97 116.09 26.82 58.3 39.66"/><rect class="cls-1" x="12.49" y="81.44" width="91.49" height="24.08"/><rect class="cls-5" x="62.25" y="83.05" width="3.21" height="1.61"/><rect class="cls-5" x="57.43" y="83.05" width="3.21" height="1.61"/><rect class="cls-5" x="52.62" y="83.05" width="3.21" height="1.61"/><rect class="cls-5" x="47.8" y="83.05" width="3.21" height="1.61"/><rect class="cls-5" x="42.99" y="83.05" width="3.21" height="1.61"/><rect class="cls-5" x="38.17" y="83.05" width="3.21" height="1.61"/><rect class="cls-5" x="33.36" y="83.05" width="3.21" height="1.61"/><rect class="cls-5" x="28.54" y="83.05" width="3.21" height="1.61"/><rect class="cls-5" x="23.73" y="83.05" width="3.21" height="1.61"/><rect class="cls-5" x="18.91" y="83.05" width="3.21" height="1.61"/><rect class="cls-5" x="14.09" y="83.05" width="3.21" height="1.61"/><rect class="cls-5" x="62.25" y="86.26" width="3.21" height="3.21"/><rect class="cls-5" x="57.43" y="86.26" width="3.21" height="3.21"/><rect class="cls-5" x="52.62" y="86.26" width="3.21" height="3.21"/><rect class="cls-5" x="47.8" y="86.26" width="3.21" height="3.21"/><rect class="cls-5" x="42.99" y="86.26" width="3.21" height="3.21"/><rect class="cls-5" x="38.17" y="86.26" width="3.21" height="3.21"/><rect class="cls-5" x="33.36" y="86.26" width="3.21" height="3.21"/><rect class="cls-5" x="28.54" y="86.26" width="3.21" height="3.21"/><rect class="cls-5" x="23.73" y="86.26" width="3.21" height="3.21"/><rect class="cls-5" x="18.91" y="86.26" width="3.21" height="3.21"/><rect class="cls-5" x="14.09" y="86.26" width="3.21" height="3.21"/><rect class="cls-5" x="57.63" y="91.07" width="7.82" height="3.21"/><rect class="cls-5" x="52.62" y="91.07" width="3.21" height="3.21"/><rect class="cls-5" x="47.8" y="91.07" width="3.21" height="3.21"/><rect class="cls-5" x="42.99" y="91.07" width="3.21" height="3.21"/><rect class="cls-5" x="38.17" y="91.07" width="3.21" height="3.21"/><rect class="cls-5" x="33.36" y="91.07" width="3.21" height="3.21"/><rect class="cls-5" x="28.54" y="91.07" width="3.21" height="3.21"/><rect class="cls-5" x="23.73" y="91.07" width="3.21" height="3.21"/><rect class="cls-5" x="18.91" y="91.07" width="3.21" height="3.21"/><rect class="cls-5" x="14.09" y="91.07" width="3.21" height="3.21"/><rect class="cls-5" x="62.25" y="95.89" width="3.21" height="3.21"/><rect class="cls-5" x="57.43" y="95.89" width="3.21" height="3.21"/><rect class="cls-5" x="52.62" y="95.89" width="3.21" height="3.21"/><rect class="cls-5" x="47.8" y="95.89" width="3.21" height="3.21"/><rect class="cls-5" x="42.99" y="95.89" width="3.21" height="3.21"/><rect class="cls-5" x="38.17" y="95.89" width="3.21" height="3.21"/><rect class="cls-5" x="33.36" y="95.89" width="3.21" height="3.21"/><rect class="cls-5" x="28.54" y="95.89" width="3.21" height="3.21"/><rect class="cls-5" x="23.73" y="95.89" width="3.21" height="3.21"/><rect class="cls-5" x="18.91" y="95.89" width="3.21" height="3.21"/><rect class="cls-5" x="14.09" y="95.89" width="3.21" height="3.21"/><rect class="cls-5" x="62.25" y="100.7" width="3.21" height="3.21"/><rect class="cls-5" x="57.43" y="100.7" width="3.21" height="3.21"/><rect class="cls-5" x="52.62" y="100.7" width="3.21" height="3.21"/><rect class="cls-5" x="28.54" y="100.7" width="22.47" height="3.21"/><rect class="cls-5" x="23.73" y="100.7" width="3.21" height="3.21"/><rect class="cls-5" x="18.91" y="100.7" width="3.21" height="3.21"/><rect class="cls-5" x="14.09" y="100.7" width="3.21" height="3.21"/><rect class="cls-5" x="78.3" y="83.05" width="3.21" height="1.61"/><rect class="cls-5" x="73.48" y="83.05" width="3.21" height="1.61"/><rect class="cls-5" x="68.67" y="83.05" width="3.21" height="1.61"/><rect class="cls-5" x="78.3" y="86.26" width="3.21" height="3.21"/><rect class="cls-5" x="73.48" y="86.26" width="3.21" height="3.21"/><rect class="cls-5" x="68.67" y="86.26" width="3.21" height="3.21"/><rect class="cls-5" x="73.48" y="95.89" width="3.21" height="3.21"/><rect class="cls-5" x="78.3" y="100.7" width="3.21" height="3.21"/><rect class="cls-5" x="73.48" y="100.7" width="3.21" height="3.21"/><rect class="cls-5" x="68.67" y="100.7" width="3.21" height="3.21"/><rect class="cls-5" x="99.16" y="83.05" width="3.21" height="1.61"/><rect class="cls-5" x="94.35" y="83.05" width="3.21" height="1.61"/><rect class="cls-5" x="89.53" y="83.05" width="3.21" height="1.61"/><rect class="cls-5" x="84.72" y="83.05" width="3.21" height="1.61"/><rect class="cls-5" x="99.16" y="86.26" width="3.21" height="3.21"/><rect class="cls-5" x="94.35" y="86.26" width="3.21" height="3.21"/><rect class="cls-5" x="89.53" y="86.26" width="3.21" height="3.21"/><rect class="cls-5" x="84.72" y="86.26" width="3.21" height="3.21"/><rect class="cls-5" x="99.16" y="91.07" width="3.21" height="3.21"/><rect class="cls-5" x="94.35" y="91.07" width="3.21" height="3.21"/><rect class="cls-5" x="89.53" y="91.07" width="3.21" height="3.21"/><rect class="cls-5" x="84.72" y="91.07" width="3.21" height="3.21"/><rect class="cls-5" x="94.35" y="95.89" width="3.21" height="3.21"/><rect class="cls-5" x="89.53" y="95.89" width="3.21" height="3.21"/><rect class="cls-5" x="84.72" y="95.89" width="3.21" height="3.21"/><rect class="cls-5" x="99.16" y="95.89" width="3.21" height="8.03"/><rect class="cls-5" x="94.35" y="100.7" width="3.21" height="3.21"/><rect class="cls-5" x="89.53" y="100.7" width="3.21" height="3.21"/><rect class="cls-5" x="84.72" y="100.7" width="3.21" height="3.21"/><rect class="cls-5" x="56.7" y="76.63" width="3.21" height="4.82"/></svg>