<svg id="Layer_1" data-name="Layer 1" xmlns="http://www.w3.org/2000/svg" viewBox="0 0 116.89 116.89"><defs><style>.cls-1{fill:#404040;}.cls-2{fill:#dbdbdb;}.cls-3{fill:#545454;}.cls-4{fill:#bc0033;}.cls-5{opacity:0.2;}.cls-6{fill:#fff;}</style></defs><title>discover</title><path class="cls-1" d="M99,19.51C79.36,22.93,70.42,17.71,57.66,6.2h0C44.9,17.71,36,22.93,16.36,19.51c-9.43,87,33.19,88.88,41.29,92.35h0C65.77,108.39,109.52,105,99,19.51Z"/><path class="cls-2" d="M102.92,14.16,98.17,15a58,58,0,0,1-10,1C77.25,16,70.62,11.71,60.74,2.8L58.89,1.13,57.66,0,56.44,1.13,54.58,2.8C44.69,11.71,38.06,16,27.12,16a58,58,0,0,1-10-1l-4.82-.84L11.8,19c-2,18.54-1.81,34.69.58,48,2.07,11.49,5.82,21.14,11.16,28.69,9.84,13.91,22.55,17.52,29.37,19.46,1.22.35,2.38.68,2.94.91l.14.06,1.6.74.07,0,.08,0,1.63-.76.11,0c.55-.24,1.67-.57,2.85-.92a65.57,65.57,0,0,0,13.6-5.42A48.83,48.83,0,0,0,92.1,95.27c5.44-7.62,9.23-17.28,11.27-28.72,2.36-13.27,2.4-29.29.14-47.6Zm-45.25,97.7h0c-8.11-3.47-50.72-5.31-41.29-92.35a62.83,62.83,0,0,0,10.76,1c12.63,0,20.37-5.18,30.53-14.34h0c10.16,9.16,17.9,14.34,30.53,14.34a62.81,62.81,0,0,0,10.76-1C109.52,105,65.77,108.39,57.66,111.86Z"/><path class="cls-1" d="M57.66,6.2h0V111.86h0C65.77,108.39,109.52,105,99,19.51,79.36,22.93,70.42,17.71,57.66,6.2Z"/><path class="cls-3" d="M57.65,6.2h0V111.86h0c-8.11-3.47-50.72-5.31-41.29-92.35C36,22.93,44.9,17.71,57.65,6.2Z"/><path class="cls-4" d="M82.46,88.38a37.19,37.19,0,0,1-16.17,12.87,67.51,67.51,0,0,1-7.36,2.55l-.93.28-.34-.15-.37.16-1.15-.33c-5.8-1.65-15.51-4.4-22.93-14.9-9-12.78-12.5-33.35-10.32-61.21,1.45.11,2.86.16,4.23.16,13.38,0,22.43-5.3,30.54-12,8.11,6.7,17.16,12,30.54,12,1.41,0,2.85-.05,4.33-.16q.73,7.85.8,14.92C93.55,62.58,89.92,77.94,82.46,88.38Z"/><path class="cls-5" d="M82.46,88.38a37.19,37.19,0,0,1-16.17,12.87c-7.08-7-13-12.73-13.08-12.56-1-1.39-2-2.74-3-4.05a12.61,12.61,0,0,0,3.55-8.75,12.45,12.45,0,0,0-2.66-7.63l.23.22C57.12,58.61,70,43,83.6,32.36c1.09,1.41,4.8,5.25,9.72,10.21C93.55,62.58,89.92,77.94,82.46,88.38Z"/><path class="cls-6" d="M83.61,32.36,89,39.45C75,50.43,61.51,73,53.21,88.7,43.28,74.94,35.62,65.29,26.4,58.6l5.53-5A103.35,103.35,0,0,1,51.38,68.48C57.12,58.61,70,43,83.61,32.36Z"/></svg>