<svg id="Layer_1" data-name="Layer 1" xmlns="http://www.w3.org/2000/svg" viewBox="0 0 39.1 39.1"><defs><style>.cls-1{fill:#fff;}</style></defs><title>discover_icon</title><path class="cls-1" d="M17.35,30.47a4.82,4.82,0,0,1-5.47.82A5,5,0,0,1,10.2,30L7.67,35.58a.49.49,0,0,0,.57.67l1.84-.51A2.35,2.35,0,0,1,12.83,37l.83,1.72a.49.49,0,0,0,.88,0l4-8.9A3,3,0,0,0,17.35,30.47Z"/><path class="cls-1" d="M31.43,35.58,28.9,30a5,5,0,0,1-1.68,1.3,4.82,4.82,0,0,1-5.47-.82,3,3,0,0,0-1.22-.68l4,8.9a.49.49,0,0,0,.88,0L26.27,37A2.35,2.35,0,0,1,29,35.73l1.84.51a.49.49,0,0,0,.57-.67Z"/><path class="cls-1" d="M33.42,15.9a4.94,4.94,0,0,1-1.48-6.5A3.05,3.05,0,0,0,28.4,5a4.94,4.94,0,0,1-6-2.89,3.05,3.05,0,0,0-5.68,0,4.94,4.94,0,0,1-6,2.89A3.05,3.05,0,0,0,7.17,9.4a4.94,4.94,0,0,1-1.48,6.5,3.05,3.05,0,0,0,1.26,5.53,4.94,4.94,0,0,1,4.16,5.21,3.05,3.05,0,0,0,5.11,2.46,4.94,4.94,0,0,1,6.67,0A3.05,3.05,0,0,0,28,26.64a4.94,4.94,0,0,1,4.16-5.21,3.05,3.05,0,0,0,1.26-5.53ZM19.55,25.61a10,10,0,1,1,10-10A10,10,0,0,1,19.55,25.61Z"/><path class="cls-1" d="M19.55,7.51a8.12,8.12,0,1,0,8.12,8.12A8.13,8.13,0,0,0,19.55,7.51Zm4.16,7.33-5.05,3.69a.93.93,0,0,1-.55.18H18a.93.93,0,0,1-.61-.38l-1.51-2.15a.93.93,0,1,1,1.52-1.07l1,1.38,4.29-3.13a.93.93,0,1,1,1.1,1.5Z"/></svg>