<svg id="Layer_1" data-name="Layer 1" xmlns="http://www.w3.org/2000/svg" viewBox="0 0 39.1 39.1"><defs><style>.cls-1{fill:#fff;}</style></defs><title>discover_icon</title><path class="cls-1" d="M35.32,24c-2.15.13-5,2.28-7.7,3.52-3.34,1.51-8.55.3-8.55.3.8-.38,4.07-1.15,4.72-1.44,3.49-1.54,3.19-4.74,1.53-4.71-2.2,0-3.49.58-7.87,1.17-3.32.45-7.25.29-9.14,1-2.66,1-6.94,7.85-6.94,7.85L8,38.07s4.1-4,6.1-4c4.55,0,4.73-.06,9-.29a9.28,9.28,0,0,0,3.2-.52c5.47-1.85,11.35-6.78,11.46-7.37C38,24.48,36.45,23.88,35.32,24Z"/><path class="cls-1" d="M8,19.3a.64.64,0,0,0,.61,0,12.55,12.55,0,0,1,10.69,0,.65.65,0,0,0,.52,0,12.55,12.55,0,0,1,10.69,0,.64.64,0,0,0,.9-.58V2.91A.63.63,0,0,0,31,2.33,14.09,14.09,0,0,0,25.22,1a13.92,13.92,0,0,0-5.11,1V9.82a.55.55,0,1,1-1.11,0V2a13.9,13.9,0,0,0-5.11-1,14.1,14.1,0,0,0-5.8,1.29.7.7,0,0,0-.38.58V18.77A.63.63,0,0,0,8,19.3Zm1-3.55a13.3,13.3,0,0,1,4.91-1A13.46,13.46,0,0,1,19.42,16a.32.32,0,0,0,.26,0,13.46,13.46,0,0,1,5.54-1.23,13.29,13.29,0,0,1,4.9,1v2.06a13.78,13.78,0,0,0-10.57.26A13.78,13.78,0,0,0,9,17.82V15.76Z"/></svg>