<svg id="Layer_1" data-name="Layer 1" xmlns="http://www.w3.org/2000/svg" viewBox="0 0 779.25 389.33"><defs><style>.cls-1{opacity:0.2;}.cls-2{fill:none;stroke:#fff;stroke-miterlimit:10;}.cls-3{fill:#fff;}</style></defs><title>header_mini_texture</title><g class="cls-1"><line class="cls-2" x1="725.63" y1="360.44" x2="606.4" y2="269.25"/><line class="cls-2" x1="606.4" y1="269.25" x2="676.29" y2="239.01"/><line class="cls-2" x1="416.37" y1="38.94" x2="534.99" y2="206.84"/><line class="cls-2" x1="534.99" y1="206.84" x2="400.82" y2="123.2"/><line class="cls-2" x1="400.82" y1="123.2" x2="420.11" y2="276.84"/><line class="cls-2" x1="420.11" y1="276.84" x2="534.99" y2="206.84"/><line class="cls-2" x1="420.11" y1="276.84" x2="276.38" y2="192.66"/><line class="cls-2" x1="276.38" y1="192.66" x2="321.32" y2="263.29"/><line class="cls-2" x1="321.32" y1="263.29" x2="420.11" y2="276.84"/><line class="cls-2" x1="321.32" y1="263.29" x2="210.02" y2="303.93"/><line class="cls-2" x1="276.38" y1="192.66" x2="163.61" y2="252.62"/><line class="cls-2" x1="163.61" y1="252.62" x2="210.02" y2="303.93"/><line class="cls-2" x1="276.38" y1="192.66" x2="215.72" y2="102.09"/><line class="cls-2" x1="215.72" y1="102.09" x2="165.22" y2="144.52"/><line class="cls-2" x1="165.22" y1="144.52" x2="276.38" y2="192.66"/><line class="cls-2" x1="276.38" y1="192.66" x2="416.37" y2="38.94"/><line class="cls-2" x1="168.13" y1="66.66" x2="254.72" y2="24.23"/><line class="cls-2" x1="254.72" y1="24.23" x2="331.11" y2="86.47"/><line class="cls-2" x1="416.37" y1="38.94" x2="530.36" y2="85.06"/><line class="cls-2" x1="538.61" y1="289.12" x2="606.4" y2="269.25"/><line class="cls-2" x1="534.99" y1="206.84" x2="647.27" y2="209.96"/><line class="cls-2" x1="647.27" y1="209.96" x2="530.36" y2="85.06"/><line class="cls-2" x1="530.36" y1="85.06" x2="548.04" y2="167.64"/><line class="cls-2" x1="548.04" y1="167.64" x2="400.82" y2="123.2"/><line class="cls-2" x1="548.04" y1="167.64" x2="609.77" y2="208.92"/><line class="cls-2" x1="609.77" y1="208.92" x2="606.36" y2="269.22"/><line class="cls-2" x1="606.36" y1="269.22" x2="548.04" y2="167.64"/><line class="cls-2" x1="215.72" y1="102.09" x2="254.72" y2="24.23"/><line class="cls-2" x1="215.72" y1="102.09" x2="168.13" y2="66.66"/><line class="cls-2" x1="331.11" y1="86.47" x2="215.72" y2="102.09"/><line class="cls-2" x1="363.04" y1="153.08" x2="538.61" y2="289.12"/><line class="cls-2" x1="538.61" y1="289.12" x2="448.35" y2="325.56"/><line class="cls-2" x1="420.11" y1="276.84" x2="363.04" y2="153.08"/><line class="cls-2" x1="363.04" y1="153.08" x2="331.11" y2="86.47"/><line class="cls-2" x1="363.04" y1="153.08" x2="198.42" y2="171.63"/><line class="cls-2" x1="363.04" y1="153.08" x2="606.36" y2="269.22"/><line class="cls-2" x1="198.42" y1="171.63" x2="210.02" y2="303.93"/><line class="cls-2" x1="198.42" y1="171.63" x2="321.32" y2="263.29"/><line class="cls-2" x1="363.04" y1="153.08" x2="210.02" y2="303.93"/><line class="cls-2" x1="165.22" y1="144.52" x2="210.02" y2="303.93"/><line class="cls-2" x1="647.27" y1="209.96" x2="676.29" y2="239.01"/><line class="cls-2" x1="676.29" y1="239.01" x2="725.63" y2="360.44"/><line class="cls-2" x1="676.29" y1="239.01" x2="779" y2="298.18"/><line class="cls-2" x1="676.29" y1="239.01" x2="690.56" y2="222.37"/><line class="cls-2" x1="666.88" y1="202.08" x2="647.27" y2="209.96"/><line class="cls-2" x1="534.99" y1="206.84" x2="538.61" y2="289.12"/><line class="cls-2" x1="448.35" y1="325.56" x2="609.77" y2="208.92"/><line class="cls-2" x1="448.35" y1="325.56" x2="420.11" y2="276.84"/><line class="cls-2" x1="448.35" y1="325.56" x2="321.32" y2="263.29"/><line class="cls-2" x1="163.61" y1="252.62" x2="165.22" y2="144.52"/><line class="cls-2" x1="165.22" y1="144.52" x2="168.13" y2="66.66"/><line class="cls-2" x1="165.22" y1="144.52" x2="77.41" y2="201.82"/><line class="cls-2" x1="77.41" y1="201.82" x2="163.61" y2="252.62"/><line class="cls-2" x1="163.61" y1="252.62" x2="68.75" y2="310.18"/><line class="cls-2" x1="68.75" y1="310.18" x2="77.41" y2="201.82"/><line class="cls-2" x1="68.75" y1="310.18" x2="210.02" y2="303.93"/><line class="cls-2" x1="68.75" y1="310.18" x2="0.07" y2="299.97"/><line class="cls-2" x1="198.42" y1="171.63" x2="215.72" y2="102.09"/><line class="cls-2" x1="331.11" y1="86.47" x2="416.37" y2="38.94"/><line class="cls-2" x1="400.32" y1="123.78" x2="416.37" y2="38.94"/><line class="cls-2" x1="606.4" y1="269.25" x2="624.96" y2="384.43"/><line class="cls-2" x1="624.96" y1="384.43" x2="725.63" y2="360.44"/><line class="cls-2" x1="624.96" y1="384.43" x2="538.61" y2="289.12"/><line class="cls-2" x1="254.72" y1="24.23" x2="257.13" y2="0.05"/><line class="cls-2" x1="420.11" y1="276.84" x2="530.36" y2="85.06"/><path class="cls-3" d="M419.82,41.89a4.54,4.54,0,1,1-.49-6.4A4.55,4.55,0,0,1,419.82,41.89Z"/><path class="cls-3" d="M421.56,43.39a6.84,6.84,0,1,0-9.64.74A6.84,6.84,0,0,0,421.56,43.39Zm-1.14-1a5.34,5.34,0,1,1-.58-7.53A5.34,5.34,0,0,1,420.42,42.41Z"/><path class="cls-3" d="M367.7,157.08a6.14,6.14,0,1,1-.67-8.65A6.14,6.14,0,0,1,367.7,157.08Z"/><path class="cls-3" d="M370.05,159.1a9.24,9.24,0,1,0-13,1A9.24,9.24,0,0,0,370.05,159.1Zm-1.53-1.31a7.21,7.21,0,1,1-.79-10.17A7.21,7.21,0,0,1,368.52,157.78Z"/><path class="cls-3" d="M220.37,106.08a6.14,6.14,0,1,1-.66-8.65A6.13,6.13,0,0,1,220.37,106.08Z"/><path class="cls-3" d="M222.73,108.1a9.24,9.24,0,1,0-13,1A9.23,9.23,0,0,0,222.73,108.1Zm-1.53-1.31a7.22,7.22,0,1,1-.79-10.17A7.23,7.23,0,0,1,221.2,106.78Z"/><circle class="cls-3" cx="448.35" cy="325.56" r="4.71" transform="translate(-90.63 454.04) rotate(-49.39)"/><path class="cls-3" d="M453.73,330.18a7.09,7.09,0,1,0-10,.78A7.09,7.09,0,0,0,453.73,330.18Zm-1.18-1a5.54,5.54,0,1,1-.6-7.81A5.55,5.55,0,0,1,452.55,329.17Z"/><circle class="cls-3" cx="534.4" cy="207.54" r="4.71" transform="translate(29.17 478.47) rotate(-49.43)"/><path class="cls-3" d="M539.78,212.16a7.09,7.09,0,1,0-10,.77A7.09,7.09,0,0,0,539.78,212.16Zm-1.17-1a5.54,5.54,0,1,1-.6-7.82A5.54,5.54,0,0,1,538.6,211.15Z"/><circle class="cls-3" cx="676.3" cy="239.02" r="4.71" transform="translate(54.51 596.63) rotate(-49.37)"/><path class="cls-3" d="M681.68,243.63a7.09,7.09,0,1,0-10,.77A7.1,7.1,0,0,0,681.68,243.63Zm-1.17-1a5.54,5.54,0,1,1-.6-7.81A5.55,5.55,0,0,1,680.51,242.62Z"/><circle class="cls-3" cx="198.43" cy="171.63" r="4.71" transform="translate(-61.02 210.59) rotate(-49.4)"/><path class="cls-3" d="M203.81,176.25a7.09,7.09,0,1,0-10,.77A7.09,7.09,0,0,0,203.81,176.25Zm-1.18-1a5.54,5.54,0,1,1-.61-7.81A5.54,5.54,0,0,1,202.63,175.24Z"/><circle class="cls-3" cx="321.32" cy="263.3" r="3.47" transform="translate(-87.67 336.09) rotate(-49.42)"/><path class="cls-3" d="M325.28,266.69a5.22,5.22,0,1,0-7.36.57A5.23,5.23,0,0,0,325.28,266.69Zm-.87-.74a4.08,4.08,0,1,1-.44-5.76A4.08,4.08,0,0,1,324.41,266Z"/><path class="cls-3" d="M403.45,125.46a3.47,3.47,0,1,1-.38-4.9A3.47,3.47,0,0,1,403.45,125.46Z"/><path class="cls-3" d="M404.79,126.6a5.22,5.22,0,1,0-7.36.56A5.22,5.22,0,0,0,404.79,126.6Zm-.87-.74a4.08,4.08,0,1,1-.44-5.75A4.08,4.08,0,0,1,403.92,125.86Z"/><path class="cls-3" d="M551.06,170.22a3.47,3.47,0,1,1-.38-4.89A3.47,3.47,0,0,1,551.06,170.22Z"/><path class="cls-3" d="M552.4,171.36a5.22,5.22,0,1,0-7.37.56A5.22,5.22,0,0,0,552.4,171.36Zm-.87-.75a4.08,4.08,0,1,1-.45-5.75A4.08,4.08,0,0,1,551.52,170.61Z"/><path class="cls-3" d="M627.87,386.36a3.47,3.47,0,1,1-.38-4.89A3.47,3.47,0,0,1,627.87,386.36Z"/><path class="cls-3" d="M629.2,387.5a5.22,5.22,0,1,0-7.36.57A5.22,5.22,0,0,0,629.2,387.5Zm-.86-.74a4.08,4.08,0,1,1-.45-5.76A4.09,4.09,0,0,1,628.34,386.76Z"/><path class="cls-3" d="M609.15,271.62A3.63,3.63,0,1,0,604,272,3.63,3.63,0,0,0,609.15,271.62Z"/><path class="cls-3" d="M533.11,87.43a3.63,3.63,0,1,0-5.12.39A3.63,3.63,0,0,0,533.11,87.43Z"/><path class="cls-3" d="M333.06,89.76a3.63,3.63,0,1,0-5.12.39A3.62,3.62,0,0,0,333.06,89.76Z"/><path class="cls-3" d="M257.47,26.59a3.63,3.63,0,1,0-5.12.4A3.63,3.63,0,0,0,257.47,26.59Z"/><path class="cls-3" d="M279.14,195a3.63,3.63,0,1,0-5.12.39A3.64,3.64,0,0,0,279.14,195Z"/><path class="cls-3" d="M71.5,312.55a3.63,3.63,0,1,0-5.12.4A3.62,3.62,0,0,0,71.5,312.55Z"/><path class="cls-3" d="M423.07,279a3.63,3.63,0,1,0-5.12.4A3.63,3.63,0,0,0,423.07,279Z"/><path class="cls-3" d="M728.39,362.81a3.63,3.63,0,1,0-5.11.39A3.63,3.63,0,0,0,728.39,362.81Z"/><path class="cls-3" d="M453.59,175.31a3.63,3.63,0,1,0-5.12.4A3.62,3.62,0,0,0,453.59,175.31Z"/><path class="cls-3" d="M612.41,211.18a3.47,3.47,0,1,1-.38-4.89A3.47,3.47,0,0,1,612.41,211.18Z"/><path class="cls-3" d="M613.74,212.32a5.23,5.23,0,1,0-7.37.57A5.23,5.23,0,0,0,613.74,212.32Zm-.87-.75a4.08,4.08,0,1,1-.44-5.76A4.08,4.08,0,0,1,612.87,211.58Z"/><path class="cls-3" d="M169.62,146.94a4.71,4.71,0,1,1-.51-6.64A4.71,4.71,0,0,1,169.62,146.94Z"/><path class="cls-3" d="M171.42,148.49a7.09,7.09,0,1,0-10,.77A7.08,7.08,0,0,0,171.42,148.49Zm-1.17-1a5.54,5.54,0,1,1-.6-7.81A5.54,5.54,0,0,1,170.25,147.48Z"/><path class="cls-3" d="M167.19,255.69a4.71,4.71,0,1,1-.51-6.64A4.71,4.71,0,0,1,167.19,255.69Z"/><path class="cls-3" d="M169,257.24a7.09,7.09,0,1,0-10,.77A7.09,7.09,0,0,0,169,257.24Zm-1.18-1a5.54,5.54,0,1,1-.6-7.81A5.54,5.54,0,0,1,167.83,256.23Z"/><ellipse class="cls-3" cx="538.88" cy="291.63" rx="4.71" ry="4.71" transform="translate(-33.21 511.08) rotate(-49.41)"/><path class="cls-3" d="M544.27,296.24a7.09,7.09,0,1,0-10,.77A7.1,7.1,0,0,0,544.27,296.24Zm-1.18-1a5.54,5.54,0,1,1-.6-7.81A5.53,5.53,0,0,1,543.09,295.23Z"/><path class="cls-3" d="M213.6,307a4.72,4.72,0,1,1-.51-6.65A4.72,4.72,0,0,1,213.6,307Z"/><path class="cls-3" d="M215.41,308.55a7.1,7.1,0,1,0-10,.77A7.09,7.09,0,0,0,215.41,308.55Zm-1.18-1a5.54,5.54,0,1,1-.6-7.81A5.54,5.54,0,0,1,214.23,307.54Z"/></g></svg>