<svg id="Layer_1" data-name="Layer 1" xmlns="http://www.w3.org/2000/svg" viewBox="0 0 96.67 96.67"><defs><style>.cls-1{fill:#999;}.cls-2{fill:#bc0033;}.cls-3{fill:#183c53;}</style></defs><title>icon_tools</title><polygon class="cls-1" points="56.93 7.11 14.93 11.37 14.08 10.79 53.92 6.47 53.87 6.02 13.52 10.4 12.81 9.92 53.11 5.51 53.06 5.07 12.25 9.53 11.47 9 52.39 4.47 52.34 4.03 10.91 8.61 10.04 8.02 51.49 3.41 51.44 2.96 9.47 7.63 8.54 6.98 9.88 6.84 52.52 2.21 50.96 0 4.33 4.94 4.33 5.62 4.33 7.42 4.33 66.81 12.78 72.77 12.78 72.82 18.54 72.23 18.54 14.12 56.93 10.36 56.93 7.11"/><polygon class="cls-2" points="74.24 18.7 32.23 22.96 31.39 22.39 71.22 18.06 71.18 17.61 30.82 21.99 30.12 21.51 70.42 17.11 70.37 16.66 29.55 21.12 28.78 20.59 69.7 16.06 69.65 15.62 28.21 20.2 27.35 19.61 68.8 15 68.75 14.55 26.78 19.22 25.85 18.58 27.19 18.44 69.83 13.8 68.27 11.6 21.64 16.53 21.64 17.21 21.64 19.01 21.64 78.4 30.08 84.37 30.08 84.41 35.85 83.82 35.85 25.71 74.24 21.95 74.24 18.7"/><path class="cls-3" d="M50.34,35.22l-.84-.58,39.84-4.32-.05-.44L48.93,34.25l-.7-.48,40.3-4.41-.05-.45L47.66,33.38l-.77-.53L87.8,28.32l0-.45L46.32,32.46l-.86-.59,41.45-4.61,0-.44-42,4.66L44,30.84l1.34-.14,42.65-4.64-1.56-2.2L39.74,28.79V90.66l8.45,6v0l44.14-4.48V31ZM84.45,57.67,59,60.26V46.71l25.47-2.6Z"/></svg>