<svg id="Layer_1" data-name="Layer 1" xmlns="http://www.w3.org/2000/svg" viewBox="0 0 91.95 101"><defs><style>.cls-1{fill:#fff;}</style></defs><title>icon_tools</title><polygon class="cls-1" points="54.96 7.43 11.07 11.88 10.19 11.27 51.81 6.76 51.76 6.29 9.6 10.87 8.86 10.36 50.97 5.76 50.91 5.29 8.27 9.96 7.46 9.4 50.21 4.67 50.16 4.21 6.87 8.99 5.96 8.38 49.28 3.56 49.22 3.09 5.38 7.97 4.4 7.3 5.8 7.15 50.35 2.31 48.72 0 0 5.16 0 5.87 0 7.75 0 69.8 8.82 76.03 8.82 76.08 14.85 75.47 14.85 14.75 54.96 10.83 54.96 7.43"/><polygon class="cls-1" points="73.04 19.54 29.15 23.99 28.27 23.39 69.89 18.87 69.84 18.4 27.68 22.98 26.95 22.48 69.05 17.87 69 17.41 26.35 22.07 25.54 21.51 68.3 16.78 68.25 16.32 24.95 21.11 24.05 20.49 67.36 15.67 67.31 15.2 23.46 20.08 22.48 19.41 23.88 19.26 68.44 14.42 66.8 12.12 18.08 17.27 18.08 17.98 18.08 19.86 18.08 81.91 26.91 88.14 26.91 88.19 32.93 87.58 32.93 26.86 73.04 22.94 73.04 19.54"/><path class="cls-1" d="M48.07,36.8l-.88-.61,41.62-4.51-.05-.46L46.6,35.79l-.73-.5L88,30.68l-.06-.47L45.27,34.88l-.81-.56,42.76-4.73,0-.47L43.87,33.91l-.9-.62,43.31-4.82L86.22,28,42.38,32.89l-1-.67,1.4-.15,44.56-4.85-1.64-2.3L37,30.08V94.72l8.83,6.23V101l46.12-4.68v-64ZM83.71,60.25,57.1,63V48.8l26.61-2.71Z"/></svg>