<svg id="Layer_1" data-name="Layer 1" xmlns="http://www.w3.org/2000/svg" viewBox="0 0 96.67 96.67"><defs><style>.cls-1{fill:#ccc;}.cls-2{fill:#183c53;}.cls-3{fill:#999;}.cls-4{fill:#bc0033;}</style></defs><title>icon_tools</title><polygon class="cls-1" points="48.34 0 0 0 0 48.34 24.17 70.64 48.34 48.34 56.83 24.17 48.34 0"/><path class="cls-2" d="M70.64,72.5,48.34,96.67H0V48.34H15.61a9.56,9.56,0,1,0,17.12,0H48.34Z"/><path class="cls-3" d="M72.5,26,48.34,48.34V63.94a9.56,9.56,0,1,1,0,17.12V96.67H96.67V48.34Z"/><path class="cls-4" d="M96.67,0V48.34H81.06a9.56,9.56,0,1,0-17.12,0H48.34V32.73a9.56,9.56,0,1,1,0-17.12V0Z"/></svg>