<svg id="Layer_1" data-name="Layer 1" xmlns="http://www.w3.org/2000/svg" viewBox="0 0 106.04 106.04"><defs><style>.cls-1{fill:#fff;}.cls-2{fill:#bc0033;}</style></defs><title>icon_tools</title><path class="cls-1" d="M92,39.77A25,25,0,1,0,43.9,25.93c-.62-.06-1.24-.09-1.86-.09A19.29,19.29,0,0,0,23.6,39.55a19.24,19.24,0,1,0-4.36,38H86.8A19.24,19.24,0,0,0,92,39.77Z"/><path class="cls-2" d="M63.87,45.94a2.55,2.55,0,0,0-4.28,0L47.08,63.8a2.31,2.31,0,0,0-.26,2.46A2.36,2.36,0,0,0,49,67.43H53.4v12H70.14v-12h4.31a2.23,2.23,0,0,0,1.94-3.66Z"/><rect class="cls-1" x="53.76" y="80.17" width="16.09" height="8.71"/><rect class="cls-1" x="53.76" y="89.55" width="16.09" height="8.71"/></svg>