<svg id="Layer_1" data-name="Layer 1" xmlns="http://www.w3.org/2000/svg" viewBox="0 0 98.67 98.67"><defs><style>.cls-1{fill:#fff;stroke:#bc0033;stroke-miterlimit:10;stroke-width:2px;}</style></defs><title>icon_tools</title><polygon class="cls-1" points="49.34 1 1 1 1 49.34 25.17 71.64 49.34 49.34 57.83 25.17 49.34 1"/><path class="cls-1" d="M71.66,73.5,49.35,97.67H1V49.34H16.62a9.56,9.56,0,1,0,17.12,0H49.35Z"/><path class="cls-1" d="M73.5,27,49.34,49.34V64.94a9.56,9.56,0,1,1,0,17.12V97.67H97.67V49.34Z"/><path class="cls-1" d="M97.67,1V49.34H82.06a9.56,9.56,0,1,0-17.12,0H49.34V33.73a9.56,9.56,0,1,1,0-17.12V1Z"/></svg>