<svg id="Layer_1" data-name="Layer 1" xmlns="http://www.w3.org/2000/svg" viewBox="0 0 96.67 96.67"><defs><style>.cls-1{fill:#183c53;}.cls-2{fill:#ccc;}.cls-3{fill:#4d4d4d;}.cls-4{fill:#bc0033;}</style></defs><title>icon_tools</title><path class="cls-1" d="M83.88,36.25A22.84,22.84,0,1,0,40,23.62c-.57-.06-1.13-.08-1.69-.08A17.6,17.6,0,0,0,21.47,36.05a17.55,17.55,0,1,0-4,34.65H79.12a17.55,17.55,0,0,0,4.76-34.45Z"/><path class="cls-2" d="M58.21,41.88a2.32,2.32,0,0,0-3.9,0L42.89,58.17a2.11,2.11,0,0,0-.24,2.24,2.15,2.15,0,0,0,2,1.07h4v11H63.92v-11h3.93a2,2,0,0,0,1.77-3.33Z"/><rect class="cls-3" x="48.98" y="73.1" width="14.67" height="7.95"/><rect class="cls-4" x="48.98" y="81.66" width="14.67" height="7.95"/></svg>