<svg id="Layer_1" data-name="Layer 1" xmlns="http://www.w3.org/2000/svg" viewBox="0 0 161.62 126.38"><defs><style>.cls-1{opacity:0.2;}.cls-2{fill:#183c53;}</style></defs><title>new_image</title><g class="cls-1"><polygon class="cls-2" points="142.88 75.75 129.74 75.75 129.74 94.51 110.99 94.51 110.99 107.64 129.74 107.64 129.74 126.38 142.87 126.38 142.87 107.64 161.62 107.64 161.62 94.51 142.88 94.51 142.88 75.75"/><path class="cls-2" d="M91.16,38.32A11.93,11.93,0,1,0,103.09,26.4,11.92,11.92,0,0,0,91.16,38.32Z"/><path class="cls-2" d="M102.69,87.81H94.54L74.35,56.3l-8,12.43L78.61,87.81h-7.4L62.67,74.49,45.49,47.72,19.79,87.81H13.42V13.34h111.4v54.1h13.56V5.76A5.76,5.76,0,0,0,132.62,0H5.76A5.76,5.76,0,0,0,0,5.76V117.24A5.76,5.76,0,0,0,5.76,123H121.43v-7.07H102.69Z"/></g></svg>