<?xml version="1.0" encoding="utf-8"?>
<!-- Generator: Adobe Illustrator 21.0.2, SVG Export Plug-In . SVG Version: 6.00 Build 0)  -->
<svg version="1.1" id="Layer_1" xmlns="http://www.w3.org/2000/svg" xmlns:xlink="http://www.w3.org/1999/xlink" x="0px" y="0px"
	 viewBox="0 0 89.5 85" style="enable-background:new 0 0 89.5 85;" xml:space="preserve">
<style type="text/css">
	.st0{fill:#B7B7B7;}
	.st1{fill:#3A3A3A;}
</style>
<title>profile</title>
<rect y="1.6" class="st0" width="89.5" height="83.4"/>
<path class="st1" d="M4.1,82.2c2.6-1.4,5.1-2.8,7.7-4.1s5.2-2.2,7.8-3.4s4.9-2,7.4-3.1c0.4-0.2,0.8-0.6,1-1.1c0.5-1.4,1-2.8,1.5-4.2
	c0.3-1.1,0.5-2.1,1.9-2.4c0.4-0.2,0.8-0.6,0.8-1.1c0.3-2,0.5-4.1,0.6-6.2c0-0.5-0.2-1-0.5-1.3c-1.7-2-2.9-4.4-3.2-7
	c-0.4-1.3-0.8-2.6-1.4-3.9c-0.5-1.8-0.9-3.6-1.3-5.4c-0.1-0.6-0.1-1.3-0.2-2c-0.1-1-0.1-1.7,1-2.1c0.3-0.1,0.6-0.9,0.6-1.3
	c0.1-2.9,0-5.8,0-8.6c0-1.8,0-3.5,0.1-5.3c0.2-3.4,2.2-5.8,4.7-7.8c3.6-3,8-4.4,12.4-5.4c2.3-0.6,4.7-0.9,7.1-1.3c0.6,0,1.3,0,2,0
	c0.1,0.2,0.2,0.3,0.3,0.5C54,6.2,53.5,6.6,53,7c-1,1-0.9,1.6,0.2,2.5c2.2,1.8,4.3,3.6,6.4,5.5c1.7,1.6,2.7,3.9,2.5,6.2
	c0,4.2,0,8.4,0,12.5c0,0.9,0,1.7,1,2.1c0.3,0.2,0.4,0.5,0.4,0.8c-0.2,2.1-0.4,4.3-0.6,6.4c0,0.1,0,0.2-0.1,0.2
	c-1.9,2.8-2.2,6.3-3.5,9.3c0,0.1-0.1,0.2-0.2,0.3c-2.5,3-1.8,6.6-1.8,10.1c0,0.4,0.2,0.8,0.5,1c1,0.4,1.3,1.3,1.6,2.3
	c0.4,1.5,1,3,1.6,4.4c0.4,0.6,0.9,1,1.5,1.2c7.9,3,15.6,6.3,23.1,10.1c1.4,0.7,2.8,1.7,3.9,2.8V0H0v85C1.2,83.9,2.6,82.9,4.1,82.2
	L4.1,82.2z"/>
</svg>
