<svg id="Layer_1" data-name="Layer 1" xmlns="http://www.w3.org/2000/svg" viewBox="0 0 20 20"><defs><style>.cls-1{fill:#fff;}</style></defs><title>public_icons</title><path class="cls-1" d="M18.64,11.18a3.47,3.47,0,0,0,.59-2,3.12,3.12,0,0,0-3.08-3.07H14a5.28,5.28,0,0,0,.58-2.31,5,5,0,0,0-.42-2.24A2.64,2.64,0,0,0,13,.39,4.11,4.11,0,0,0,11.15,0a1.52,1.52,0,0,0-1.08.44,2.89,2.89,0,0,0-.75,1.3Q9.1,2.54,9,3.26a2,2,0,0,1-.43,1q-.59.64-1.29,1.54A10.63,10.63,0,0,1,5.6,7.69H2.31a1.48,1.48,0,0,0-1.09.45A1.48,1.48,0,0,0,.77,9.23v7.69A1.48,1.48,0,0,0,1.22,18a1.48,1.48,0,0,0,1.09.45H5.77a8.89,8.89,0,0,1,1.66.48q1.48.52,2.6.79a9.7,9.7,0,0,0,2.28.27h1.55a3.83,3.83,0,0,0,2.73-1,3.4,3.4,0,0,0,1-2.64,3.38,3.38,0,0,0,.72-2.14,3.64,3.64,0,0,0,0-.52A3.45,3.45,0,0,0,18.75,12,3.14,3.14,0,0,0,18.64,11.18Zm-15,5.52a.75.75,0,0,1-1.08,0,.77.77,0,0,1,.54-1.31.76.76,0,0,1,.54,1.31ZM17.43,10.2q-.26.55-.64.56a1.62,1.62,0,0,1,.3.57,2.16,2.16,0,0,1,.12.67,1.9,1.9,0,0,1-.64,1.43,1.66,1.66,0,0,1,.22.83,2,2,0,0,1-.21.88,1.34,1.34,0,0,1-.57.63,4.11,4.11,0,0,1,.06.67q0,2-2.31,2H12.31a13.28,13.28,0,0,1-4.11-.88l-.35-.13-.43-.15L7,17.17,6.54,17,6.15,17l-.38,0H5.39V9.23h.38a1,1,0,0,0,.43-.11,2,2,0,0,0,.48-.32l.46-.43a6.84,6.84,0,0,0,.48-.53L8,7.33l.38-.49.28-.36q.66-.82.93-1.09a3.05,3.05,0,0,0,.72-1.32q.22-.8.37-1.51a2,2,0,0,1,.46-1,1.75,1.75,0,0,1,1.54.56,3.14,3.14,0,0,1,.38,1.74,4.91,4.91,0,0,1-.58,1.93,4.9,4.9,0,0,0-.58,1.92h4.23a1.48,1.48,0,0,1,1.07.46,1.47,1.47,0,0,1,.47,1.08A2.36,2.36,0,0,1,17.43,10.2Z"/></svg>