<svg id="Layer_1" data-name="Layer 1" xmlns="http://www.w3.org/2000/svg" viewBox="0 0 20 20"><defs><style>.cls-1{fill:#fff;}</style></defs><title>public_icons</title><path class="cls-1" d="M5.1,15a1.24,1.24,0,0,0-.32.76V19H6.65V13.92c0-.25-.14-.31-.32-.13Z"/><path class="cls-1" d="M13.29,12a1.24,1.24,0,0,0-.32.76V19h1.86V10.87c0-.25-.14-.31-.32-.13Z"/><path class="cls-1" d="M16,9.24a1.24,1.24,0,0,0-.32.76v9h1.73V8.27c0-.25-.14-.31-.32-.13Z"/><path class="cls-1" d="M10.61,14.65l-.19.19a1.06,1.06,0,0,0-.19.63V19h1.86V13.61c0-.25-.14-.31-.32-.13Z"/><path class="cls-1" d="M7.83,13.7c-.17-.17-.32-.12-.32.13V19H9.38V15.7a1.2,1.2,0,0,0-.3-.75l-.3-.3Z"/><path class="cls-1" d="M2.75,17.37l-.6.6a1.13,1.13,0,0,0-.32.67V19H3.91V16.65c0-.25-.14-.31-.32-.13Z"/><path class="cls-1" d="M19.68,8.19c.17.17.32.12.32-.13V1.68a.91.91,0,0,0-.89-.86H12.76c-.25,0-.31.14-.13.32L14.89,3.4,14,4.31,9.7,8.59,7.44,6.33a.45.45,0,0,0-.63,0L.52,12.61a1.79,1.79,0,0,0,0,2.53l0,0a1.79,1.79,0,0,0,2.53,0l4-4,2.26,2.26a.45.45,0,0,0,.63,0L17.46,6Z"/></svg>