<svg id="Layer_1" data-name="Layer 1" xmlns="http://www.w3.org/2000/svg" viewBox="0 0 20 20"><defs><style>.cls-1{fill:#fff;}</style></defs><title>public_icons</title><path class="cls-1" d="M19.78,9.13A11.92,11.92,0,0,0,15.57,5,10.79,10.79,0,0,0,4.43,5,11.92,11.92,0,0,0,.22,9.13a1.44,1.44,0,0,0,0,1.54,11.91,11.91,0,0,0,4.2,4.11,10.81,10.81,0,0,0,11.15,0,11.84,11.84,0,0,0,4.2-4.11,1.44,1.44,0,0,0,0-1.54ZM7.61,6.08a3.27,3.27,0,0,1,2.39-1,.54.54,0,1,1,0,1.07A2.32,2.32,0,0,0,7.68,8.47a.54.54,0,1,1-1.07,0A3.27,3.27,0,0,1,7.61,6.08Zm7.24,7.47a9.35,9.35,0,0,1-9.7,0A11.52,11.52,0,0,1,1.43,9.9,11,11,0,0,1,5.68,6,4.88,4.88,0,0,0,5,8.47,4.82,4.82,0,0,0,6.47,12,4.81,4.81,0,0,0,10,13.47,4.82,4.82,0,0,0,13.53,12,4.81,4.81,0,0,0,15,8.47,4.88,4.88,0,0,0,14.32,6,11,11,0,0,1,18.57,9.9,11.52,11.52,0,0,1,14.85,13.54Z"/></svg>