<svg id="Layer_1" data-name="Layer 1" xmlns="http://www.w3.org/2000/svg" viewBox="0 0 20 20"><defs><style>.cls-1{fill:#fff;}</style></defs><title>public_icons</title><path class="cls-1" d="M19.17,14.58H17.5a1.67,1.67,0,0,0-1.67-1.67v-2.5H17.5a1.67,1.67,0,0,0,1.66-1.66v-5A1.67,1.67,0,0,0,17.5,2.09h-5a1.67,1.67,0,0,0-1.66,1.66v5a1.67,1.67,0,0,0,1.66,1.66h1.67v2.5a1.67,1.67,0,0,0-1.67,1.67h-5a1.67,1.67,0,0,0-1.67-1.67v-2.5H7.5A1.67,1.67,0,0,0,9.17,8.75v-5A1.67,1.67,0,0,0,7.5,2.08h-5A1.67,1.67,0,0,0,.83,3.75v5A1.67,1.67,0,0,0,2.5,10.42H4.17v2.5A1.67,1.67,0,0,0,2.5,14.58H.83a.83.83,0,1,0,0,1.67H2.5a1.67,1.67,0,0,0,1.67,1.67H5.83A1.67,1.67,0,0,0,7.5,16.25h5a1.67,1.67,0,0,0,1.67,1.67h1.66a1.67,1.67,0,0,0,1.67-1.67h1.67a.83.83,0,1,0,0-1.67Z"/></svg>