<svg id="Layer_1" data-name="Layer 1" xmlns="http://www.w3.org/2000/svg" viewBox="0 0 173.4 75.2"><defs><style>.cls-1{fill:#183c53;}</style></defs><title>tbk_mini</title><path class="cls-1" d="M5.9,28a5.91,5.91,0,0,0,5.9-5.9,6,6,0,0,0-5.9-6,6,6,0,0,0-5.9,6A5.85,5.85,0,0,0,5.9,28Z"/><path class="cls-1" d="M167.5,74.7a5.91,5.91,0,0,0,5.9-5.9,5.9,5.9,0,1,0-5.9,5.9Z"/><path class="cls-1" d="M86.9,45.9V46h0v.1c0,5.4-.6,10.8-2.6,14.6S79,66.8,72.6,66.9h-.3c-6.4-.1-9.7-2.5-11.7-6.2s-2.7-9.2-2.7-14.6v-.3c0-5.4.6-9.8,2.7-13.6S66,26.1,72.3,26h.3c6.4.1,9.7,2.5,11.8,6.2S87,40.4,87,45.8v.1Zm1.8-23-.1-.1c-3.5-3.2-9-5.2-15.4-5.2h-.4c-5.3,0-10.5,1.1-15,5V19.2h0V1.9A1.66,1.66,0,0,0,57.3.7,1.9,1.9,0,0,0,56,.2H50a1.9,1.9,0,0,0-1.3.5,1.85,1.85,0,0,0-.5,1.2V72.7a1.66,1.66,0,0,0,.5,1.2,1.9,1.9,0,0,0,1.3.5h6a1.9,1.9,0,0,0,1.3-.5,1.85,1.85,0,0,0,.5-1.2V69.2c4,4.5,9.7,6,15,6h.4c6.4,0,11.9-2,15.4-5.2,6.4-6.1,7.9-15.5,7.9-24.2S95,29,88.7,22.9Z"/><path class="cls-1" d="M36.6,17.3H26.3V1.8A1.69,1.69,0,0,0,24.5.2H18.3a1.66,1.66,0,0,0-1.2.5,1.61,1.61,0,0,0-.5,1.1V59.9a14.56,14.56,0,0,0,3.7,10.2A14.58,14.58,0,0,0,31,74.4h5.6a1.66,1.66,0,0,0,1.2-.5,1.9,1.9,0,0,0,.5-1.3v-6a2.11,2.11,0,0,0-.5-1.3,1.46,1.46,0,0,0-1.2-.5H31.8a8,8,0,0,1-2.4-.4,3.6,3.6,0,0,1-.9-.5,3.74,3.74,0,0,1-.7-.6c-.9-1-1.4-2.5-1.4-4.8V27H36.7a1.66,1.66,0,0,0,1.2-.5,1.9,1.9,0,0,0,.5-1.3v-6a1.9,1.9,0,0,0-.5-1.3A1.57,1.57,0,0,0,36.6,17.3Z"/><path class="cls-1" d="M156.5,72,149,61.5,134,39.6l11.7-12.4,6.8-7.2.4-.5a1.29,1.29,0,0,0,.1-1.9,1.9,1.9,0,0,0-1.3-.5h-7.8a2.35,2.35,0,0,0-1.4.7h0L116.3,45.7V1.7a1.85,1.85,0,0,0-.5-1.2,1.9,1.9,0,0,0-1.3-.5h-6a1.9,1.9,0,0,0-1.3.5,1.46,1.46,0,0,0-.5,1.2v71a1.66,1.66,0,0,0,.5,1.2,1.9,1.9,0,0,0,1.3.5h6a1.9,1.9,0,0,0,1.3-.5,1.46,1.46,0,0,0,.5-1.2V58.4l11.3-12.3,7.7,11.4h0l10.7,16a1.55,1.55,0,0,0,1.5.9h7.8a1.9,1.9,0,0,0,1.3-.5A1.48,1.48,0,0,0,156.5,72Z"/><path class="cls-1" d="M103.7,6.3a.4.4,0,1,1,.4-.4c0,.3-.1.4-.4.4Z"/></svg>