<svg id="Layer_1" data-name="Layer 1" xmlns="http://www.w3.org/2000/svg" viewBox="0 0 200 31.82"><defs><style>.cls-1{fill:#fff;}</style></defs><title>tbk_logo</title><path class="cls-1" d="M1.81,8.46a1.82,1.82,0,1,0,1.81,1.82A1.82,1.82,0,0,0,1.81,8.46Z"/><path class="cls-1" d="M48.89,22.74a1.82,1.82,0,1,0,1.81,1.83A1.82,1.82,0,0,0,48.89,22.74Z"/><path class="cls-1" d="M26.31,10.52A7,7,0,0,0,21.59,9h-.11a7.67,7.67,0,0,0-4.88,1.46V9.49h0V4.11c0-.14.09-.29,0-.39s-.11-.17-.25-.17H14.5a1.24,1.24,0,0,0-.61.17c-.11.1-.37.25-.37.39v21.7c0,.14.27.08.37.18s.46,0,.61,0h1.83c.14,0,.15.14.25,0s0,0,0-.18V24.73a7.39,7.39,0,0,0,4.88,2h.11a7,7,0,0,0,4.71-1.66c2-1.88,2.43-4.78,2.43-7.45s-.46-5.19-2.4-7.05Zm-.44,7.06v0h0v0A9.71,9.71,0,0,1,25,22.11c-.63,1.12-1.64,1.67-3.59,1.71,0,0-.05-.19-.09-.19h0c-2,0-3.11-.58-3.74-1.71a8.93,8.93,0,0,1-1-4.3v-.1a8.79,8.79,0,0,1,1-4.26,4,4,0,0,1,3.74-2h.08a3.78,3.78,0,0,1,3.64,2,8.8,8.8,0,0,1,.85,4.26Z"/><path class="cls-1" d="M11.21,9H8.06l0-3.34V4.07a.58.58,0,0,0-.59-.52H5.62a.66.66,0,0,0-.41.16A.54.54,0,0,0,5,4.07V21.86a4.09,4.09,0,0,0,1.15,3A4.4,4.4,0,0,0,9.5,25.95h1.71c.14,0,0,.11.11,0s-.12-.08-.12-.23V23.87c0-.14.21-.13.12-.23s0,0-.11,0H9.75c-.3,0-.53-.21-.74-.28s-.21-.18-.29-.23-.11-.13-.19-.21a2.15,2.15,0,0,1-.42-1.5V12h3.1c.14,0,0-.2.11-.3s-.12-.38-.12-.53V9.37c0-.15.21-.21.12-.32S11.34,9,11.21,9Z"/><path class="cls-1" d="M43.22,22.34l-4.6-6.71,3.57-3.79,2.08-2.2.13-.14c.24-.24.12-.39,0-.48S44.17,9,44,9H41.64a1.34,1.34,0,0,0-.62.1l-8.2,8.45V4.05c0-.14.12-.26,0-.36s-.07-.14-.21-.14H30.79a1.32,1.32,0,0,0-.64.14c-.11.09-.42.22-.42.36V25.79c0,.14.31.09.42.19s.5,0,.64,0h1.83c.14,0,.11.13.21,0s0,0,0-.19V21.4l3.65-3.68L39,21.31h0l3.29,4.63c.07.11.19,0,.47,0h2.39c.15,0,.29.13.4,0s.17-.25,0-.49Z"/><path class="cls-1" d="M67.55,9.9a27.88,27.88,0,0,1,4.62-.37c3.12,0,5.34.75,6.82,2.1a7.68,7.68,0,0,1,2.4,6A9,9,0,0,1,79,24.21c-1.6,1.57-4.2,2.42-7.47,2.42a34.91,34.91,0,0,1-3.95-.2Zm2.17,14.88a18.25,18.25,0,0,0,2.2.1c4.67,0,7.17-2.6,7.17-7.14,0-4-2.22-6.49-6.82-6.49a12.34,12.34,0,0,0-2.55.22Z"/><path class="cls-1" d="M92.87,18.6H86.36v6.07h7.29v1.82H84.16V9.65h9.12v1.82H86.36V16.8h6.52v1.8Z"/><path class="cls-1" d="M100.17,26.49,94.65,9.65H97l2.62,8.29c.7,2.27,1.32,4.32,1.8,6.29h0c.47-1.95,1.15-4.07,1.92-6.27l2.85-8.32h2.32l-6,16.83Z"/><path class="cls-1" d="M119.09,18.6h-6.52v6.07h7.29v1.82h-9.49V9.65h9.12v1.82h-6.92V16.8h6.52Z"/><path class="cls-1" d="M122.66,9.65h2.2v15h7.19v1.82h-9.39Z"/><path class="cls-1" d="M148.86,17.9c0,5.77-3.52,8.87-7.82,8.87-4.47,0-7.57-3.47-7.57-8.57,0-5.34,3.3-8.84,7.79-8.84S148.86,12.88,148.86,17.9Zm-13.09.25c0,3.62,1.95,6.84,5.39,6.84s5.39-3.17,5.39-7c0-3.37-1.75-6.87-5.37-6.87S135.77,14.47,135.77,18.15Z"/><path class="cls-1" d="M151.68,9.85a25.22,25.22,0,0,1,4.17-.32,6.92,6.92,0,0,1,4.72,1.4A4.61,4.61,0,0,1,162,14.45a5,5,0,0,1-1.3,3.6,7,7,0,0,1-5.14,1.85,7.51,7.51,0,0,1-1.75-.15v6.74h-2.17V9.85ZM153.85,18a7.3,7.3,0,0,0,1.8.18c2.62,0,4.22-1.3,4.22-3.57s-1.6-3.32-4-3.32a9.15,9.15,0,0,0-2,.17Z"/><path class="cls-1" d="M173.65,18.6h-6.52v6.07h7.29v1.82h-9.49V9.65h9.12v1.82h-6.92V16.8h6.52Z"/><path class="cls-1" d="M177.25,9.88a25.3,25.3,0,0,1,4.17-.35c2.32,0,3.84.45,4.87,1.37a4.3,4.3,0,0,1,1.32,3.22,4.42,4.42,0,0,1-3.15,4.27v.08c1.27.45,2,1.65,2.45,3.4a27,27,0,0,0,1.3,4.62H186a21.26,21.26,0,0,1-1.1-4c-.5-2.32-1.42-3.2-3.4-3.27h-2v7.29h-2.17V9.88Zm2.17,7.67h2.22c2.32,0,3.8-1.27,3.8-3.2,0-2.17-1.57-3.12-3.87-3.12a9.56,9.56,0,0,0-2.15.17Z"/><path class="cls-1" d="M190.41,23.84a7.35,7.35,0,0,0,3.87,1.1c2.22,0,3.52-1.17,3.52-2.87,0-1.55-.9-2.47-3.17-3.32-2.75-1-4.45-2.45-4.45-4.79,0-2.62,2.17-4.57,5.44-4.57a7.54,7.54,0,0,1,3.7.82l-.6,1.77a6.22,6.22,0,0,0-3.17-.8c-2.3,0-3.17,1.37-3.17,2.52,0,1.57,1,2.35,3.35,3.25,2.85,1.1,4.27,2.47,4.27,4.95s-1.9,4.87-5.87,4.87a8.67,8.67,0,0,1-4.3-1.1Z"/><path class="cls-1" d="M59.38,31.82a1,1,0,1,1,1-1,1,1,0,0,1-1,1"/><path class="cls-1" d="M59.38,26.84a1,1,0,1,1,1-1,1,1,0,0,1-1,1"/><path class="cls-1" d="M59.38,11.9a1,1,0,1,1,1-1,1,1,0,0,1-1,1"/><path class="cls-1" d="M59.38,1.95a1,1,0,1,1,1-1,1,1,0,0,1-1,1"/><path class="cls-1" d="M59.38,6.93a1,1,0,1,1,1-1,1,1,0,0,1-1,1"/><path class="cls-1" d="M59.38,21.86a1,1,0,1,1,1-1,1,1,0,0,1-1,1"/><path class="cls-1" d="M59.38,16.88a1,1,0,1,1,1-1,1,1,0,0,1-1,1"/></svg>