<?xml version="1.0" encoding="utf-8"?>
<!-- Generator: Adobe Illustrator 21.0.2, SVG Export Plug-In . SVG Version: 6.00 Build 0)  -->
<svg version="1.1" id="Layer_1" xmlns="http://www.w3.org/2000/svg" xmlns:xlink="http://www.w3.org/1999/xlink" x="0px" y="0px"
	 viewBox="0 0 798.9 76" style="enable-background:new 0 0 798.9 76;" xml:space="preserve">
<style type="text/css">
	.st0{fill:#FFFFFF;}
</style>
<title>tbk_logo</title>
<g>
	<g>
		<g>
			<path class="st0" d="M5.9,28c3.3,0,5.9-2.7,5.9-5.9c0-3.3-2.7-6-5.9-6S0,18.8,0,22.1C0,25.4,2.6,28,5.9,28z"/>
		</g>
		<g>
			<path class="st0" d="M167.5,74.7c3.3,0,5.9-2.7,5.9-5.9c0-3.3-2.7-6-5.9-6c-3.2,0-5.9,2.7-5.9,6C161.6,72,164.3,74.7,167.5,74.7z
				"/>
		</g>
		<g>
			<path class="st0" d="M86.9,45.9V46v0v0.1c0,5.4-0.6,10.8-2.6,14.6c-2.1,3.7-5.3,6.1-11.7,6.2c-0.1,0-0.1,0-0.2,0h-0.1
				c-6.4-0.1-9.7-2.5-11.7-6.2c-2.1-3.8-2.7-9.2-2.7-14.6v-0.3c0-5.4,0.6-9.8,2.7-13.6c2.1-3.7,5.4-6.1,11.7-6.2h0.1h0.1h0.1
				c6.4,0.1,9.7,2.5,11.8,6.2c2.1,3.8,2.6,8.2,2.6,13.6V45.9z M88.7,22.9c0,0-0.1-0.1-0.1-0.1c-3.5-3.2-9-5.2-15.4-5.2
				c-0.1,0-0.2,0-0.4,0c-5.3,0-10.5,1.1-15,5v-3.4h0V1.9c0-0.5-0.2-0.9-0.5-1.2C57,0.4,56.5,0.2,56,0.2h-6c-0.5,0-1,0.2-1.3,0.5
				c-0.3,0.3-0.5,0.8-0.5,1.2v17.2v36.5v17.1c0,0.5,0.2,0.9,0.5,1.2c0.3,0.3,0.8,0.5,1.3,0.5h6c0.5,0,1-0.2,1.3-0.5
				c0.3-0.3,0.5-0.8,0.5-1.2v-3.5c4,4.5,9.7,6,15,6h0.4c6.4,0,11.9-2,15.4-5.2c6.4-6.1,7.9-15.5,7.9-24.2C96.5,37.2,95,29,88.7,22.9
				z"/>
		</g>
		<g>
			<path class="st0" d="M36.6,17.3H26.3l0-10.4V1.8c0-0.9-0.8-1.6-1.8-1.6h-6.2c-0.5,0-0.9,0.2-1.2,0.5c-0.3,0.3-0.5,0.7-0.5,1.1
				v9.3v48.8c0,4,1.2,7.5,3.7,10.2c2.4,2.6,6.3,4.3,10.7,4.3h0h3v0h2.6c0.5,0,0.9-0.2,1.2-0.5c0.3-0.3,0.5-0.8,0.5-1.3v-6
				c0-0.5-0.2-0.9-0.5-1.3c-0.3-0.4-0.8-0.5-1.2-0.5h-4.8c-1,0-1.7-0.2-2.4-0.4c-0.4-0.2-0.7-0.3-0.9-0.5c-0.3-0.2-0.4-0.3-0.7-0.6
				c-0.9-1-1.4-2.5-1.4-4.8V27h10.3c0.5,0,0.9-0.2,1.2-0.5c0.3-0.3,0.5-0.8,0.5-1.3v-6c0-0.5-0.2-1-0.5-1.3
				C37.5,17.4,37,17.3,36.6,17.3z"/>
		</g>
		<g>
			<path class="st0" d="M156.5,72L149,61.5l-15-21.9l11.7-12.4l6.8-7.2l0.4-0.5c0.8-0.8,0.4-1.6,0.1-1.9c-0.3-0.3-0.8-0.5-1.3-0.5
				h-7.8c-0.5,0-1.1,0.4-1.4,0.7c0,0,0,0,0,0l-26.2,27.9V22.3V1.7c0-0.4-0.2-0.9-0.5-1.2c-0.3-0.3-0.8-0.5-1.3-0.5h-6
				c-0.5,0-1,0.2-1.3,0.5c-0.4,0.3-0.5,0.8-0.5,1.2v20.6v50.4c0,0.5,0.2,0.9,0.5,1.2c0.3,0.3,0.8,0.5,1.3,0.5h6c0.5,0,1-0.2,1.3-0.5
				c0.4-0.3,0.5-0.8,0.5-1.2V58.4l11.3-12.3l7.7,11.4h0l10.7,16c0.2,0.4,0.6,0.9,1.5,0.9h7.8c0.5,0,1-0.2,1.3-0.5
				C156.9,73.7,157.1,72.8,156.5,72z"/>
		</g>
		<g>
			<path class="st0" d="M103.7,6.3c-0.2,0-0.4-0.2-0.4-0.4c0-0.2,0.2-0.4,0.4-0.4c0.2,0,0.4,0.2,0.4,0.4
				C104.1,6.2,104,6.3,103.7,6.3L103.7,6.3z"/>
		</g>
	</g>
	<g>
		<path class="st0" d="M235.8,4.1H260c9.3,0.1,16.4,4.1,21,12c1.7,2.7,2.7,5.5,3.2,8.4c0.3,2.9,0.5,8,0.5,15.2c0,7.7-0.3,13-0.8,16
			c-0.3,1.5-0.6,2.9-1.1,4.1c-0.5,1.2-1.2,2.4-1.9,3.7c-2,3.4-4.8,6.1-8.4,8.3c-3.6,2.3-7.9,3.5-13.1,3.5h-23.4V4.1z M246.3,65.3
			h12.5c5.9,0,10.1-2.1,12.8-6.2c1.2-1.5,1.9-3.5,2.2-5.8c0.3-2.3,0.4-6.7,0.4-13c0-6.2-0.1-10.6-0.4-13.3c-0.4-2.7-1.3-4.9-2.7-6.5
			c-2.9-4.1-7-6.2-12.3-6h-12.5V65.3z"/>
		<path class="st0" d="M298.4,4.1h44.1v10.2h-33.7v20.4h28.7v9.6h-28.7v21h33.7v10.2h-44.1V4.1z"/>
		<path class="st0" d="M346.4,4.1h11.1l15.7,54.3h0.2L389,4.1h11.1l-22.8,71.3h-8.1L346.4,4.1z"/>
		<path class="st0" d="M408.8,4.1h44.1v10.2h-33.7v20.4H448v9.6h-28.7v21h33.7v10.2h-44.1V4.1z"/>
		<path class="st0" d="M464,4.1h10.5v61.1h33.7v10.2H464V4.1z"/>
		<path class="st0" d="M516.8,39.8c0-8.3,0.2-13.8,0.7-16.7c0.5-2.8,1.3-5.1,2.3-6.8c1.7-3.3,4.4-6.2,8-8.8c3.6-2.6,8.2-3.9,13.6-4
			c5.5,0.1,10.1,1.4,13.7,4c3.6,2.6,6.2,5.5,7.9,8.8c1.2,1.7,2,4,2.4,6.8c0.4,2.8,0.6,8.3,0.6,16.6c0,8.1-0.2,13.7-0.6,16.5
			c-0.4,2.9-1.2,5.2-2.4,6.9c-1.6,3.3-4.2,6.2-7.9,8.7c-3.7,2.6-8.2,4-13.7,4.1c-5.4-0.1-10-1.5-13.6-4.1c-3.7-2.5-6.4-5.4-8-8.7
			c-0.5-1.1-1-2.1-1.4-3.1c-0.4-1-0.7-2.3-0.9-3.8C517,53.4,516.8,47.9,516.8,39.8z M527.3,39.8c0,7,0.3,11.8,0.8,14.3
			c0.4,2.5,1.3,4.5,2.7,6c1.1,1.5,2.6,2.7,4.4,3.6c1.8,1.1,3.9,1.6,6.4,1.6c2.5,0,4.7-0.5,6.5-1.6c1.7-0.9,3.1-2.1,4.2-3.6
			c1.4-1.5,2.3-3.5,2.8-6c0.5-2.5,0.7-7.2,0.7-14.3c0-7-0.2-11.8-0.7-14.4c-0.5-2.4-1.4-4.4-2.8-5.9c-1-1.5-2.4-2.7-4.2-3.7
			c-1.8-0.9-4-1.5-6.5-1.5c-2.5,0.1-4.6,0.6-6.4,1.5c-1.8,1-3.3,2.2-4.4,3.7c-1.4,1.5-2.3,3.5-2.7,5.9
			C527.5,28,527.3,32.8,527.3,39.8z"/>
		<path class="st0" d="M579.7,4.1h25c2.7,0,5.3,0.3,7.9,0.8c2.5,0.7,5.1,2.1,7.7,4.2c2.2,1.6,3.9,3.9,5.3,6.8
			c1.4,2.9,2.1,6.3,2.1,10.2c0,5.3-1.8,10.1-5.4,14.4c-3.7,4.6-9.1,6.9-16.2,7h-15.9v27.8h-10.5V4.1z M590.2,37.4h15.5
			c3.9-0.1,6.8-1.3,8.8-3.7c1.9-2.4,2.8-5,2.8-7.9c0-2.4-0.4-4.4-1.1-6c-0.8-1.5-1.9-2.6-3.3-3.5c-2.2-1.4-4.7-2.1-7.5-2h-15.1V37.4
			z"/>
		<path class="st0" d="M638.6,4.1h44.1v10.2H649v20.4h28.7v9.6H649v21h33.7v10.2h-44.1V4.1z"/>
		<path class="st0" d="M693.8,4.1h27c5.8,0,10.4,1.6,14.1,4.7c4.4,3.6,6.7,8.6,6.8,15.2c-0.1,9.7-4.6,16.3-13.3,19.8l16,31.6h-12.4
			L717.6,45h-13.4v30.5h-10.5V4.1z M704.2,35.4h15.9c3.9-0.1,6.9-1.2,8.8-3.5c1.9-2.1,2.9-4.7,2.9-7.8c-0.1-3.7-1.2-6.4-3.5-8.1
			c-1.8-1.5-4.3-2.2-7.7-2.2h-16.4V35.4z"/>
		<path class="st0" d="M755.2,58.1c5.5,4.7,12,7,19.6,7.1c9-0.1,13.5-3.4,13.7-9.9c0.1-5.3-2.9-8.5-9-9.6c-2.8-0.4-5.8-0.8-9.1-1.3
			c-5.9-1-10.5-3.3-13.5-6.8c-3.2-3.6-4.8-8-4.8-13.2c0-6.2,2-11.3,6-15.1c3.9-3.8,9.4-5.7,16.5-5.8c8.6,0.2,16,2.7,22.4,7.4
			l-5.8,8.9c-5.2-3.5-10.9-5.4-17.1-5.5c-3.2,0-5.9,0.8-8.1,2.5c-2.2,1.7-3.4,4.3-3.5,7.7c0,2.1,0.8,3.9,2.3,5.6
			c1.5,1.7,4,2.9,7.4,3.5c1.9,0.3,4.5,0.7,7.8,1.1c6.5,0.9,11.3,3.3,14.4,7.2c3.1,3.8,4.6,8.3,4.6,13.3
			c-0.3,13.6-8.4,20.6-24.2,20.7c-10.2,0-19-3.2-26.4-9.7L755.2,58.1z"/>
	</g>
	<g>
		<rect x="198.2" y="4.8" class="st0" width="3" height="70.4"/>
	</g>
</g>
</svg>
