<svg id="Layer_1" data-name="Layer 1" xmlns="http://www.w3.org/2000/svg" viewBox="0 0 483.9 77.62"><defs><style>.cls-1{fill:#fff;}</style></defs><title>transbank_logo</title><path class="cls-1" d="M6.09,28.91A6.14,6.14,0,1,0,0,22.77,6.12,6.12,0,0,0,6.09,28.91Z"/><path class="cls-1" d="M477.79,77a6.14,6.14,0,1,0-6.08-6.13A6.12,6.12,0,0,0,477.79,77Z"/><path class="cls-1" d="M189.25,39.83v0c0-6.85-2.39-12.61-6.69-16.51l-.31-.27-.09-.07h0c-4-3.48-9.53-5.31-16.05-5.38h-1.58c-6.52.08-12,1.91-16,5.38l-.39.34c-4.27,3.88-6.65,9.64-6.69,16.43h0v0l0,35.23a1.66,1.66,0,0,0,.56,1.25,1.89,1.89,0,0,0,1.33.53h6.26a1.93,1.93,0,0,0,1.35-.53,1.68,1.68,0,0,0,.55-1.25V41c0-5,1.3-8.53,3.6-10.85s5.64-3.54,10.32-3.64c4.65.09,8,1.36,10.26,3.64S179.19,36,179.23,41V75a1.75,1.75,0,0,0,.55,1.25,1.93,1.93,0,0,0,1.35.53h6.27a1.93,1.93,0,0,0,1.32-.53,1.67,1.67,0,0,0,.57-1.25Z"/><path class="cls-1" d="M407.83,39.83v0c0-6.85-2.39-12.61-6.7-16.51l-.32-.27-.07-.07c-4.06-3.48-9.55-5.31-16.06-5.38h-1.24a.84.84,0,0,0-.2,0h-.18c-6.5.08-12,1.91-16,5.38h0l-.36.34c-4.29,3.88-6.66,9.64-6.69,16.43l0,0,0,35.23a1.65,1.65,0,0,0,.55,1.25,1.91,1.91,0,0,0,1.33.53h6.27a1.91,1.91,0,0,0,1.34-.53A1.66,1.66,0,0,0,370,75l0-34c0-5,1.31-8.53,3.61-10.85s5.62-3.54,10.3-3.64c4.66.09,8.05,1.36,10.27,3.64S397.76,36,397.81,41V75a1.73,1.73,0,0,0,.53,1.25,2,2,0,0,0,1.35.53H406a2,2,0,0,0,1.34-.53,1.66,1.66,0,0,0,.54-1.25Z"/><path class="cls-1" d="M290.61,47.34v.13h0v.12c0,5.62-.6,11.1-2.73,15s-5.48,6.28-12,6.4h-.35c-6.6-.07-10-2.6-12.12-6.4s-2.75-9.47-2.75-15.1v-.34c0-5.6.6-10.11,2.75-14s5.52-6.34,12.12-6.4h.26c6.58.06,10,2.57,12.13,6.4s2.73,8.42,2.73,14Zm1.87-23.74-.11-.13c-3.58-3.28-9.29-5.33-15.9-5.35h-.36c-5.42,0-10.8,1.12-15.47,5.12V19.73h0V2A1.71,1.71,0,0,0,260.1.74a1.88,1.88,0,0,0-1.33-.53h-6.18a1.9,1.9,0,0,0-1.34.53A1.71,1.71,0,0,0,250.69,2V75.08a1.74,1.74,0,0,0,.55,1.26,2,2,0,0,0,1.34.52h6.18a2,2,0,0,0,1.33-.52,1.74,1.74,0,0,0,.55-1.26V71.43c4.13,4.61,10,6.19,15.46,6.19h.39c6.6,0,12.32-2.06,15.87-5.33,6.64-6.32,8.19-16,8.19-24.95S299,29.86,292.48,23.59Z"/><path class="cls-1" d="M124,55.37c0,4.71-1,7.31-2.43,8.53C118.23,67,114.1,67.45,109,67.46h-.15c-4.85,0-8-.84-9.84-2.16s-2.6-3-2.64-6.06v-.13c0-3,1-4.93,2.69-6.26s4.87-2.28,9.44-2.28H124Zm10.36-18.16v0c0-6-2-11.09-6.14-14.51s-10.21-5.07-18-5.07h-.37c-8.14,0-14.61,1.75-19.53,7v0L90,24.9c-.37.41-.73.83-1.08,1.28,0,0,0,0,0,0l-.47.6a1.61,1.61,0,0,0-.39,1.32,1.9,1.9,0,0,0,.67,1.27l.28.24a2,2,0,0,0,.37.37l1.09.91,2.93,2.53a2,2,0,0,0,1.35.46A1.64,1.64,0,0,0,96,33.32l1.87-2.23h0a11.14,11.14,0,0,1,3.84-2.81c2-.91,4.7-1.33,8.47-1.36h.18c5.43,0,8.8,1.12,10.73,2.81s2.91,4.18,2.93,8.1v3.87H107.92c-6.5,0-11.92,1.48-15.83,4.55A15.84,15.84,0,0,0,86,59.16v.2a16.89,16.89,0,0,0,4.74,11.89c4.12,4.05,9.6,5.54,17.89,5.54h4.27c7.59,0,13-1.87,16.56-5.66s4.87-9.24,4.87-16V37.21Z"/><path class="cls-1" d="M315.06,59.31v-.14c0-3,1-4.92,2.68-6.25s4.88-2.28,9.46-2.28h15.46v4.79c0,4.71-1.06,7.31-2.45,8.53-3.33,3.08-7.47,3.54-12.51,3.55h-.15c-4.87,0-8-.82-9.84-2.13S315.1,62.36,315.06,59.31Zm38-22v0c0-6-2-11.09-6.15-14.52s-10.22-5.06-18-5.06h-.37c-8.15,0-14.61,1.75-19.54,7v0l-.28.33c-.37.41-.72.84-1.08,1.29,0,0,0,0,0,0l-.5.6a1.63,1.63,0,0,0-.39,1.31,2.07,2.07,0,0,0,.68,1.28l.28.24a1.87,1.87,0,0,0,.37.36l1.1.9,2.93,2.53a1.88,1.88,0,0,0,1.33.49,1.72,1.72,0,0,0,1.22-.6l1.87-2.24a11.19,11.19,0,0,1,3.85-2.8c2.05-.91,4.69-1.33,8.49-1.35H329c5.44,0,8.79,1.12,10.73,2.79s2.9,4.18,2.91,8.1a.85.85,0,0,0,0,.18v3.7H326.56c-6.5,0-11.91,1.48-15.83,4.53a15.87,15.87,0,0,0-6.06,12.94v.19a16.81,16.81,0,0,0,4.74,11.88c4.1,4.05,9.59,5.51,17.88,5.51h4.29c7.6,0,13-1.86,16.54-5.63S353,62,353,55.15V37.29Z"/><path class="cls-1" d="M37.74,17.8H27.16V1.85A1.77,1.77,0,0,0,25.33.17H18.94a1.88,1.88,0,0,0-1.28.5,1.62,1.62,0,0,0-.55,1.18V61.77A15.13,15.13,0,0,0,20.9,72.32,14.88,14.88,0,0,0,32,76.71h3.09v0h2.67A1.78,1.78,0,0,0,39,76.13a2,2,0,0,0,.5-1.36V68.55A2,2,0,0,0,39,67.2a1.74,1.74,0,0,0-1.26-.56H32.83a8.13,8.13,0,0,1-2.49-.4,3.86,3.86,0,0,1-1-.49,4.62,4.62,0,0,1-.73-.57c-.95-1-1.47-2.57-1.48-4.91V27.83H37.74A1.81,1.81,0,0,0,39,27.28a2,2,0,0,0,.5-1.35V19.7a2,2,0,0,0-.5-1.35A1.74,1.74,0,0,0,37.74,17.8Z"/><path class="cls-1" d="M83.43,25.14l-.57-.65a.51.51,0,0,0-.16-.21l-.35-.38h0l-.49-.5-.41-.45,0,0a17.17,17.17,0,0,0-12.88-5.39h-.36A13.23,13.23,0,0,0,58.41,22l-1.66,2V19.57a1.68,1.68,0,0,0-.55-1.25,1.92,1.92,0,0,0-1.32-.52H48.69a2,2,0,0,0-1.33.52,1.7,1.7,0,0,0-.55,1.25V75a1.71,1.71,0,0,0,.55,1.25,1.94,1.94,0,0,0,1.33.53h6.18a1.91,1.91,0,0,0,1.32-.53A1.66,1.66,0,0,0,56.74,75V74s0,0,0,0V41.12s0-.09,0-.13V38.33a14.08,14.08,0,0,1,2.76-7.81A9.35,9.35,0,0,1,67.08,27a10.18,10.18,0,0,1,4,.63,11.13,11.13,0,0,1,3.28,2.52l.29.3L76,31.94a1.77,1.77,0,0,0,1.27.56A1.89,1.89,0,0,0,78.57,32l4.64-4.2a1.93,1.93,0,0,0,.64-1.31A1.68,1.68,0,0,0,83.43,25.14Z"/><path class="cls-1" d="M239,46.46l-.07,0h0c-3.62-2.52-8.17-3.39-13.09-3.81l-9.22-.78c-3.84-.33-6.22-1.12-7.59-2.2a5.44,5.44,0,0,1-1.92-4.55v-.17A6.79,6.79,0,0,1,210,29.09c1.93-1.39,5-2.27,9.39-2.27h0a25.3,25.3,0,0,1,14,3.78h0l2.33,1.64a1.68,1.68,0,0,0,1.32.26,2,2,0,0,0,1.16-.8l3.45-5a1.89,1.89,0,0,0,.06-2.11,2.23,2.23,0,0,0-.55-.63l-.4-.26c-5.5-3.93-13.15-6.12-21.42-6.13-6.61,0-12.25,1.58-16.35,4.63a15.5,15.5,0,0,0-6.45,12.68v.25a14.14,14.14,0,0,0,5.05,11.31c3.41,2.8,8.2,4.27,14.25,4.76l9.47.77c3.48.32,5.65,1.1,6.92,2.16,1.13.9,1.82,2.33,1.84,4.63v.13h0a6.93,6.93,0,0,1-3.35,6.26c-2.32,1.48-6.1,2.38-11.37,2.38h-.17c-6.92,0-11.86-1.58-15.7-4.76l-2-1.69a1.75,1.75,0,0,0-1.32-.38,2.06,2.06,0,0,0-1.25.69l-4,4.8a2,2,0,0,0-.45,1.38,1.67,1.67,0,0,0,.6,1.23l1.88,1.6h0a.3.3,0,0,1,.09.09l.25.2,0,0c5.83,4.23,13.09,6.25,22,6.25h.16c7.34,0,13.53-1.6,18.05-4.72a15.92,15.92,0,0,0,7.12-13.3v-.27C244.67,53.09,242.55,48.93,239,46.46Z"/><path class="cls-1" d="M466.44,74.31,458.7,63.4,443.21,40.78l12-12.77,7-7.41.43-.47a1.33,1.33,0,0,0,.06-2,1.9,1.9,0,0,0-1.34-.53h-8a2.57,2.57,0,0,0-1.47.67h0l-27,28.81V1.79a1.69,1.69,0,0,0-.56-1.25A1.89,1.89,0,0,0,423,0h-6.17a1.91,1.91,0,0,0-1.33.53,1.7,1.7,0,0,0-.57,1.25V75a1.72,1.72,0,0,0,.57,1.27,2,2,0,0,0,1.33.53H423a2,2,0,0,0,1.32-.53,1.66,1.66,0,0,0,.56-1.27V60.23l11.7-12.69,7.89,11.79h0l11.07,16.54a1.77,1.77,0,0,0,1.58,1h8a2,2,0,0,0,1.35-.53A1.5,1.5,0,0,0,466.44,74.31Z"/><path class="cls-1" d="M397.22.93h1.09l1.62,4.77L401.56.93h1.07V6.57h-.73V3.24c0-.12,0-.3,0-.58s0-.54,0-.86L400.3,6.57h-.76l-1.62-4.76v.8c0,.29,0,.49,0,.63V6.57h-.72Z"/><path class="cls-1" d="M408.38,3.51a1.51,1.51,0,0,0,.83-.21.94.94,0,0,0,.3-.78.83.83,0,0,0-.43-.83,1.53,1.53,0,0,0-.61-.12h-1.82V3.51ZM405.89.93h2.58a2.29,2.29,0,0,1,1,.19,1.31,1.31,0,0,1,.78,1.32,1.44,1.44,0,0,1-.21.83,1.57,1.57,0,0,1-.6.52,1.19,1.19,0,0,1,.51.36,1.23,1.23,0,0,1,.17.71l0,.75a2.58,2.58,0,0,0,.05.49.5.5,0,0,0,.26.33v.13h-.93a1,1,0,0,1-.07-.18,2.9,2.9,0,0,1,0-.45l0-.94a.82.82,0,0,0-.41-.75,1.82,1.82,0,0,0-.67-.09h-1.69V6.57h-.76Z"/><path class="cls-1" d="M404.3,6.54a.38.38,0,0,1-.37-.42.38.38,0,0,1,.39-.41.38.38,0,0,1,.38.41A.38.38,0,0,1,404.3,6.54Z"/><path class="cls-1" d="M412,6.54a.41.41,0,0,1,0-.83.38.38,0,0,1,.39.41.38.38,0,0,1-.39.42Z"/></svg>