<?xml version="1.0" encoding="utf-8"?>
<!-- Generator: Adobe Illustrator 21.0.2, SVG Export Plug-In . SVG Version: 6.00 Build 0)  -->
<svg version="1.1" id="Layer_1" xmlns="http://www.w3.org/2000/svg" xmlns:xlink="http://www.w3.org/1999/xlink" x="0px" y="0px"
	 viewBox="0 0 245.5 568.7" style="enable-background:new 0 0 245.5 568.7;" xml:space="preserve">
<style type="text/css">
	.st0{fill:#BC0033;}
	.st1{fill:#765CA0;}
	.st2{fill:#383838;}
</style>
<title>tubes_central</title>
<rect x="5" y="123.1" class="st0" width="233" height="10"/>
<rect y="424.6" class="st1" width="245.5" height="10"/>
<rect x="235.5" y="310.6" width="10" height="248.2"/>
<rect y="159.2" class="st2" width="9.9" height="383.3"/>
<rect y="9.7" class="st0" width="9.9" height="149.5"/>
<rect x="235.5" y="26.1" class="st0" width="9.9" height="284.4"/>
<path class="st2" d="M245.5,558.7c-36.7,0.1-204.3,0.2-209.6,0C14.6,558,10.6,547.6,9.9,543v-0.5H0c0,0,0,0.1,0,0.1
	c0.2,2.4,0.7,4.7,1.6,6.9c2.9,7.6,11.1,18.3,33.9,19c5.5,0.2,173.2,0.1,210,0L245.5,558.7z"/>
<path class="st0" d="M0,10c36.7-0.1,204.3-0.2,209.6,0c21.3,0.7,25.2,11.2,25.9,15.8v0.5h9.9c0,0,0-0.1,0-0.1
	c-0.2-2.4-0.7-4.7-1.6-6.9c-2.9-7.7-11.1-18.3-33.9-19.1C204.4-0.1,36.8,0,0,0.1V10z"/>
</svg>
