<svg id="Layer_1" data-name="Layer 1" xmlns="http://www.w3.org/2000/svg" viewBox="0 0 721.77 1180.78"><defs><style>.cls-1{fill:#f4f4f4;}</style></defs><title>tubes_bg_2</title><circle class="cls-1" cx="168.86" cy="72.62" r="3.59"/><path class="cls-1" d="M188.94,36.19h39.9a1.73,1.73,0,0,0,0-3.47h-39.9a1.73,1.73,0,1,0,0,3.47Z"/><path class="cls-1" d="M41.48,70.89a1.73,1.73,0,0,0,0-3.47H18.92a1.73,1.73,0,0,0,0,3.47Z"/><path class="cls-1" d="M632.25,183.29h39.9a1.73,1.73,0,0,0,0-3.47h-39.9a1.73,1.73,0,0,0,0,3.47Z"/><path class="cls-1" d="M548.76,230.88a1.73,1.73,0,0,0,1.73,1.73h39.9a1.73,1.73,0,0,0,0-3.47H550.5A1.73,1.73,0,0,0,548.76,230.88Z"/><path class="cls-1" d="M704.73,277.5c-6.11-.41-11.9-3.74-11.9-20.48V206.1a3.43,3.43,0,0,0,0-.53c-.73-4.7-5.38-13.56-17.77-13.44-7.39.07-45.49,0-52,0V105.77c0-.17,0-.34,0-.49V21.07c0-6.75-2-12.07-6.09-15.83A20.89,20.89,0,0,0,601.62,0c-2.91.21-17.49,2.4-18.25,25-.22,6.5.13,61.18.14,63.51,0,.11,0,.27,0,.38a6.24,6.24,0,0,1-1.3,4.33c-1.17,1.3-3.22,2-6.09,2a3.16,3.16,0,0,1-2.51-.94c-1.61-1.67-1.87-5.24-1.83-6.35q0-.1,0-.19c0-.24-.33-23.7,0-30.69a10.77,10.77,0,0,0-3.11-8.6C564.85,44.78,559,44.92,557.8,45H513.35c-3,0-345.55.12-353.35,0-12.39-.13-17,8.74-17.77,13.44a3.42,3.42,0,0,0,0,.53v50.92c0,18.09-6.77,20.53-13.39,20.53-12.61,0-13.59-13.72-13.59-17.93V28.31c0-6.75-2-12.07-6.09-15.83A20.89,20.89,0,0,0,93.85,7.29c-2.91.21-17.49,2.4-18.25,25-.22,6.5.13,61.18.14,63.51,0,.11,0,.27,0,.38a6.24,6.24,0,0,1-1.3,4.33c-1.17,1.3-3.22,2-6.09,2a3.15,3.15,0,0,1-2.51-.94C64.25,99.89,64,96.32,64,95.21q0-.1,0-.19c0-.24-.33-23.7,0-30.69a10.77,10.77,0,0,0-3.11-8.6C57.08,52,51.24,52.16,50,52.24H0v6.94H50.41c1-.07,4.17.07,5.69,1.56.27.27,1.1,1.07,1,3.28-.33,7.06,0,29.24,0,31,0,1.12,0,7.38,3.76,11.32a10.15,10.15,0,0,0,7.52,3.08c5,0,8.79-1.46,11.34-4.35a13,13,0,0,0,3-9.47c0-3.4-.35-56.87-.15-63.06.55-16.27,9.18-18.15,11.82-18.34.61,0,6.09-.32,10,3.35,2.57,2.39,3.88,6,3.88,10.75v84.21c0,11.47,5.38,24.87,20.53,24.87,13.49,0,20.33-9.24,20.33-27.47V59.34c.32-1.42,2.16-7.36,10.64-7.36h.17c7.28.07,303.24,0,347.83,0h50.41c1-.07,4.17.07,5.69,1.56.27.27,1.1,1.07,1,3.28-.33,7.06,0,29.24,0,31,0,1.12,0,7.38,3.76,11.32a10.15,10.15,0,0,0,7.52,3.08c5,0,8.79-1.46,11.34-4.35a13,13,0,0,0,3-9.47c0-3.4-.35-56.87-.15-63.06C590.85,9,599.48,7.16,602.12,7c.61,0,6.09-.32,10,3.35,2.57,2.39,3.88,6,3.88,10.75V53.52h-.1v177.2c-.49,3.21-3.25,10.59-18.26,11.1-5,.17-576.39,0-591.66-.11v6.94c15.37.09,586.69.28,591.9.1,16.08-.55,21.84-8.06,23.9-13.41a17.31,17.31,0,0,0,1.13-4.84c0-.42,0-.86,0-1.31V199c6.55,0,44.67.11,52.09,0h.17c8.49,0,10.33,5.94,10.64,7.36V257c0,17.48,6.3,26.69,18.71,27.42h17.17V277.5Z"/><path class="cls-1" d="M549.24,60.18H526.69a1.73,1.73,0,1,0,0,3.47h22.55a1.73,1.73,0,0,0,0-3.47Z"/><circle class="cls-1" cx="168.86" cy="371.24" r="3.59"/><path class="cls-1" d="M188.94,334.81h39.9a1.73,1.73,0,0,0,0-3.47h-39.9a1.73,1.73,0,0,0,0,3.47Z"/><path class="cls-1" d="M41.48,369.5a1.73,1.73,0,0,0,0-3.47H18.92a1.73,1.73,0,0,0,0,3.47Z"/><path class="cls-1" d="M632.25,481.9h39.9a1.73,1.73,0,0,0,0-3.47h-39.9a1.73,1.73,0,0,0,0,3.47Z"/><path class="cls-1" d="M548.76,529.5a1.73,1.73,0,0,0,1.73,1.73h39.9a1.73,1.73,0,0,0,0-3.47H550.5A1.73,1.73,0,0,0,548.76,529.5Z"/><path class="cls-1" d="M704.73,576.11c-6.11-.41-11.9-3.74-11.9-20.48V504.71a3.43,3.43,0,0,0,0-.53c-.73-4.7-5.38-13.56-17.77-13.44-7.39.07-45.49,0-52,0V404.38c0-.17,0-.34,0-.49V319.69c0-6.75-2-12.07-6.09-15.83a20.89,20.89,0,0,0-15.27-5.19c-2.91.21-17.49,2.4-18.25,25-.22,6.5.13,61.18.14,63.51,0,.11,0,.27,0,.38a6.24,6.24,0,0,1-1.3,4.33c-1.17,1.3-3.22,2-6.09,2a3.16,3.16,0,0,1-2.51-.94c-1.61-1.67-1.87-5.24-1.83-6.35q0-.1,0-.19c0-.24-.33-23.7,0-30.69a10.77,10.77,0,0,0-3.11-8.6c-3.83-3.71-9.67-3.57-10.88-3.49H513.35c-3,0-345.55.12-353.35,0-12.39-.13-17,8.74-17.77,13.44a3.42,3.42,0,0,0,0,.53v50.92c0,18.09-6.77,20.53-13.39,20.53-12.61,0-13.59-13.72-13.59-17.93V326.93c0-6.75-2-12.07-6.09-15.83a20.89,20.89,0,0,0-15.27-5.19c-2.91.21-17.49,2.4-18.25,25-.22,6.5.13,61.18.14,63.51,0,.11,0,.27,0,.38a6.24,6.24,0,0,1-1.3,4.33c-1.17,1.3-3.22,2-6.09,2a3.15,3.15,0,0,1-2.51-.94c-1.61-1.67-1.87-5.24-1.83-6.35q0-.1,0-.19c0-.24-.33-23.7,0-30.69a10.77,10.77,0,0,0-3.11-8.6c-3.83-3.71-9.67-3.57-10.88-3.49H0v6.94H50.41c1-.07,4.17.07,5.69,1.56.27.27,1.1,1.07,1,3.28-.33,7.06,0,29.24,0,31,0,1.12,0,7.38,3.76,11.32A10.15,10.15,0,0,0,68.37,408c5,0,8.79-1.46,11.34-4.35a13,13,0,0,0,3-9.47c0-3.4-.35-56.87-.15-63.06.55-16.27,9.18-18.15,11.82-18.34.61,0,6.09-.32,10,3.35,2.57,2.39,3.88,6,3.88,10.75v84.21c0,11.47,5.38,24.87,20.53,24.87,13.49,0,20.33-9.24,20.33-27.47V358c.32-1.42,2.16-7.36,10.64-7.36h.17c7.28.07,303.24,0,347.83,0h50.41c1-.07,4.17.07,5.69,1.56.27.27,1.1,1.07,1,3.28-.33,7.06,0,29.24,0,31,0,1.12,0,7.38,3.76,11.32a10.15,10.15,0,0,0,7.52,3.08c5,0,8.79-1.46,11.34-4.35a13,13,0,0,0,3-9.47c0-3.4-.35-56.87-.15-63.06.55-16.27,9.18-18.15,11.82-18.34.61,0,6.09-.32,10,3.35,2.57,2.39,3.88,6,3.88,10.75v32.44h-.1v177.2c-.49,3.21-3.25,10.59-18.26,11.1-5,.17-576.39,0-591.66-.11v6.94c15.37.09,586.69.28,591.9.1,16.08-.55,21.84-8.06,23.9-13.41a17.31,17.31,0,0,0,1.13-4.84c0-.42,0-.86,0-1.31V497.64c6.55,0,44.67.11,52.09,0h.17c8.49,0,10.33,5.94,10.64,7.36v50.58c0,17.48,6.3,26.69,18.71,27.42h17.17v-6.94Z"/><path class="cls-1" d="M549.24,358.79H526.69a1.73,1.73,0,1,0,0,3.47h22.55a1.73,1.73,0,0,0,0-3.47Z"/><circle class="cls-1" cx="168.86" cy="670.24" r="3.59"/><path class="cls-1" d="M188.94,633.8h39.9a1.73,1.73,0,0,0,0-3.47h-39.9a1.73,1.73,0,1,0,0,3.47Z"/><path class="cls-1" d="M41.48,668.5a1.73,1.73,0,0,0,0-3.47H18.92a1.73,1.73,0,0,0,0,3.47Z"/><path class="cls-1" d="M632.25,780.9h39.9a1.73,1.73,0,0,0,0-3.47h-39.9a1.73,1.73,0,0,0,0,3.47Z"/><path class="cls-1" d="M548.76,828.5a1.73,1.73,0,0,0,1.73,1.73h39.9a1.73,1.73,0,0,0,0-3.47H550.5A1.73,1.73,0,0,0,548.76,828.5Z"/><path class="cls-1" d="M704.73,875.11c-6.11-.41-11.9-3.74-11.9-20.48V803.71a3.43,3.43,0,0,0,0-.53c-.73-4.7-5.38-13.56-17.77-13.44-7.39.07-45.49,0-52,0V703.38c0-.17,0-.34,0-.49V618.69c0-6.75-2-12.07-6.09-15.83a20.89,20.89,0,0,0-15.27-5.19c-2.91.21-17.49,2.4-18.25,25-.22,6.5.13,61.18.14,63.51,0,.11,0,.27,0,.38a6.24,6.24,0,0,1-1.3,4.33c-1.17,1.3-3.22,2-6.09,2a3.16,3.16,0,0,1-2.51-.94c-1.61-1.67-1.87-5.24-1.83-6.35q0-.1,0-.19c0-.24-.33-23.7,0-30.69a10.77,10.77,0,0,0-3.11-8.6c-3.83-3.71-9.67-3.57-10.88-3.49H513.35c-3,0-345.55.12-353.35,0-12.39-.13-17,8.74-17.77,13.44a3.42,3.42,0,0,0,0,.53v50.92c0,18.09-6.77,20.53-13.39,20.53-12.61,0-13.59-13.72-13.59-17.93V625.92c0-6.75-2-12.07-6.09-15.83a20.89,20.89,0,0,0-15.27-5.19c-2.91.21-17.49,2.4-18.25,25-.22,6.5.13,61.18.14,63.51,0,.11,0,.27,0,.38a6.24,6.24,0,0,1-1.3,4.33c-1.17,1.3-3.22,2-6.09,2a3.15,3.15,0,0,1-2.51-.94c-1.61-1.67-1.87-5.24-1.83-6.35q0-.1,0-.19c0-.24-.33-23.7,0-30.69a10.77,10.77,0,0,0-3.11-8.6c-3.83-3.71-9.67-3.57-10.88-3.49H0v6.94H50.41c1-.07,4.17.07,5.69,1.56.27.27,1.1,1.07,1,3.28-.33,7.06,0,29.24,0,31,0,1.12,0,7.38,3.76,11.32A10.15,10.15,0,0,0,68.37,707c5,0,8.79-1.46,11.34-4.35a13,13,0,0,0,3-9.47c0-3.4-.35-56.87-.15-63.06.55-16.27,9.18-18.15,11.82-18.34.61,0,6.09-.32,10,3.35,2.57,2.39,3.88,6,3.88,10.75v84.21c0,11.47,5.38,24.87,20.53,24.87,13.49,0,20.33-9.24,20.33-27.47V656.95c.32-1.42,2.16-7.36,10.64-7.36h.17c7.28.07,303.24,0,347.83,0h50.41c1-.07,4.17.07,5.69,1.56.27.27,1.1,1.07,1,3.28-.33,7.06,0,29.24,0,31,0,1.12,0,7.38,3.76,11.32a10.15,10.15,0,0,0,7.52,3.08c5,0,8.79-1.46,11.34-4.35a13,13,0,0,0,3-9.47c0-3.4-.35-56.87-.15-63.06.55-16.27,9.18-18.15,11.82-18.34.61,0,6.09-.32,10,3.35,2.57,2.39,3.88,6,3.88,10.75v32.44h-.1v177.2c-.49,3.21-3.25,10.59-18.26,11.1-5,.17-576.39,0-591.66-.11v6.94c15.37.09,586.69.28,591.9.1,16.08-.55,21.84-8.06,23.9-13.41a17.31,17.31,0,0,0,1.13-4.84c0-.42,0-.86,0-1.31V796.64c6.55,0,44.67.11,52.09,0h.17c8.49,0,10.33,5.94,10.64,7.36v50.58c0,17.48,6.3,26.69,18.71,27.42h17.17v-6.94Z"/><path class="cls-1" d="M549.24,657.79H526.69a1.73,1.73,0,1,0,0,3.47h22.55a1.73,1.73,0,0,0,0-3.47Z"/><circle class="cls-1" cx="168.86" cy="968.96" r="3.59"/><path class="cls-1" d="M188.94,932.53h39.9a1.73,1.73,0,0,0,0-3.47h-39.9a1.73,1.73,0,1,0,0,3.47Z"/><path class="cls-1" d="M41.48,967.22a1.73,1.73,0,0,0,0-3.47H18.92a1.73,1.73,0,0,0,0,3.47Z"/><path class="cls-1" d="M632.25,1079.63h39.9a1.73,1.73,0,1,0,0-3.47h-39.9a1.73,1.73,0,0,0,0,3.47Z"/><path class="cls-1" d="M548.76,1127.22a1.73,1.73,0,0,0,1.73,1.73h39.9a1.73,1.73,0,1,0,0-3.47H550.5A1.73,1.73,0,0,0,548.76,1127.22Z"/><path class="cls-1" d="M704.73,1173.84c-6.11-.41-11.9-3.74-11.9-20.48v-50.92a3.43,3.43,0,0,0,0-.53c-.73-4.7-5.38-13.56-17.77-13.44-7.39.07-45.49,0-52,0v-86.31c0-.17,0-.34,0-.49V917.41c0-6.75-2-12.07-6.09-15.83a20.89,20.89,0,0,0-15.27-5.19c-2.91.21-17.49,2.4-18.25,25-.22,6.5.13,61.18.14,63.51,0,.11,0,.27,0,.38a6.24,6.24,0,0,1-1.3,4.33c-1.17,1.3-3.22,2-6.09,2a3.16,3.16,0,0,1-2.51-.94c-1.61-1.67-1.87-5.24-1.83-6.35q0-.1,0-.19c0-.24-.33-23.7,0-30.69a10.77,10.77,0,0,0-3.11-8.6c-3.83-3.71-9.67-3.57-10.88-3.49H513.35c-3,0-345.55.12-353.35,0-12.39-.13-17,8.74-17.77,13.44a3.42,3.42,0,0,0,0,.53v50.92c0,18.09-6.77,20.53-13.39,20.53-12.61,0-13.59-13.72-13.59-17.93V924.65c0-6.75-2-12.07-6.09-15.83a20.89,20.89,0,0,0-15.27-5.19c-2.91.21-17.49,2.4-18.25,25-.22,6.5.13,61.18.14,63.51,0,.11,0,.27,0,.38a6.24,6.24,0,0,1-1.3,4.33c-1.17,1.3-3.22,2-6.09,2a3.15,3.15,0,0,1-2.51-.94c-1.61-1.67-1.87-5.24-1.83-6.35q0-.1,0-.19c0-.24-.33-23.7,0-30.69a10.77,10.77,0,0,0-3.11-8.6c-3.83-3.71-9.67-3.57-10.88-3.49H0v6.94H50.41c1-.07,4.17.07,5.69,1.56.27.27,1.1,1.07,1,3.28-.33,7.06,0,29.24,0,31,0,1.12,0,7.38,3.76,11.32a10.15,10.15,0,0,0,7.52,3.08c5,0,8.79-1.46,11.34-4.35a13,13,0,0,0,3-9.47c0-3.4-.35-56.87-.15-63.06.55-16.27,9.18-18.15,11.82-18.34.61,0,6.09-.32,10,3.35,2.57,2.39,3.88,6,3.88,10.75v84.21c0,11.47,5.38,24.87,20.53,24.87,13.49,0,20.33-9.24,20.33-27.47V955.67c.32-1.42,2.16-7.36,10.64-7.36h.17c7.28.07,303.24,0,347.83,0h50.41c1-.07,4.17.07,5.69,1.56.27.27,1.1,1.07,1,3.28-.33,7.06,0,29.24,0,31,0,1.12,0,7.38,3.76,11.32a10.15,10.15,0,0,0,7.52,3.08c5,0,8.79-1.46,11.34-4.35a13,13,0,0,0,3-9.47c0-3.4-.35-56.87-.15-63.06.55-16.27,9.18-18.15,11.82-18.34.61,0,6.09-.32,10,3.35,2.57,2.39,3.88,6,3.88,10.75v32.44h-.1v177.2c-.49,3.21-3.25,10.59-18.26,11.1-5,.17-576.39,0-591.66-.11V1145c15.37.09,586.69.28,591.9.1,16.08-.55,21.84-8.06,23.9-13.41a17.31,17.31,0,0,0,1.13-4.84c0-.42,0-.86,0-1.31v-30.16c6.55,0,44.67.11,52.09,0h.17c8.49,0,10.33,5.94,10.64,7.36v50.58c0,17.48,6.3,26.69,18.71,27.42h17.17v-6.94Z"/><path class="cls-1" d="M549.24,956.52H526.69a1.73,1.73,0,1,0,0,3.47h22.55a1.73,1.73,0,0,0,0-3.47Z"/></svg>