<svg id="Layer_1" data-name="Layer 1" xmlns="http://www.w3.org/2000/svg" viewBox="0 0 1024.19 403.62"><defs><style>.cls-1{fill:#f4f4f4;}</style></defs><title>tubes_bg</title><circle class="cls-1" cx="239.61" cy="103.05" r="5.1"/><path class="cls-1" d="M182.76,195c-21.5,0-29.13-19-29.13-35.28V40.17c0-6.73-1.85-11.86-5.5-15.26-5.6-5.21-13.38-4.82-14.25-4.76-3.74.27-16,2.94-16.77,26-.3,8.78.18,84.65.21,89.48a18.48,18.48,0,0,1-4.22,13.44c-3.61,4.1-9,6.17-16.08,6.17a14.4,14.4,0,0,1-10.67-4.37C81,145.32,81,136.44,81,134.85c0-2.54-.46-34,0-44,.15-3.13-1-4.27-1.41-4.65-2.16-2.11-6.67-2.32-8.07-2.21H0V74.13H71c1.71-.11,10-.31,15.44,5,2.18,2.1,4.71,5.93,4.42,12.2-.46,9.92,0,43.22,0,43.55q0,.14,0,.27c-.05,1.57.32,6.65,2.6,9A4.48,4.48,0,0,0,97,145.44c4.07,0,7-.94,8.65-2.78,2.21-2.45,1.85-6.11,1.85-6.15s0-.38,0-.54c0-3.3-.52-80.89-.2-90.11,1.09-32.11,21.77-35.22,25.9-35.51,6.18-.45,15.1,1.26,21.66,7.37,5.73,5.34,8.64,12.9,8.64,22.47v119.5c0,6,1.39,25.44,19.28,25.44,9.4,0,19-3.46,19-29.13V83.72a4.85,4.85,0,0,1,.06-.75c1-6.67,7.63-19.24,25.22-19.07,11.08.1,497.2-.07,501.4-.07v9.85c-4.21,0-490.37.17-501.5.07h-.24c-12,0-14.65,8.43-15.1,10.45V156C211.61,181.84,201.9,195,182.76,195Z"/><path class="cls-1" d="M324.72,51.35H268.1a2.46,2.46,0,1,1,0-4.92h56.62a2.46,2.46,0,0,1,0,4.92Z"/><path class="cls-1" d="M58.86,100.59h-32a2.46,2.46,0,1,1,0-4.92h32a2.46,2.46,0,1,1,0,4.92Z"/><path class="cls-1" d="M897.15,260.08h56.62a2.46,2.46,0,1,0,0-4.92H897.15a2.46,2.46,0,0,0,0,4.92Z"/><path class="cls-1" d="M781.15,330.08h56.62a2.46,2.46,0,1,0,0-4.92H781.15a2.46,2.46,0,0,0,0,4.92Z"/><path class="cls-1" d="M1024.19,393.77H1000c-8.67-.58-16.89-5.31-16.89-29.06V292.45a4.86,4.86,0,0,0-.06-.75c-1-6.67-7.63-19.24-25.22-19.07-11.08.1-70.75-.07-75-.07v9.85c4.21,0,63.93.17,75.05.07h.24c12,0,14.65,8.43,15.1,10.45V364.7c0,24.81,8.94,37.88,26.55,38.9h24.37Z"/><path class="cls-1" d="M884,29.9c0-9.57-2.91-17.13-8.64-22.47C868.79,1.33,859.87-.38,853.69.07c-4.13.3-24.81,3.41-25.9,35.51-.31,9.22.18,86.82.2,90.11,0,.16,0,.38,0,.54s.36,3.7-1.85,6.15c-1.66,1.85-4.57,2.78-8.65,2.78a4.48,4.48,0,0,1-3.56-1.33c-2.29-2.36-2.65-7.44-2.6-9q0-.14,0-.27c0-.33-.47-33.63,0-43.55.29-6.27-2.24-10.09-4.42-12.2-5.44-5.26-13.72-5.06-15.44-5h-71V73.7H792c1.41-.1,5.91.1,8.07,2.21.39.38,1.56,1.52,1.41,4.65-.47,10,0,41.49,0,44,0,1.59,0,10.47,5.33,16.06A14.4,14.4,0,0,0,817.53,145c7.07,0,12.48-2.08,16.08-6.17a18.48,18.48,0,0,0,4.22-13.44c0-4.83-.5-80.7-.21-89.48.78-23.09,13-25.76,16.77-26,.87-.06,8.65-.46,14.25,4.76,3.65,3.4,5.5,8.53,5.5,15.26v46H884Z"/><path class="cls-1" d="M779.37,85.39h-32a2.46,2.46,0,1,0,0,4.92h32a2.46,2.46,0,0,0,0-4.92Z"/><path class="cls-1" d="M884,149.4V75.94h-9.85V149.4c0,9.89,2.82,20.77,9.85,27.8V150.09C884,149.84,884,149.61,884,149.4Z"/><path class="cls-1" d="M874.15,149.4V75.94H874V327.39c-.69,4.55-4.62,15-25.91,15.75-7.13.24-817.89,0-839.56-.15v9.85c21.81.13,832.51.39,839.9.14,22.82-.77,31-11.44,33.91-19a24.57,24.57,0,0,0,1.6-6.87c0-.6.06-1.22.06-1.86v-148C877,170.17,874.15,159.29,874.15,149.4Z"/></svg>