<svg id="Layer_1" data-name="Layer 1" xmlns="http://www.w3.org/2000/svg" viewBox="0 0 39.46 28.94"><defs><style>.cls-1{fill:#bc0033;}.cls-2{fill:#fff;}</style></defs><title>up</title><path class="cls-1" d="M16.51,5.89,8.45,15.24S8,22,8.45,22.33s8.06,3.55,9,3.55S29.9,24.59,29.9,24.59l1.29-10.12-4.84-5.2Z"/><path class="cls-2" d="M37.74,16.14a7.78,7.78,0,0,0-4.39-2.78,5,5,0,0,0,.84-2.84A5.07,5.07,0,0,0,32.66,6.8a5.23,5.23,0,0,0-7.13-.27A10.53,10.53,0,0,0,15.78,0,10.14,10.14,0,0,0,8.34,3.08a10.14,10.14,0,0,0-3.08,7.44q0,.27,0,.88A9.19,9.19,0,0,0,0,19.73a8.87,8.87,0,0,0,2.7,6.5,8.87,8.87,0,0,0,6.5,2.7H31.57A7.89,7.89,0,0,0,39.46,21,7.64,7.64,0,0,0,37.74,16.14Zm-11.63-.55a.63.63,0,0,1-.46.19H21V23a.67.67,0,0,1-.66.66H16.44a.67.67,0,0,1-.66-.66V15.78h-4.6a.63.63,0,0,1-.66-.66.77.77,0,0,1,.21-.49l7.21-7.21a.7.7,0,0,1,.95,0l7.23,7.23a.64.64,0,0,1,.18.47A.63.63,0,0,1,26.11,15.59Z"/></svg>