<svg id="Layer_1" data-name="Layer 1" xmlns="http://www.w3.org/2000/svg" viewBox="0 0 104.81 26.38"><defs><style>.cls-1{fill:#e20916;}.cls-2{fill:none;stroke:#fff;stroke-miterlimit:3.86;stroke-width:0.71px;}.cls-3,.cls-4{fill:#fff;}.cls-3,.cls-5,.cls-6{fill-rule:evenodd;}.cls-6{fill:#ff9222;}</style></defs><title>webpay_plus</title><path class="cls-1" d="M85.37,9.67a2.54,2.54,0,0,1,.39-1L94,.55a.67.67,0,0,1,.94,0l9.37,9.31a.66.66,0,0,1,0,.93l-8.2,8.15a2.56,2.56,0,0,1-1,.33H86a.66.66,0,0,1-.66-.66Z"/><path class="cls-2" d="M85.37,9.67a2.54,2.54,0,0,1,.39-1L94,.55a.67.67,0,0,1,.94,0l9.37,9.31a.66.66,0,0,1,0,.93l-8.2,8.15a2.56,2.56,0,0,1-1,.33H86a.66.66,0,0,1-.66-.66Z"/><path class="cls-3" d="M89,10.36a1.37,1.37,0,1,1-1.28,1.37A1.32,1.32,0,0,1,89,10.36Zm-1.21,5V13.5a1.69,1.69,0,0,0,1.33.56,2.26,2.26,0,0,0,2.19-2.35A2.21,2.21,0,0,0,89.15,9.4a1.74,1.74,0,0,0-1.43.66V9.55h-1v5.81Z"/><rect class="cls-4" x="91.59" y="8.1" width="1.05" height="5.82"/><path class="cls-3" d="M95.91,11.79c0,.86-.31,1.32-.91,1.32s-.89-.44-.89-1.32V9.55h-1v2.56a1.77,1.77,0,0,0,.54,1.48,1.87,1.87,0,0,0,1.26.47A1.26,1.26,0,0,0,96,13.48v.44h1V9.55h-1Z"/><path class="cls-3" d="M97.07,12.54a1.72,1.72,0,0,0,.17.71,1.6,1.6,0,0,0,3-.72,1.15,1.15,0,0,0-.41-.93,2.27,2.27,0,0,0-.8-.37l-.3-.1c-.34-.11-.45-.2-.45-.4a.38.38,0,0,1,.4-.37.4.4,0,0,1,.41.38h1a1.45,1.45,0,0,0-2.89,0,1.19,1.19,0,0,0,.39.92,1.79,1.79,0,0,0,.82.41c.58.19.74.32.74.57a.45.45,0,0,1-.47.44c-.31,0-.47-.17-.58-.56Z"/><polygon class="cls-5" points="6.88 23 9.49 14.21 12.06 23 14.07 23 19 9.44 15.56 9.44 13.01 17.71 10.81 9.44 8.24 9.44 5.99 17.71 3.5 9.44 0 9.44 4.91 23 6.88 23"/><path class="cls-5" d="M20.14,15.06A3.9,3.9,0,0,1,24,11.88a3.84,3.84,0,0,1,3.79,3.17ZM31,16a7.12,7.12,0,0,0-7-7.13,7.24,7.24,0,0,0-7.13,7.35A7.14,7.14,0,0,0,24,23.46a6.92,6.92,0,0,0,6.51-4.74H26.88a3.33,3.33,0,0,1-3,1.76,3.82,3.82,0,0,1-3.61-2.82H30.76A7,7,0,0,0,31,16Z"/><path class="cls-5" d="M37.67,12a4,4,0,0,1,4,4.23c0,2.49-1.63,4.28-3.9,4.28a4.14,4.14,0,0,1-4.09-4.36A4.07,4.07,0,0,1,37.67,12ZM33.57,23V21.37a5.7,5.7,0,0,0,4.55,2.09,6.9,6.9,0,0,0,6.75-7.21A7,7,0,0,0,38.07,9a5.67,5.67,0,0,0-4.23,1.71V4.92H30.59V23Z"/><path class="cls-6" d="M52,11.63a3.89,3.89,0,0,1,3.74,4,3.77,3.77,0,1,1-7.53,0A3.89,3.89,0,0,1,52,11.63ZM48.4,26.38V20.9a5,5,0,0,0,3.94,1.65,6.66,6.66,0,0,0,6.47-6.92A6.54,6.54,0,0,0,52.37,8.8a5.16,5.16,0,0,0-4.23,2V9.24H45.31V26.38Z"/><path class="cls-6" d="M64.74,19.72a3.86,3.86,0,0,1-3.82-4,3.9,3.9,0,0,1,3.82-4.12,3.78,3.78,0,0,1,3.79,4A3.82,3.82,0,0,1,64.74,19.72ZM68.61,9.24v1.62A5.81,5.81,0,0,0,64.28,8.8a6.5,6.5,0,0,0-6.44,6.8c0,4,2.65,7,6.26,7a6.5,6.5,0,0,0,4.51-2v1.57h2.84V9.24Z"/><polygon class="cls-6" points="76.94 26.38 84.36 9.24 80.83 9.24 77.71 17.49 74.8 9.24 71.26 9.24 75.98 20.88 73.61 26.38 76.94 26.38"/></svg>