<svg id="Layer_1" data-name="Layer 1" xmlns="http://www.w3.org/2000/svg" viewBox="0 0 20.5 15.55"><defs><style>.cls-1{fill:#bc0033;}.cls-2{fill:#fff;}</style></defs><title>youtube_logo</title><path class="cls-1" d="M20.29,3.36a5.19,5.19,0,0,0-.81-2.19A2.71,2.71,0,0,0,17.42.25C14.56,0,10.25,0,10.25,0h0S5.94,0,3.08.25A2.86,2.86,0,0,0,1,1.17,4.72,4.72,0,0,0,.21,3.36,35.36,35.36,0,0,0,0,7V8.62a34.22,34.22,0,0,0,.21,3.57A5.19,5.19,0,0,0,1,14.39a3.4,3.4,0,0,0,2.26,1c1.63.18,7,.21,7,.21s4.31,0,7.18-.25a2.86,2.86,0,0,0,2.05-.92,5.19,5.19,0,0,0,.81-2.19,35.13,35.13,0,0,0,.21-3.57V7a35.36,35.36,0,0,0-.21-3.61"/><polygon class="cls-2" points="7.78 4.21 7.78 11.88 14.49 8.13 7.78 4.21"/></svg>